<svg preserveAspectRatio="none" width="100%" height="100%" overflow="visible" style="display: block;" viewBox="0 0 20 24" fill="none" xmlns="http://www.w3.org/2000/svg">
<g id="Book">
<path id="Shape" fill-rule="evenodd" clip-rule="evenodd" d="M20 1.125V16.875C20 17.2266 19.8438 17.5453 19.6027 17.7469C19.4152 18.4688 19.4152 20.5266 19.6027 21.2484C19.8438 21.4547 20 21.7734 20 22.125V22.875C20 23.4984 19.5223 24 18.9286 24H4.28571C1.91964 24 0 21.9844 0 19.5V4.5C0 2.01562 1.91964 0 4.28571 0H18.9286C19.5223 0 20 0.501562 20 1.125ZM6.26786 6C6.12054 6 6 6.16875 6 6.375V7.625C6 7.83125 6.12054 8 6.26786 8H15.7321C15.8795 8 16 7.83125 16 7.625V6.375C16 6.16875 15.8795 6 15.7321 6H6.26786ZM6 10.3748C6 10.1685 6.12054 9.99976 6.26786 9.99976H15.7321C15.8795 9.99976 16 10.1685 16 10.3748V11.6248C16 11.831 15.8795 11.9998 15.7321 11.9998H6.26786C6.12054 11.9998 6 11.831 6 11.6248V10.3748ZM3.40951 22H15.998C15.9142 20.9312 15.9142 19.0688 15.998 18H3.40951C2.63321 18 1.99805 18.9 1.99805 20C1.99805 21.1063 2.6288 22 3.40951 22Z" fill="var(--fill-0, white)"/>
</g>
</svg>
