<svg preserveAspectRatio="none" width="100%" height="100%" overflow="visible" style="display: block;" viewBox="0 0 22.7583 16" fill="none" xmlns="http://www.w3.org/2000/svg">
<path id="Vector" d="M22.2833 2.50417C22.0208 1.51667 21.25 0.741667 20.2708 0.479167C18.4958 0 11.3792 0 11.3792 0C11.3792 0 4.2625 0 2.4875 0.479167C1.50833 0.741667 0.7375 1.51667 0.475 2.50417C0 4.29167 0 8.01667 0 8.01667C0 8.01667 0 11.7417 0.475 13.5292C0.7375 14.5167 1.50833 15.2583 2.4875 15.5208C4.2625 16 11.3792 16 11.3792 16C11.3792 16 18.4958 16 20.2708 15.5208C21.25 15.2583 22.0208 14.5125 22.2833 13.5292C22.7583 11.7417 22.7583 8.01667 22.7583 8.01667C22.7583 8.01667 22.7583 4.29167 22.2833 2.50417ZM9.05417 11.4V4.63333L15 8.01667L9.05417 11.4Z" fill="var(--fill-0, white)"/>
</svg>
