<svg preserveAspectRatio="none" width="100%" height="100%" overflow="visible" style="display: block;" viewBox="0 0 70 23.2" fill="none" xmlns="http://www.w3.org/2000/svg">
<g id="Frame">
<path id="Vector" d="M35 21.2C29.6975 21.2 25.4 16.9025 25.4 11.6C25.4 6.2975 29.6975 2 35 2C40.3025 2 44.6 6.2975 44.6 11.6C44.6 16.9025 40.3025 21.2 35 21.2ZM39.425 7.46375C39.0238 7.17125 38.4613 7.26125 38.1688 7.6625L33.6913 13.82L31.7375 11.8663C31.385 11.5138 30.815 11.5138 30.4663 11.8663C30.1175 12.2188 30.1138 12.7888 30.4663 13.1375L33.1663 15.8375C33.3538 16.025 33.6087 16.1188 33.8712 16.1C34.1337 16.0813 34.3737 15.9463 34.5275 15.7325L39.6237 8.72C39.9162 8.31875 39.8263 7.75625 39.425 7.46375Z" fill="var(--fill-0, #64C4FF)"/>
</g>
</svg>
