<svg preserveAspectRatio="none" width="100%" height="100%" overflow="visible" style="display: block;" viewBox="0 0 21.6 19.2" fill="none" xmlns="http://www.w3.org/2000/svg">
<g id="Vector">
<path d="M19.2367 6.7645C19.232 6.76517 19.2271 6.76396 19.2232 6.76113C19.2193 6.7583 19.2165 6.75405 19.2155 6.74922C18.7405 4.81962 17.6551 3.10833 16.131 1.88599C14.6068 0.663645 12.731 0 10.8 0C8.86903 0 6.99316 0.663645 5.46903 1.88599C3.9449 3.10833 2.8595 4.81962 2.38447 6.74922C2.38345 6.75405 2.3807 6.7583 2.37678 6.76113C2.37286 6.76396 2.36804 6.76517 2.36329 6.7645C1.78941 6.7645 0 6.84092 0 8.40848C0 10.2773 0.211765 11.9017 1.27059 12.8448C1.728 13.2487 2.50094 13.347 3.23365 13.3295C3.69184 13.3144 4.14835 13.2648 4.59953 13.1811C4.60308 13.1808 4.60649 13.1795 4.60936 13.1773C4.61223 13.1751 4.61445 13.1722 4.61577 13.1688C4.6171 13.1653 4.61747 13.1616 4.61684 13.158C4.61622 13.1544 4.61462 13.151 4.61224 13.1483C3.81269 11.9026 3.38696 10.4415 3.38824 8.94775C3.38824 8.92591 3.38824 8.9019 3.38824 8.88006C3.38824 6.85345 4.16912 4.90985 5.55909 3.47682C6.94907 2.04379 8.83428 1.23872 10.8 1.23872C12.7657 1.23872 14.6509 2.04379 16.0409 3.47682C17.4309 4.90985 18.2118 6.85345 18.2118 8.88006C18.2118 8.9019 18.2118 8.92591 18.2118 8.94775C18.213 10.4415 17.7873 11.9026 16.9878 13.1483C16.9854 13.151 16.9838 13.1544 16.9832 13.158C16.9825 13.1616 16.9829 13.1653 16.9842 13.1688C16.9855 13.1722 16.9878 13.1751 16.9906 13.1773C16.9935 13.1795 16.9969 13.1808 17.0005 13.1811C17.4516 13.2648 17.9082 13.3144 18.3664 13.3295C19.0991 13.347 19.872 13.2487 20.3294 12.8448C21.3882 11.9126 21.6 10.2773 21.6 8.40848C21.6 6.84092 19.8106 6.7645 19.2367 6.7645Z" fill="var(--fill-0, white)"/>
<path d="M10.8006 15.2792L5.1677 13.3427C5.16303 13.3408 5.15786 13.3408 5.15314 13.3425C5.14841 13.3442 5.14443 13.3475 5.14189 13.352C5.13935 13.3564 5.13842 13.3617 5.13927 13.3668C5.14012 13.3719 5.14269 13.3765 5.14653 13.3798L10.7858 19.1938C10.7898 19.1978 10.7951 19.2 10.8006 19.2C10.8062 19.2 10.8115 19.1978 10.8155 19.1938L16.4548 13.3798C16.4586 13.3765 16.4612 13.3719 16.462 13.3668C16.4629 13.3617 16.4619 13.3564 16.4594 13.352C16.4569 13.3475 16.4529 13.3442 16.4481 13.3425C16.4434 13.3408 16.4383 13.3408 16.4336 13.3427L10.8006 15.2792Z" fill="var(--fill-0, white)"/>
<path d="M15.8157 9.36235L17.154 8.94753C17.1587 8.94699 17.163 8.94469 17.1662 8.94106C17.1693 8.93743 17.171 8.93274 17.171 8.92788C17.1673 8.41714 17.1054 7.9086 16.9868 7.41271C16.9856 7.40821 16.9831 7.40416 16.9797 7.40105C16.9764 7.39795 16.9722 7.39593 16.9677 7.39525L15.606 7.26862C15.6016 7.26862 15.5973 7.26718 15.5937 7.2645C15.5901 7.26182 15.5874 7.25804 15.586 7.25369C15.5846 7.24934 15.5845 7.24465 15.5858 7.24028C15.5872 7.2359 15.5898 7.23207 15.5933 7.22932L16.6056 6.31673C16.6076 6.31268 16.6087 6.30819 16.6087 6.30363C16.6087 6.29907 16.6076 6.29457 16.6056 6.29053C16.3993 5.81905 16.1398 5.37424 15.8326 4.9653C15.8293 4.96264 15.8252 4.9612 15.821 4.9612C15.8168 4.9612 15.8127 4.96264 15.8093 4.9653L14.5578 5.40195C14.5538 5.40326 14.5496 5.40334 14.5456 5.40217C14.5416 5.401 14.538 5.39863 14.5353 5.39537C14.5325 5.39211 14.5308 5.38809 14.5303 5.38382C14.5298 5.37955 14.5305 5.37523 14.5324 5.37138L15.0766 4.1444C15.0791 4.1405 15.0804 4.13595 15.0804 4.1313C15.0804 4.12665 15.0791 4.1221 15.0766 4.1182C14.7009 3.76764 14.2857 3.46491 13.8399 3.21652C13.8366 3.21387 13.8325 3.21242 13.8283 3.21242C13.8241 3.21242 13.82 3.21387 13.8166 3.21652L12.87 4.1182C12.8671 4.12119 12.8633 4.12322 12.8593 4.12404C12.8552 4.12486 12.851 4.12443 12.8472 4.1228C12.8433 4.12117 12.84 4.11842 12.8377 4.11489C12.8354 4.11135 12.8341 4.10719 12.834 4.10292L12.8531 2.79297C12.8533 2.78816 12.852 2.7834 12.8493 2.77945C12.8466 2.7755 12.8427 2.77258 12.8383 2.77114C12.3581 2.60467 11.8605 2.49695 11.3559 2.4502C11.3513 2.44998 11.3466 2.45136 11.3428 2.45413C11.339 2.45689 11.3362 2.46089 11.3348 2.46549L10.8308 3.675C10.829 3.67869 10.8263 3.68181 10.8229 3.68398C10.8196 3.68616 10.8157 3.68732 10.8117 3.68732C10.8077 3.68732 10.8038 3.68616 10.8004 3.68398C10.7971 3.68181 10.7944 3.67869 10.7926 3.675L10.2908 2.46549C10.2886 2.46112 10.2853 2.45752 10.2811 2.45518C10.2769 2.45284 10.2722 2.45187 10.2675 2.45239C9.76261 2.49874 9.26495 2.60722 8.78511 2.77551C8.78097 2.77745 8.77741 2.78049 8.7748 2.78433C8.77219 2.78817 8.77063 2.79266 8.77028 2.79734L8.78722 4.1182C8.78793 4.12252 8.78722 4.12696 8.7852 4.13082C8.78318 4.13468 8.77997 4.13773 8.77607 4.13948C8.77218 4.14124 8.76782 4.1416 8.76371 4.14052C8.75959 4.13943 8.75594 4.13695 8.75334 4.13348L7.79405 3.2187C7.79027 3.21617 7.78585 3.21482 7.78134 3.21482C7.77683 3.21482 7.77242 3.21617 7.76864 3.2187C7.32347 3.46704 6.90895 3.76978 6.53405 4.12038C6.53159 4.12428 6.53028 4.12883 6.53028 4.13348C6.53028 4.13813 6.53159 4.14268 6.53405 4.14658L7.08252 5.3692C7.08375 5.37324 7.08392 5.37754 7.08301 5.38167C7.0821 5.38581 7.08015 5.38962 7.07736 5.39272C7.07456 5.39582 7.07102 5.39811 7.06709 5.39935C7.06317 5.40058 7.05899 5.40073 7.05499 5.39976L5.80558 4.96312C5.8018 4.96058 5.79738 4.95923 5.79287 4.95923C5.78836 4.95923 5.78395 4.96058 5.78017 4.96312C5.47511 5.37312 5.21782 5.81864 5.01358 6.29053C5.01112 6.29443 5.00981 6.29897 5.00981 6.30363C5.00981 6.30828 5.01112 6.31283 5.01358 6.31673L6.02793 7.2315C6.03075 7.23442 6.03271 7.23809 6.03359 7.2421C6.03447 7.24612 6.03423 7.2503 6.0329 7.25418C6.03157 7.25806 6.02921 7.26147 6.02608 7.26403C6.02295 7.26658 6.01919 7.26817 6.01523 7.26862L4.65993 7.39961C4.65562 7.39986 4.65149 7.40145 4.64808 7.40418C4.64468 7.40691 4.64216 7.41065 4.64087 7.4149C4.51932 7.91043 4.45464 8.41897 4.44817 8.93007C4.44795 8.93488 4.44929 8.93964 4.45197 8.94359C4.45465 8.94753 4.45853 8.95046 4.46299 8.9519L5.80346 9.38418C5.80704 9.38597 5.81006 9.38876 5.81217 9.39224C5.81429 9.39571 5.81541 9.39973 5.81541 9.40383C5.81541 9.40793 5.81429 9.41195 5.81217 9.41543C5.81006 9.4189 5.80704 9.42169 5.80346 9.42348L4.56675 10.1352C4.564 10.143 4.564 10.1515 4.56675 10.1592C4.6583 10.6675 4.80757 11.1628 5.01146 11.6351C5.07922 11.7901 5.15334 11.9408 5.22322 12.0892C5.22736 12.0906 5.2318 12.0906 5.23593 12.0892L10.8011 14.0039L16.379 12.087C16.3817 12.0862 16.3842 12.0848 16.3864 12.0829C16.3886 12.081 16.3904 12.0787 16.3917 12.0761C16.7072 11.4689 16.9294 10.8149 17.0503 10.1374C17.0513 10.1328 17.0508 10.1279 17.0489 10.1236C17.047 10.1192 17.0438 10.1156 17.0397 10.1134L15.8051 9.40165C15.8017 9.39902 15.7991 9.39538 15.7977 9.3912C15.7963 9.38702 15.7961 9.3825 15.7973 9.37824C15.7984 9.37398 15.8008 9.37018 15.8041 9.36734C15.8074 9.36451 15.8114 9.36276 15.8157 9.36235Z" fill="var(--fill-0, white)"/>
</g>
</svg>
