<svg preserveAspectRatio="none" width="100%" height="100%" overflow="visible" style="display: block;" viewBox="0 0 20.25 19.5" fill="none" xmlns="http://www.w3.org/2000/svg">
<path id="Vector" d="M20.25 3.04688C20.25 3.73242 19.6844 4.36465 18.7313 4.875C17.5803 5.48818 15.8638 5.92236 13.8942 6.05186C13.7479 5.9833 13.6015 5.91855 13.4473 5.86143C11.889 5.23301 9.8165 4.875 7.59375 4.875C7.26548 4.875 6.94512 4.88262 6.62476 4.89785L6.58125 4.875C5.62808 4.36465 5.0625 3.73242 5.0625 3.04688C5.0625 1.36348 8.46387 0 12.6562 0C16.8486 0 20.25 1.36348 20.25 3.04688ZM6.35581 6.13564C6.75923 6.10898 7.17451 6.09375 7.59375 6.09375C10.0538 6.09375 12.237 6.56221 13.6252 7.28965C14.6061 7.80381 15.1875 8.44365 15.1875 9.14062C15.1875 9.29297 15.1598 9.4415 15.1044 9.58623C14.9225 10.089 14.4321 10.5498 13.7202 10.9383C13.7162 10.9421 13.7083 10.9421 13.7043 10.9459C13.6925 10.9535 13.6806 10.9573 13.6688 10.9649C12.2845 11.7038 10.0775 12.1837 7.59375 12.1837C5.23652 12.1837 3.12847 11.7533 1.73232 11.0754C1.65718 11.0411 1.58599 11.003 1.51479 10.9649C0.565576 10.4584 0 9.82617 0 9.14062C0 7.81523 2.11201 6.68408 5.0625 6.26895C5.47778 6.21182 5.90889 6.16611 6.35581 6.13564ZM16.4531 9.14062C16.4531 8.30654 16.0339 7.621 15.5 7.10684C16.6192 6.93926 17.6436 6.67266 18.5137 6.32607C19.1584 6.06709 19.7596 5.74717 20.25 5.35488V6.70312C20.25 7.43818 19.5974 8.11611 18.5177 8.6417C17.9402 8.92353 17.2362 9.16348 16.4452 9.34629C16.4492 9.27773 16.4531 9.21299 16.4531 9.14443V9.14062ZM15.1875 12.7969C15.1875 13.4824 14.6219 14.1146 13.6688 14.625C13.5976 14.6631 13.5264 14.6974 13.4512 14.7354C12.059 15.4134 9.95098 15.8438 7.59375 15.8438C5.10996 15.8438 2.90303 15.3639 1.51875 14.625C0.565576 14.1146 0 13.4824 0 12.7969V11.4486C0.494385 11.8409 1.0916 12.1608 1.73628 12.4198C3.29854 13.0482 5.371 13.4062 7.59375 13.4062C9.8165 13.4062 11.889 13.0482 13.4512 12.4198C13.7597 12.2979 14.0563 12.157 14.3372 12.0047C14.5784 11.8752 14.8039 11.7305 15.0174 11.5781C15.0768 11.5362 15.1321 11.4905 15.1875 11.4486V11.5781V11.7952V12.7969ZM16.4531 12.7969V11.5781V10.5917C17.2046 10.4317 17.8967 10.2299 18.5137 9.98232C19.1584 9.72334 19.7596 9.40342 20.25 9.01113V10.3594C20.25 10.7593 20.0522 11.1592 19.6607 11.5362C19.016 12.157 17.8809 12.6674 16.4452 12.9987C16.4492 12.934 16.4531 12.8654 16.4531 12.7969ZM7.59375 17.0625C9.8165 17.0625 11.889 16.7045 13.4512 16.0761C14.0959 15.8171 14.6971 15.4972 15.1875 15.1049V16.4531C15.1875 18.1365 11.7861 19.5 7.59375 19.5C3.40137 19.5 0 18.1365 0 16.4531V15.1049C0.494385 15.4972 1.0916 15.8171 1.73628 16.0761C3.29854 16.7045 5.371 17.0625 7.59375 17.0625Z" fill="var(--fill-0, white)"/>
</svg>
