<svg preserveAspectRatio="none" width="100%" height="100%" overflow="visible" style="display: block;" viewBox="0 0 19.8211 24.002" fill="none" xmlns="http://www.w3.org/2000/svg">
<path id="Vector" d="M9.75591 5.7797C9.80279 5.80314 9.84029 5.85939 9.89654 5.85939C9.9481 5.85939 10.0278 5.84064 10.0325 5.78908C10.0419 5.72345 9.94341 5.68126 9.88248 5.65314C9.80279 5.62033 9.69966 5.60626 9.62466 5.64845C9.60591 5.65783 9.58716 5.68126 9.59654 5.70001C9.6106 5.76095 9.70435 5.75158 9.75591 5.7797ZM8.72935 5.85939C8.7856 5.85939 8.8231 5.80314 8.86998 5.7797C8.92154 5.75158 9.01529 5.76095 9.03404 5.7047C9.04341 5.68595 9.02466 5.66251 9.00591 5.65314C8.93091 5.61095 8.82779 5.62501 8.7481 5.65783C8.68716 5.68595 8.58873 5.72814 8.5981 5.79376C8.60279 5.84064 8.68248 5.86408 8.72935 5.85939ZM19.0934 18.9281C18.9247 18.7406 18.845 18.3844 18.7559 18.0047C18.6715 17.625 18.5731 17.2172 18.2637 16.9547C18.2028 16.9031 18.1418 16.8563 18.0762 16.8188C18.0153 16.7813 17.9497 16.7484 17.884 16.725C18.3153 15.4453 18.1465 14.1703 17.7106 13.0172C17.1762 11.6063 16.2434 10.3735 15.5309 9.5297C14.7294 8.52189 13.9512 7.56564 13.9653 6.1547C13.9887 4.00314 14.2044 0.00470106 10.4122 1.35551e-05C5.61216 -0.00936145 6.81216 4.84689 6.7606 6.33751C6.68091 7.43439 6.4606 8.29689 5.70591 9.37033C4.81998 10.425 3.5731 12.1266 2.98248 13.9031C2.70123 14.7422 2.56998 15.5953 2.69185 16.4016C2.38716 16.6735 2.15748 17.0906 1.91373 17.3485C1.71685 17.55 1.43091 17.625 1.11685 17.7375C0.802788 17.85 0.4606 18.0188 0.249663 18.4172C0.151225 18.6 0.118413 18.7969 0.118413 18.9984C0.118413 19.1813 0.146538 19.3688 0.174663 19.5516C0.230913 19.9313 0.29185 20.2875 0.212163 20.5266C-0.031587 21.2016 -0.0643996 21.6703 0.109038 22.0125C0.287163 22.3547 0.643413 22.5047 1.05123 22.5891C1.86216 22.7578 2.96373 22.7156 3.83091 23.175C4.75904 23.6625 5.70123 23.8359 6.45123 23.6625C6.99498 23.5406 7.44029 23.2125 7.66529 22.7156C8.25123 22.711 8.8981 22.4625 9.92935 22.4063C10.6278 22.35 11.5044 22.6547 12.5122 22.5985C12.5403 22.7063 12.5778 22.8141 12.6294 22.9125V22.9172C13.0184 23.7 13.745 24.0563 14.5184 23.9953C15.2965 23.9344 16.1169 23.4797 16.7825 22.6875C17.42 21.9188 18.47 21.6 19.1684 21.1781C19.5153 20.9672 19.7965 20.7047 19.82 20.3203C19.8387 19.936 19.6137 19.5094 19.0934 18.9281ZM9.89185 4.0922C10.3512 3.05158 11.495 3.07033 11.9544 4.07345C12.259 4.73908 12.1231 5.52189 11.7528 5.9672C11.6778 5.9297 11.4762 5.84533 11.1622 5.73751C11.2137 5.68126 11.3075 5.61095 11.345 5.52189C11.57 4.96876 11.3356 4.25626 10.9184 4.2422C10.5762 4.21876 10.2669 4.74845 10.3653 5.32033C10.1731 5.22658 9.92466 5.15626 9.75591 5.11408C9.70904 4.79064 9.74185 4.4297 9.89185 4.0922ZM7.98404 3.55314C8.45748 3.55314 8.95904 4.21876 8.87935 5.12345C8.71529 5.17033 8.54654 5.24064 8.40123 5.33908C8.45748 4.92189 8.24654 4.39689 7.95123 4.42033C7.55748 4.45314 7.49185 5.41408 7.86685 5.73751C7.91373 5.77501 7.95591 5.72814 7.59029 5.99533C6.85904 5.31095 7.0981 3.55314 7.98404 3.55314ZM7.34654 6.39845C7.63716 6.18283 7.98404 5.9297 8.00748 5.90626C8.22779 5.70001 8.64029 5.24064 9.31529 5.24064C9.6481 5.24064 10.0465 5.34845 10.5294 5.65783C10.8247 5.85001 11.059 5.86408 11.5887 6.09376C11.9825 6.25783 12.2309 6.54845 12.0809 6.94689C11.959 7.2797 11.5653 7.62189 11.0169 7.79533C10.4965 7.96408 10.0887 8.54533 9.22623 8.49376C9.04341 8.48439 8.8981 8.44689 8.77623 8.39533C8.40123 8.23126 8.20435 7.90783 7.83873 7.6922C7.4356 7.4672 7.21998 7.2047 7.14966 6.97501C7.08404 6.74533 7.14966 6.55314 7.34654 6.39845ZM7.50123 22.0547C7.37466 23.7 5.44341 23.6672 3.97154 22.8985C2.56998 22.1578 0.755913 22.5938 0.3856 21.8719C0.2731 21.6516 0.2731 21.2766 0.507475 20.6344V20.625C0.619975 20.2688 0.5356 19.875 0.47935 19.5047C0.4231 19.1391 0.394975 18.8016 0.521538 18.5672C0.6856 18.2531 0.919975 18.1406 1.21529 18.0375C1.6981 17.8641 1.76841 17.8781 2.13404 17.5735C2.39185 17.3063 2.57935 16.9688 2.80435 16.7297C3.04341 16.4719 3.2731 16.35 3.63404 16.4063C4.01373 16.4625 4.34185 16.725 4.6606 17.1563L5.57935 18.825C6.02466 19.7578 7.59966 21.0938 7.50123 22.0547ZM7.4356 20.8406C7.24341 20.5313 6.9856 20.2031 6.7606 19.9219C7.09341 19.9219 7.42623 19.8188 7.54341 19.5047C7.65123 19.2141 7.54341 18.8063 7.19654 18.3375C6.56373 17.4844 5.40123 16.8141 5.40123 16.8141C4.76841 16.4203 4.41216 15.9375 4.2481 15.4125C4.08404 14.8875 4.10748 14.3203 4.23404 13.7625C4.47779 12.6891 5.10591 11.6438 5.50904 10.9875C5.61685 10.9078 5.54654 11.1375 5.10123 11.9625C4.70279 12.7172 3.95748 14.461 4.97935 15.825C5.00748 14.8547 5.23716 13.8656 5.62623 12.9422C6.18873 11.6578 7.37466 9.43126 7.46841 7.65939C7.51998 7.69689 7.68404 7.80939 7.75904 7.85158C7.97466 7.97814 8.13873 8.16564 8.34966 8.33439C8.93091 8.80314 9.6856 8.76564 10.3372 8.39064C10.6278 8.22658 10.8622 8.03908 11.0825 7.96876C11.5465 7.82345 11.9169 7.56564 12.1278 7.26564C12.4887 8.69064 13.3325 10.7485 13.8715 11.7516C14.1575 12.286 14.7294 13.4156 14.9778 14.7797C15.1325 14.775 15.3059 14.7985 15.4887 14.8453C16.1356 13.1719 14.9403 11.3672 14.3965 10.8656C14.1762 10.65 14.1669 10.5563 14.2747 10.561C14.8653 11.086 15.6434 12.1406 15.9247 13.3266C16.0559 13.8703 16.0793 14.4375 15.9434 15C16.7122 15.3188 17.6262 15.8391 17.3825 16.6313C17.2794 16.6266 17.2325 16.6313 17.1856 16.6313C17.3356 16.1578 17.0028 15.8063 16.1169 15.4078C15.1981 15.0047 14.4294 15.0047 14.3215 15.9938C13.7544 16.1906 13.4637 16.6828 13.3184 17.2735C13.1872 17.7985 13.1497 18.4313 13.1122 19.1438C13.0887 19.5047 12.9434 19.9875 12.7934 20.5031C11.2887 21.5766 9.1981 22.0453 7.4356 20.8406ZM19.5012 20.3016C19.459 21.0891 17.57 21.2344 16.5387 22.4813C15.92 23.2172 15.1606 23.625 14.495 23.6766C13.8294 23.7281 13.2528 23.4516 12.9153 22.7719C12.695 22.2516 12.8028 21.6891 12.9668 21.0703C13.1403 20.4047 13.3981 19.7203 13.4309 19.1672C13.4684 18.4547 13.5106 17.8313 13.6278 17.3531C13.7497 16.8703 13.9372 16.5469 14.27 16.3641C14.284 16.3547 14.3028 16.35 14.3169 16.3406C14.3544 16.9594 14.659 17.5875 15.1981 17.7235C15.7887 17.8781 16.6372 17.3719 16.9981 16.9594C17.42 16.9453 17.734 16.9172 18.0575 17.1985C18.5215 17.5969 18.3903 18.6188 18.859 19.1485C19.3559 19.6922 19.5153 20.0625 19.5012 20.3016ZM7.52935 6.97033C7.6231 7.05939 7.74966 7.18126 7.90435 7.30314C8.21373 7.54689 8.64498 7.80001 9.18404 7.80001C9.72779 7.80001 10.2387 7.52345 10.6747 7.29376C10.9044 7.17189 11.1856 6.96564 11.3684 6.80626C11.5512 6.64689 11.645 6.51095 11.5137 6.49689C11.3825 6.48283 11.3919 6.61876 11.2325 6.73595C11.0262 6.88595 10.7778 7.08283 10.5809 7.19533C10.234 7.3922 9.66685 7.67345 9.17935 7.67345C8.69185 7.67345 8.30279 7.44845 8.01216 7.21876C7.86685 7.10158 7.74498 6.98439 7.65123 6.89533C7.58091 6.8297 7.56216 6.6797 7.44966 6.66564C7.38404 6.66095 7.36529 6.83908 7.52935 6.97033Z" fill="var(--fill-0, white)"/>
</svg>
