<svg preserveAspectRatio="none" width="100%" height="100%" overflow="visible" style="display: block;" viewBox="0 0 16 16" fill="none" xmlns="http://www.w3.org/2000/svg">
<g id="Frame">
<path id="Vector" d="M8 14.4C11.535 14.4 14.4 11.535 14.4 8C14.4 4.465 11.535 1.6 8 1.6C4.465 1.6 1.6 4.465 1.6 8C1.6 11.535 4.465 14.4 8 14.4ZM7.2 5.6C7.2 5.1575 7.5575 4.8 8 4.8C8.4425 4.8 8.8 5.1575 8.8 5.6C8.8 6.0425 8.4425 6.4 8 6.4C7.5575 6.4 7.2 6.0425 7.2 5.6ZM7 7.2H8.2C8.5325 7.2 8.8 7.4675 8.8 7.8V10H9C9.3325 10 9.6 10.2675 9.6 10.6C9.6 10.9325 9.3325 11.2 9 11.2H7C6.6675 11.2 6.4 10.9325 6.4 10.6C6.4 10.2675 6.6675 10 7 10H7.6V8.4H7C6.6675 8.4 6.4 8.1325 6.4 7.8C6.4 7.4675 6.6675 7.2 7 7.2Z" fill="var(--fill-0, #959BAD)"/>
</g>
</svg>
