<svg preserveAspectRatio="none" width="100%" height="100%" overflow="visible" style="display: block;" viewBox="0 0 22.0508 16.8005" fill="none" xmlns="http://www.w3.org/2000/svg">
<path id="Vector" d="M18.6942 1.41861C18.6877 1.40649 18.677 1.39715 18.6642 1.39236C17.2356 0.736786 15.728 0.269141 14.1792 0.00110598C14.1653 -0.00144433 14.1509 0.000441696 14.1381 0.00649772C14.1253 0.0125537 14.1148 0.0224737 14.1079 0.034856C13.9025 0.407716 13.716 0.790702 13.5492 1.18236C11.8787 0.928808 10.1796 0.928808 8.50918 1.18236C8.34167 0.789734 8.15263 0.406652 7.94293 0.034856C7.93569 0.0228427 7.92507 0.013232 7.91239 0.00722828C7.89972 0.00122459 7.88556 -0.000905132 7.87168 0.00110598C6.32015 0.267933 4.80996 0.735613 3.37918 1.39236C3.36663 1.39767 3.35611 1.40687 3.34918 1.41861C0.491676 5.68986 -0.292074 9.85236 0.090426 13.9661C0.0915091 13.9765 0.0947358 13.9865 0.0999008 13.9955C0.105066 14.0046 0.112056 14.0124 0.120426 14.0186C1.78492 15.2498 3.64637 16.1894 5.62543 16.7974C5.63965 16.8018 5.65489 16.8016 5.66902 16.7969C5.68314 16.7922 5.69544 16.7832 5.70418 16.7711C6.1288 16.193 6.50507 15.581 6.82918 14.9411C6.83349 14.9323 6.83594 14.9227 6.83638 14.9129C6.83681 14.9031 6.83522 14.8933 6.8317 14.8842C6.82818 14.875 6.82281 14.8667 6.81592 14.8597C6.80903 14.8527 6.80078 14.8472 6.79168 14.8436C6.19712 14.6158 5.62157 14.3412 5.07043 14.0224C5.06069 14.0164 5.05252 14.0082 5.04662 13.9984C5.04072 13.9886 5.03726 13.9776 5.03653 13.9662C5.03579 13.9548 5.0378 13.9434 5.0424 13.9329C5.04699 13.9225 5.05403 13.9133 5.06293 13.9061C5.17918 13.8199 5.29543 13.7299 5.40418 13.6399C5.41377 13.6314 5.42556 13.6259 5.43817 13.6239C5.45078 13.6219 5.4637 13.6236 5.47543 13.6286C9.08293 15.2749 12.9904 15.2749 16.5567 13.6286C16.5681 13.623 16.5808 13.6208 16.5934 13.6221C16.606 13.6234 16.6179 13.6283 16.6279 13.6361C16.7367 13.7261 16.8529 13.8199 16.9692 13.9061C16.9781 13.9133 16.9851 13.9225 16.9897 13.9329C16.9943 13.9434 16.9963 13.9548 16.9956 13.9662C16.9948 13.9776 16.9914 13.9886 16.9855 13.9984C16.9796 14.0082 16.9714 14.0164 16.9617 14.0224C16.412 14.3428 15.8362 14.6163 15.2404 14.8399C15.2313 14.8435 15.2231 14.849 15.2162 14.856C15.2093 14.8629 15.2039 14.8713 15.2004 14.8804C15.1969 14.8896 15.1953 14.8994 15.1957 14.9092C15.1962 14.919 15.1986 14.9286 15.2029 14.9374C15.5327 15.574 15.9087 16.1857 16.3279 16.7674C16.3367 16.7794 16.349 16.7884 16.3631 16.7931C16.3772 16.7978 16.3925 16.798 16.4067 16.7936C18.3914 16.1883 20.2583 15.2486 21.9267 14.0149C21.9352 14.0088 21.9423 14.001 21.9475 13.9919C21.9527 13.9829 21.9558 13.9728 21.9567 13.9624C22.4142 9.21111 21.1842 5.08236 18.6942 1.41861ZM7.36918 11.4611C6.28168 11.4611 5.38918 10.4636 5.38918 9.24111C5.38918 8.01861 6.26668 7.01736 7.36918 7.01736C8.48293 7.01736 9.36793 8.02236 9.34918 9.23736C9.34918 10.4636 8.47168 11.4611 7.36918 11.4611ZM14.6967 11.4611C13.6092 11.4611 12.7167 10.4636 12.7167 9.24111C12.7167 8.01861 13.5904 7.01736 14.6967 7.01736C15.8104 7.01736 16.6954 8.02236 16.6767 9.23736C16.6767 10.4636 15.8067 11.4611 14.6967 11.4611Z" fill="var(--fill-0, white)"/>
</svg>
