<svg preserveAspectRatio="none" width="100%" height="100%" overflow="visible" style="display: block;" viewBox="0 0 23.9981 19.2041" fill="none" xmlns="http://www.w3.org/2000/svg">
<path id="Vector" d="M14.7291 0.0470297C14.0916 -0.13672 13.4278 0.23453 13.2441 0.87203L8.44406 17.672C8.26031 18.3095 8.63156 18.9733 9.26906 19.157C9.90656 19.3408 10.5703 18.9695 10.7541 18.332L15.5541 1.53203C15.7378 0.89453 15.3666 0.23078 14.7291 0.0470297ZM17.7516 4.55078C17.2828 5.01953 17.2828 5.78078 17.7516 6.24953L21.1003 9.60203L17.7478 12.9545C17.2791 13.4233 17.2791 14.1845 17.7478 14.6533C18.2166 15.122 18.9778 15.122 19.4466 14.6533L23.6466 10.4533C24.1153 9.98453 24.1153 9.22328 23.6466 8.75453L19.4466 4.55453C18.9778 4.08578 18.2166 4.08578 17.7478 4.55453L17.7516 4.55078ZM6.25031 4.55078C5.78156 4.08203 5.02031 4.08203 4.55156 4.55078L0.351563 8.75078C-0.117187 9.21953 -0.117187 9.98078 0.351563 10.4495L4.55156 14.6495C5.02031 15.1183 5.78156 15.1183 6.25031 14.6495C6.71906 14.1808 6.71906 13.4195 6.25031 12.9508L2.89781 9.60203L6.25031 6.24953C6.71906 5.78078 6.71906 5.01953 6.25031 4.55078Z" fill="var(--fill-0, white)"/>
</svg>
