<svg preserveAspectRatio="none" width="100%" height="100%" overflow="visible" style="display: block;" viewBox="0 0 13.3333 16" fill="none" xmlns="http://www.w3.org/2000/svg">
<g id="Book">
<path id="Shape" fill-rule="evenodd" clip-rule="evenodd" d="M13.3333 0.75V11.25C13.3333 11.4844 13.2292 11.6969 13.0685 11.8313C12.9435 12.3125 12.9435 13.6844 13.0685 14.1656C13.2292 14.3031 13.3333 14.5156 13.3333 14.75V15.25C13.3333 15.6656 13.0149 16 12.619 16H2.85714C1.27976 16 0 14.6562 0 13V3C0 1.34375 1.27976 0 2.85714 0H12.619C13.0149 0 13.3333 0.334375 13.3333 0.75ZM4.17857 4C4.08036 4 4 4.1125 4 4.25V5.08333C4 5.22083 4.08036 5.33333 4.17857 5.33333H10.4881C10.5863 5.33333 10.6667 5.22083 10.6667 5.08333V4.25C10.6667 4.1125 10.5863 4 10.4881 4H4.17857ZM4 6.9165C4 6.779 4.08036 6.6665 4.17857 6.6665H10.4881C10.5863 6.6665 10.6667 6.779 10.6667 6.9165V7.74984C10.6667 7.88734 10.5863 7.99984 10.4881 7.99984H4.17857C4.08036 7.99984 4 7.88734 4 7.74984V6.9165ZM2.27301 14.6667H10.6654C10.6095 13.9542 10.6095 12.7125 10.6654 12H2.27301C1.75547 12 1.33203 12.6 1.33203 13.3333C1.33203 14.0708 1.75253 14.6667 2.27301 14.6667Z" fill="var(--fill-0, #D5D7E3)"/>
</g>
</svg>
