<svg preserveAspectRatio="none" width="100%" height="100%" overflow="visible" style="display: block;" viewBox="0 0 70 38" fill="none" xmlns="http://www.w3.org/2000/svg">
<g id="Frame">
<path id="Vector" d="M35 28.6C29.6975 28.6 25.4 24.3025 25.4 19C25.4 13.6975 29.6975 9.4 35 9.4C40.3025 9.4 44.6 13.6975 44.6 19C44.6 24.3025 40.3025 28.6 35 28.6ZM39.425 14.8637C39.0238 14.5712 38.4613 14.6612 38.1688 15.0625L33.6913 21.22L31.7375 19.2663C31.385 18.9138 30.815 18.9138 30.4663 19.2663C30.1175 19.6188 30.1138 20.1888 30.4663 20.5375L33.1663 23.2375C33.3538 23.425 33.6087 23.5188 33.8712 23.5C34.1337 23.4813 34.3737 23.3463 34.5275 23.1325L39.6237 16.12C39.9162 15.7187 39.8263 15.1562 39.425 14.8637Z" fill="var(--fill-0, #64C4FF)"/>
</g>
</svg>
