<svg preserveAspectRatio="none" width="100%" height="100%" overflow="visible" style="display: block;" viewBox="0 0 70 24" fill="none" xmlns="http://www.w3.org/2000/svg">
<g id="Frame">
<path id="Vector" d="M35 22C40.5234 22 45 17.5234 45 12C45 6.47656 40.5234 2 35 2C29.4766 2 25 6.47656 25 12C25 17.5234 29.4766 22 35 22ZM31.5234 8.52344C31.8906 8.15625 32.4844 8.15625 32.8477 8.52344L34.9961 10.6719L37.1445 8.52344C37.5117 8.15625 38.1055 8.15625 38.4687 8.52344C38.832 8.89062 38.8359 9.48437 38.4687 9.84766L36.3203 11.9961L38.4687 14.1445C38.8359 14.5117 38.8359 15.1055 38.4687 15.4687C38.1016 15.832 37.5078 15.8359 37.1445 15.4687L34.9961 13.3203L32.8477 15.4687C32.4805 15.8359 31.8867 15.8359 31.5234 15.4687C31.1602 15.1016 31.1563 14.5078 31.5234 14.1445L33.6719 11.9961L31.5234 9.84766C31.1563 9.48047 31.1563 8.88672 31.5234 8.52344Z" fill="var(--fill-0, #595C76)"/>
</g>
</svg>
