<svg preserveAspectRatio="none" width="100%" height="100%" overflow="visible" style="display: block;" viewBox="0 0 21.6 21.6" fill="none" xmlns="http://www.w3.org/2000/svg">
<path id="Subtract" fill-rule="evenodd" clip-rule="evenodd" d="M20.8522 0.00312096C21.2874 -0.0367999 21.6362 0.311507 21.597 0.746884C21.4268 2.63838 20.6774 7.49833 17.4011 10.8C20.6774 14.1017 21.4269 18.9616 21.597 20.8531C21.6362 21.2885 21.2874 21.6368 20.8522 21.5969C18.9708 21.4243 13.9903 20.6673 10.7175 17.3692C7.44482 20.6673 2.62916 21.4243 0.747828 21.5969C0.312555 21.6368 -0.0361566 21.2885 0.00300548 20.8531C0.173146 18.9616 0.922618 14.1017 4.19894 10.8C0.922632 7.49833 0.17315 2.63838 0.00300548 0.746884C-0.0361566 0.311507 0.312555 -0.0367999 0.747828 0.00312096C2.62916 0.175671 7.60974 0.932733 10.8825 4.23075C14.1552 0.932724 18.9708 0.175672 20.8522 0.00312096ZM10.8629 6.81432C10.6666 6.81433 10.4908 6.93695 10.4213 7.12095L9.5541 9.43177L7.24347 10.2987C7.05948 10.3683 6.93686 10.5443 6.93686 10.7406C6.93688 10.9369 7.05953 11.1127 7.24347 11.1822L9.5541 12.0492L10.4213 14.36C10.4908 14.5441 10.6666 14.6669 10.8629 14.6669C11.0592 14.6669 11.2349 14.5441 11.3044 14.36L12.1716 12.0492L14.4823 11.1822C14.6662 11.1127 14.7888 10.9369 14.7889 10.7406C14.7889 10.5443 14.6663 10.3683 14.4823 10.2987L12.1716 9.43177L11.3044 7.12095C11.2349 6.93695 11.0591 6.81432 10.8629 6.81432Z" fill="var(--fill-0, white)"/>
</svg>
