<svg preserveAspectRatio="none" width="100%" height="100%" overflow="visible" style="display: block;" viewBox="0 0 70 24" fill="none" xmlns="http://www.w3.org/2000/svg">
<g id="Frame">
<path id="Vector" d="M35 21.6C29.6975 21.6 25.4 17.3025 25.4 12C25.4 6.6975 29.6975 2.4 35 2.4C40.3025 2.4 44.6 6.6975 44.6 12C44.6 17.3025 40.3025 21.6 35 21.6ZM39.425 7.86375C39.0238 7.57125 38.4613 7.66125 38.1688 8.0625L33.6913 14.22L31.7375 12.2663C31.385 11.9138 30.815 11.9138 30.4663 12.2663C30.1175 12.6188 30.1138 13.1888 30.4663 13.5375L33.1663 16.2375C33.3538 16.425 33.6087 16.5188 33.8712 16.5C34.1337 16.4813 34.3737 16.3463 34.5275 16.1325L39.6237 9.12C39.9162 8.71875 39.8263 8.15625 39.425 7.86375Z" fill="var(--fill-0, #64C4FF)"/>
</g>
</svg>
