<svg preserveAspectRatio="none" width="100%" height="100%" overflow="visible" style="display: block;" viewBox="0 0 70 38" fill="none" xmlns="http://www.w3.org/2000/svg">
<g id="Frame">
<path id="Vector" d="M35 29C40.5234 29 45 24.5234 45 19C45 13.4766 40.5234 9 35 9C29.4766 9 25 13.4766 25 19C25 24.5234 29.4766 29 35 29ZM31.5234 15.5234C31.8906 15.1563 32.4844 15.1563 32.8477 15.5234L34.9961 17.6719L37.1445 15.5234C37.5117 15.1563 38.1055 15.1563 38.4687 15.5234C38.832 15.8906 38.8359 16.4844 38.4687 16.8477L36.3203 18.9961L38.4687 21.1445C38.8359 21.5117 38.8359 22.1055 38.4687 22.4687C38.1016 22.832 37.5078 22.8359 37.1445 22.4687L34.9961 20.3203L32.8477 22.4687C32.4805 22.8359 31.8867 22.8359 31.5234 22.4687C31.1602 22.1016 31.1563 21.5078 31.5234 21.1445L33.6719 18.9961L31.5234 16.8477C31.1563 16.4805 31.1563 15.8867 31.5234 15.5234Z" fill="var(--fill-0, #595C76)"/>
</g>
</svg>
