<svg preserveAspectRatio="none" width="100%" height="100%" overflow="visible" style="display: block;" viewBox="0 0 24 13.4855" fill="none" xmlns="http://www.w3.org/2000/svg">
<path id="Vector" d="M6.76875 0C3.03 0 0 3.01699 0 6.74277C0 10.4686 3.03 13.4855 6.76875 13.4855C10.5075 13.4855 13.5375 10.4686 13.5375 6.74277C13.5375 3.01699 10.5075 0 6.76875 0ZM17.58 0.393359C15.7125 0.393359 14.1975 3.23594 14.1975 6.74277C14.1975 10.2496 15.7125 13.0922 17.5838 13.0922C19.455 13.0922 20.97 10.2496 20.97 6.74277H20.9625C20.9625 3.23594 19.4475 0.393359 17.58 0.393359ZM22.8113 1.05391C22.155 1.05391 21.6225 3.59961 21.6225 6.74277C21.6225 9.88594 22.155 12.4316 22.8113 12.4316C23.4675 12.4316 24 9.88223 24 6.74277C24 3.60332 23.4675 1.05391 22.8113 1.05391Z" fill="var(--fill-0, white)"/>
</svg>
