<svg preserveAspectRatio="none" width="100%" height="100%" overflow="visible" style="display: block;" viewBox="0 0 1080 932.087" fill="none" xmlns="http://www.w3.org/2000/svg">
<g id="Group 1000014996">
<path id="Vector" d="M961.835 328.391C961.598 328.423 961.357 328.364 961.161 328.227C960.965 328.089 960.828 327.883 960.777 327.649C937.025 233.974 882.755 150.898 806.549 91.5575C730.342 32.2174 636.549 0 540 0C443.451 0 349.658 32.2174 273.451 91.5575C197.245 150.898 142.975 233.974 119.224 327.649C119.172 327.883 119.035 328.089 118.839 328.227C118.643 328.364 118.402 328.423 118.165 328.391C89.4706 328.391 0 332.1 0 408.2C0 498.925 10.5882 577.78 63.5294 623.567C86.4 643.175 125.047 647.944 161.682 647.097C184.592 646.364 207.418 643.955 229.976 639.889C230.154 639.876 230.324 639.813 230.468 639.707C230.611 639.602 230.723 639.458 230.789 639.293C230.855 639.127 230.873 638.946 230.842 638.771C230.811 638.595 230.731 638.432 230.612 638.3C190.634 577.824 169.348 506.896 169.412 434.379C169.412 433.319 169.412 432.153 169.412 431.093C169.412 332.709 208.456 238.354 277.955 168.786C347.453 99.2179 441.714 60.135 540 60.135C638.286 60.135 732.547 99.2179 802.046 168.786C871.544 238.354 910.588 332.709 910.588 431.093C910.588 432.153 910.588 433.319 910.588 434.379C910.652 506.896 889.366 577.824 849.388 638.3C849.269 638.432 849.189 638.595 849.158 638.771C849.127 638.946 849.145 639.127 849.211 639.293C849.278 639.458 849.389 639.602 849.532 639.707C849.676 639.813 849.846 639.876 850.024 639.889C872.582 643.955 895.408 646.364 918.318 647.097C954.953 647.944 993.6 643.175 1016.47 623.567C1069.41 578.31 1080 498.925 1080 408.2C1080 332.1 990.53 328.391 961.835 328.391Z" fill="var(--fill-0, #64C4FF)"/>
<path id="Vector_2" d="M539.999 741.748L258.352 647.736C258.118 647.647 257.86 647.643 257.624 647.726C257.388 647.809 257.188 647.973 257.061 648.189C256.934 648.405 256.888 648.659 256.93 648.906C256.973 649.153 257.101 649.377 257.293 649.538L539.258 931.784C539.456 931.978 539.722 932.087 539.999 932.087C540.276 932.087 540.542 931.978 540.74 931.784L822.705 649.538C822.897 649.377 823.025 649.153 823.068 648.906C823.11 648.659 823.064 648.405 822.937 648.189C822.81 647.973 822.611 647.809 822.374 647.726C822.138 647.643 821.88 647.647 821.646 647.736L539.999 741.748Z" fill="var(--fill-0, #64C4FF)"/>
<path id="Vector_3" d="M790.731 454.523L857.649 434.385C857.883 434.359 858.099 434.247 858.255 434.071C858.412 433.895 858.497 433.667 858.496 433.431C858.31 408.636 855.218 383.949 849.284 359.876C849.225 359.657 849.103 359.46 848.934 359.31C848.765 359.159 848.555 359.061 848.331 359.028L780.249 352.88C780.027 352.88 779.81 352.81 779.63 352.68C779.449 352.55 779.315 352.367 779.244 352.156C779.174 351.945 779.172 351.717 779.238 351.504C779.304 351.292 779.436 351.106 779.613 350.973L830.225 306.67C830.327 306.473 830.381 306.255 830.381 306.034C830.381 305.812 830.327 305.594 830.225 305.398C819.909 282.509 806.938 260.916 791.578 241.063C791.411 240.934 791.207 240.864 790.996 240.864C790.785 240.864 790.58 240.934 790.414 241.063L727.837 262.261C727.639 262.324 727.426 262.328 727.225 262.271C727.024 262.215 726.845 262.1 726.709 261.941C726.574 261.783 726.488 261.588 726.462 261.381C726.437 261.173 726.473 260.963 726.566 260.777L753.778 201.212C753.901 201.022 753.967 200.801 753.967 200.576C753.967 200.35 753.901 200.129 753.778 199.94C734.993 182.921 714.232 168.225 691.943 156.167C691.776 156.038 691.571 155.968 691.361 155.968C691.15 155.968 690.945 156.038 690.778 156.167L643.449 199.94C643.301 200.085 643.113 200.183 642.91 200.223C642.707 200.263 642.496 200.242 642.304 200.163C642.113 200.084 641.948 199.95 641.832 199.779C641.715 199.607 641.652 199.405 641.649 199.198L642.602 135.605C642.612 135.371 642.546 135.14 642.411 134.949C642.277 134.757 642.084 134.615 641.861 134.545C617.85 126.464 592.973 121.234 567.743 118.965C567.509 118.954 567.279 119.021 567.087 119.155C566.896 119.289 566.754 119.483 566.684 119.707L541.484 178.424C541.397 178.603 541.262 178.754 541.093 178.86C540.925 178.966 540.73 179.022 540.531 179.022C540.332 179.022 540.137 178.966 539.969 178.86C539.8 178.754 539.665 178.603 539.578 178.424L514.484 119.707C514.378 119.495 514.209 119.32 514.001 119.207C513.793 119.093 513.555 119.046 513.319 119.071C488.077 121.321 463.194 126.587 439.202 134.757C438.995 134.851 438.817 134.999 438.686 135.186C438.556 135.372 438.478 135.59 438.461 135.817L439.308 199.94C439.343 200.149 439.308 200.365 439.207 200.552C439.105 200.74 438.945 200.888 438.75 200.973C438.555 201.058 438.338 201.076 438.132 201.023C437.926 200.97 437.743 200.85 437.614 200.682L389.649 156.273C389.46 156.149 389.239 156.084 389.014 156.084C388.788 156.084 388.567 156.149 388.378 156.273C366.12 168.328 345.394 183.025 326.649 200.046C326.526 200.235 326.46 200.456 326.46 200.682C326.46 200.907 326.526 201.128 326.649 201.318L354.072 260.671C354.134 260.867 354.142 261.076 354.097 261.276C354.052 261.477 353.954 261.662 353.814 261.813C353.675 261.963 353.498 262.074 353.301 262.134C353.105 262.194 352.896 262.201 352.696 262.155L290.225 240.957C290.036 240.834 289.816 240.768 289.59 240.768C289.364 240.768 289.144 240.834 288.955 240.957C273.702 260.861 260.838 282.49 250.625 305.398C250.502 305.587 250.437 305.808 250.437 306.034C250.437 306.259 250.502 306.48 250.625 306.67L301.343 351.079C301.484 351.22 301.582 351.398 301.626 351.593C301.67 351.788 301.658 351.991 301.591 352.179C301.525 352.368 301.407 352.533 301.25 352.657C301.094 352.781 300.906 352.859 300.708 352.88L232.943 359.24C232.727 359.251 232.521 359.329 232.35 359.461C232.18 359.594 232.054 359.775 231.99 359.982C225.912 384.038 222.679 408.726 222.355 433.537C222.344 433.771 222.411 434.002 222.545 434.194C222.679 434.385 222.873 434.527 223.096 434.597L290.119 455.583C290.298 455.67 290.449 455.805 290.555 455.974C290.661 456.142 290.717 456.338 290.717 456.537C290.717 456.736 290.661 456.931 290.555 457.1C290.449 457.268 290.298 457.404 290.119 457.491L228.284 492.043C228.146 492.419 228.146 492.832 228.284 493.209C232.862 517.882 240.325 541.93 250.519 564.856C253.908 572.382 257.614 579.695 261.108 586.902C261.314 586.967 261.536 586.967 261.743 586.902L540.002 679.853L818.896 586.796C819.032 586.755 819.158 586.687 819.267 586.596C819.376 586.505 819.466 586.393 819.531 586.266C835.308 556.789 846.417 525.038 852.461 492.149C852.511 491.923 852.487 491.687 852.392 491.477C852.296 491.266 852.134 491.093 851.931 490.983L790.202 456.431C790.029 456.303 789.9 456.126 789.83 455.923C789.76 455.721 789.753 455.501 789.811 455.294C789.868 455.088 789.987 454.903 790.151 454.765C790.315 454.628 790.518 454.543 790.731 454.523Z" fill="var(--fill-0, #64C4FF)"/>
</g>
</svg>
