<svg preserveAspectRatio="none" width="100%" height="100%" overflow="visible" style="display: block;" viewBox="0 0 16 16" fill="none" xmlns="http://www.w3.org/2000/svg">
<g id="icon">
<path id="Vector" d="M9.6 1.6C9.1575 1.6 8.8 1.9575 8.8 2.4C8.8 2.8425 9.1575 3.2 9.6 3.2H11.6675L6.6325 8.235C6.32 8.5475 6.32 9.055 6.6325 9.3675C6.945 9.68 7.4525 9.68 7.765 9.3675L12.8 4.3325V6.4C12.8 6.8425 13.1575 7.2 13.6 7.2C14.0425 7.2 14.4 6.8425 14.4 6.4V2.4C14.4 1.9575 14.0425 1.6 13.6 1.6H9.6ZM3.6 4C2.495 4 1.6 4.895 1.6 6V12.4C1.6 13.505 2.495 14.4 3.6 14.4H10C11.105 14.4 12 13.505 12 12.4V10.4C12 9.9575 11.6425 9.6 11.2 9.6C10.7575 9.6 10.4 9.9575 10.4 10.4V12.4C10.4 12.62 10.22 12.8 10 12.8H3.6C3.38 12.8 3.2 12.62 3.2 12.4V6C3.2 5.78 3.38 5.6 3.6 5.6H5.6C6.0425 5.6 6.4 5.2425 6.4 4.8C6.4 4.3575 6.0425 4 5.6 4H3.6Z" fill="var(--fill-0, #959BAD)"/>
</g>
</svg>
