<svg preserveAspectRatio="none" width="100%" height="100%" overflow="visible" style="display: block;" viewBox="0 0 15 18" fill="none" xmlns="http://www.w3.org/2000/svg">
<g id="Book">
<path id="Shape" fill-rule="evenodd" clip-rule="evenodd" d="M15 0.84375V12.6562C15 12.9199 14.8828 13.159 14.702 13.3102C14.5614 13.8516 14.5614 15.3949 14.702 15.9363C14.8828 16.091 15 16.3301 15 16.5938V17.1562C15 17.6238 14.6417 18 14.1964 18H3.21429C1.43973 18 0 16.4883 0 14.625V3.375C0 1.51172 1.43973 0 3.21429 0H14.1964C14.6417 0 15 0.376172 15 0.84375ZM4.70089 4.5C4.5904 4.5 4.5 4.62656 4.5 4.78125V5.71875C4.5 5.87344 4.5904 6 4.70089 6H11.7991C11.9096 6 12 5.87344 12 5.71875V4.78125C12 4.62656 11.9096 4.5 11.7991 4.5H4.70089ZM4.5 7.78107C4.5 7.62638 4.5904 7.49982 4.70089 7.49982H11.7991C11.9096 7.49982 12 7.62638 12 7.78107V8.71857C12 8.87325 11.9096 8.99982 11.7991 8.99982H4.70089C4.5904 8.99982 4.5 8.87325 4.5 8.71857V7.78107ZM2.55714 16.5H11.9985C11.9357 15.6984 11.9357 14.3016 11.9985 13.5H2.55714C1.97491 13.5 1.49854 14.175 1.49854 15C1.49854 15.8297 1.9716 16.5 2.55714 16.5Z" fill="var(--fill-0, #A2A3BD)"/>
</g>
</svg>
