<svg preserveAspectRatio="none" width="100%" height="100%" overflow="visible" style="display: block;" viewBox="0 0 13.5 13" fill="none" xmlns="http://www.w3.org/2000/svg">
<path id="Vector" d="M13.5 2.03125C13.5 2.48828 13.1229 2.90977 12.4875 3.25C11.7202 3.65879 10.5759 3.94824 9.26279 4.03457C9.16523 3.98887 9.06768 3.9457 8.96484 3.90762C7.92598 3.48867 6.54434 3.25 5.0625 3.25C4.84365 3.25 4.63008 3.25508 4.4165 3.26523L4.3875 3.25C3.75205 2.90977 3.375 2.48828 3.375 2.03125C3.375 0.908984 5.64258 0 8.4375 0C11.2324 0 13.5 0.908984 13.5 2.03125ZM4.23721 4.09043C4.50615 4.07266 4.78301 4.0625 5.0625 4.0625C6.70254 4.0625 8.15801 4.3748 9.0835 4.85977C9.7374 5.20254 10.125 5.6291 10.125 6.09375C10.125 6.19531 10.1065 6.29434 10.0696 6.39082C9.94834 6.72598 9.62139 7.0332 9.14678 7.29219C9.14414 7.29473 9.13887 7.29473 9.13623 7.29727C9.12832 7.30234 9.12041 7.30488 9.1125 7.30996C8.18965 7.80254 6.71836 8.12246 5.0625 8.12246C3.49102 8.12246 2.08564 7.83555 1.15488 7.38359C1.10479 7.36074 1.05732 7.33535 1.00986 7.30996C0.377051 6.97227 0 6.55078 0 6.09375C0 5.21016 1.40801 4.45605 3.375 4.1793C3.65186 4.14121 3.93926 4.11074 4.23721 4.09043ZM10.9688 6.09375C10.9688 5.5377 10.6893 5.08066 10.3333 4.73789C11.0795 4.62617 11.7624 4.44844 12.3425 4.21738C12.7723 4.04473 13.173 3.83145 13.5 3.56992V4.46875C13.5 4.95879 13.0649 5.41074 12.3451 5.76113C11.9602 5.94902 11.4908 6.10898 10.9635 6.23086C10.9661 6.18516 10.9688 6.14199 10.9688 6.09629V6.09375ZM10.125 8.53125C10.125 8.98828 9.74795 9.40977 9.1125 9.75C9.06504 9.77539 9.01758 9.79824 8.96748 9.82363C8.03936 10.2756 6.63398 10.5625 5.0625 10.5625C3.40664 10.5625 1.93535 10.2426 1.0125 9.75C0.377051 9.40977 0 8.98828 0 8.53125V7.63242C0.32959 7.89395 0.727734 8.10723 1.15752 8.27988C2.19902 8.69883 3.58066 8.9375 5.0625 8.9375C6.54434 8.9375 7.92598 8.69883 8.96748 8.27988C9.17314 8.19863 9.3709 8.10469 9.55811 8.00313C9.71895 7.9168 9.86924 7.82031 10.0116 7.71875C10.0512 7.69082 10.0881 7.66035 10.125 7.63242V7.71875V7.86348V8.53125ZM10.9688 8.53125V7.71875V7.06113C11.4697 6.95449 11.9312 6.81992 12.3425 6.65488C12.7723 6.48223 13.173 6.26895 13.5 6.00742V6.90625C13.5 7.17285 13.3682 7.43945 13.1071 7.69082C12.6773 8.10469 11.9206 8.44492 10.9635 8.66582C10.9661 8.62266 10.9688 8.57695 10.9688 8.53125ZM5.0625 11.375C6.54434 11.375 7.92598 11.1363 8.96748 10.7174C9.39727 10.5447 9.79805 10.3314 10.125 10.0699V10.9688C10.125 12.091 7.85742 13 5.0625 13C2.26758 13 0 12.091 0 10.9688V10.0699C0.32959 10.3314 0.727734 10.5447 1.15752 10.7174C2.19902 11.1363 3.58066 11.375 5.0625 11.375Z" fill="var(--fill-0, #D5D7E3)"/>
</svg>
