<svg preserveAspectRatio="none" width="100%" height="100%" overflow="visible" style="display: block;" viewBox="0 0 15.1875 14.625" fill="none" xmlns="http://www.w3.org/2000/svg">
<path id="Vector" d="M15.1875 2.28516C15.1875 2.79932 14.7633 3.27349 14.0484 3.65625C13.1852 4.11614 11.8979 4.44177 10.4206 4.53889C10.3109 4.48748 10.2011 4.43892 10.0854 4.39607C8.91672 3.92476 7.36238 3.65625 5.69531 3.65625C5.44911 3.65625 5.20884 3.66196 4.96857 3.67339L4.93594 3.65625C4.22106 3.27349 3.79688 2.79932 3.79688 2.28516C3.79688 1.02261 6.3479 0 9.49219 0C12.6365 0 15.1875 1.02261 15.1875 2.28516ZM4.76686 4.60173C5.06942 4.58174 5.38088 4.57031 5.69531 4.57031C7.54036 4.57031 9.17776 4.92166 10.2189 5.46724C10.9546 5.85286 11.3906 6.33274 11.3906 6.85547C11.3906 6.96973 11.3699 7.08113 11.3283 7.18967C11.1919 7.56672 10.8241 7.91235 10.2901 8.20371C10.2872 8.20657 10.2812 8.20657 10.2783 8.20942C10.2694 8.21514 10.2605 8.21799 10.2516 8.22371C9.21335 8.77786 7.55815 9.13777 5.69531 9.13777C3.92739 9.13777 2.34635 8.81499 1.29924 8.30654C1.24288 8.28083 1.18949 8.25227 1.1361 8.22371C0.424182 7.8438 0 7.36963 0 6.85547C0 5.86143 1.58401 5.01306 3.79688 4.70171C4.10834 4.65886 4.43166 4.62459 4.76686 4.60173ZM12.3398 6.85547C12.3398 6.22991 12.0254 5.71575 11.625 5.33013C12.4644 5.20444 13.2327 5.00449 13.8853 4.74456C14.3688 4.55032 14.8197 4.31038 15.1875 4.01616V5.02734C15.1875 5.57864 14.6981 6.08708 13.8883 6.48127C13.4552 6.69265 12.9272 6.87261 12.3339 7.00972C12.3369 6.9583 12.3398 6.90974 12.3398 6.85833V6.85547ZM11.3906 9.59766C11.3906 10.1118 10.9664 10.586 10.2516 10.9688C10.1982 10.9973 10.1448 11.023 10.0884 11.0516C9.04428 11.56 7.46323 11.8828 5.69531 11.8828C3.83247 11.8828 2.17727 11.5229 1.13906 10.9688C0.424182 10.586 0 10.1118 0 9.59766V8.58647C0.370789 8.88069 0.818701 9.12063 1.30221 9.31487C2.4739 9.78618 4.02825 10.0547 5.69531 10.0547C7.36238 10.0547 8.91672 9.78618 10.0884 9.31487C10.3198 9.22346 10.5423 9.11777 10.7529 9.00352C10.9338 8.9064 11.1029 8.79785 11.2631 8.68359C11.3076 8.65217 11.3491 8.6179 11.3906 8.58647V8.68359V8.84641V9.59766ZM12.3398 9.59766V8.68359V7.94377C12.9034 7.8238 13.4225 7.67241 13.8853 7.48674C14.3688 7.29251 14.8197 7.05256 15.1875 6.75835V7.76953C15.1875 8.06946 15.0392 8.36938 14.7455 8.65217C14.262 9.11777 13.4107 9.50054 12.3339 9.74905C12.3369 9.70049 12.3398 9.64907 12.3398 9.59766ZM5.69531 12.7969C7.36238 12.7969 8.91672 12.5284 10.0884 12.0571C10.5719 11.8628 11.0228 11.6229 11.3906 11.3287V12.3398C11.3906 13.6024 8.8396 14.625 5.69531 14.625C2.55103 14.625 0 13.6024 0 12.3398V11.3287C0.370789 11.6229 0.818701 11.8628 1.30221 12.0571C2.4739 12.5284 4.02825 12.7969 5.69531 12.7969Z" fill="var(--fill-0, #A2A3BD)"/>
</svg>
