<svg preserveAspectRatio="none" width="100%" height="100%" overflow="visible" style="display: block;" viewBox="0 0 18.3849 18.3848" fill="none" xmlns="http://www.w3.org/2000/svg">
<g id="Group 1000015030">
<path id="Vector" d="M0.707253 0.707113C1.09778 0.316589 1.73094 0.316589 2.12147 0.707113L17.6778 16.2635C18.0683 16.654 18.0683 17.2872 17.6778 17.6777C17.2873 18.0682 16.6541 18.0682 16.2636 17.6777L0.707253 2.12133C0.316729 1.7308 0.316728 1.09764 0.707253 0.707113Z" fill="var(--fill-0, #A2A3BD)"/>
<path id="Vector_2" d="M0.707313 17.6777C0.316788 17.2872 0.316788 16.654 0.707313 16.2635L16.2637 0.707118C16.6542 0.316593 17.2874 0.316593 17.6779 0.707118C18.0684 1.09764 18.0684 1.73081 17.6779 2.12133L2.12153 17.6777C1.731 18.0682 1.09784 18.0682 0.707313 17.6777Z" fill="var(--fill-0, #A2A3BD)"/>
</g>
</svg>
