<svg preserveAspectRatio="none" width="100%" height="100%" overflow="visible" style="display: block;" viewBox="0 0 24 24" fill="none" xmlns="http://www.w3.org/2000/svg">
<g id="hamburger-icon">
<path id="Vector" d="M3.80812 20.8081C3.36181 20.3618 3.31658 19.6834 3.70711 19.2929L19.2635 3.73654C19.654 3.34602 20.3324 3.39125 20.7787 3.83756C21.225 4.28387 21.2702 4.96226 20.8797 5.35279L5.32335 20.9091C4.93283 21.2997 4.25444 21.2544 3.80812 20.8081Z" fill="var(--fill-0, #A2A3BD)"/>
<path id="Vector_2" d="M20.8081 21.1919C20.3618 21.6382 19.6834 21.6834 19.2929 21.2929L3.73654 5.73654C3.34602 5.34602 3.39125 4.66763 3.83756 4.22132C4.28387 3.775 4.96226 3.72978 5.35279 4.1203L20.9091 19.6766C21.2997 20.0672 21.2544 20.7456 20.8081 21.1919Z" fill="var(--fill-0, #A2A3BD)"/>
</g>
</svg>
