<svg preserveAspectRatio="none" width="100%" height="100%" overflow="visible" style="display: block;" viewBox="0 0 102.642 32" fill="none" xmlns="http://www.w3.org/2000/svg">
<g id="remix_logo_text">
<path id="Vector" d="M31.9955 11.2002C31.9883 11.2012 31.9811 11.1994 31.9751 11.1953C31.9692 11.1911 31.965 11.1849 31.9635 11.1778C31.2446 8.34958 29.602 5.84133 27.2955 4.04973C24.9889 2.25813 22.1501 1.28542 19.2278 1.28542C16.3056 1.28542 13.4667 2.25813 11.1602 4.04973C8.85366 5.84133 7.21107 8.34958 6.49218 11.1778C6.49064 11.1849 6.48648 11.1911 6.48054 11.1953C6.4746 11.1994 6.46732 11.2012 6.46013 11.2002C5.59165 11.2002 2.88364 11.3122 2.88364 13.6098C2.88364 16.349 3.20412 18.7298 4.80649 20.1122C5.49871 20.7042 6.66844 20.8482 7.77728 20.8226C8.4707 20.8005 9.16156 20.7278 9.84434 20.605C9.84972 20.6046 9.85487 20.6027 9.85922 20.5995C9.86356 20.5963 9.86693 20.592 9.86893 20.587C9.87093 20.582 9.87149 20.5765 9.87054 20.5712C9.8696 20.5659 9.86718 20.561 9.86357 20.557C8.65358 18.7311 8.00929 16.5897 8.01123 14.4002C8.01123 14.3682 8.01123 14.333 8.01123 14.301C8.01123 11.3306 9.19298 8.48183 11.2965 6.38142C13.4 4.28101 16.253 3.10102 19.2278 3.10102C22.2027 3.10102 25.0556 4.28101 27.1592 6.38142C29.2627 8.48183 30.4444 11.3306 30.4444 14.301C30.4444 14.333 30.4444 14.3682 30.4444 14.4002C30.4464 16.5897 29.8021 18.7311 28.5921 20.557C28.5885 20.561 28.5861 20.5659 28.5851 20.5712C28.5842 20.5765 28.5847 20.582 28.5867 20.587C28.5887 20.592 28.5921 20.5963 28.5964 20.5995C28.6008 20.6027 28.6059 20.6046 28.6113 20.605C29.2941 20.7278 29.985 20.8005 30.6784 20.8226C31.7872 20.8482 32.957 20.7042 33.6492 20.1122C35.2515 18.7458 35.572 16.349 35.572 13.6098C35.572 11.3122 32.864 11.2002 31.9955 11.2002Z" fill="var(--fill-0, #64C4FF)"/>
<path id="Vector_2" d="M19.2278 23.6801L10.7032 20.8417C10.6961 20.839 10.6883 20.8389 10.6811 20.8414C10.674 20.8439 10.6679 20.8488 10.6641 20.8554C10.6603 20.8619 10.6589 20.8696 10.6601 20.877C10.6614 20.8845 10.6653 20.8912 10.6711 20.8961L19.2054 29.4177C19.2113 29.4236 19.2194 29.4268 19.2278 29.4268C19.2362 29.4268 19.2442 29.4236 19.2502 29.4177L27.7845 20.8961C27.7903 20.8912 27.7941 20.8845 27.7954 20.877C27.7967 20.8696 27.7953 20.8619 27.7915 20.8554C27.7876 20.8488 27.7816 20.8439 27.7744 20.8414C27.7673 20.8389 27.7595 20.839 27.7524 20.8417L19.2278 23.6801Z" fill="var(--fill-0, #64C4FF)"/>
<path id="Vector_3" d="M26.8164 15.0078L28.8418 14.3998C28.8489 14.399 28.8554 14.3956 28.8602 14.3903C28.8649 14.385 28.8675 14.3781 28.8675 14.371C28.8618 13.6224 28.7682 12.877 28.5886 12.1502C28.5868 12.1436 28.5832 12.1377 28.578 12.1331C28.5729 12.1286 28.5666 12.1256 28.5598 12.1246L26.4992 11.939C26.4924 11.939 26.4859 11.9369 26.4804 11.933C26.475 11.929 26.4709 11.9235 26.4687 11.9171C26.4666 11.9107 26.4666 11.9039 26.4686 11.8975C26.4706 11.891 26.4745 11.8854 26.4799 11.8814L28.0118 10.5438C28.0149 10.5379 28.0165 10.5313 28.0165 10.5246C28.0165 10.5179 28.0149 10.5113 28.0118 10.5054C27.6996 9.81434 27.3069 9.16239 26.8421 8.563C26.837 8.5591 26.8308 8.55699 26.8244 8.55699C26.8181 8.55699 26.8119 8.5591 26.8068 8.563L24.9128 9.203C24.9068 9.20492 24.9004 9.20504 24.8943 9.20332C24.8882 9.20161 24.8828 9.19814 24.8787 9.19336C24.8746 9.18857 24.872 9.18268 24.8712 9.17643C24.8704 9.17017 24.8715 9.16383 24.8743 9.1582L25.698 7.3598C25.7017 7.35408 25.7037 7.34741 25.7037 7.3406C25.7037 7.33378 25.7017 7.32711 25.698 7.3214C25.1294 6.80757 24.501 6.36386 23.8264 5.9998C23.8213 5.9959 23.8151 5.99379 23.8088 5.99379C23.8024 5.99379 23.7962 5.9959 23.7911 5.9998L22.3586 7.3214C22.3541 7.32578 22.3485 7.32876 22.3423 7.32996C22.3362 7.33115 22.3298 7.33052 22.324 7.32814C22.3182 7.32575 22.3132 7.32172 22.3097 7.31654C22.3062 7.31136 22.3042 7.30526 22.3041 7.299L22.333 5.379C22.3333 5.37194 22.3313 5.36497 22.3272 5.35918C22.3232 5.35339 22.3173 5.34911 22.3106 5.347C21.5838 5.103 20.8309 4.94512 20.0672 4.8766C20.0602 4.87627 20.0532 4.8783 20.0474 4.88235C20.0416 4.8864 20.0373 4.89225 20.0352 4.899L19.2725 6.6718C19.2698 6.67721 19.2657 6.68177 19.2606 6.68496C19.2555 6.68815 19.2496 6.68985 19.2436 6.68985C19.2376 6.68985 19.2317 6.68815 19.2266 6.68496C19.2215 6.68177 19.2174 6.67721 19.2148 6.6718L18.4552 4.899C18.452 4.89259 18.4469 4.88733 18.4406 4.88389C18.4343 4.88046 18.4271 4.87903 18.42 4.8798C17.656 4.94774 16.9029 5.10674 16.1767 5.3534C16.1704 5.35624 16.165 5.36071 16.1611 5.36634C16.1571 5.37196 16.1548 5.37855 16.1542 5.3854L16.1799 7.3214C16.181 7.32773 16.1799 7.33424 16.1768 7.3399C16.1738 7.34555 16.1689 7.35002 16.163 7.35259C16.1571 7.35517 16.1505 7.3557 16.1443 7.35411C16.1381 7.35251 16.1325 7.34888 16.1286 7.3438L14.6769 6.003C14.6711 5.99928 14.6645 5.9973 14.6576 5.9973C14.6508 5.9973 14.6441 5.99928 14.6384 6.003C13.9647 6.36699 13.3374 6.81072 12.77 7.3246C12.7663 7.33031 12.7643 7.33698 12.7643 7.3438C12.7643 7.35061 12.7663 7.35728 12.77 7.363L13.6001 9.155C13.6019 9.16092 13.6022 9.16723 13.6008 9.17328C13.5994 9.17934 13.5965 9.18492 13.5923 9.18947C13.588 9.19402 13.5827 9.19737 13.5767 9.19918C13.5708 9.201 13.5645 9.20121 13.5584 9.1998L11.6676 8.5598C11.6619 8.55608 11.6552 8.5541 11.6484 8.5541C11.6415 8.5541 11.6349 8.55608 11.6291 8.5598C11.1675 9.16075 10.7781 9.81375 10.469 10.5054C10.4653 10.5111 10.4633 10.5178 10.4633 10.5246C10.4633 10.5314 10.4653 10.5381 10.469 10.5438L12.0041 11.8846C12.0084 11.8889 12.0113 11.8943 12.0127 11.9001C12.014 11.906 12.0136 11.9121 12.0116 11.9178C12.0096 11.9235 12.006 11.9285 12.0013 11.9323C11.9966 11.936 11.9909 11.9383 11.9849 11.939L9.93384 12.131C9.92732 12.1314 9.92106 12.1337 9.9159 12.1377C9.91075 12.1417 9.90694 12.1472 9.90499 12.1534C9.72105 12.8797 9.62316 13.6251 9.61336 14.3742C9.61304 14.3813 9.61506 14.3882 9.61912 14.394C9.62318 14.3998 9.62904 14.4041 9.6358 14.4062L11.6644 15.0398C11.6698 15.0424 11.6744 15.0465 11.6776 15.0516C11.6808 15.0567 11.6825 15.0626 11.6825 15.0686C11.6825 15.0746 11.6808 15.0805 11.6776 15.0856C11.6744 15.0907 11.6698 15.0948 11.6644 15.0974L9.79283 16.1406C9.78866 16.152 9.78866 16.1644 9.79283 16.1758C9.93137 16.9207 10.1573 17.6468 10.4658 18.339C10.5684 18.5662 10.6805 18.787 10.7863 19.0046C10.7926 19.0066 10.7993 19.0066 10.8055 19.0046L19.2276 21.811L27.6689 19.0014C27.673 19.0002 27.6768 18.9981 27.6801 18.9953C27.6834 18.9926 27.6861 18.9892 27.6881 18.9854C28.1656 18.0954 28.5019 17.1368 28.6848 16.1438C28.6863 16.137 28.6856 16.1299 28.6827 16.1235C28.6798 16.1172 28.6749 16.1119 28.6688 16.1086L26.8004 15.0654C26.7952 15.0615 26.7913 15.0562 26.7891 15.0501C26.787 15.044 26.7868 15.0373 26.7886 15.0311C26.7903 15.0248 26.7939 15.0193 26.7989 15.0151C26.8038 15.011 26.81 15.0084 26.8164 15.0078Z" fill="var(--fill-0, #64C4FF)"/>
<path id="Vector_4" d="M52.5571 23.0179V23.0787H51.0252L47.1795 17.3987H44.0741V23.0787H42.7409V9.38594H47.923C50.365 9.38594 52.3007 11.1363 52.3007 13.4115C52.3007 15.4659 50.8874 16.9955 48.6505 17.3379L52.5571 23.0179ZM47.8685 16.1923C49.7914 16.1923 50.9739 15.0627 50.9739 13.4307C50.9739 11.7987 49.7241 10.5923 47.9262 10.5923H44.0805V16.1923H47.8685Z" fill="var(--fill-0, #64C4FF)"/>
<path id="Vector_5" d="M63.719 21.8691V23.0787H55.3482V9.38594H63.5363V10.5923H56.6814V15.4659H62.7095V16.6403H56.6814V21.8563L63.719 21.8691Z" fill="var(--fill-0, #64C4FF)"/>
<path id="Vector_6" d="M80.8002 23.0786H79.5183L78.1948 13.6322C78.124 13.1859 78.077 12.7362 78.0538 12.285C77.791 12.7266 77.5506 13.1298 77.3071 13.5138L73.4614 19.6962H73.1601L69.3144 13.4722C69.0933 13.1298 68.8497 12.7266 68.6094 12.3234C68.5677 12.7874 68.4876 13.2322 68.4267 13.6322L67.1064 23.0786H65.7956L67.7537 9.28021H68.1543L72.4519 16.2466C72.7339 16.6914 73.0159 17.1522 73.2979 17.6962C73.5799 17.1522 73.862 16.6914 74.144 16.2274L78.4608 9.28021H78.8357L80.8002 23.0786Z" fill="var(--fill-0, #64C4FF)"/>
<path id="Vector_7" d="M84.0081 9.38594H85.3381V23.0787H84.0081V9.38594Z" fill="var(--fill-0, #64C4FF)"/>
<path id="Vector_8" d="M87.7581 23.0403L92.8216 15.9715L88.1844 9.42434V9.38594H89.7322L92.2736 12.9507C92.7159 13.5907 93.1805 14.2563 93.6228 14.9827C94.0875 14.2371 94.5297 13.5523 94.9752 12.9091L97.4749 9.38914H98.9875V9.42754L94.3535 15.9683L99.417 23.0403V23.0819H97.8819L94.9399 18.9219C94.4945 18.2819 94.0298 17.6419 93.6068 16.9475C93.1453 17.6739 92.7191 18.2979 92.2576 18.9411L89.2932 23.1011H87.7581V23.0403Z" fill="var(--fill-0, #64C4FF)"/>
</g>
</svg>
