<svg preserveAspectRatio="none" width="100%" height="100%" overflow="visible" style="display: block;" viewBox="0 0 622.6 31.5121" fill="none" xmlns="http://www.w3.org/2000/svg">
<path id="Vector" d="M0 31.5121L16.2231 1.4722H19.0109L2.8214 31.5121H0ZM20.1403 31.5121L36.3634 1.4722H39.1513L22.9617 31.5121H20.1403ZM69.9244 25.8686C68.7614 25.8686 67.6404 25.74 66.5656 25.4831C65.5138 25.2261 64.5839 24.8171 63.7778 24.2562C62.9717 23.6719 62.3335 22.9242 61.8632 22.0129C61.393 21.1015 61.1579 19.9914 61.1579 18.6829C61.1579 18.5894 61.1579 18.4842 61.1579 18.3674C61.1579 18.2272 61.1705 18.0986 61.1914 17.9819H64.5167C64.4957 18.1221 64.4831 18.2507 64.4831 18.3674C64.4831 18.4842 64.4831 18.6128 64.4831 18.753C64.4831 19.711 64.7077 20.494 65.1549 21.1015C65.6041 21.709 66.2297 22.1531 67.0358 22.4335C67.8419 22.7139 68.7824 22.8541 69.8573 22.8541C70.9321 22.8541 71.8621 22.7374 72.6451 22.5036C73.4302 22.2466 74.0348 21.826 74.4588 21.2417C74.9081 20.6574 75.1306 19.8863 75.1306 18.9283C75.1306 18.0636 74.885 17.3744 74.3917 16.8602C73.9004 16.346 73.2497 15.9372 72.4435 15.6333C71.6605 15.3063 70.7872 15.014 69.8236 14.757C68.8831 14.5001 67.9322 14.2196 66.9687 13.9158C66.0282 13.6119 65.1549 13.2147 64.3487 12.724C63.5657 12.2333 62.9276 11.5789 62.4342 10.7611C61.943 9.91981 61.6953 8.85663 61.6953 7.57131C61.6953 6.09911 62.0773 4.88389 62.8373 3.92586C63.5993 2.96784 64.6069 2.26679 65.8602 1.82272C67.1156 1.35543 68.4927 1.12167 69.9916 1.12167C71.4926 1.12167 72.8592 1.35543 74.0894 1.82272C75.3216 2.26679 76.2957 2.97945 77.0115 3.96092C77.7505 4.91894 78.1199 6.19265 78.1199 7.78162V8.2373H74.8619V7.67646C74.8619 6.88187 74.6498 6.21587 74.2237 5.67848C73.8206 5.11764 73.2496 4.69701 72.5107 4.41659C71.7948 4.13617 70.9552 3.99597 69.9916 3.99597C69.0973 3.99597 68.2912 4.11273 67.5732 4.34649C66.8574 4.58024 66.2864 4.94238 65.8602 5.43311C65.4571 5.92385 65.2556 6.5664 65.2556 7.36099C65.2556 8.1788 65.4907 8.83319 65.961 9.32392C66.4543 9.81466 67.0925 10.2118 67.8755 10.5157C68.6817 10.7961 69.5675 11.0531 70.529 11.2869C71.4925 11.5206 72.4435 11.7892 73.384 12.0931C74.3476 12.3969 75.2208 12.7941 76.0039 13.2848C76.81 13.7756 77.4608 14.4416 77.952 15.2828C78.4684 16.1006 78.7245 17.1522 78.7245 18.4375C78.7245 20.2368 78.3341 21.6858 77.549 22.784C76.789 23.859 75.7352 24.6418 74.3917 25.1325C73.0712 25.6233 71.5828 25.8686 69.9244 25.8686ZM82.4738 25.5181V1.4722H92.6511C93.8603 1.4722 94.9582 1.77606 95.9427 2.38356C96.9273 2.99106 97.7124 3.80909 98.2939 4.83722C98.8985 5.86535 99.2008 6.99886 99.2008 8.2373V8.58782C99.2008 9.82627 98.8985 10.9714 98.2939 12.023C97.7124 13.0745 96.9273 13.9158 95.9427 14.5467C94.9582 15.1542 93.8603 15.4581 92.6511 15.4581H85.967V25.5181H82.4738ZM85.967 12.4786H91.8113C92.5272 12.4786 93.178 12.3034 93.7595 11.9528C94.341 11.6023 94.8007 11.1232 95.1366 10.5157C95.4725 9.9082 95.6404 9.21876 95.6404 8.44761C95.6404 7.6999 95.4725 7.02208 95.1366 6.41458C94.8007 5.80708 94.341 5.32796 93.7595 4.97743C93.199 4.60347 92.5503 4.41659 91.8113 4.41659H85.967V12.4786ZM102.614 25.5181V1.4722H110.642C111.918 1.4722 113.104 1.64746 114.202 1.99798C115.298 2.3485 116.262 2.92095 117.091 3.71555C117.918 4.4867 118.569 5.51483 119.039 6.80016C119.509 8.06204 119.744 9.60434 119.744 11.4271V15.5632C119.744 17.3393 119.509 18.8695 119.039 20.1549C118.569 21.4168 117.918 22.4451 117.091 23.2397C116.262 24.0109 115.298 24.5833 114.202 24.9573C113.104 25.3312 111.918 25.5181 110.642 25.5181H102.614ZM106.175 22.5387H110.407C111.502 22.5387 112.476 22.3518 113.329 21.9778C114.179 21.5806 114.851 20.9028 115.344 19.9448C115.858 18.9868 116.117 17.6313 116.117 15.8787V11.0765C116.117 9.37059 115.858 8.0386 115.344 7.08057C114.851 6.09911 114.179 5.40967 113.329 5.01249C112.476 4.6153 111.502 4.41659 110.407 4.41659H106.175V22.5387ZM120.605 25.5181L128.129 12.8642L121.344 1.4722H125.374L130.581 10.1652H130.648L135.787 1.4722H139.381L132.596 12.8993L140.12 25.5181H136.089L130.142 15.6684H130.043L124.333 25.5181H120.605ZM146.252 17.6664V14.4065H154.749V17.6664H146.252ZM164.041 25.5181V1.4722H167.568V22.4335H178.013L178.484 25.5181H164.041ZM190.025 25.5181V10.3404H183.879V7.60636H193.384V25.5181H190.025ZM183.879 25.5181V22.8191H199.195V25.5181H183.879ZM189.891 3.92586V0.560839H193.048V3.92586H189.891ZM210.569 25.8686C209.515 25.8686 208.52 25.6583 207.579 25.2377C206.66 24.8171 205.854 24.2212 205.161 23.45C204.489 22.6554 203.962 21.7208 203.583 20.6458C203.2 19.5476 203.011 18.3208 203.011 16.9653V16.1241C203.011 14.7686 203.2 13.5536 203.583 12.4786C203.962 11.3804 204.489 10.4456 205.161 9.67445C205.854 8.87986 206.66 8.28397 207.579 7.88678C208.497 7.46615 209.505 7.25584 210.602 7.25584H211.006C212.393 7.25584 213.613 7.55969 214.667 8.16719C215.718 8.75147 216.548 9.59273 217.152 10.691C217.757 11.766 218.059 13.0745 218.059 14.6168H215.036C215.036 13.4717 214.856 12.5487 214.499 11.8477C214.14 11.1232 213.646 10.5974 213.021 10.2703C212.416 9.91981 211.698 9.74455 210.871 9.74455C209.662 9.74455 208.631 10.2118 207.781 11.1466C206.952 12.058 206.538 13.4717 206.538 15.388V17.7365C206.538 19.5827 206.941 20.9847 207.747 21.9428C208.575 22.9008 209.649 23.3797 210.972 23.3797C211.778 23.3797 212.483 23.2163 213.088 22.8892C213.714 22.5387 214.196 22.0129 214.532 21.3118C214.889 20.5873 215.07 19.6528 215.07 18.5076H218.059C218.059 20.0734 217.744 21.4054 217.119 22.5036C216.514 23.6018 215.674 24.4431 214.599 25.0274C213.546 25.5882 212.336 25.8686 210.972 25.8686H210.569ZM231.043 25.8686C229.252 25.8686 227.764 25.4947 226.576 24.747C225.413 23.9992 224.539 22.9477 223.956 21.5922C223.397 20.2368 223.116 18.6829 223.116 16.9303V16.1942C223.116 14.3715 223.442 12.7941 224.09 11.4621C224.741 10.1301 225.669 9.102 226.878 8.37751C228.087 7.6298 229.521 7.25584 231.177 7.25584C232.722 7.25584 234.045 7.58292 235.141 8.2373C236.262 8.89169 237.122 9.7796 237.727 10.9013C238.355 12.023 238.668 13.3083 238.668 14.757V17.1406H226.609V17.7365C226.609 19.5827 227.035 20.9847 227.886 21.9428C228.738 22.9008 229.813 23.3797 231.11 23.3797C232.544 23.3797 233.629 23.0178 234.368 22.2933C235.13 21.5688 235.51 20.4471 235.51 18.9283H238.668C238.668 20.3538 238.344 21.5922 237.693 22.6438C237.068 23.6719 236.182 24.4665 235.04 25.0274C233.921 25.5882 232.588 25.8686 231.043 25.8686ZM226.643 14.8622H235.376V14.3364C235.376 13.4485 235.197 12.6655 234.838 11.9879C234.503 11.2869 234.011 10.7376 233.361 10.3404C232.712 9.94325 231.962 9.74455 231.11 9.74455C230.149 9.74455 229.33 9.98992 228.658 10.4807C228.01 10.9714 227.506 11.6023 227.147 12.3735C226.811 13.1212 226.643 13.8923 226.643 14.6869V14.8622ZM243.995 25.5181V7.60636H246.716L247.052 10.1652C247.566 9.16027 248.295 8.42417 249.235 7.95688C250.176 7.48959 251.217 7.25584 252.359 7.25584C254.24 7.25584 255.741 7.80506 256.86 8.90329C257.979 10.0015 258.539 11.6258 258.539 13.7756V25.5181H255.18V14.7921C255.18 13.1096 254.844 11.8827 254.173 11.1116C253.524 10.3404 252.605 9.95486 251.418 9.95486C250.589 9.95486 249.873 10.1768 249.269 10.6209C248.664 11.0415 248.194 11.6374 247.858 12.4085C247.522 13.1562 247.354 14.0209 247.354 15.0024V25.5181H243.995ZM271.089 25.8686C269.678 25.8686 268.422 25.6699 267.327 25.2727C266.252 24.8521 265.4 24.2562 264.774 23.4851C264.169 22.6905 263.867 21.7559 263.867 20.6809C263.867 20.6108 263.867 20.5056 263.867 20.3654C263.867 20.2252 263.878 20.0734 263.901 19.9097H266.789V20.26C266.789 21.2415 267.192 22.0126 267.998 22.5735C268.826 23.1109 270.001 23.3797 271.525 23.3797C272.89 23.3797 273.92 23.1345 274.615 22.6438C275.331 22.1296 275.69 21.4636 275.69 20.6458C275.69 20.1084 275.543 19.6644 275.253 19.3138C274.962 18.9633 274.435 18.6595 273.675 18.4025C272.936 18.1455 271.861 17.9001 270.45 17.6664C268.949 17.386 267.74 17.0471 266.823 16.6499C265.903 16.2292 265.244 15.6918 264.841 15.0375C264.438 14.3599 264.237 13.5186 264.237 12.5137C264.237 11.3453 264.539 10.3755 265.143 9.60434C265.748 8.83319 266.588 8.24891 267.663 7.85172C268.758 7.45454 270.035 7.25584 271.492 7.25584C272.768 7.25584 273.91 7.45454 274.918 7.85172C275.946 8.24891 276.765 8.80975 277.37 9.53424C277.974 10.2353 278.276 11.0882 278.276 12.0931C278.276 12.1632 278.276 12.2449 278.276 12.3384C278.276 12.432 278.253 12.5604 278.209 12.724H275.287C275.287 11.8827 275.096 11.2518 274.716 10.8312C274.357 10.3871 273.864 10.0951 273.238 9.95486C272.634 9.79121 271.962 9.7095 271.223 9.7095C268.624 9.7095 267.327 10.5508 267.327 12.2333C267.327 12.6773 267.461 13.0511 267.73 13.3549C267.998 13.6354 268.479 13.8923 269.174 14.1261C269.89 14.3599 270.908 14.6052 272.231 14.8622C273.864 15.1661 275.153 15.5398 276.093 15.9839C277.055 16.4279 277.75 17.0004 278.176 17.7014C278.6 18.379 278.814 19.2672 278.814 20.3654C278.814 21.6039 278.499 22.6322 277.873 23.45C277.269 24.2678 276.383 24.8756 275.22 25.2727C274.078 25.6699 272.701 25.8686 271.089 25.8686ZM291.464 25.8686C289.671 25.8686 288.183 25.4947 286.997 24.747C285.832 23.9992 284.958 22.9477 284.377 21.5922C283.816 20.2368 283.537 18.6829 283.537 16.9303V16.1942C283.537 14.3715 283.86 12.7941 284.511 11.4621C285.16 10.1301 286.09 9.102 287.299 8.37751C288.508 7.6298 289.94 7.25584 291.598 7.25584C293.143 7.25584 294.464 7.58292 295.562 8.2373C296.681 8.89169 297.543 9.7796 298.148 10.9013C298.774 12.023 299.089 13.3083 299.089 14.757V17.1406H287.03V17.7365C287.03 19.5827 287.454 20.9847 288.307 21.9428C289.157 22.9008 290.232 23.3797 291.531 23.3797C292.963 23.3797 294.05 23.0178 294.789 22.2933C295.549 21.5688 295.931 20.4471 295.931 18.9283H299.089C299.089 20.3538 298.763 21.5922 298.115 22.6438C297.487 23.6719 296.603 24.4665 295.461 25.0274C294.34 25.5882 293.009 25.8686 291.464 25.8686ZM287.064 14.8622H295.797V14.3364C295.797 13.4485 295.616 12.6655 295.259 11.9879C294.924 11.2869 294.43 10.7376 293.782 10.3404C293.131 9.94325 292.381 9.74455 291.531 9.74455C290.568 9.74455 289.751 9.98992 289.079 10.4807C288.428 10.9714 287.925 11.6023 287.568 12.3735C287.232 13.1212 287.064 13.8923 287.064 14.6869V14.8622ZM307.37 17.6664V14.4065H315.868V17.6664H307.37ZM325.26 25.5181V22.6438H329.962V4.34649H325.26V1.4722H338.225V4.34649H333.523V22.6438H338.225V25.5181H325.26ZM350.506 25.8686C349.274 25.8686 348.142 25.5648 347.113 24.9573C346.083 24.3263 345.253 23.3565 344.628 22.0479C344.023 20.7159 343.721 18.9868 343.721 16.8602V16.4746C343.721 14.4882 344.023 12.8057 344.628 11.4271C345.232 10.0484 346.049 9.00845 347.08 8.30741C348.132 7.60636 349.297 7.25584 350.573 7.25584C351.715 7.25584 352.71 7.47776 353.562 7.92183C354.413 8.34246 355.074 8.92674 355.544 9.67445V0.280419H358.903V25.5181H356.182L355.813 22.9593C355.319 23.8941 354.625 24.6184 353.73 25.1325C352.834 25.6233 351.759 25.8686 350.506 25.8686ZM351.312 23.3449C352.542 23.3449 353.55 22.8776 354.335 21.9428C355.141 20.9847 355.544 19.5125 355.544 17.5262V15.5632C355.544 13.6003 355.141 12.1397 354.335 11.1817C353.55 10.2237 352.542 9.74455 351.312 9.74455C350.08 9.74455 349.062 10.2353 348.255 11.2167C347.47 12.1748 347.08 13.6238 347.08 15.5632V17.4911C347.08 19.4775 347.47 20.9497 348.255 21.9077C349.062 22.8657 350.08 23.3449 351.312 23.3449ZM372.023 25.8686C370.231 25.8686 368.742 25.4947 367.556 24.747C366.391 23.9992 365.518 22.9477 364.936 21.5922C364.376 20.2368 364.097 18.6829 364.097 16.9303V16.1942C364.097 14.3715 364.42 12.7941 365.071 11.4621C365.719 10.1301 366.649 9.102 367.858 8.37751C369.068 7.6298 370.499 7.25584 372.158 7.25584C373.703 7.25584 375.023 7.58292 376.121 8.2373C377.24 8.89169 378.103 9.7796 378.707 10.9013C379.333 12.023 379.648 13.3083 379.648 14.757V17.1406H367.59V17.7365C367.59 19.5827 368.014 20.9847 368.866 21.9428C369.716 22.9008 370.791 23.3797 372.09 23.3797C373.522 23.3797 374.61 23.0178 375.349 22.2933C376.108 21.5688 376.491 20.4471 376.491 18.9283H379.648C379.648 20.3538 379.322 21.5922 378.674 22.6438C378.046 23.6719 377.162 24.4665 376.02 25.0274C374.899 25.5882 373.568 25.8686 372.023 25.8686ZM367.623 14.8622H376.356V14.3364C376.356 13.4485 376.176 12.6655 375.819 11.9879C375.483 11.2869 374.99 10.7376 374.341 10.3404C373.69 9.94325 372.941 9.74455 372.09 9.74455C371.127 9.74455 370.31 9.98992 369.639 10.4807C368.988 10.9714 368.484 11.6023 368.127 12.3735C367.791 13.1212 367.623 13.8923 367.623 14.6869V14.8622ZM384.974 25.5181V7.60636H387.694L388.03 10.1652C388.547 9.16027 389.273 8.42417 390.213 7.95688C391.154 7.48959 392.195 7.25584 393.337 7.25584C395.218 7.25584 396.719 7.80506 397.838 8.90329C398.959 10.0015 399.517 11.6258 399.517 13.7756V25.5181H396.159V14.7921C396.159 13.1096 395.823 11.8827 395.151 11.1116C394.502 10.3404 393.585 9.95486 392.397 9.95486C391.57 9.95486 390.852 10.1768 390.247 10.6209C389.642 11.0415 389.172 11.6374 388.836 12.4085C388.5 13.1562 388.332 14.0209 388.332 15.0024V25.5181H384.974ZM415.426 25.8686C413.41 25.8686 411.809 25.4129 410.622 24.5016C409.436 23.5668 408.842 22.0479 408.842 19.9448V10.3404H403.871V7.60636H408.943L410.119 1.89283H412.201V7.60636H419.96V10.3404H412.201V19.6644C412.201 20.459 412.359 21.1131 412.671 21.6273C412.984 22.1415 413.444 22.5152 414.048 22.749C414.653 22.9827 415.415 23.0995 416.333 23.0995C417.048 23.0995 417.71 23.006 418.314 22.8191C418.942 22.6088 419.49 22.3868 419.96 22.1531V24.8521C419.423 25.1792 418.74 25.4246 417.911 25.5882C417.082 25.7751 416.255 25.8686 415.426 25.8686ZM431.703 25.5181V10.3404H425.557V7.60636H435.062V25.5181H431.703ZM425.557 25.5181V22.8191H440.873V25.5181H425.557ZM431.569 3.92586V0.560839H434.726V3.92586H431.569ZM450.131 25.5181V10.3404H445.328V7.60636H450.131V5.74859C450.131 4.44004 450.42 3.36503 451.004 2.52377C451.585 1.68251 452.381 1.05157 453.389 0.630942C454.396 0.210314 455.515 0 456.748 0C457.419 0 458.135 0.0817147 458.897 0.245365C459.657 0.385575 460.285 0.584276 460.778 0.841254V3.32997C460.329 3.1431 459.838 2.97945 459.298 2.83924C458.763 2.67559 458.192 2.59387 457.587 2.59387C456.869 2.59387 456.198 2.69903 455.572 2.90934C454.944 3.09622 454.44 3.43513 454.06 3.92586C453.701 4.4166 453.523 5.12925 453.523 6.06405V7.60636H460.341V10.3404H453.523V25.5181H450.131ZM445.294 25.5181V22.8191H460.543V25.5181H445.294ZM471.982 25.5181V10.3404H465.835V7.60636H475.341V25.5181H471.982ZM465.835 25.5181V22.8191H481.151V25.5181H465.835ZM471.848 3.92586V0.560839H475.005V3.92586H471.848ZM492.861 25.8686C491.071 25.8686 489.58 25.4947 488.394 24.747C487.229 23.9992 486.356 22.9477 485.774 21.5922C485.214 20.2368 484.934 18.6829 484.934 16.9303V16.1942C484.934 14.3715 485.26 12.7941 485.908 11.4621C486.557 10.1301 487.487 9.102 488.696 8.37751C489.905 7.6298 491.339 7.25584 492.996 7.25584C494.541 7.25584 495.861 7.58292 496.959 8.2373C498.078 8.89169 498.941 9.7796 499.545 10.9013C500.173 12.023 500.486 13.3083 500.486 14.757V17.1406H488.428V17.7365C488.428 19.5827 488.854 20.9847 489.704 21.9428C490.554 22.9008 491.629 23.3797 492.928 23.3797C494.362 23.3797 495.447 23.0178 496.186 22.2933C496.948 21.5688 497.328 20.4471 497.328 18.9283H500.486C500.486 20.3538 500.16 21.5922 499.512 22.6438C498.884 23.6719 498 24.4665 496.858 25.0274C495.739 25.5882 494.406 25.8686 492.861 25.8686ZM488.461 14.8622H497.194V14.3364C497.194 13.4485 497.016 12.6655 496.657 11.9879C496.321 11.2869 495.827 10.7376 495.179 10.3404C494.53 9.94325 493.779 9.74455 492.928 9.74455C491.965 9.74455 491.148 9.98992 490.476 10.4807C489.828 10.9714 489.324 11.6023 488.965 12.3735C488.629 13.1212 488.461 13.8923 488.461 14.6869V14.8622ZM508.803 25.5181V10.3404H504.47V7.60636H511.524L511.692 10.2353C512.095 9.30048 512.71 8.57621 513.539 8.06204C514.389 7.52464 515.363 7.25584 516.461 7.25584C518.141 7.25584 519.427 7.78162 520.324 8.83319C521.241 9.86132 521.701 11.1817 521.701 12.7941C521.701 13.0511 521.688 13.2964 521.667 13.5302C521.667 13.7405 521.644 13.9975 521.6 14.3014H518.745V13.5653C518.745 12.9343 518.621 12.35 518.376 11.8126C518.151 11.2752 517.792 10.8428 517.301 10.5157C516.831 10.1652 516.213 9.98992 515.454 9.98992C514.715 9.98992 514.087 10.2118 513.573 10.6559C513.079 11.1 512.71 11.6608 512.464 12.3384C512.216 13.016 512.095 13.7289 512.095 14.4766V25.5181H508.803ZM504.302 25.5181V22.8191H519.786V25.5181H504.302ZM530.959 25.5181V21.1716H535.325V25.5181H530.959ZM530.959 11.9178V7.57131H535.325V11.9178H530.959ZM565.359 25.5181V1.4722H570.129L573.32 20.4005H573.454L576.779 1.4722H581.482V25.5181H578.324V5.74859H578.156L574.764 25.5181H571.64L568.349 5.74859H568.181V25.5181H565.359ZM587.078 25.5181V22.6438H591.781V4.34649H587.078V1.4722H600.043V4.34649H595.341V22.6438H600.043V25.5181H587.078ZM611.955 25.5181V4.52175H604.8V1.4722H622.6V4.52175H615.448V25.5181H611.955Z" fill="var(--fill-0, #698A55)"/>
</svg>
