<svg preserveAspectRatio="none" width="100%" height="100%" overflow="visible" style="display: block;" viewBox="0 0 215.338 25.413" fill="none" xmlns="http://www.w3.org/2000/svg">
<path id="Vector" d="M11.7895 25.413C9.32703 25.413 7.211 24.8981 5.44132 23.8706C3.69473 22.8191 2.35123 21.3469 1.41076 19.4541C0.470293 17.5371 0 15.2828 0 12.6889C0 10.0951 0.470293 7.85173 1.41076 5.9589C2.35123 4.06607 3.69473 2.60483 5.44132 1.57736C7.211 0.525788 9.32703 0 11.7895 0C13.3807 0 14.8796 0.256298 16.2903 0.771129C17.7241 1.28596 18.8997 2.02212 19.8171 2.97948L18.4064 6.5548C17.3987 5.66754 16.3701 5.02344 15.3163 4.62691C14.2645 4.20628 13.1331 3.99598 11.9239 3.99598C9.52861 3.99598 7.70435 4.7562 6.44899 6.2744C5.19573 7.7707 4.56805 9.90884 4.56805 12.6889C4.56805 15.469 5.19573 17.6204 6.44899 19.1386C7.70435 20.6568 9.52861 21.417 11.9239 21.417C13.1331 21.417 14.2645 21.2176 15.3163 20.8211C16.3701 20.4005 17.3987 19.7454 18.4064 18.8582L19.8171 22.4335C18.8997 23.3689 17.7241 24.1051 16.2903 24.6418C14.8796 25.1567 13.3807 25.413 11.7895 25.413ZM23.1675 25.0624V0.350531H27.366V11.3569H26.8958C27.387 10.1192 28.1491 9.1837 29.1798 8.55275C30.2316 7.89771 31.4176 7.57129 32.7402 7.57129C34.0606 7.57129 35.1459 7.82766 35.9982 8.34249C36.8484 8.85732 37.4866 9.63941 37.9127 10.691C38.3368 11.7184 38.5509 13.0285 38.5509 14.6168V25.0624H34.3524V14.8272C34.3524 13.9399 34.239 13.2147 34.0165 12.6539C33.815 12.0931 33.4896 11.6834 33.0425 11.4271C32.6163 11.1467 32.0684 11.0065 31.3967 11.0065C30.5905 11.0065 29.8851 11.1926 29.2805 11.5673C28.676 11.9178 28.2057 12.4326 27.8698 13.1096C27.534 13.7646 27.366 14.5358 27.366 15.4231V25.0624H23.1675ZM50.9093 25.413C49.0514 25.413 47.4497 25.0515 46.1062 24.3263C44.7627 23.6012 43.7214 22.5737 42.9825 21.2418C42.2666 19.9098 41.9077 18.3324 41.9077 16.5097C41.9077 14.733 42.254 13.1797 42.9489 11.8477C43.6647 10.5157 44.6388 9.47511 45.8711 8.72805C47.1243 7.9569 48.5477 7.57129 50.1368 7.57129C51.705 7.57129 53.0484 7.92184 54.1674 8.62289C55.2863 9.32393 56.1491 10.3163 56.7536 11.6023C57.3813 12.8883 57.6941 14.4175 57.6941 16.1942V17.4911H45.3001V14.9674H54.7384L54.2009 15.4931C54.2009 13.9048 53.8651 12.6889 53.1933 11.8477C52.5216 10.9823 51.558 10.5508 50.3047 10.5508C49.3642 10.5508 48.5581 10.7852 47.8863 11.2518C47.2377 11.6966 46.7338 12.3384 46.3749 13.1797C46.039 13.9968 45.8711 14.9783 45.8711 16.1241V16.3695C45.8711 17.6555 46.0621 18.718 46.4421 19.5592C46.822 20.4005 47.3931 21.0314 48.1551 21.452C48.9171 21.8726 49.8576 22.083 50.9765 22.083C51.8939 22.083 52.8133 21.9428 53.7307 21.6624C54.6481 21.3578 55.4878 20.8912 56.2498 20.2603L57.4254 23.2047C56.6424 23.8816 55.6558 24.4205 54.4697 24.8171C53.2836 25.2136 52.0954 25.413 50.9093 25.413ZM68.6103 25.413C66.8847 25.413 65.3858 25.0515 64.1095 24.3263C62.8331 23.5793 61.8465 22.5277 61.1537 21.1716C60.4589 19.8155 60.1125 18.2272 60.1125 16.4045C60.1125 14.5818 60.4589 13.0154 61.1537 11.7075C61.8465 10.3755 62.8331 9.35897 64.1095 8.65792C65.3858 7.93277 66.8847 7.57129 68.6103 7.57129C69.662 7.57129 70.7033 7.7466 71.734 8.09712C72.7627 8.44765 73.615 8.93837 74.2867 9.56932L73.044 12.6189C72.4604 12.0821 71.8012 11.6725 71.0623 11.392C70.3443 11.1116 69.6515 10.9714 68.9798 10.9714C67.5229 10.9714 66.3935 11.4512 65.5874 12.4085C64.8022 13.344 64.4118 14.6869 64.4118 16.4395C64.4118 18.1681 64.8022 19.5351 65.5874 20.5407C66.3935 21.5222 67.5229 22.0129 68.9798 22.0129C69.6284 22.0129 70.3233 21.8726 71.0623 21.5922C71.8012 21.3118 72.4604 20.8912 73.044 20.3304L74.2867 23.4149C73.615 24.0218 72.7521 24.5126 71.7004 24.8872C70.6697 25.2377 69.639 25.413 68.6103 25.413ZM76.8625 25.0624V0.350531H81.0611V15.2127H81.1283L87.7451 7.92182H92.8169L84.5542 17.0354V15.2127L93.2872 25.0624H88.1482L81.1283 17.421H81.0611V25.0624H76.8625ZM109.33 25.413C108.144 25.413 107.079 25.1785 106.139 24.7119C105.221 24.2212 104.493 23.5661 103.956 22.749C103.441 21.9318 103.183 21.0073 103.183 19.9798C103.183 18.7179 103.498 17.7256 104.124 17.0004C104.751 16.2534 105.769 15.7144 107.18 15.388C108.591 15.0616 110.484 14.8972 112.857 14.8972H114.536V17.421H112.89C111.838 17.421 110.955 17.467 110.237 17.5612C109.521 17.6313 108.939 17.7606 108.49 17.9468C108.066 18.1111 107.751 18.3433 107.55 18.6478C107.371 18.9524 107.281 19.3248 107.281 19.7696C107.281 20.5407 107.539 21.1716 108.053 21.6624C108.57 22.1531 109.286 22.3984 110.203 22.3984C110.942 22.3984 111.593 22.2232 112.151 21.8727C112.735 21.4981 113.192 20.9963 113.528 20.3654C113.864 19.7344 114.032 19.0094 114.032 18.1922V14.1611C114.032 12.9934 113.787 12.1522 113.293 11.6374C112.802 11.1226 111.973 10.8662 110.808 10.8662C109.89 10.8662 108.95 11.0174 107.986 11.3219C107.025 11.6023 106.051 12.0471 105.064 12.6539L103.855 9.67448C104.438 9.25385 105.121 8.89237 105.904 8.58785C106.71 8.26143 107.55 8.01607 108.423 7.85176C109.319 7.66554 110.159 7.57129 110.942 7.57129C112.554 7.57129 113.877 7.82766 114.905 8.34249C115.959 8.85732 116.742 9.63941 117.257 10.691C117.773 11.7184 118.029 13.0504 118.029 14.687V25.0624H114.099V21.417H114.368C114.213 22.2341 113.898 22.9484 113.428 23.5552C112.98 24.1401 112.409 24.5958 111.714 24.9222C111.022 25.2487 110.226 25.413 109.33 25.413ZM122.291 25.0624V7.92182H126.388V11.3569H126.019C126.512 10.1192 127.274 9.1837 128.303 8.55275C129.357 7.89771 130.543 7.57129 131.863 7.57129C133.186 7.57129 134.271 7.82766 135.121 8.34249C135.974 8.85732 136.612 9.63941 137.036 10.691C137.462 11.7184 137.674 13.0285 137.674 14.6168V25.0624H133.475V14.8272C133.475 13.9399 133.364 13.2147 133.14 12.6539C132.938 12.0931 132.615 11.6834 132.166 11.4271C131.741 11.1467 131.191 11.0065 130.52 11.0065C129.714 11.0065 129.008 11.1926 128.404 11.5673C127.799 11.9178 127.329 12.4326 126.993 13.1096C126.657 13.7646 126.489 14.5358 126.489 15.4231V25.0624H122.291ZM147.952 25.413C147.033 25.413 146.138 25.3319 145.265 25.1676C144.413 25.0033 143.63 24.782 142.914 24.5016C142.196 24.1971 141.57 23.8246 141.033 23.3799L142.108 20.5057C142.666 20.8803 143.271 21.2067 143.921 21.4871C144.57 21.7675 145.242 21.9778 145.937 22.118C146.629 22.2583 147.314 22.3284 147.986 22.3284C149.06 22.3284 149.854 22.1421 150.37 21.7675C150.908 21.371 151.176 20.8561 151.176 20.2252C151.176 19.6885 150.996 19.2788 150.639 18.9984C150.303 18.6938 149.787 18.4726 149.094 18.3324L145.735 17.6664C144.346 17.386 143.283 16.8602 142.544 16.089C141.826 15.2938 141.47 14.2772 141.47 13.0395C141.47 11.9178 141.759 10.9473 142.343 10.1301C142.947 9.31295 143.775 8.68205 144.828 8.23732C145.88 7.7926 147.089 7.57129 148.456 7.57129C149.239 7.57129 150.001 7.65235 150.74 7.81666C151.479 7.95687 152.172 8.17817 152.822 8.48269C153.494 8.76311 154.076 9.13771 154.569 9.60435L153.427 12.4787C153.001 12.104 152.507 11.7886 151.949 11.5322C151.389 11.2518 150.807 11.0415 150.202 10.9013C149.619 10.737 149.048 10.6559 148.489 10.6559C147.392 10.6559 146.575 10.8553 146.037 11.2518C145.521 11.6484 145.265 12.1741 145.265 12.8291C145.265 13.3199 145.42 13.7296 145.735 14.056C146.048 14.3824 146.529 14.6059 147.18 14.722L150.538 15.388C151.993 15.6684 153.091 16.1832 153.83 16.9303C154.59 17.6773 154.972 18.6829 154.972 19.9448C154.972 21.0906 154.68 22.072 154.099 22.8892C153.515 23.7063 152.698 24.3373 151.647 24.782C150.593 25.2027 149.363 25.413 147.952 25.413ZM162.546 25.0624L156.064 7.92182H160.363L164.931 21.0665H164.158L168.794 7.92182H171.749L176.317 21.0665H175.612L180.18 7.92182H184.244L177.795 25.0624H174.134L169.163 11.3569H171.078L166.207 25.0624H162.546ZM194.413 25.413C192.555 25.413 190.953 25.0515 189.61 24.3263C188.266 23.6012 187.225 22.5737 186.486 21.2418C185.77 19.9098 185.411 18.3324 185.411 16.5097C185.411 14.733 185.76 13.1797 186.453 11.8477C187.171 10.5157 188.145 9.47511 189.375 8.72805C190.63 7.9569 192.051 7.57129 193.64 7.57129C195.209 7.57129 196.552 7.92184 197.671 8.62289C198.792 9.32393 199.653 10.3163 200.257 11.6023C200.885 12.8883 201.198 14.4175 201.198 16.1942V17.4911H188.804V14.9674H198.242L197.705 15.4931C197.705 13.9048 197.369 12.6889 196.697 11.8477C196.025 10.9823 195.064 10.5508 193.808 10.5508C192.868 10.5508 192.062 10.7852 191.39 11.2518C190.741 11.6966 190.238 12.3384 189.879 13.1797C189.543 13.9968 189.375 14.9783 189.375 16.1241V16.3695C189.375 17.6555 189.566 18.718 189.946 19.5592C190.328 20.4005 190.899 21.0314 191.659 21.452C192.421 21.8726 193.361 22.083 194.48 22.083C195.4 22.083 196.317 21.9428 197.234 21.6624C198.154 21.3578 198.994 20.8912 199.754 20.2603L200.929 23.2047C200.146 23.8816 199.161 24.4205 197.973 24.8171C196.787 25.2136 195.601 25.413 194.413 25.413ZM204.523 25.0624V7.92182H208.621V12.058H208.285C208.6 10.6559 209.215 9.5934 210.132 8.86825C211.052 8.1212 212.271 7.6874 213.793 7.57129L215.07 7.46613L215.338 11.1817L212.92 11.4271C211.556 11.5673 210.525 12.012 209.83 12.7591C209.137 13.4842 208.789 14.5117 208.789 15.8436V25.0624H204.523Z" fill="var(--fill-0, white)"/>
</svg>
