<svg preserveAspectRatio="none" width="100%" height="100%" overflow="visible" style="display: block;" viewBox="0 0 773.543 117.312" fill="none" xmlns="http://www.w3.org/2000/svg">
<path id="Vector" d="M228.054 29.5867C226.353 27.5537 225.031 25.2643 224.09 22.7165C223.173 20.1686 222.713 17.5287 222.713 14.7946C222.713 12.0846 223.173 9.45572 224.09 6.90785C225.031 4.35999 226.353 2.07063 228.054 0.0375894H229.935C229.128 1.36958 228.402 2.85273 227.751 4.48923C227.103 6.10164 226.588 7.78416 226.206 9.53677C225.826 11.2894 225.635 13.042 225.635 14.7946C225.635 16.5231 225.826 18.2758 226.206 20.0525C226.588 21.8292 227.092 23.5227 227.718 25.1351C228.369 26.7716 229.107 28.2547 229.935 29.5867H228.054ZM243.357 0.0375894C245.081 2.07063 246.403 4.35999 247.321 6.90785C248.238 9.45572 248.698 12.0956 248.698 14.8297C248.698 17.5178 248.238 20.1467 247.321 22.7165C246.403 25.2643 245.081 27.5537 243.357 29.5867H241.51C242.316 28.2306 243.032 26.7475 243.66 25.1351C244.308 23.5227 244.825 21.8401 245.205 20.0875C245.585 18.3108 245.776 16.5582 245.776 14.8297C245.776 13.0771 245.585 11.3245 245.205 9.57184C244.846 7.79512 244.342 6.10164 243.693 4.48923C243.045 2.85273 242.316 1.36958 241.51 0.0375894H243.357ZM389.172 29.5867C387.472 27.5537 386.149 25.2643 385.209 22.7165C384.291 20.1686 383.832 17.5287 383.832 14.7946C383.832 12.0846 384.291 9.45572 385.209 6.90785C386.149 4.35999 387.472 2.07063 389.172 0.0375894H391.053C390.247 1.36958 389.521 2.85273 388.87 4.48923C388.221 6.10164 387.707 7.78416 387.325 9.53677C386.945 11.2894 386.754 13.042 386.754 14.7946C386.754 16.5231 386.945 18.2758 387.325 20.0525C387.707 21.8292 388.211 23.5227 388.836 25.1351C389.487 26.7716 390.226 28.2547 391.053 29.5867H389.172ZM726.713 0.0375894C728.437 2.07063 729.759 4.35999 730.676 6.90785C731.594 9.45572 732.054 12.0956 732.054 14.8297C732.054 17.5178 731.594 20.1467 730.676 22.7165C729.759 25.2643 728.437 27.5537 726.713 29.5867H724.866C725.672 28.2306 726.388 26.7475 727.015 25.1351C727.664 23.5227 728.18 21.8401 728.56 20.0875C728.94 18.3108 729.131 16.5582 729.131 14.8297C729.131 13.0771 728.94 11.3245 728.56 9.57184C728.201 7.79512 727.698 6.10164 727.049 4.48923C726.4 2.85273 725.672 1.36958 724.866 0.0375894H726.713ZM773.543 29.6568C772.557 29.7269 771.65 29.6459 770.823 29.4115C769.994 29.1771 769.332 28.7564 768.841 28.1496C768.348 27.5427 768.102 26.7365 768.102 25.731V18.1947C768.102 17.4936 767.821 16.992 767.262 16.6874C766.725 16.361 766.141 16.2077 765.516 16.2318V13.4626C766.097 13.4867 766.668 13.3465 767.229 13.042C767.81 12.7156 768.102 12.1898 768.102 11.4647V3.96344C768.102 2.93596 768.348 2.12978 768.841 1.54485C769.355 0.938004 770.017 0.517367 770.823 0.282955C771.65 0.0266344 772.557 -0.0566138 773.543 0.0375894V1.72011C773.229 1.72011 772.859 1.76611 772.435 1.86031C772.032 1.95452 771.673 2.14072 771.36 2.42114C771.068 2.67746 770.911 3.06304 770.89 3.57787L770.655 11.0791C770.609 12.2248 770.374 13.1121 769.95 13.7431C769.546 14.374 768.784 14.6895 767.666 14.6895V15.0049C768.784 15.0049 769.546 15.3204 769.95 15.9513C770.374 16.5823 770.609 17.4696 770.655 18.6153L770.89 26.0815C770.911 26.5963 771.068 26.9928 771.36 27.2732C771.673 27.5537 772.032 27.7399 772.435 27.8341C772.859 27.9283 773.229 27.9743 773.543 27.9743V29.6568ZM0 87.6685C0.984555 87.5743 1.88094 87.6575 2.68706 87.9138C3.51627 88.1482 4.17544 88.5689 4.66876 89.1757C5.18308 89.7607 5.44132 90.5668 5.44132 91.5943V99.1306C5.44132 99.8316 5.71003 100.346 6.24744 100.673C6.80794 100.977 7.39992 101.118 8.0276 101.093V103.863C7.42301 103.839 6.84151 103.992 6.28101 104.318C5.72051 104.623 5.44132 105.135 5.44132 105.861V113.362C5.44132 114.367 5.18308 115.174 4.66876 115.78C4.17544 116.387 3.51627 116.808 2.68706 117.042C1.88094 117.277 0.984555 117.358 0 117.288V115.605C0.31279 115.605 0.671751 115.559 1.07481 115.465C1.47787 115.371 1.82425 115.185 2.11605 114.904C2.42884 114.648 2.59682 114.262 2.61992 113.747L2.8886 106.246C2.93269 105.1 3.15732 104.213 3.56038 103.582C3.98653 102.951 4.75907 102.636 5.87798 102.636V102.32C4.75907 102.32 3.98653 102.005 3.56038 101.374C3.15732 100.743 2.93269 99.8557 2.8886 98.7099L2.61992 91.2087C2.59682 90.6939 2.42884 90.3083 2.11605 90.052C1.82425 89.7716 1.47787 89.5854 1.07481 89.4912C0.671751 89.397 0.31279 89.351 0 89.351V87.6685Z" fill="var(--fill-0, #FC64FF)"/>
</svg>
