<svg preserveAspectRatio="none" width="100%" height="100%" overflow="visible" style="display: block;" viewBox="0 0 1137.91 287.429" fill="none" xmlns="http://www.w3.org/2000/svg">
<path id="Vector" d="M241.174 17.9468L247.791 0.0350498H251.318L257.968 17.9468H255.046L249.571 3.0145L244.13 17.9468H241.174ZM368.362 23.0294V22.5737C368.967 21.8492 369.424 21.1015 369.739 20.3304C370.052 19.5592 370.207 18.7646 370.207 17.9468H368.497V13.1797H372.326V17.2808C372.326 18.3089 372.158 19.3138 371.822 20.2953C371.507 21.3002 371.026 22.2116 370.377 23.0294H368.362ZM368.228 4.34649V0H372.594V4.34649H368.228ZM1133.67 110.66V110.205C1134.28 109.479 1134.74 108.732 1135.05 107.961C1135.36 107.19 1135.52 106.395 1135.52 105.578H1133.81V100.811H1137.64V104.912C1137.64 105.939 1137.47 106.945 1137.13 107.926C1136.82 108.932 1136.34 109.843 1135.69 110.66H1133.67ZM1133.54 91.9774V87.6309H1137.91V91.9774H1133.54ZM100.532 193.209V169.163H105.301L108.492 188.091H108.626L111.952 169.163H116.654V193.209H113.497V173.439H113.329L109.936 193.209H106.813L103.521 173.439H103.353V193.209H100.532ZM124.165 199.728C123.695 199.728 123.246 199.682 122.822 199.588C122.419 199.518 122.026 199.402 121.646 199.238V196.644C121.892 196.76 122.204 196.865 122.587 196.959C122.967 197.075 123.336 197.134 123.695 197.134C124.321 197.134 124.814 196.983 125.173 196.679C125.53 196.398 125.845 195.943 126.113 195.312C126.403 194.705 126.739 193.885 127.121 192.858L120.471 175.297H124.064L128.834 188.547H129.035L133.704 175.297H136.996L130.547 192.472C130.054 193.804 129.527 195.02 128.968 196.118C128.431 197.215 127.78 198.092 127.02 198.747C126.258 199.402 125.307 199.728 124.165 199.728ZM147.125 193.209V172.212H139.971V169.163H157.772V172.212H150.618V193.209H147.125ZM169.012 193.559C167.355 193.559 165.932 193.173 164.746 192.402C163.56 191.631 162.653 190.569 162.025 189.213C161.398 187.835 161.085 186.279 161.085 184.551V183.955C161.085 182.178 161.398 180.614 162.025 179.258C162.653 177.902 163.56 176.85 164.746 176.103C165.932 175.332 167.343 174.946 168.978 174.946C170.658 174.946 172.091 175.332 173.278 176.103C174.464 176.874 175.37 177.937 175.998 179.293C176.626 180.649 176.939 182.202 176.939 183.955V184.551C176.939 186.327 176.626 187.892 175.998 189.248C175.37 190.604 174.464 191.666 173.278 192.437C172.091 193.184 170.668 193.559 169.012 193.559ZM169.012 191.07C170.311 191.07 171.374 190.58 172.203 189.598C173.032 188.593 173.445 187.204 173.445 185.427V183.078C173.445 181.302 173.032 179.924 172.203 178.942C171.374 177.937 170.311 177.435 169.012 177.435C167.735 177.435 166.671 177.937 165.821 178.942C164.992 179.924 164.578 181.302 164.578 183.078V185.427C164.578 187.204 164.992 188.593 165.821 189.598C166.671 190.58 167.735 191.07 169.012 191.07ZM181.729 193.209V167.971H185.088V185.111L193.015 175.297H196.978L190.16 183.639L197.381 193.209H193.284L187.809 186.093L185.088 188.897V193.209H181.729ZM209.293 193.559C207.5 193.559 206.011 193.184 204.825 192.437C203.66 191.69 202.787 190.639 202.205 189.283C201.645 187.927 201.366 186.373 201.366 184.621V183.885C201.366 182.062 201.689 180.485 202.34 179.153C202.988 177.821 203.918 176.793 205.128 176.068C206.337 175.321 207.768 174.946 209.427 174.946C210.972 174.946 212.292 175.273 213.39 175.928C214.509 176.583 215.372 177.47 215.977 178.592C216.602 179.713 216.917 180.999 216.917 182.447V184.831H204.859V185.427C204.859 187.274 205.283 188.676 206.135 189.633C206.985 190.591 208.06 191.07 209.36 191.07C210.791 191.07 211.879 190.709 212.618 189.984C213.378 189.259 213.76 188.137 213.76 186.619H216.917C216.917 188.045 216.592 189.283 215.943 190.334C215.315 191.362 214.432 192.157 213.29 192.718C212.169 193.279 210.838 193.559 209.293 193.559ZM204.892 182.553H213.625V182.027C213.625 181.14 213.445 180.355 213.088 179.678C212.752 178.977 212.259 178.427 211.61 178.031C210.959 177.634 210.21 177.435 209.36 177.435C208.396 177.435 207.579 177.68 206.908 178.171C206.257 178.662 205.753 179.293 205.396 180.064C205.06 180.811 204.892 181.582 204.892 182.377V182.553ZM222.243 193.209V175.297H224.964L225.299 177.856C225.816 176.85 226.542 176.114 227.483 175.647C228.423 175.181 229.464 174.946 230.606 174.946C232.487 174.946 233.988 175.496 235.107 176.594C236.228 177.691 236.787 179.317 236.787 181.466V193.209H233.428V182.483C233.428 180.8 233.092 179.573 232.42 178.802C231.771 178.031 230.854 177.645 229.666 177.645C228.839 177.645 228.121 177.867 227.516 178.311C226.912 178.732 226.441 179.328 226.106 180.099C225.77 180.846 225.602 181.711 225.602 182.693V193.209H222.243ZM322.976 193.209V169.163H338.024L337.553 172.142H326.503V179.468H336.512V182.377H326.503V190.159H337.755L338.225 193.209H322.976ZM358.533 193.384C357.973 193.384 357.436 193.268 356.921 193.033C356.405 192.799 355.991 192.356 355.678 191.701C355.364 191.046 355.208 190.1 355.208 188.862C355.208 187.694 355.084 186.735 354.839 185.988C354.591 185.241 354.268 184.656 353.865 184.235C353.483 183.79 353.069 183.475 352.622 183.289C352.173 183.103 351.736 183.008 351.312 183.008H346.173V193.209H342.68V169.163H352.689C353.898 169.163 354.984 169.419 355.947 169.934C356.932 170.449 357.704 171.172 358.265 172.107C358.846 173.042 359.138 174.151 359.138 175.437C359.138 176.909 358.769 178.195 358.03 179.293C357.291 180.368 356.317 181.034 355.107 181.291V181.466C355.914 181.7 356.573 182.108 357.089 182.693C357.627 183.278 358.03 184.001 358.298 184.866C358.567 185.707 358.701 186.619 358.701 187.6C358.701 189.188 358.823 190.299 359.071 190.93C359.316 191.561 359.764 191.971 360.414 192.157V193.068C360.19 193.184 359.911 193.268 359.575 193.314C359.26 193.36 358.913 193.384 358.533 193.384ZM346.173 180.064H351.715C352.991 180.064 353.965 179.678 354.637 178.907C355.33 178.112 355.678 177.12 355.678 175.928C355.678 174.736 355.343 173.8 354.671 173.124C354.02 172.447 353.103 172.107 351.917 172.107H346.173V180.064ZM370.207 193.559C368.977 193.559 367.835 193.373 366.784 192.998C365.753 192.624 364.846 192.028 364.063 191.211C363.278 190.369 362.663 189.259 362.216 187.881C361.789 186.503 361.577 184.807 361.577 182.798V179.573C361.577 177.564 361.8 175.869 362.249 174.491C362.696 173.113 363.311 172.013 364.097 171.196C364.88 170.354 365.786 169.748 366.817 169.373C367.869 168.998 368.988 168.812 370.176 168.812H370.646C372.393 168.812 373.881 169.163 375.113 169.864C376.367 170.565 377.318 171.627 377.968 173.053C378.617 174.456 378.943 176.219 378.943 178.346H375.55C375.55 176.804 375.382 175.553 375.046 174.596C374.731 173.614 374.194 172.902 373.434 172.458C372.672 171.991 371.654 171.756 370.377 171.756C369.639 171.756 368.954 171.873 368.329 172.107C367.724 172.317 367.187 172.692 366.716 173.229C366.246 173.744 365.877 174.456 365.608 175.367C365.339 176.278 365.205 177.424 365.205 178.802V183.534C365.205 184.912 365.339 186.069 365.608 187.004C365.877 187.916 366.246 188.641 366.716 189.178C367.187 189.692 367.724 190.065 368.329 190.299C368.954 190.509 369.639 190.615 370.377 190.615C372.303 190.615 373.657 190.1 374.442 189.072C375.248 188.021 375.651 186.349 375.651 184.06H378.943C378.943 186.117 378.617 187.846 377.968 189.248C377.318 190.65 376.377 191.725 375.147 192.472C373.915 193.198 372.426 193.559 370.68 193.559H370.207ZM382.488 193.209V192.157C382.488 190.709 382.746 189.469 383.261 188.441C383.777 187.39 384.583 186.478 385.679 185.707L392.43 181.08C393.148 180.566 393.763 179.913 394.278 179.117C394.815 178.3 395.084 177.341 395.084 176.243C395.084 174.887 394.704 173.8 393.942 172.983C393.182 172.166 392.061 171.756 390.583 171.756C389.689 171.756 388.883 171.967 388.165 172.387C387.472 172.784 386.911 173.345 386.485 174.07C386.082 174.771 385.881 175.577 385.881 176.489C385.881 176.675 385.881 176.85 385.881 177.014C385.881 177.155 385.893 177.295 385.914 177.435H382.723C382.702 177.271 382.69 177.155 382.69 177.084C382.69 176.99 382.69 176.898 382.69 176.804C382.69 175.238 383.026 173.86 383.697 172.668C384.369 171.452 385.299 170.506 386.485 169.829C387.694 169.152 389.071 168.812 390.617 168.812H390.986C392.531 168.812 393.864 169.128 394.983 169.759C396.125 170.365 396.998 171.22 397.603 172.317C398.231 173.415 398.543 174.69 398.543 176.138C398.543 177.354 398.342 178.416 397.939 179.328C397.559 180.215 397.032 180.999 396.36 181.676C395.711 182.353 394.973 182.984 394.143 183.569L388.467 187.425C387.976 187.775 387.594 188.115 387.325 188.441C387.056 188.746 386.867 189.037 386.754 189.318C386.643 189.598 386.565 189.868 386.519 190.124H398.644V193.209H382.488ZM410.354 193.559C408.92 193.559 407.623 193.219 406.458 192.543C405.292 191.841 404.375 190.884 403.703 189.668C403.032 188.452 402.696 187.05 402.696 185.462V176.909C402.696 175.321 403.032 173.919 403.703 172.703C404.398 171.487 405.326 170.541 406.491 169.864C407.677 169.163 409 168.812 410.455 168.812H411.059C412.537 168.812 413.847 169.163 414.989 169.864C416.131 170.541 417.027 171.487 417.676 172.703C418.348 173.919 418.684 175.321 418.684 176.909V185.462C418.684 187.05 418.348 188.452 417.676 189.668C417.004 190.884 416.087 191.841 414.922 192.543C413.757 193.219 412.447 193.559 410.992 193.559H410.354ZM410.69 190.755C411.563 190.755 412.346 190.545 413.041 190.124C413.736 189.679 414.273 189.096 414.653 188.371C415.056 187.646 415.258 186.829 415.258 185.918V176.454C415.258 175.518 415.056 174.69 414.653 173.965C414.273 173.24 413.736 172.668 413.041 172.247C412.346 171.827 411.563 171.616 410.69 171.616C409.816 171.616 409.033 171.827 408.339 172.247C407.667 172.668 407.129 173.24 406.726 173.965C406.323 174.69 406.122 175.518 406.122 176.454V185.918C406.122 186.829 406.323 187.646 406.726 188.371C407.129 189.096 407.667 189.679 408.339 190.124C409.033 190.545 409.816 190.755 410.69 190.755ZM7.55737 237.374C6.50564 237.374 5.50846 237.164 4.56799 236.744C3.65061 236.323 2.84448 235.727 2.14962 234.956C1.47785 234.161 0.950974 233.227 0.571007 232.152C0.19104 231.054 0 229.827 0 228.471V227.63C0 226.274 0.19104 225.06 0.571007 223.984C0.950974 222.887 1.47785 221.951 2.14962 221.18C2.84448 220.385 3.65061 219.789 4.56799 219.393C5.48537 218.972 6.49302 218.762 7.59094 218.762H7.99397C9.38158 218.762 10.6034 219.066 11.6551 219.673C12.7069 220.258 13.536 221.099 14.1406 222.197C14.7452 223.272 15.0475 224.58 15.0475 226.123H12.0246C12.0246 224.977 11.8461 224.055 11.4871 223.354C11.1282 222.628 10.637 222.103 10.0093 221.776C9.40472 221.426 8.68883 221.25 7.85962 221.25C6.65045 221.25 5.61974 221.717 4.76954 222.653C3.94033 223.564 3.52675 224.977 3.52675 226.894V229.242C3.52675 231.089 3.92979 232.491 4.7359 233.449C5.56511 234.406 6.63996 234.886 7.9604 234.886C8.76651 234.886 9.47186 234.721 10.0764 234.395C10.7041 234.045 11.1849 233.519 11.5208 232.818C11.8798 232.093 12.0582 231.159 12.0582 230.013H15.0475C15.0475 231.58 14.7347 232.912 14.1071 234.009C13.5025 235.107 12.6627 235.948 11.5879 236.533C10.5362 237.094 9.32702 237.374 7.9604 237.374H7.55737ZM28.0336 237.374C26.3752 237.374 24.9539 236.989 23.7679 236.218C22.5797 235.447 21.6728 234.384 21.0472 233.028C20.4196 231.65 20.1068 230.095 20.1068 228.366V227.77C20.1068 225.993 20.4196 224.429 21.0472 223.073C21.6728 221.717 22.5797 220.665 23.7679 219.918C24.9539 219.147 26.3646 218.762 28 218.762C29.6794 218.762 31.1111 219.147 32.2993 219.918C33.4853 220.69 34.3922 221.752 35.0199 223.108C35.6455 224.464 35.9604 226.018 35.9604 227.77V228.366C35.9604 230.143 35.6455 231.707 35.0199 233.063C34.3922 234.419 33.4853 235.482 32.2993 236.253C31.1111 237 29.6899 237.374 28.0336 237.374ZM28.0336 234.886C29.3309 234.886 30.3952 234.395 31.2245 233.414C32.0516 232.408 32.4672 231.019 32.4672 229.242V226.894C32.4672 225.117 32.0516 223.739 31.2245 222.758C30.3952 221.752 29.3309 221.25 28.0336 221.25C26.7572 221.25 25.6929 221.752 24.8427 222.758C24.0135 223.739 23.5999 225.117 23.5999 226.894V229.242C23.5999 231.019 24.0135 232.408 24.8427 233.414C25.6929 234.395 26.7572 234.886 28.0336 234.886ZM40.986 237.024V219.112H43.7067L44.0425 221.671C44.5569 220.665 45.2853 219.929 46.2258 219.463C47.1663 218.996 48.2075 218.762 49.3495 218.762C51.2305 218.762 52.7293 219.312 53.8503 220.409C54.9692 221.507 55.5298 223.132 55.5298 225.281V237.024H52.1709V226.298C52.1709 224.615 51.835 223.389 51.1632 222.617C50.5125 221.846 49.5951 221.461 48.409 221.461C47.5798 221.461 46.864 221.682 46.2594 222.127C45.6548 222.547 45.1845 223.143 44.8487 223.914C44.5128 224.661 44.3449 225.527 44.3449 226.508V237.024H40.986ZM68.077 237.374C66.6663 237.374 65.4131 237.175 64.3152 236.779C63.2403 236.358 62.3901 235.762 61.7625 234.991C61.1579 234.196 60.8556 233.262 60.8556 232.187C60.8556 232.117 60.8556 232.011 60.8556 231.871C60.8556 231.731 60.8682 231.58 60.8892 231.416H63.7777V231.766C63.7777 232.748 64.1808 233.519 64.987 234.08C65.8162 234.616 66.9917 234.886 68.5137 234.886C69.8803 234.886 70.911 234.64 71.6038 234.15C72.3217 233.635 72.6787 232.969 72.6787 232.152C72.6787 231.615 72.5338 231.17 72.242 230.82C71.9523 230.469 71.4254 230.165 70.6633 229.908C69.9244 229.652 68.8496 229.407 67.4389 229.172C65.94 228.892 64.7308 228.552 63.8114 228.156C62.894 227.735 62.2327 227.198 61.8297 226.543C61.4266 225.866 61.225 225.025 61.225 224.02C61.225 222.852 61.5273 221.881 62.1319 221.11C62.7365 220.339 63.5762 219.754 64.6511 219.358C65.749 218.961 67.0253 218.762 68.4801 218.762C69.7565 218.762 70.8985 218.961 71.9061 219.358C72.9368 219.754 73.7535 220.315 74.358 221.04C74.9626 221.741 75.2649 222.593 75.2649 223.599C75.2649 223.669 75.2649 223.75 75.2649 223.844C75.2649 223.938 75.2439 224.066 75.1977 224.23H72.2756C72.2756 223.389 72.0866 222.758 71.7046 222.337C71.3477 221.892 70.8544 221.601 70.2267 221.461C69.6221 221.296 68.9503 221.215 68.2114 221.215C65.6146 221.215 64.3152 222.057 64.3152 223.739C64.3152 224.184 64.4495 224.556 64.7182 224.861C64.9869 225.141 65.4698 225.398 66.1625 225.632C66.8805 225.866 67.8986 226.112 69.2191 226.368C70.8544 226.673 72.1412 227.045 73.0817 227.49C74.0453 227.934 74.7401 228.506 75.1642 229.207C75.5903 229.884 75.8023 230.774 75.8023 231.871C75.8023 233.109 75.4895 234.139 74.8619 234.956C74.2573 235.773 73.3735 236.382 72.2084 236.779C71.0664 237.175 69.6893 237.374 68.077 237.374ZM91.5762 237.374C89.5609 237.374 87.9592 236.919 86.7731 236.007C85.587 235.072 84.9929 233.554 84.9929 231.451V221.846H80.0219V219.112H85.0937L86.2693 213.399H88.3518V219.112H96.1106V221.846H88.3518V231.17C88.3518 231.965 88.5092 232.618 88.822 233.133C89.1348 233.648 89.5945 234.02 90.1991 234.255C90.8037 234.489 91.5657 234.605 92.4831 234.605C93.199 234.605 93.8602 234.511 94.4648 234.325C95.0925 234.115 95.6404 233.893 96.1106 233.659V236.358C95.5732 236.684 94.8909 236.93 94.0617 237.094C93.2325 237.28 92.4054 237.374 91.5762 237.374ZM104.394 237.024V221.846H100.061V219.112H107.115L107.283 221.741C107.686 220.806 108.301 220.083 109.13 219.568C109.98 219.031 110.955 218.762 112.052 218.762C113.732 218.762 115.019 219.287 115.915 220.339C116.832 221.367 117.292 222.688 117.292 224.3C117.292 224.556 117.28 224.802 117.259 225.036C117.259 225.246 117.236 225.503 117.191 225.807H114.336V225.071C114.336 224.44 114.213 223.855 113.967 223.319C113.742 222.782 113.383 222.348 112.892 222.022C112.422 221.671 111.805 221.496 111.045 221.496C110.306 221.496 109.678 221.717 109.164 222.162C108.671 222.607 108.301 223.167 108.055 223.844C107.808 224.521 107.686 225.235 107.686 225.982V237.024H104.394ZM99.8935 237.024V234.325H115.378V237.024H99.8935ZM127.255 237.374C125.418 237.374 123.941 236.838 122.822 235.762C121.724 234.686 121.176 233.063 121.176 230.89V219.112H124.568V230.224C124.568 231.72 124.892 232.829 125.542 233.554C126.214 234.279 127.142 234.64 128.33 234.64C129.113 234.64 129.808 234.441 130.413 234.045C131.038 233.624 131.521 233.063 131.857 232.362C132.214 231.661 132.394 230.879 132.394 230.013V219.112H135.753V233.799C135.753 234.174 135.831 234.441 135.988 234.605C136.144 234.77 136.379 234.851 136.694 234.851C136.916 234.851 137.141 234.827 137.365 234.781C137.588 234.735 137.823 234.616 138.071 234.43V236.708C137.779 236.919 137.409 237.083 136.962 237.199C136.536 237.315 136.1 237.374 135.652 237.374C134.846 237.374 134.229 237.258 133.805 237.024C133.402 236.768 133.121 236.417 132.965 235.972C132.831 235.528 132.741 235.026 132.697 234.465C132.361 235.096 131.935 235.633 131.42 236.078C130.904 236.498 130.299 236.814 129.606 237.024C128.912 237.258 128.129 237.374 127.255 237.374ZM148.536 237.374C147.484 237.374 146.487 237.164 145.546 236.744C144.629 236.323 143.823 235.727 143.128 234.956C142.456 234.161 141.931 233.227 141.549 232.152C141.169 231.054 140.978 229.827 140.978 228.471V227.63C140.978 226.274 141.169 225.06 141.549 223.984C141.931 222.887 142.456 221.951 143.128 221.18C143.823 220.385 144.629 219.789 145.546 219.393C146.466 218.972 147.473 218.762 148.569 218.762H148.972C150.362 218.762 151.582 219.066 152.633 219.673C153.687 220.258 154.514 221.099 155.119 222.197C155.723 223.272 156.026 224.58 156.026 226.123H153.003C153.003 224.977 152.824 224.055 152.465 223.354C152.109 222.628 151.615 222.103 150.988 221.776C150.383 221.426 149.667 221.25 148.838 221.25C147.629 221.25 146.6 221.717 145.748 222.653C144.921 223.564 144.505 224.977 144.505 226.894V229.242C144.505 231.089 144.908 232.491 145.714 233.449C146.543 234.406 147.618 234.886 148.939 234.886C149.745 234.886 150.45 234.721 151.055 234.395C151.682 234.045 152.163 233.519 152.499 232.818C152.858 232.093 153.036 231.159 153.036 230.013H156.026C156.026 231.58 155.713 232.912 155.085 234.009C154.481 235.107 153.641 235.948 152.566 236.533C151.514 237.094 150.305 237.374 148.939 237.374H148.536ZM172.136 237.374C170.12 237.374 168.518 236.919 167.332 236.007C166.146 235.072 165.552 233.554 165.552 231.451V221.846H160.581V219.112H165.653L166.829 213.399H168.911V219.112H176.67V221.846H168.911V231.17C168.911 231.965 169.069 232.618 169.381 233.133C169.694 233.648 170.154 234.02 170.758 234.255C171.363 234.489 172.125 234.605 173.042 234.605C173.758 234.605 174.42 234.511 175.024 234.325C175.652 234.115 176.2 233.893 176.67 233.659V236.358C176.133 236.684 175.45 236.93 174.621 237.094C173.792 237.28 172.965 237.374 172.136 237.374ZM189.152 237.374C187.494 237.374 186.073 236.989 184.886 236.218C183.698 235.447 182.791 234.384 182.166 233.028C181.538 231.65 181.225 230.095 181.225 228.366V227.77C181.225 225.993 181.538 224.429 182.166 223.073C182.791 221.717 183.698 220.665 184.886 219.918C186.073 219.147 187.483 218.762 189.119 218.762C190.798 218.762 192.23 219.147 193.418 219.918C194.604 220.69 195.511 221.752 196.138 223.108C196.764 224.464 197.079 226.018 197.079 227.77V228.366C197.079 230.143 196.764 231.707 196.138 233.063C195.511 234.419 194.604 235.482 193.418 236.253C192.23 237 190.809 237.374 189.152 237.374ZM189.152 234.886C190.45 234.886 191.514 234.395 192.343 233.414C193.17 232.408 193.586 231.019 193.586 229.242V226.894C193.586 225.117 193.17 223.739 192.343 222.758C191.514 221.752 190.45 221.25 189.152 221.25C187.876 221.25 186.811 221.752 185.961 222.758C185.132 223.739 184.719 225.117 184.719 226.894V229.242C184.719 231.019 185.132 232.408 185.961 233.414C186.811 234.395 187.876 234.886 189.152 234.886ZM205.094 237.024V221.846H200.761V219.112H207.815L207.983 221.741C208.386 220.806 209.001 220.083 209.83 219.568C210.68 219.031 211.654 218.762 212.752 218.762C214.431 218.762 215.718 219.287 216.615 220.339C217.532 221.367 217.992 222.688 217.992 224.3C217.992 224.556 217.979 224.802 217.958 225.036C217.958 225.246 217.935 225.503 217.891 225.807H215.036V225.071C215.036 224.44 214.912 223.855 214.667 223.319C214.442 222.782 214.083 222.348 213.592 222.022C213.122 221.671 212.504 221.496 211.744 221.496C211.006 221.496 210.378 221.717 209.864 222.162C209.37 222.607 209.001 223.167 208.755 223.844C208.507 224.521 208.386 225.235 208.386 225.982V237.024H205.094ZM200.593 237.024V234.325H216.077V237.024H200.593ZM282.697 237.024V212.978H297.745L297.275 215.958H286.224V223.283H296.234V226.193H286.224V233.974H297.476L297.947 237.024H282.697ZM318.253 237.199C317.694 237.199 317.157 237.083 316.641 236.849C316.126 236.614 315.713 236.172 315.398 235.517C315.085 234.862 314.928 233.915 314.928 232.677C314.928 231.51 314.806 230.55 314.558 229.803C314.312 229.056 313.987 228.471 313.584 228.051C313.204 227.606 312.79 227.29 312.341 227.104C311.894 226.918 311.457 226.824 311.031 226.824H305.892V237.024H302.399V212.978H312.408C313.618 212.978 314.705 213.234 315.666 213.749C316.653 214.264 317.426 214.987 317.984 215.922C318.568 216.858 318.857 217.966 318.857 219.252C318.857 220.725 318.488 222.011 317.749 223.108C317.01 224.184 316.036 224.85 314.827 225.106V225.281C315.633 225.516 316.294 225.923 316.808 226.508C317.346 227.093 317.749 227.816 318.018 228.682C318.286 229.523 318.421 230.434 318.421 231.416C318.421 233.004 318.545 234.115 318.79 234.746C319.038 235.377 319.485 235.786 320.134 235.972V236.884C319.911 237 319.63 237.083 319.294 237.129C318.981 237.175 318.635 237.199 318.253 237.199ZM305.892 223.879H311.434C312.711 223.879 313.685 223.494 314.357 222.723C315.051 221.927 315.398 220.935 315.398 219.743C315.398 218.551 315.062 217.616 314.39 216.939C313.741 216.262 312.824 215.922 311.636 215.922H305.892V223.879ZM329.929 237.374C328.697 237.374 327.555 237.188 326.503 236.814C325.472 236.439 324.565 235.843 323.782 235.026C322.999 234.185 322.382 233.074 321.935 231.696C321.509 230.318 321.297 228.622 321.297 226.613V223.389C321.297 221.38 321.521 219.684 321.968 218.306C322.416 216.928 323.033 215.828 323.816 215.011C324.599 214.17 325.506 213.563 326.536 213.188C327.588 212.814 328.709 212.628 329.895 212.628H330.366C332.112 212.628 333.601 212.978 334.833 213.679C336.086 214.38 337.039 215.443 337.688 216.869C338.336 218.271 338.662 220.035 338.662 222.162H335.269C335.269 220.619 335.101 219.369 334.766 218.411C334.453 217.43 333.915 216.718 333.153 216.273C332.391 215.806 331.373 215.572 330.097 215.572C329.358 215.572 328.676 215.688 328.048 215.922C327.443 216.133 326.906 216.507 326.436 217.044C325.965 217.559 325.596 218.271 325.327 219.182C325.059 220.094 324.924 221.239 324.924 222.617V227.35C324.924 228.728 325.059 229.884 325.327 230.82C325.596 231.731 325.965 232.456 326.436 232.993C326.906 233.508 327.443 233.88 328.048 234.115C328.676 234.325 329.358 234.43 330.097 234.43C332.022 234.43 333.378 233.915 334.161 232.888C334.967 231.836 335.37 230.165 335.37 227.875H338.662C338.662 229.932 338.336 231.661 337.688 233.063C337.039 234.465 336.099 235.541 334.866 236.288C333.634 237.013 332.146 237.374 330.399 237.374H329.929ZM342.21 237.024V235.972C342.21 234.524 342.466 233.284 342.982 232.257C343.496 231.205 344.303 230.294 345.4 229.523L352.152 224.896C352.868 224.381 353.483 223.728 353.999 222.933C354.536 222.116 354.805 221.156 354.805 220.059C354.805 218.703 354.423 217.616 353.663 216.799C352.901 215.982 351.782 215.572 350.304 215.572C349.408 215.572 348.602 215.782 347.886 216.203C347.191 216.599 346.631 217.16 346.207 217.885C345.804 218.586 345.602 219.393 345.602 220.304C345.602 220.49 345.602 220.665 345.602 220.83C345.602 220.97 345.613 221.11 345.636 221.25H342.445C342.422 221.086 342.411 220.97 342.411 220.9C342.411 220.806 342.411 220.714 342.411 220.619C342.411 219.053 342.747 217.675 343.419 216.483C344.091 215.267 345.018 214.321 346.207 213.644C347.416 212.967 348.793 212.628 350.338 212.628H350.707C352.252 212.628 353.583 212.943 354.704 213.574C355.846 214.181 356.72 215.035 357.324 216.133C357.95 217.23 358.265 218.505 358.265 219.953C358.265 221.169 358.063 222.232 357.66 223.143C357.278 224.03 356.753 224.815 356.081 225.492C355.431 226.169 354.692 226.8 353.865 227.385L348.188 231.24C347.695 231.591 347.315 231.93 347.046 232.257C346.778 232.561 346.587 232.853 346.475 233.133C346.362 233.414 346.284 233.683 346.24 233.939H358.366V237.024H342.21ZM370.075 237.374C368.641 237.374 367.342 237.035 366.179 236.358C365.014 235.657 364.097 234.7 363.425 233.484C362.753 232.268 362.417 230.866 362.417 229.277V220.725C362.417 219.136 362.753 217.734 363.425 216.518C364.118 215.302 365.048 214.356 366.213 213.679C367.399 212.978 368.719 212.628 370.176 212.628H370.781C372.258 212.628 373.568 212.978 374.71 213.679C375.852 214.356 376.747 215.302 377.397 216.518C378.069 217.734 378.405 219.136 378.405 220.725V229.277C378.405 230.866 378.069 232.268 377.397 233.484C376.726 234.7 375.806 235.657 374.643 236.358C373.478 237.035 372.168 237.374 370.713 237.374H370.075ZM370.411 234.57C371.284 234.57 372.067 234.36 372.762 233.939C373.455 233.495 373.992 232.912 374.375 232.187C374.778 231.462 374.979 230.644 374.979 229.733V220.269C374.979 219.333 374.778 218.505 374.375 217.78C373.992 217.055 373.455 216.483 372.762 216.063C372.067 215.642 371.284 215.432 370.411 215.432C369.538 215.432 368.753 215.642 368.06 216.063C367.388 216.483 366.851 217.055 366.448 217.78C366.045 218.505 365.843 219.333 365.843 220.269V229.733C365.843 230.644 366.045 231.462 366.448 232.187C366.851 232.912 367.388 233.495 368.06 233.939C368.753 234.36 369.538 234.57 370.411 234.57ZM589.9 242.107V241.651C590.504 240.926 590.962 240.179 591.277 239.408C591.59 238.636 591.747 237.841 591.747 237.024H590.034V232.257H593.863V236.358C593.863 237.385 593.695 238.391 593.359 239.372C593.044 240.378 592.564 241.289 591.915 242.107H589.9ZM80.0554 285.361V282.837H96.8496V285.361H80.0554ZM100.297 280.839V262.928H102.278L102.614 264.926C102.95 264.154 103.42 263.57 104.025 263.173C104.65 262.776 105.322 262.577 106.04 262.577C106.8 262.577 107.472 262.787 108.055 263.208C108.66 263.629 109.107 264.249 109.399 265.066C109.802 264.249 110.293 263.629 110.877 263.208C111.481 262.787 112.22 262.577 113.094 262.577C114.324 262.577 115.264 262.987 115.915 263.804C116.587 264.621 116.923 265.791 116.923 267.309V280.839H114.034V267.94C114.034 266.188 113.406 265.311 112.153 265.311C111.549 265.311 111.045 265.557 110.642 266.047C110.239 266.538 110.037 267.169 110.037 267.94V280.839H107.182V267.94C107.182 266.188 106.531 265.311 105.234 265.311C104.629 265.311 104.126 265.557 103.723 266.047C103.341 266.538 103.152 267.169 103.152 267.94V280.839H100.297ZM127.994 280.839V265.662H121.848V262.928H131.353V280.839H127.994ZM121.848 280.839V278.14H137.162V280.839H121.848ZM127.86 259.247V255.882H131.017V259.247H127.86ZM141.684 280.839V262.928H144.404L144.74 265.486C145.257 264.481 145.983 263.745 146.923 263.278C147.864 262.812 148.905 262.577 150.047 262.577C151.928 262.577 153.429 263.127 154.548 264.225C155.669 265.322 156.227 266.948 156.227 269.097V280.839H152.868V270.113C152.868 268.431 152.533 267.204 151.861 266.433C151.212 265.662 150.295 265.276 149.107 265.276C148.279 265.276 147.562 265.497 146.957 265.942C146.352 266.363 145.882 266.959 145.546 267.73C145.21 268.477 145.042 269.342 145.042 270.324V280.839H141.684ZM172.136 281.19C170.12 281.19 168.518 280.734 167.332 279.823C166.146 278.887 165.552 277.369 165.552 275.266V265.662H160.581V262.928H165.653L166.829 257.214H168.911V262.928H176.67V265.662H168.911V274.986C168.911 275.781 169.069 276.434 169.381 276.949C169.694 277.463 170.154 277.836 170.758 278.07C171.363 278.305 172.125 278.421 173.042 278.421C173.758 278.421 174.42 278.327 175.024 278.14C175.652 277.93 176.2 277.709 176.67 277.474V280.173C176.133 280.5 175.45 280.745 174.621 280.909C173.792 281.096 172.965 281.19 172.136 281.19ZM200.996 280.839V262.928H202.978L203.314 264.926C203.65 264.154 204.12 263.57 204.725 263.173C205.35 262.776 206.022 262.577 206.74 262.577C207.5 262.577 208.171 262.787 208.755 263.208C209.36 263.629 209.807 264.249 210.099 265.066C210.502 264.249 210.993 263.629 211.576 263.208C212.181 262.787 212.92 262.577 213.793 262.577C215.023 262.577 215.964 262.987 216.615 263.804C217.287 264.621 217.622 265.791 217.622 267.309V280.839H214.734V267.94C214.734 266.188 214.106 265.311 212.853 265.311C212.248 265.311 211.744 265.557 211.341 266.047C210.938 266.538 210.737 267.169 210.737 267.94V280.839H207.882V267.94C207.882 266.188 207.231 265.311 205.934 265.311C205.329 265.311 204.825 265.557 204.422 266.047C204.04 266.538 203.851 267.169 203.851 267.94V280.839H200.996ZM229.196 281.19C227.785 281.19 226.532 280.991 225.434 280.594C224.359 280.173 223.509 279.578 222.881 278.806C222.276 278.011 221.974 277.078 221.974 276.002C221.974 275.932 221.974 275.827 221.974 275.687C221.974 275.546 221.987 275.395 222.008 275.231H224.896V275.582C224.896 276.563 225.299 277.334 226.106 277.895C226.935 278.432 228.11 278.701 229.632 278.701C230.999 278.701 232.03 278.456 232.722 277.965C233.44 277.45 233.797 276.784 233.797 275.967C233.797 275.43 233.652 274.986 233.361 274.635C233.071 274.285 232.544 273.98 231.782 273.724C231.043 273.467 229.968 273.222 228.557 272.988C227.059 272.707 225.849 272.368 224.93 271.971C224.013 271.551 223.351 271.014 222.948 270.359C222.545 269.682 222.344 268.841 222.344 267.835C222.344 266.667 222.646 265.697 223.251 264.926C223.855 264.154 224.695 263.57 225.77 263.173C226.868 262.776 228.144 262.577 229.599 262.577C230.875 262.577 232.017 262.776 233.025 263.173C234.055 263.57 234.872 264.13 235.477 264.856C236.081 265.557 236.384 266.409 236.384 267.414C236.384 267.484 236.384 267.565 236.384 267.66C236.384 267.754 236.363 267.881 236.316 268.045H233.394C233.394 267.204 233.205 266.573 232.823 266.152C232.466 265.708 231.973 265.416 231.345 265.276C230.741 265.112 230.069 265.031 229.33 265.031C226.733 265.031 225.434 265.872 225.434 267.555C225.434 267.999 225.568 268.372 225.837 268.676C226.106 268.957 226.588 269.213 227.281 269.447C227.999 269.682 229.017 269.927 230.338 270.183C231.973 270.488 233.26 270.86 234.2 271.305C235.164 271.75 235.859 272.322 236.283 273.023C236.709 273.7 236.921 274.589 236.921 275.687C236.921 276.924 236.608 277.954 235.98 278.771C235.376 279.588 234.492 280.197 233.327 280.594C232.185 280.991 230.808 281.19 229.196 281.19ZM245.708 287.429C244.275 287.429 243.166 287.02 242.383 286.202C241.6 285.385 241.208 284.38 241.208 283.188C241.208 282.301 241.443 281.505 241.913 280.804C242.383 280.103 242.988 279.588 243.727 279.262C243.233 278.936 242.843 278.502 242.551 277.965C242.282 277.428 242.148 276.854 242.148 276.248C242.148 275.43 242.406 274.694 242.921 274.039C243.435 273.384 244.14 272.964 245.037 272.777C244.231 272.287 243.626 271.656 243.223 270.885C242.82 270.113 242.618 269.226 242.618 268.221C242.618 266.468 243.212 265.09 244.399 264.084C245.608 263.079 247.388 262.577 249.739 262.577C251.127 262.577 252.248 262.776 253.098 263.173C253.994 262.917 254.666 262.483 255.113 261.876C255.583 261.245 255.852 260.52 255.919 259.703H258.64C258.64 260.871 258.315 261.865 257.666 262.682C257.038 263.478 256.211 263.99 255.18 264.225V264.295C255.718 264.739 256.121 265.311 256.39 266.012C256.681 266.689 256.826 267.425 256.826 268.221C256.826 269.949 256.255 271.329 255.113 272.357C253.994 273.384 252.369 273.899 250.243 273.899H247.489C246.817 273.899 246.279 274.063 245.876 274.39C245.496 274.716 245.305 275.172 245.305 275.757C245.305 276.342 245.496 276.797 245.876 277.124C246.256 277.428 246.783 277.58 247.455 277.58H253.535C255.124 277.58 256.366 278.011 257.263 278.876C258.18 279.718 258.64 280.839 258.64 282.241C258.64 283.76 258.18 285 257.263 285.957C256.366 286.938 255.09 287.429 253.434 287.429H245.708ZM246.649 285.116H252.997C253.826 285.116 254.452 284.881 254.878 284.415C255.304 283.97 255.516 283.409 255.516 282.732C255.516 282.077 255.304 281.529 254.878 281.085C254.475 280.64 253.847 280.419 252.997 280.419H246.649C245.843 280.419 245.228 280.64 244.802 281.085C244.375 281.551 244.163 282.112 244.163 282.767C244.163 283.398 244.375 283.948 244.802 284.415C245.228 284.881 245.843 285.116 246.649 285.116ZM249.773 271.656C251.005 271.656 251.966 271.364 252.661 270.779C253.356 270.173 253.702 269.331 253.702 268.256C253.702 267.158 253.356 266.317 252.661 265.732C251.966 265.147 251.005 264.856 249.773 264.856C248.563 264.856 247.6 265.147 246.884 265.732C246.189 266.317 245.843 267.158 245.843 268.256C245.843 269.331 246.189 270.173 246.884 270.779C247.6 271.364 248.563 271.656 249.773 271.656ZM267.528 280.839V276.493H271.895V280.839H267.528ZM289.617 281.19C288.206 281.19 286.951 280.991 285.855 280.594C284.78 280.173 283.928 279.578 283.302 278.806C282.698 278.011 282.395 277.078 282.395 276.002C282.395 275.932 282.395 275.827 282.395 275.687C282.395 275.546 282.406 275.395 282.429 275.231H285.317V275.582C285.317 276.563 285.72 277.334 286.527 277.895C287.354 278.432 288.529 278.701 290.053 278.701C291.418 278.701 292.449 278.456 293.143 277.965C293.859 277.45 294.218 276.784 294.218 275.967C294.218 275.43 294.071 274.986 293.782 274.635C293.49 274.285 292.963 273.98 292.203 273.724C291.464 273.467 290.389 273.222 288.978 272.988C287.478 272.707 286.268 272.368 285.351 271.971C284.431 271.551 283.772 271.014 283.369 270.359C282.966 269.682 282.765 268.841 282.765 267.835C282.765 266.667 283.067 265.697 283.672 264.926C284.276 264.154 285.116 263.57 286.191 263.173C287.286 262.776 288.563 262.577 290.02 262.577C291.296 262.577 292.438 262.776 293.446 263.173C294.474 263.57 295.293 264.13 295.898 264.856C296.502 265.557 296.805 266.409 296.805 267.414C296.805 267.484 296.805 267.565 296.805 267.66C296.805 267.754 296.781 267.881 296.735 268.045H293.815C293.815 267.204 293.624 266.573 293.244 266.152C292.885 265.708 292.392 265.416 291.766 265.276C291.162 265.112 290.49 265.031 289.751 265.031C287.152 265.031 285.855 265.872 285.855 267.555C285.855 267.999 285.989 268.372 286.258 268.676C286.527 268.957 287.007 269.213 287.702 269.447C288.418 269.682 289.436 269.927 290.759 270.183C292.392 270.488 293.681 270.86 294.621 271.305C295.583 271.75 296.278 272.322 296.704 273.023C297.128 273.7 297.342 274.589 297.342 275.687C297.342 276.924 297.027 277.954 296.402 278.771C295.797 279.588 294.911 280.197 293.748 280.594C292.606 280.991 291.229 281.19 289.617 281.19ZM309.99 281.19C308.199 281.19 306.711 280.815 305.523 280.068C304.36 279.321 303.487 278.27 302.903 276.914C302.345 275.557 302.063 274.004 302.063 272.252V271.515C302.063 269.693 302.389 268.115 303.037 266.783C303.688 265.451 304.616 264.424 305.825 263.699C307.034 262.952 308.468 262.577 310.124 262.577C311.669 262.577 312.992 262.904 314.088 263.559C315.209 264.214 316.07 265.101 316.674 266.223C317.302 267.344 317.615 268.63 317.615 270.078V272.462H305.556V273.058C305.556 274.905 305.983 276.307 306.833 277.264C307.685 278.221 308.76 278.701 310.057 278.701C311.491 278.701 312.576 278.34 313.315 277.615C314.077 276.889 314.457 275.768 314.457 274.25H317.615C317.615 275.676 317.291 276.914 316.641 277.965C316.015 278.993 315.129 279.788 313.987 280.349C312.868 280.91 311.535 281.19 309.99 281.19ZM305.59 270.183H314.323V269.658C314.323 268.77 314.145 267.986 313.786 267.309C313.45 266.608 312.958 266.058 312.308 265.662C311.659 265.265 310.91 265.066 310.057 265.066C309.096 265.066 308.277 265.311 307.605 265.802C306.957 266.293 306.453 266.924 306.094 267.695C305.758 268.442 305.59 269.213 305.59 270.008V270.183ZM322.943 280.839V262.928H325.663L325.999 265.486C326.513 264.481 327.242 263.745 328.182 263.278C329.123 262.812 330.164 262.577 331.306 262.577C333.187 262.577 334.688 263.127 335.807 264.225C336.926 265.322 337.486 266.948 337.486 269.097V280.839H334.127V270.113C334.127 268.431 333.792 267.204 333.12 266.433C332.471 265.662 331.552 265.276 330.366 265.276C329.536 265.276 328.82 265.497 328.216 265.942C327.611 266.363 327.141 266.959 326.805 267.73C326.469 268.477 326.301 269.342 326.301 270.324V280.839H322.943ZM348.894 281.19C347.661 281.19 346.53 280.885 345.501 280.279C344.471 279.648 343.641 278.677 343.016 277.369C342.411 276.037 342.109 274.309 342.109 272.181V271.796C342.109 269.809 342.411 268.126 343.016 266.748C343.62 265.37 344.437 264.33 345.468 263.629C346.519 262.928 347.684 262.577 348.961 262.577C350.103 262.577 351.098 262.798 351.95 263.243C352.8 263.664 353.462 264.249 353.932 264.996V255.602H357.291V280.839H354.57L354.201 278.281C353.707 279.216 353.012 279.939 352.118 280.454C351.222 280.945 350.147 281.19 348.894 281.19ZM349.7 278.666C350.93 278.666 351.938 278.2 352.723 277.264C353.529 276.307 353.932 274.834 353.932 272.847V270.885C353.932 268.922 353.529 267.46 352.723 266.503C351.938 265.546 350.93 265.066 349.7 265.066C348.468 265.066 347.449 265.557 346.643 266.538C345.858 267.495 345.468 268.946 345.468 270.885V272.812C345.468 274.799 345.858 276.272 346.643 277.229C347.449 278.186 348.468 278.666 349.7 278.666ZM370.411 281.19C368.618 281.19 367.13 280.815 365.944 280.068C364.779 279.321 363.905 278.27 363.324 276.914C362.763 275.557 362.484 274.004 362.484 272.252V271.515C362.484 269.693 362.808 268.115 363.458 266.783C364.107 265.451 365.037 264.424 366.246 263.699C367.455 262.952 368.887 262.577 370.545 262.577C372.091 262.577 373.411 262.904 374.509 263.559C375.628 264.214 376.491 265.101 377.095 266.223C377.721 267.344 378.036 268.63 378.036 270.078V272.462H365.977V273.058C365.977 274.905 366.402 276.307 367.254 277.264C368.104 278.221 369.179 278.701 370.478 278.701C371.91 278.701 372.997 278.34 373.736 277.615C374.496 276.889 374.878 275.768 374.878 274.25H378.036C378.036 275.676 377.71 276.914 377.062 277.965C376.434 278.993 375.55 279.788 374.408 280.349C373.287 280.91 371.956 281.19 370.411 281.19ZM366.011 270.183H374.744V269.658C374.744 268.77 374.563 267.986 374.207 267.309C373.871 266.608 373.377 266.058 372.729 265.662C372.078 265.265 371.328 265.066 370.478 265.066C369.515 265.066 368.698 265.311 368.026 265.802C367.376 266.293 366.872 266.924 366.515 267.695C366.179 268.442 366.011 269.213 366.011 270.008V270.183ZM386.351 280.839V265.662H382.018V262.928H389.072L389.239 265.557C389.642 264.621 390.26 263.898 391.087 263.383C391.939 262.847 392.913 262.577 394.009 262.577C395.688 262.577 396.977 263.103 397.872 264.154C398.791 265.182 399.249 266.503 399.249 268.115C399.249 268.372 399.238 268.617 399.215 268.851C399.215 269.062 399.194 269.318 399.148 269.623H396.293V268.887C396.293 268.256 396.171 267.671 395.923 267.134C395.701 266.597 395.342 266.163 394.849 265.837C394.378 265.486 393.763 265.311 393.001 265.311C392.262 265.311 391.637 265.532 391.12 265.977C390.629 266.422 390.26 266.983 390.012 267.66C389.766 268.337 389.642 269.051 389.642 269.798V280.839H386.351ZM381.85 280.839V278.14H397.334V280.839H381.85ZM408.641 285.922V285.466C409.245 284.741 409.705 283.994 410.018 283.223C410.331 282.452 410.488 281.657 410.488 280.839H408.775V276.072H412.604V280.173C412.604 281.201 412.436 282.206 412.1 283.188C411.788 284.193 411.305 285.105 410.656 285.922H408.641ZM609.133 270.464L606.883 268.851L610.578 264.33L605.136 262.928L606.009 260.299L611.216 262.647L610.779 256.793H613.5L612.929 262.682L618.269 260.404L619.042 263.068L613.5 264.365L617.161 268.816L614.944 270.464L611.988 265.416L609.133 270.464ZM709.831 270.464L707.58 268.851L711.275 264.33L705.834 262.928L706.707 260.299L711.913 262.647L711.477 256.793H714.197L713.626 262.682L718.967 260.404L719.739 263.068L714.197 264.365L717.858 268.816L715.642 270.464L712.686 265.416L709.831 270.464ZM729.971 270.464L727.721 268.851L731.415 264.33L725.974 262.928L726.847 260.299L732.054 262.647L731.617 256.793H734.338L733.767 262.682L739.107 260.404L739.88 263.068L734.338 264.365L737.999 268.816L735.782 270.464L732.826 265.416L729.971 270.464ZM771.83 281.19C770.598 281.19 769.467 280.885 768.438 280.279C767.407 279.648 766.578 278.677 765.953 277.369C765.348 276.037 765.046 274.309 765.046 272.181V271.796C765.046 269.809 765.348 268.126 765.953 266.748C766.557 265.37 767.374 264.33 768.405 263.629C769.456 262.928 770.621 262.577 771.898 262.577C773.04 262.577 774.035 262.798 774.887 263.243C775.737 263.664 776.398 264.249 776.869 264.996V255.602H780.227V280.839H777.507L777.137 278.281C776.644 279.216 775.949 279.939 775.055 280.454C774.159 280.945 773.084 281.19 771.83 281.19ZM772.637 278.666C773.867 278.666 774.874 278.2 775.66 277.264C776.466 276.307 776.869 274.834 776.869 272.847V270.885C776.869 268.922 776.466 267.46 775.66 266.503C774.874 265.546 773.867 265.066 772.637 265.066C771.404 265.066 770.386 265.557 769.58 266.538C768.795 267.495 768.405 268.946 768.405 270.885V272.812C768.405 274.799 768.795 276.272 769.58 277.229C770.386 278.186 771.404 278.666 772.637 278.666ZM793.346 281.19C791.555 281.19 790.067 280.815 788.879 280.068C787.716 279.321 786.842 278.27 786.259 276.914C785.7 275.557 785.419 274.004 785.419 272.252V271.515C785.419 269.693 785.744 268.115 786.393 266.783C787.044 265.451 787.972 264.424 789.181 263.699C790.39 262.952 791.824 262.577 793.48 262.577C795.025 262.577 796.348 262.904 797.444 263.559C798.565 264.214 799.425 265.101 800.03 266.223C800.658 267.344 800.97 268.63 800.97 270.078V272.462H788.912V273.058C788.912 274.905 789.338 276.307 790.189 277.264C791.041 278.221 792.116 278.701 793.413 278.701C794.847 278.701 795.932 278.34 796.671 277.615C797.433 276.889 797.813 275.768 797.813 274.25H800.97C800.97 275.676 800.647 276.914 799.996 277.965C799.371 278.993 798.485 279.788 797.343 280.349C796.224 280.91 794.891 281.19 793.346 281.19ZM788.946 270.183H797.679V269.658C797.679 268.77 797.5 267.986 797.141 267.309C796.805 266.608 796.314 266.058 795.663 265.662C795.015 265.265 794.265 265.066 793.413 265.066C792.452 265.066 791.633 265.311 790.961 265.802C790.312 266.293 789.809 266.924 789.45 267.695C789.114 268.442 788.946 269.213 788.946 270.008V270.183ZM813.15 281.19C812.099 281.19 811.101 280.98 810.161 280.559C809.244 280.138 808.438 279.542 807.743 278.771C807.071 277.976 806.544 277.043 806.164 275.967C805.784 274.87 805.593 273.643 805.593 272.287V271.445C805.593 270.089 805.784 268.876 806.164 267.8C806.544 266.702 807.071 265.767 807.743 264.996C808.438 264.2 809.244 263.605 810.161 263.208C811.078 262.787 812.086 262.577 813.184 262.577H813.587C814.975 262.577 816.196 262.882 817.248 263.488C818.3 264.073 819.129 264.915 819.734 266.012C820.338 267.088 820.641 268.396 820.641 269.938H817.618C817.618 268.792 817.439 267.87 817.08 267.169C816.721 266.444 816.23 265.918 815.602 265.592C814.998 265.241 814.282 265.066 813.453 265.066C812.243 265.066 811.213 265.532 810.363 266.468C809.533 267.379 809.12 268.792 809.12 270.709V273.058C809.12 274.905 809.523 276.307 810.329 277.264C811.158 278.221 812.233 278.701 813.553 278.701C814.359 278.701 815.065 278.537 815.669 278.21C816.297 277.86 816.778 277.334 817.114 276.633C817.473 275.908 817.651 274.975 817.651 273.829H820.641C820.641 275.395 820.328 276.727 819.7 277.825C819.095 278.922 818.256 279.764 817.181 280.349C816.129 280.91 814.92 281.19 813.553 281.19H813.15ZM832.888 280.839V265.662H826.741V262.928H836.246V280.839H832.888ZM826.741 280.839V278.14H842.057V280.839H826.741ZM832.753 259.247V255.882H835.911V259.247H832.753ZM845.471 280.839V262.928H847.452L847.788 264.926C848.124 264.154 848.594 263.57 849.199 263.173C849.825 262.776 850.496 262.577 851.214 262.577C851.974 262.577 852.646 262.787 853.229 263.208C853.834 263.629 854.281 264.249 854.573 265.066C854.976 264.249 855.467 263.629 856.051 263.208C856.655 262.787 857.394 262.577 858.268 262.577C859.498 262.577 860.438 262.987 861.089 263.804C861.761 264.621 862.097 265.791 862.097 267.309V280.839H859.208V267.94C859.208 266.188 858.581 265.311 857.327 265.311C856.723 265.311 856.219 265.557 855.816 266.047C855.413 266.538 855.211 267.169 855.211 267.94V280.839H852.356V267.94C852.356 266.188 851.705 265.311 850.408 265.311C849.803 265.311 849.3 265.557 848.897 266.047C848.515 266.538 848.326 267.169 848.326 267.94V280.839H845.471ZM871.588 281.19C869.82 281.19 868.453 280.758 867.49 279.893C866.549 279.028 866.079 277.755 866.079 276.072C866.079 274.67 866.438 273.548 867.154 272.707C867.893 271.842 869.068 271.211 870.681 270.814C872.316 270.418 874.466 270.219 877.13 270.219V268.256C877.13 267.134 876.85 266.317 876.29 265.802C875.752 265.287 874.835 265.031 873.536 265.031C872.35 265.031 871.432 265.287 870.781 265.802C870.133 266.317 869.807 267.04 869.807 267.975V268.396H866.717C866.673 268.021 866.64 267.776 866.617 267.66C866.617 267.544 866.617 267.495 866.617 267.519C866.617 267.544 866.617 267.579 866.617 267.625C866.64 267.671 866.65 267.671 866.65 267.625C866.65 266.082 867.278 264.856 868.531 263.944C869.807 263.033 871.51 262.577 873.636 262.577C875.899 262.577 877.6 263.033 878.742 263.944C879.907 264.856 880.488 266.247 880.488 268.115V277.615C880.488 277.989 880.579 278.256 880.757 278.421C880.938 278.585 881.173 278.666 881.463 278.666C881.979 278.666 882.426 278.526 882.806 278.246V280.524C882.516 280.734 882.157 280.899 881.731 281.015C881.307 281.131 880.858 281.19 880.388 281.19C879.716 281.19 879.168 281.096 878.742 280.909C878.318 280.745 878.003 280.454 877.801 280.033C877.6 279.613 877.465 279.028 877.398 278.281C877.018 279.006 876.525 279.588 875.92 280.033C875.316 280.454 874.644 280.745 873.905 280.909C873.166 281.096 872.394 281.19 871.588 281.19ZM872.629 278.701C873.66 278.701 874.499 278.467 875.148 278C875.82 277.534 876.313 276.903 876.626 276.107C876.962 275.312 877.13 274.425 877.13 273.443V272.357C875.205 272.357 873.67 272.473 872.528 272.707C871.409 272.918 870.603 273.279 870.11 273.794C869.639 274.285 869.404 274.986 869.404 275.897C869.404 276.832 869.663 277.534 870.177 278C870.714 278.467 871.533 278.701 872.629 278.701ZM892.635 280.839V258.301H886.455V255.567H895.96V280.839H892.635ZM886.455 280.839V278.14H901.804V280.839H886.455ZM913.951 281.19C912.54 281.19 911.285 280.991 910.189 280.594C909.114 280.173 908.262 279.578 907.636 278.806C907.032 278.011 906.729 277.078 906.729 276.002C906.729 275.932 906.729 275.827 906.729 275.687C906.729 275.546 906.74 275.395 906.763 275.231H909.651V275.582C909.651 276.563 910.054 277.334 910.861 277.895C911.688 278.432 912.863 278.701 914.387 278.701C915.752 278.701 916.783 278.456 917.477 277.965C918.193 277.45 918.552 276.784 918.552 275.967C918.552 275.43 918.405 274.986 918.116 274.635C917.824 274.285 917.297 273.98 916.537 273.724C915.798 273.467 914.723 273.222 913.313 272.988C911.812 272.707 910.602 272.368 909.685 271.971C908.766 271.551 908.106 271.014 907.703 270.359C907.3 269.682 907.099 268.841 907.099 267.835C907.099 266.667 907.401 265.697 908.006 264.926C908.61 264.154 909.45 263.57 910.525 263.173C911.621 262.776 912.897 262.577 914.354 262.577C915.63 262.577 916.772 262.776 917.78 263.173C918.808 263.57 919.627 264.13 920.232 264.856C920.836 265.557 921.139 266.409 921.139 267.414C921.139 267.484 921.139 267.565 921.139 267.66C921.139 267.754 921.116 267.881 921.071 268.045H918.149C918.149 267.204 917.958 266.573 917.578 266.152C917.219 265.708 916.726 265.416 916.1 265.276C915.496 265.112 914.824 265.031 914.085 265.031C911.486 265.031 910.189 265.872 910.189 267.555C910.189 267.999 910.323 268.372 910.592 268.676C910.861 268.957 911.341 269.213 912.036 269.447C912.752 269.682 913.77 269.927 915.093 270.183C916.726 270.488 918.015 270.86 918.955 271.305C919.917 271.75 920.612 272.322 921.038 273.023C921.462 273.7 921.676 274.589 921.676 275.687C921.676 276.924 921.361 277.954 920.736 278.771C920.131 279.588 919.245 280.197 918.082 280.594C916.94 280.991 915.563 281.19 913.951 281.19ZM992.696 285.922V285.466C993.301 284.741 993.758 283.994 994.073 283.223C994.386 282.452 994.544 281.657 994.544 280.839H992.831V276.072H996.66V280.173C996.66 281.201 996.492 282.206 996.156 283.188C995.841 284.193 995.36 285.105 994.712 285.922H992.696ZM992.562 267.239V262.893H996.928V267.239H992.562Z" fill="var(--fill-0, #A2A3BD)"/>
</svg>
