<svg preserveAspectRatio="none" width="100%" height="100%" overflow="visible" style="display: block;" viewBox="0 0 1055.16 163.239" fill="none" xmlns="http://www.w3.org/2000/svg">
<path id="Vector" d="M0.772554 10.9714L0 6.37953V1.22684H2.8886V6.37953L2.11605 10.9714H0.772554ZM5.77721 10.9714L5.00465 6.37953V1.22684H7.89326V6.37953L7.1207 10.9714H5.77721ZM23.8351 30.8811C20.4993 30.8811 18.0348 29.6653 16.4457 27.2357C14.8565 24.828 14.0609 21.1475 14.0609 16.1942C14.0609 11.1467 14.9447 7.32595 16.7144 4.73208C18.484 2.1382 21.0913 0.841262 24.5404 0.841262C27.6977 0.841262 30.0824 1.99799 31.6947 4.31144C33.33 6.6008 34.1467 10.0009 34.1467 14.5117C34.1467 16.9412 34.0228 18.9874 33.7772 20.6458C33.5525 22.2823 33.139 23.5201 32.5344 24.3614C31.9299 25.1785 31.0671 25.5882 29.9482 25.5882C29.142 25.5882 28.4933 25.3188 28 24.782C27.5067 24.2212 27.238 23.4391 27.1939 22.4335C26.7237 23.5092 26.096 24.3154 25.313 24.8521C24.5509 25.367 23.6776 25.6233 22.693 25.6233C22.0654 25.6233 21.4944 25.5291 20.9801 25.3429C20.4868 25.1785 20.0396 24.9113 19.6365 24.5367C19.2566 24.1401 18.9543 23.6253 18.7296 22.9943C18.5281 22.3634 18.4274 21.6032 18.4274 20.7159C18.4274 19.2897 18.7297 18.133 19.3343 17.2458C19.9389 16.3585 20.8562 15.7035 22.0885 15.2828C23.3207 14.8622 24.8427 14.6519 26.6565 14.6519V12.8292C26.6565 11.6834 26.4319 10.8312 25.9847 10.2703C25.5376 9.70951 24.9099 9.42908 24.1037 9.42908C23.4551 9.42908 22.8841 9.65035 22.3908 10.0951C21.8975 10.5398 21.6518 11.311 21.6518 12.4085V12.8292H18.9312C18.9081 12.7131 18.8871 12.5948 18.864 12.4787C18.864 12.3384 18.864 12.1982 18.864 12.058C18.864 10.4456 19.3447 9.20783 20.3083 8.34247C21.2929 7.45521 22.5252 7.01048 24.003 7.01048H24.2382C25.8945 7.01048 27.1708 7.49025 28.0672 8.44762C28.9845 9.38308 29.4443 10.7151 29.4443 12.4436V21.452C29.4443 22.1531 29.5345 22.6197 29.713 22.8541C29.9145 23.0886 30.1602 23.2047 30.452 23.2047C30.8781 23.2047 31.214 22.9001 31.4596 22.2933C31.7283 21.6865 31.9193 20.74 32.0306 19.4541C32.1649 18.1681 32.2321 16.5097 32.2321 14.4766C32.2321 10.5968 31.5834 7.66552 30.284 5.67849C28.9845 3.66955 27.0595 2.66399 24.5068 2.66399C21.7085 2.66399 19.5798 3.80976 18.1251 6.09912C16.6913 8.38847 15.9754 11.7666 15.9754 16.2292C15.9754 20.5516 16.6136 23.7655 17.8899 25.8686C19.1663 27.9959 21.148 29.0584 23.8351 29.0584C24.4166 29.0584 25.0442 29.0124 25.716 28.9182C26.3878 28.824 27.026 28.6969 27.6306 28.5326C28.2351 28.3924 28.739 28.2172 29.142 28.0068V29.9347C28.6718 30.1209 28.1238 30.2852 27.4962 30.4254C26.8916 30.5656 26.2639 30.6708 25.6152 30.7409C24.9665 30.8351 24.3725 30.8811 23.8351 30.8811ZM23.3648 23.1346C23.9463 23.1346 24.4837 22.9703 24.9771 22.6438C25.4704 22.2933 25.8734 21.7566 26.1862 21.0314C26.499 20.2844 26.6565 19.3139 26.6565 18.1221V16.7901C25.336 16.7901 24.2822 16.9412 23.4992 17.2458C22.7371 17.5503 22.1997 17.9819 21.8869 18.5427C21.5741 19.1035 21.4167 19.7805 21.4167 20.5757C21.4167 21.463 21.5952 22.118 21.9541 22.5387C22.3131 22.9352 22.7833 23.1346 23.3648 23.1346ZM44.2441 25.6233C42.5857 25.6233 41.1645 25.2377 39.9784 24.4666C38.7902 23.6954 37.8834 22.6329 37.2578 21.2768C36.6301 19.8988 36.3173 18.3433 36.3173 16.6148V16.0189C36.3173 14.2422 36.6301 12.678 37.2578 11.3219C37.8834 9.96584 38.7902 8.91426 39.9784 8.16721C41.1645 7.39606 42.5752 7.01048 44.2105 7.01048C45.8899 7.01048 47.3216 7.39606 48.5098 8.16721C49.6959 8.93836 50.6028 10.0009 51.2304 11.357C51.856 12.7131 52.171 14.2663 52.171 16.0189V16.6148C52.171 18.3915 51.856 19.9558 51.2304 21.3118C50.6028 22.6679 49.6959 23.7305 48.5098 24.5016C47.3216 25.2487 45.9005 25.6233 44.2441 25.6233ZM44.2441 23.1346C45.5415 23.1346 46.6058 22.6438 47.435 21.6624C48.2621 20.6568 48.6778 19.2678 48.6778 17.4911V15.1426C48.6778 13.3659 48.2621 11.9879 47.435 11.0064C46.6058 10.0009 45.5415 9.4992 44.2441 9.4992C42.9678 9.4992 41.9034 10.0009 41.0532 11.0064C40.224 11.9879 39.8105 13.3659 39.8105 15.1426V17.4911C39.8105 19.2678 40.224 20.6568 41.0532 21.6624C41.9034 22.6438 42.9678 23.1346 44.2441 23.1346ZM57.3646 31.6172V7.36099H60.0852L60.4546 9.91981C60.9459 8.96245 61.6407 8.23731 62.5371 7.74658C63.4545 7.25584 64.5398 7.01048 65.7952 7.01048C67.0925 7.01048 68.2471 7.3369 69.2548 7.99194C70.2834 8.62288 71.0895 9.60435 71.6731 10.9363C72.2777 12.2683 72.58 13.9968 72.58 16.1241V16.5798C72.58 18.5427 72.2651 20.2011 71.6395 21.5572C71.0118 22.8892 70.1721 23.9057 69.1204 24.6068C68.0896 25.2837 66.9372 25.6233 65.6608 25.6233C64.5188 25.6233 63.5217 25.402 62.6715 24.9573C61.8423 24.5126 61.1936 23.9649 60.7233 23.3098V31.6172H57.3646ZM64.9891 23.0995C66.2192 23.0995 67.2269 22.6329 68.012 21.6974C68.795 20.7619 69.1876 19.3139 69.1876 17.3509V15.3179C69.1876 13.8917 68.9965 12.7591 68.6166 11.9178C68.2345 11.0765 67.7202 10.4697 67.0715 10.0951C66.4439 9.69855 65.749 9.4992 64.9891 9.4992C64.2501 9.4992 63.5553 9.68541 62.9066 10.06C62.2558 10.4106 61.731 11.0174 61.328 11.8828C60.9249 12.724 60.7233 13.8698 60.7233 15.3179V17.3509C60.7233 19.3139 61.1264 20.7619 61.9325 21.6974C62.7387 22.6329 63.7568 23.0995 64.9891 23.0995ZM84.5227 25.6233C82.732 25.6233 81.2437 25.2487 80.0555 24.5016C78.8925 23.7546 78.0192 22.703 77.4356 21.3469C76.8772 19.9908 76.5959 18.4375 76.5959 16.6849V15.9488C76.5959 14.1261 76.9213 12.5487 77.57 11.2168C78.2207 9.88477 79.1486 8.8573 80.3577 8.13216C81.5669 7.3851 83.0007 7.01048 84.657 7.01048C86.2021 7.01048 87.5246 7.3369 88.6205 7.99194C89.7415 8.64698 90.6022 9.53425 91.2068 10.6559C91.8345 11.7776 92.1473 13.0636 92.1473 14.5117V16.8952H80.0891V17.4911C80.0891 19.3379 80.5152 20.74 81.3654 21.6974C82.2177 22.6548 83.2926 23.1346 84.5899 23.1346C86.0237 23.1346 87.109 22.7731 87.848 22.0479C88.61 21.3228 88.99 20.2011 88.99 18.6829H92.1473C92.1473 20.1091 91.8239 21.3469 91.1732 22.3985C90.5476 23.4259 89.6617 24.2212 88.5197 24.782C87.4008 25.3429 86.0678 25.6233 84.5227 25.6233ZM80.1226 14.6168H88.8556V14.0911C88.8556 13.2038 88.6772 12.4195 88.3182 11.7425C87.9823 11.0415 87.4911 10.4916 86.8403 10.0951C86.1916 9.69855 85.4422 9.4992 84.5899 9.4992C83.6284 9.4992 82.8097 9.74456 82.138 10.2353C81.4893 10.726 80.9855 11.357 80.6265 12.1281C80.2906 12.8752 80.1226 13.6463 80.1226 14.4416V14.6168ZM97.4752 25.2728V7.36099H100.196L100.532 9.91981C101.046 8.91425 101.774 8.17816 102.715 7.71153C103.655 7.24489 104.697 7.01048 105.839 7.01048C107.72 7.01048 109.221 7.56036 110.339 8.65794C111.458 9.75551 112.019 11.3811 112.019 13.5302V25.2728H108.66V14.5467C108.66 12.8642 108.324 11.6374 107.652 10.8662C107.004 10.0951 106.084 9.70952 104.898 9.70952C104.069 9.70952 103.353 9.93077 102.749 10.3755C102.144 10.7961 101.674 11.392 101.338 12.1632C101.002 12.9102 100.834 13.7756 100.834 14.757V25.2728H97.4752ZM118.254 25.2728V23.9758L126.55 9.88476H118.758V7.36099H131.084V8.62289L122.755 22.749H131.353V25.2728H118.254ZM144.944 25.6233C143.151 25.6233 141.663 25.2487 140.476 24.5016C139.311 23.7546 138.438 22.703 137.857 21.3469C137.296 19.9908 137.017 18.4375 137.017 16.6849V15.9488C137.017 14.1261 137.34 12.5487 137.991 11.2168C138.64 9.88477 139.57 8.8573 140.779 8.13216C141.988 7.3851 143.42 7.01048 145.078 7.01048C146.623 7.01048 147.944 7.3369 149.042 7.99194C150.16 8.64698 151.023 9.53425 151.628 10.6559C152.253 11.7776 152.568 13.0636 152.568 14.5117V16.8952H140.51V17.4911C140.51 19.3379 140.934 20.74 141.786 21.6974C142.637 22.6548 143.711 23.1346 145.011 23.1346C146.443 23.1346 147.53 22.7731 148.269 22.0479C149.029 21.3228 149.411 20.2011 149.411 18.6829H152.568C152.568 20.1091 152.243 21.3469 151.594 22.3985C150.967 23.4259 150.083 24.2212 148.941 24.782C147.82 25.3429 146.489 25.6233 144.944 25.6233ZM140.544 14.6168H149.277V14.0911C149.277 13.2038 149.096 12.4195 148.739 11.7425C148.403 11.0415 147.91 10.4916 147.261 10.0951C146.611 9.69855 145.861 9.4992 145.011 9.4992C144.047 9.4992 143.231 9.74456 142.559 10.2353C141.908 10.726 141.404 11.357 141.047 12.1281C140.712 12.8752 140.544 13.6463 140.544 14.4416V14.6168ZM158.062 31.6172V7.36099H160.783L161.152 9.91981C161.646 8.96245 162.34 8.23731 163.235 7.74658C164.154 7.25584 165.239 7.01048 166.493 7.01048C167.792 7.01048 168.945 7.3369 169.952 7.99194C170.983 8.62288 171.789 9.60435 172.371 10.9363C172.975 12.2683 173.278 13.9968 173.278 16.1241V16.5798C173.278 18.5427 172.965 20.2011 172.337 21.5572C171.711 22.8892 170.872 23.9057 169.818 24.6068C168.789 25.2837 167.635 25.6233 166.358 25.6233C165.216 25.6233 164.221 25.402 163.369 24.9573C162.542 24.5126 161.891 23.9649 161.421 23.3098V31.6172H158.062ZM165.687 23.0995C166.919 23.0995 167.926 22.6329 168.71 21.6974C169.495 20.7619 169.885 19.3139 169.885 17.3509V15.3179C169.885 13.8917 169.696 12.7591 169.314 11.9178C168.934 11.0765 168.42 10.4697 167.769 10.0951C167.143 9.69855 166.449 9.4992 165.687 9.4992C164.948 9.4992 164.255 9.68541 163.604 10.06C162.955 10.4106 162.429 11.0174 162.025 11.8828C161.622 12.724 161.421 13.8698 161.421 15.3179V17.3509C161.421 19.3139 161.824 20.7619 162.63 21.6974C163.436 22.6329 164.456 23.0995 165.687 23.0995ZM178.202 31.6172V7.36099H180.923L181.293 9.91981C181.786 8.96245 182.479 8.23731 183.375 7.74658C184.292 7.25584 185.38 7.01048 186.633 7.01048C187.932 7.01048 189.085 7.3369 190.093 7.99194C191.123 8.62288 191.93 9.60435 192.511 10.9363C193.116 12.2683 193.418 13.9968 193.418 16.1241V16.5798C193.418 18.5427 193.105 20.2011 192.477 21.5572C191.85 22.8892 191.01 23.9057 189.958 24.6068C188.928 25.2837 187.775 25.6233 186.499 25.6233C185.357 25.6233 184.36 25.402 183.509 24.9573C182.68 24.5126 182.031 23.9649 181.561 23.3098V31.6172H178.202ZM185.827 23.0995C187.059 23.0995 188.067 22.6329 188.85 21.6974C189.633 20.7619 190.025 19.3139 190.025 17.3509V15.3179C190.025 13.8917 189.834 12.7591 189.454 11.9178C189.075 11.0765 188.558 10.4697 187.909 10.0951C187.282 9.69855 186.589 9.4992 185.827 9.4992C185.088 9.4992 184.393 9.68541 183.744 10.06C183.096 10.4106 182.569 11.0174 182.166 11.8828C181.763 12.724 181.561 13.8698 181.561 15.3179V17.3509C181.561 19.3139 181.964 20.7619 182.77 21.6974C183.577 22.6329 184.595 23.0995 185.827 23.0995ZM205.363 25.6233C203.57 25.6233 202.082 25.2487 200.895 24.5016C199.73 23.7546 198.857 22.703 198.276 21.3469C197.715 19.9908 197.436 18.4375 197.436 16.6849V15.9488C197.436 14.1261 197.759 12.5487 198.41 11.2168C199.059 9.88477 199.989 8.8573 201.198 8.13216C202.407 7.3851 203.839 7.01048 205.497 7.01048C207.042 7.01048 208.363 7.3369 209.46 7.99194C210.579 8.64698 211.442 9.53425 212.047 10.6559C212.672 11.7776 212.987 13.0636 212.987 14.5117V16.8952H200.929V17.4911C200.929 19.3379 201.353 20.74 202.205 21.6974C203.056 22.6548 204.13 23.1346 205.43 23.1346C206.862 23.1346 207.949 22.7731 208.688 22.0479C209.448 21.3228 209.83 20.2011 209.83 18.6829H212.987C212.987 20.1091 212.662 21.3469 212.013 22.3985C211.386 23.4259 210.502 24.2212 209.36 24.782C208.239 25.3429 206.908 25.6233 205.363 25.6233ZM200.963 14.6168H209.696V14.0911C209.696 13.2038 209.515 12.4195 209.158 11.7425C208.822 11.0415 208.329 10.4916 207.68 10.0951C207.029 9.69855 206.28 9.4992 205.43 9.4992C204.466 9.4992 203.65 9.74456 202.978 10.2353C202.327 10.726 201.823 11.357 201.466 12.1281C201.131 12.8752 200.963 13.6463 200.963 14.4416V14.6168ZM224.092 25.2728V2.73409H217.912V0H227.418V25.2728H224.092ZM217.912 25.2728V22.5737H233.262V25.2728H217.912ZM244.902 25.2728V10.0951H238.756V7.36099H248.261V25.2728H244.902ZM238.756 25.2728V22.5737H254.072V25.2728H238.756ZM244.768 3.6805V0.315482H247.925V3.6805H244.768ZM258.594 25.2728V7.36099H261.314L261.65 9.91981C262.165 8.91425 262.893 8.17816 263.834 7.71153C264.774 7.24489 265.815 7.01048 266.957 7.01048C268.838 7.01048 270.339 7.56036 271.458 8.65794C272.577 9.75551 273.137 11.3811 273.137 13.5302V25.2728H269.779V14.5467C269.779 12.8642 269.443 11.6374 268.771 10.8662C268.122 10.0951 267.203 9.70952 266.017 9.70952C265.188 9.70952 264.472 9.93077 263.867 10.3755C263.263 10.7961 262.792 11.392 262.456 12.1632C262.121 12.9102 261.953 13.7756 261.953 14.757V25.2728H258.594ZM276.417 31.2667L292.64 1.22684H295.427L279.238 31.2667H276.417ZM305.726 25.6233C304.673 25.6233 303.678 25.413 302.737 24.9923C301.818 24.5717 301.012 23.9758 300.319 23.2047C299.647 22.4094 299.12 21.4761 298.74 20.4005C298.358 19.3029 298.169 18.0761 298.169 16.72V15.8787C298.169 14.5226 298.358 13.3089 298.74 12.2333C299.12 11.1357 299.647 10.2002 300.319 9.42908C301.012 8.63383 301.818 8.03796 302.737 7.64143C303.654 7.2208 304.662 7.01048 305.76 7.01048H306.163C307.551 7.01048 308.77 7.315 309.824 7.92184C310.876 8.50678 311.705 9.34804 312.31 10.4456C312.914 11.5213 313.217 12.8292 313.217 14.3715H310.194C310.194 13.2257 310.013 12.3034 309.656 11.6023C309.297 10.8772 308.804 10.3514 308.178 10.025C307.574 9.67446 306.856 9.4992 306.029 9.4992C304.82 9.4992 303.789 9.96583 302.939 10.9013C302.109 11.8127 301.696 13.2257 301.696 15.1426V17.4911C301.696 19.3379 302.099 20.74 302.905 21.6974C303.732 22.6548 304.807 23.1346 306.129 23.1346C306.936 23.1346 307.641 22.9703 308.246 22.6438C308.871 22.2933 309.354 21.7675 309.69 21.0665C310.047 20.3413 310.227 19.4081 310.227 18.2623H313.217C313.217 19.8287 312.902 21.1607 312.276 22.2582C311.672 23.3558 310.832 24.1971 309.757 24.782C308.703 25.3429 307.494 25.6233 306.129 25.6233H305.726ZM326.201 25.6233C324.544 25.6233 323.123 25.2377 321.935 24.4666C320.749 23.6954 319.842 22.6329 319.214 21.2768C318.589 19.8988 318.274 18.3433 318.274 16.6148V16.0189C318.274 14.2422 318.589 12.678 319.214 11.3219C319.842 9.96584 320.749 8.91426 321.935 8.16721C323.123 7.39606 324.534 7.01048 326.167 7.01048C327.846 7.01048 329.28 7.39606 330.466 8.16721C331.654 8.93836 332.561 10.0009 333.187 11.357C333.815 12.7131 334.127 14.2663 334.127 16.0189V16.6148C334.127 18.3915 333.815 19.9558 333.187 21.3118C332.561 22.6679 331.654 23.7305 330.466 24.5016C329.28 25.2487 327.859 25.6233 326.201 25.6233ZM326.201 23.1346C327.5 23.1346 328.564 22.6438 329.391 21.6624C330.221 20.6568 330.634 19.2678 330.634 17.4911V15.1426C330.634 13.3659 330.221 11.9879 329.391 11.0064C328.564 10.0009 327.5 9.4992 326.201 9.4992C324.924 9.4992 323.862 10.0009 323.01 11.0064C322.183 11.9879 321.767 13.3659 321.767 15.1426V17.4911C321.767 19.2678 322.183 20.6568 323.01 21.6624C323.862 22.6438 324.924 23.1346 326.201 23.1346ZM339.153 25.2728V7.36099H341.874L342.21 9.91981C342.724 8.91425 343.452 8.17816 344.393 7.71153C345.333 7.24489 346.374 7.01048 347.516 7.01048C349.397 7.01048 350.898 7.56036 352.017 8.65794C353.136 9.75551 353.697 11.3811 353.697 13.5302V25.2728H350.338V14.5467C350.338 12.8642 350.002 11.6374 349.33 10.8662C348.682 10.0951 347.762 9.70952 346.576 9.70952C345.747 9.70952 345.031 9.93077 344.426 10.3755C343.822 10.7961 343.352 11.392 343.016 12.1632C342.68 12.9102 342.512 13.7756 342.512 14.757V25.2728H339.153ZM369.605 25.6233C367.59 25.6233 365.988 25.1676 364.802 24.2562C363.614 23.3208 363.022 21.8026 363.022 19.6994V10.0951H358.051V7.36099H363.122L364.298 1.64747H366.381V7.36099H374.139V10.0951H366.381V19.419C366.381 20.2143 366.536 20.8671 366.851 21.3819C367.164 21.8968 367.623 22.2692 368.228 22.5036C368.832 22.738 369.592 22.8541 370.512 22.8541C371.228 22.8541 371.889 22.7599 372.494 22.5737C373.119 22.3634 373.669 22.1421 374.139 21.9077V24.6068C373.602 24.9332 372.918 25.1785 372.09 25.3429C371.261 25.5291 370.432 25.6233 369.605 25.6233ZM382.423 25.2728V10.0951H378.09V7.36099H385.144L385.312 9.98993C385.715 9.05447 386.33 8.33151 387.159 7.81668C388.009 7.27994 388.983 7.01048 390.081 7.01048C391.761 7.01048 393.048 7.53627 393.944 8.58784C394.861 9.61531 395.321 10.9363 395.321 12.5488C395.321 12.8051 395.308 13.0504 395.287 13.2848C395.287 13.4952 395.264 13.7515 395.22 14.056H392.365V13.3199C392.365 12.689 392.241 12.104 391.996 11.5673C391.771 11.0306 391.412 10.5968 390.921 10.2703C390.451 9.91982 389.834 9.74457 389.074 9.74457C388.335 9.74457 387.707 9.96584 387.193 10.4106C386.699 10.8553 386.33 11.4161 386.084 12.0931C385.836 12.77 385.715 13.4842 385.715 14.2313V25.2728H382.423ZM377.922 25.2728V22.5737H393.406V25.2728H377.922ZM404.442 25.6233C402.675 25.6233 401.308 25.1917 400.345 24.3263C399.404 23.461 398.934 22.1881 398.934 20.5056C398.934 19.1035 399.293 17.9819 400.009 17.1406C400.748 16.2753 401.923 15.6443 403.535 15.2478C405.171 14.8513 407.32 14.6519 409.984 14.6519V12.6889C409.984 11.5673 409.705 10.7501 409.145 10.2353C408.607 9.72046 407.69 9.46413 406.39 9.46413C405.204 9.46413 404.287 9.72046 403.636 10.2353C402.988 10.7501 402.662 11.4731 402.662 12.4085V12.8292H399.572C399.528 12.4545 399.494 12.2092 399.471 12.0931C399.471 11.977 399.471 11.9288 399.471 11.9529C399.471 11.977 399.471 12.012 399.471 12.058C399.494 12.104 399.505 12.104 399.505 12.058C399.505 10.5157 400.132 9.28888 401.386 8.37752C402.662 7.46616 404.365 7.01048 406.491 7.01048C408.754 7.01048 410.455 7.46616 411.597 8.37752C412.762 9.28888 413.343 10.68 413.343 12.5488V22.0479C413.343 22.4226 413.433 22.6898 413.612 22.8541C413.792 23.0185 414.028 23.0995 414.317 23.0995C414.834 23.0995 415.281 22.9593 415.661 22.6789V24.9573C415.371 25.1676 415.012 25.3319 414.586 25.448C414.162 25.5641 413.713 25.6233 413.242 25.6233C412.571 25.6233 412.023 25.5291 411.597 25.3429C411.173 25.1785 410.858 24.8872 410.656 24.4666C410.455 24.0459 410.32 23.461 410.253 22.7139C409.873 23.4391 409.38 24.0218 408.775 24.4666C408.171 24.8872 407.499 25.1785 406.76 25.3429C406.021 25.5291 405.248 25.6233 404.442 25.6233ZM405.484 23.1346C406.514 23.1346 407.354 22.9001 408.003 22.4335C408.674 21.9669 409.168 21.3359 409.481 20.5407C409.816 19.7454 409.984 18.8582 409.984 17.8767V16.7901C408.059 16.7901 406.525 16.9062 405.383 17.1406C404.264 17.3509 403.458 17.7124 402.964 18.2272C402.494 18.718 402.259 19.419 402.259 20.3304C402.259 21.2658 402.517 21.9669 403.032 22.4335C403.569 22.9001 404.388 23.1346 405.484 23.1346ZM426.564 25.6233C425.513 25.6233 424.515 25.413 423.575 24.9923C422.658 24.5717 421.852 23.9758 421.157 23.2047C420.485 22.4094 419.958 21.4761 419.578 20.4005C419.198 19.3029 419.007 18.0761 419.007 16.72V15.8787C419.007 14.5226 419.198 13.3089 419.578 12.2333C419.958 11.1357 420.485 10.2002 421.157 9.42908C421.852 8.63383 422.658 8.03796 423.575 7.64143C424.492 7.2208 425.5 7.01048 426.598 7.01048H427.001C428.389 7.01048 429.61 7.315 430.662 7.92184C431.714 8.50678 432.543 9.34804 433.148 10.4456C433.752 11.5213 434.055 12.8292 434.055 14.3715H431.032C431.032 13.2257 430.853 12.3034 430.494 11.6023C430.135 10.8772 429.644 10.3514 429.016 10.025C428.412 9.67446 427.696 9.4992 426.867 9.4992C425.657 9.4992 424.627 9.96583 423.777 10.9013C422.947 11.8127 422.534 13.2257 422.534 15.1426V17.4911C422.534 19.3379 422.937 20.74 423.743 21.6974C424.572 22.6548 425.647 23.1346 426.967 23.1346C427.773 23.1346 428.479 22.9703 429.084 22.6438C429.711 22.2933 430.192 21.7675 430.528 21.0665C430.887 20.3413 431.065 19.4081 431.065 18.2623H434.055C434.055 19.8287 433.742 21.1607 433.114 22.2582C432.509 23.3558 431.67 24.1971 430.595 24.782C429.543 25.3429 428.334 25.6233 426.967 25.6233H426.564ZM450.164 25.6233C448.149 25.6233 446.547 25.1676 445.361 24.2562C444.173 23.3208 443.581 21.8026 443.581 19.6994V10.0951H438.61V7.36099H443.682L444.857 1.64747H446.94V7.36099H454.699V10.0951H446.94V19.419C446.94 20.2143 447.095 20.8671 447.41 21.3819C447.723 21.8968 448.183 22.2692 448.787 22.5036C449.392 22.738 450.152 22.8541 451.071 22.8541C451.787 22.8541 452.448 22.7599 453.053 22.5737C453.678 22.3634 454.228 22.1421 454.699 21.9077V24.6068C454.161 24.9332 453.477 25.1785 452.65 25.3429C451.821 25.5291 450.991 25.6233 450.164 25.6233ZM466.946 25.6233C465.535 25.6233 464.28 25.4239 463.184 25.0274C462.109 24.6068 461.257 24.0109 460.631 23.2397C460.027 22.4445 459.724 21.5112 459.724 20.4355C459.724 20.3654 459.724 20.2603 459.724 20.1201C459.724 19.9799 459.735 19.8287 459.758 19.6644H462.647V20.0149C462.647 20.9964 463.05 21.7675 463.856 22.3283C464.683 22.8651 465.858 23.1346 467.382 23.1346C468.747 23.1346 469.778 22.8892 470.473 22.3985C471.188 21.8836 471.547 21.2176 471.547 20.4005C471.547 19.8637 471.4 19.419 471.111 19.0685C470.819 18.718 470.292 18.4134 469.532 18.1571C468.793 17.9008 467.718 17.6554 466.308 17.421C464.807 17.1406 463.597 16.801 462.68 16.4045C461.761 15.9839 461.101 15.4471 460.698 14.7921C460.295 14.1152 460.094 13.2739 460.094 12.2683C460.094 11.1007 460.396 10.1301 461.001 9.35898C461.605 8.58783 462.445 8.00289 463.52 7.60636C464.616 7.20983 465.892 7.01048 467.349 7.01048C468.625 7.01048 469.767 7.20983 470.775 7.60636C471.804 8.00289 472.622 8.56374 473.227 9.28888C473.831 9.98993 474.134 10.8421 474.134 11.8477C474.134 11.9178 474.134 11.9989 474.134 12.0931C474.134 12.1873 474.111 12.3143 474.064 12.4787H471.144C471.144 11.6374 470.953 11.0064 470.573 10.5858C470.214 10.1411 469.721 9.84973 469.095 9.70952C468.491 9.54521 467.819 9.46413 467.08 9.46413C464.481 9.46413 463.184 10.3054 463.184 11.9879C463.184 12.4326 463.318 12.8051 463.587 13.1096C463.856 13.39 464.336 13.6463 465.031 13.8807C465.747 14.1152 466.765 14.3605 468.088 14.6168C469.721 14.9214 471.01 15.2938 471.95 15.7385C472.912 16.1832 473.607 16.755 474.033 17.4561C474.457 18.133 474.671 19.0225 474.671 20.1201C474.671 21.3578 474.356 22.3875 473.731 23.2047C473.126 24.0218 472.24 24.6309 471.077 25.0274C469.935 25.4239 468.558 25.6233 466.946 25.6233ZM487.05 30.8811C483.715 30.8811 481.252 29.6653 479.661 27.2357C478.072 24.828 477.276 21.1475 477.276 16.1942C477.276 11.1467 478.162 7.32595 479.93 4.73208C481.699 2.1382 484.309 0.841262 487.756 0.841262C490.913 0.841262 493.298 1.99799 494.91 4.31144C496.545 6.6008 497.362 10.0009 497.362 14.5117C497.362 16.9412 497.24 18.9874 496.993 20.6458C496.77 22.2823 496.354 23.5201 495.75 24.3614C495.145 25.1785 494.285 25.5882 493.163 25.5882C492.357 25.5882 491.709 25.3188 491.215 24.782C490.724 24.2212 490.455 23.4391 490.409 22.4335C489.939 23.5092 489.313 24.3154 488.528 24.8521C487.768 25.367 486.895 25.6233 485.908 25.6233C485.283 25.6233 484.712 25.5291 484.195 25.3429C483.704 25.1785 483.255 24.9113 482.852 24.5367C482.472 24.1401 482.17 23.6253 481.945 22.9943C481.744 22.3634 481.643 21.6032 481.643 20.7159C481.643 19.2897 481.945 18.133 482.55 17.2458C483.154 16.3585 484.074 15.7035 485.304 15.2828C486.536 14.8622 488.058 14.6519 489.872 14.6519V12.8292C489.872 11.6834 489.649 10.8312 489.2 10.2703C488.753 9.70951 488.125 9.42908 487.319 9.42908C486.67 9.42908 486.1 9.65035 485.606 10.0951C485.115 10.5398 484.867 11.311 484.867 12.4085V12.8292H482.147C482.126 12.7131 482.103 12.5948 482.079 12.4787C482.079 12.3384 482.079 12.1982 482.079 12.058C482.079 10.4456 482.562 9.20783 483.524 8.34247C484.51 7.45521 485.741 7.01048 487.218 7.01048H487.454C489.112 7.01048 490.388 7.49025 491.283 8.44762C492.202 9.38308 492.66 10.7151 492.66 12.4436V21.452C492.66 22.1531 492.75 22.6197 492.928 22.8541C493.13 23.0886 493.378 23.2047 493.667 23.2047C494.093 23.2047 494.429 22.9001 494.675 22.2933C494.944 21.6865 495.135 20.74 495.246 19.4541C495.38 18.1681 495.448 16.5097 495.448 14.4766C495.448 10.5968 494.799 7.66552 493.499 5.67849C492.202 3.66955 490.275 2.66399 487.722 2.66399C484.924 2.66399 482.797 3.80976 481.34 6.09912C479.909 8.38847 479.191 11.7666 479.191 16.2292C479.191 20.5516 479.829 23.7655 481.105 25.8686C482.382 27.9959 484.363 29.0584 487.05 29.0584C487.634 29.0584 488.26 29.0124 488.931 28.9182C489.603 28.824 490.241 28.6969 490.846 28.5326C491.45 28.3924 491.954 28.2172 492.357 28.0068V29.9347C491.887 30.1209 491.339 30.2852 490.712 30.4254C490.107 30.5656 489.481 30.6708 488.831 30.7409C488.182 30.8351 487.588 30.8811 487.05 30.8811ZM486.58 23.1346C487.164 23.1346 487.701 22.9703 488.192 22.6438C488.686 22.2933 489.089 21.7566 489.402 21.0314C489.717 20.2844 489.872 19.3139 489.872 18.1221V16.7901C488.551 16.7901 487.5 16.9412 486.715 17.2458C485.955 17.5503 485.417 17.9819 485.102 18.5427C484.79 19.1035 484.632 19.7805 484.632 20.5757C484.632 21.463 484.813 22.118 485.17 22.5387C485.529 22.9352 485.999 23.1346 486.58 23.1346ZM509.576 25.2728V19.1386H498.693V16.2643C499.119 15.6093 499.577 14.8272 500.07 13.9158C500.584 12.9803 501.101 11.977 501.615 10.9013C502.153 9.80372 502.679 8.66889 503.194 7.50121C503.708 6.33353 504.178 5.18775 504.605 4.06608C505.052 2.9203 505.434 1.85778 505.747 0.876312H508.971C508.679 1.92788 508.31 3.04956 507.863 4.24134C507.415 5.40903 506.912 6.58985 506.351 7.78163C505.814 8.94931 505.253 10.0841 504.672 11.1817C504.09 12.2574 503.519 13.2388 502.959 14.1261C502.421 14.9915 501.917 15.7144 501.447 16.2993H509.576V9.11362C509.733 8.8573 509.912 8.52869 510.113 8.13216C510.315 7.71153 510.506 7.29089 510.684 6.87026C510.886 6.42554 511.064 6.00492 511.221 5.60839C511.379 5.18776 511.501 4.82628 511.591 4.52176H512.968V16.2993H515.89V19.1386H512.968V25.2728H509.576ZM525.417 25.2728V20.9263H529.783V25.2728H525.417ZM549.856 25.2728V19.1386H538.974V16.2643C539.398 15.6093 539.857 14.8272 540.351 13.9158C540.865 12.9803 541.379 11.977 541.896 10.9013C542.433 9.80372 542.958 8.66889 543.474 7.50121C543.989 6.33353 544.459 5.18775 544.885 4.06608C545.332 2.9203 545.712 1.85778 546.027 0.876312H549.252C548.96 1.92788 548.59 3.04956 548.143 4.24134C547.694 5.40903 547.19 6.58985 546.632 7.78163C546.094 8.94931 545.534 10.0841 544.952 11.1817C544.369 12.2574 543.798 13.2388 543.239 14.1261C542.702 14.9915 542.198 15.7144 541.728 16.2993H549.856V9.11362C550.012 8.8573 550.192 8.52869 550.394 8.13216C550.595 7.71153 550.784 7.29089 550.965 6.87026C551.166 6.42554 551.345 6.00492 551.502 5.60839C551.657 5.18776 551.781 4.82628 551.872 4.52176H553.249V16.2993H556.169V19.1386H553.249V25.2728H549.856ZM565.695 25.2728V20.9263H570.062V25.2728H565.695ZM587.683 25.6233C586.249 25.6233 584.952 25.2837 583.787 24.6068C582.622 23.9057 581.704 22.9483 581.032 21.7325C580.361 20.5166 580.025 19.1145 580.025 17.5262V8.9734C580.025 7.38509 580.361 5.983 581.032 4.76712C581.727 3.55125 582.655 2.60484 583.82 1.92789C585.006 1.22684 586.329 0.876312 587.784 0.876312H588.388C589.866 0.876312 591.176 1.22684 592.318 1.92789C593.46 2.60484 594.356 3.55125 595.005 4.76712C595.677 5.983 596.013 7.38509 596.013 8.9734V17.5262C596.013 19.1145 595.677 20.5166 595.005 21.7325C594.333 22.9483 593.416 23.9057 592.251 24.6068C591.086 25.2837 589.776 25.6233 588.321 25.6233H587.683ZM588.019 22.8191C588.892 22.8191 589.675 22.6088 590.37 22.1882C591.065 21.7434 591.602 21.1607 591.982 20.4355C592.385 19.7104 592.587 18.8932 592.587 17.9819V8.51772C592.587 7.58226 592.385 6.75416 591.982 6.02902C591.602 5.30387 591.065 4.73207 590.37 4.31144C589.675 3.89082 588.892 3.6805 588.019 3.6805C587.145 3.6805 586.362 3.89082 585.668 4.31144C584.996 4.73207 584.458 5.30387 584.055 6.02902C583.652 6.75416 583.451 7.58226 583.451 8.51772V17.9819C583.451 18.8932 583.652 19.7104 584.055 20.4355C584.458 21.1607 584.996 21.7434 585.668 22.1882C586.362 22.6088 587.145 22.8191 588.019 22.8191ZM598.654 31.2667L614.877 1.22684H617.665L601.475 31.2667H598.654ZM631.423 25.6233C629.408 25.6233 627.806 25.1676 626.618 24.2562C625.432 23.3208 624.84 21.8026 624.84 19.6994V10.0951H619.869V7.36099H624.941L626.116 1.64747H628.199V7.36099H635.956V10.0951H628.199V19.419C628.199 20.2143 628.354 20.8671 628.669 21.3819C628.982 21.8968 629.442 22.2692 630.046 22.5036C630.651 22.738 631.411 22.8541 632.33 22.8541C633.046 22.8541 633.707 22.7599 634.312 22.5737C634.937 22.3634 635.487 22.1421 635.956 21.9077V24.6068C635.42 24.9332 634.736 25.1785 633.909 25.3429C633.079 25.5291 632.25 25.6233 631.423 25.6233ZM648.438 25.6233C646.781 25.6233 645.36 25.2377 644.172 24.4666C642.986 23.6954 642.079 22.6329 641.451 21.2768C640.826 19.8988 640.511 18.3433 640.511 16.6148V16.0189C640.511 14.2422 640.826 12.678 641.451 11.3219C642.079 9.96584 642.986 8.91426 644.172 8.16721C645.36 7.39606 646.771 7.01048 648.404 7.01048C650.084 7.01048 651.517 7.39606 652.703 8.16721C653.892 8.93836 654.799 10.0009 655.424 11.357C656.052 12.7131 656.365 14.2663 656.365 16.0189V16.6148C656.365 18.3915 656.052 19.9558 655.424 21.3118C654.799 22.6679 653.892 23.7305 652.703 24.5016C651.517 25.2487 650.096 25.6233 648.438 25.6233ZM648.438 23.1346C649.737 23.1346 650.802 22.6438 651.629 21.6624C652.458 20.6568 652.871 19.2678 652.871 17.4911V15.1426C652.871 13.3659 652.458 11.9879 651.629 11.0064C650.802 10.0009 649.737 9.4992 648.438 9.4992C647.161 9.4992 646.099 10.0009 645.247 11.0064C644.42 11.9879 644.004 13.3659 644.004 15.1426V17.4911C644.004 19.2678 644.42 20.6568 645.247 21.6624C646.099 22.6438 647.161 23.1346 648.438 23.1346ZM661.155 25.2728V0.0350665H664.514V17.1757L672.441 7.36099H676.404L669.586 15.7035L676.807 25.2728H672.709L667.234 18.1571L664.514 20.9613V25.2728H661.155ZM688.718 25.6233C686.926 25.6233 685.437 25.2487 684.251 24.5016C683.086 23.7546 682.213 22.703 681.631 21.3469C681.071 19.9908 680.792 18.4375 680.792 16.6849V15.9488C680.792 14.1261 681.115 12.5487 681.766 11.2168C682.414 9.88477 683.344 8.8573 684.553 8.13216C685.763 7.3851 687.194 7.01048 688.853 7.01048C690.398 7.01048 691.718 7.3369 692.816 7.99194C693.935 8.64698 694.798 9.53425 695.402 10.6559C696.028 11.7776 696.343 13.0636 696.343 14.5117V16.8952H684.285V17.4911C684.285 19.3379 684.709 20.74 685.561 21.6974C686.411 22.6548 687.486 23.1346 688.786 23.1346C690.217 23.1346 691.305 22.7731 692.044 22.0479C692.804 21.3228 693.186 20.2011 693.186 18.6829H696.343C696.343 20.1091 696.018 21.3469 695.369 22.3985C694.741 23.4259 693.857 24.2212 692.715 24.782C691.594 25.3429 690.263 25.6233 688.718 25.6233ZM684.318 14.6168H693.051V14.0911C693.051 13.2038 692.871 12.4195 692.514 11.7425C692.178 11.0415 691.685 10.4916 691.036 10.0951C690.385 9.69855 689.636 9.4992 688.786 9.4992C687.822 9.4992 687.005 9.74456 686.334 10.2353C685.683 10.726 685.179 11.357 684.822 12.1281C684.486 12.8752 684.318 13.6463 684.318 14.4416V14.6168ZM701.671 25.2728V7.36099H704.392L704.727 9.91981C705.242 8.91425 705.97 8.17816 706.911 7.71153C707.851 7.24489 708.892 7.01048 710.034 7.01048C711.915 7.01048 713.414 7.56036 714.535 8.65794C715.654 9.75551 716.215 11.3811 716.215 13.5302V25.2728H712.856V14.5467C712.856 12.8642 712.52 11.6374 711.848 10.8662C711.197 10.0951 710.28 9.70952 709.094 9.70952C708.265 9.70952 707.549 9.93077 706.944 10.3755C706.34 10.7961 705.869 11.392 705.534 12.1632C705.198 12.9102 705.03 13.7756 705.03 14.757V25.2728H701.671ZM719.492 31.2667L735.715 1.22684H738.503L722.313 31.2667H719.492ZM741.983 25.2728V1.22684H757.031L756.56 4.20629H745.51V11.5322H755.519V14.4416H745.51V22.2232H756.762L757.232 25.2728H741.983ZM777.54 25.448C776.98 25.448 776.443 25.3319 775.928 25.0975C775.412 24.8631 774.998 24.4205 774.685 23.7655C774.37 23.1105 774.215 22.164 774.215 20.9263C774.215 19.7586 774.091 18.799 773.846 18.052C773.598 17.3049 773.275 16.72 772.872 16.2993C772.49 15.8546 772.076 15.5392 771.629 15.3529C771.18 15.1667 770.743 15.0725 770.319 15.0725H765.18V25.2728H761.687V1.22684H771.696C772.905 1.22684 773.991 1.48316 774.954 1.99799C775.939 2.51282 776.711 3.23577 777.272 4.17123C777.853 5.10669 778.145 6.21523 778.145 7.50121C778.145 8.97341 777.776 10.2594 777.037 11.357C776.298 12.4326 775.324 13.0986 774.114 13.3549V13.5302C774.921 13.7646 775.58 14.1721 776.096 14.757C776.634 15.342 777.037 16.0649 777.305 16.9303C777.574 17.7716 777.708 18.6829 777.708 19.6644C777.708 21.2527 777.83 22.3634 778.078 22.9943C778.323 23.6253 778.771 24.035 779.421 24.2212V25.1325C779.197 25.2486 778.918 25.3319 778.582 25.3779C778.267 25.4239 777.92 25.448 777.54 25.448ZM765.18 12.1281H770.722C771.998 12.1281 772.972 11.7425 773.644 10.9714C774.337 10.1761 774.685 9.18372 774.685 7.99194C774.685 6.80016 774.35 5.8647 773.678 5.18776C773.027 4.51081 772.11 4.17123 770.924 4.17123H765.18V12.1281ZM789.214 25.6233C787.984 25.6233 786.842 25.4371 785.791 25.0624C784.76 24.6878 783.853 24.0919 783.07 23.2748C782.285 22.4335 781.67 21.3228 781.223 19.9448C780.796 18.5668 780.584 16.8711 780.584 14.8622V11.6374C780.584 9.62845 780.807 7.93279 781.256 6.5548C781.703 5.1768 782.318 4.07704 783.103 3.25988C783.886 2.41863 784.793 1.81178 785.824 1.43716C786.876 1.06254 787.995 0.876312 789.183 0.876312H789.653C791.4 0.876312 792.888 1.22684 794.12 1.92789C795.374 2.62894 796.325 3.69146 796.975 5.11766C797.624 6.51975 797.949 8.28332 797.949 10.4106H794.557C794.557 8.86826 794.389 7.61732 794.053 6.65995C793.738 5.67848 793.201 4.96649 792.441 4.52176C791.679 4.05513 790.661 3.82071 789.384 3.82071C788.646 3.82071 787.961 3.93682 787.336 4.17123C786.731 4.38154 786.194 4.75617 785.723 5.29291C785.253 5.80774 784.884 6.51975 784.615 7.43111C784.346 8.34247 784.212 9.48825 784.212 10.8662V15.5983C784.212 16.9763 784.346 18.133 784.615 19.0685C784.884 19.9798 785.253 20.705 785.723 21.2417C786.194 21.7566 786.731 22.129 787.336 22.3634C787.961 22.5737 788.646 22.6789 789.384 22.6789C791.309 22.6789 792.664 22.164 793.449 21.1366C794.255 20.085 794.658 18.4134 794.658 16.1241H797.949C797.949 18.1812 797.624 19.9097 796.975 21.3118C796.325 22.7139 795.384 23.7896 794.154 24.5367C792.922 25.2618 791.433 25.6233 789.687 25.6233H789.214ZM801.495 25.2728V24.2212C801.495 22.7731 801.753 21.5331 802.268 20.5056C802.784 19.4541 803.59 18.5427 804.686 17.7715L811.437 13.1446C812.155 12.6298 812.77 11.977 813.285 11.1817C813.822 10.3646 814.091 9.40498 814.091 8.30741C814.091 6.95132 813.711 5.8647 812.949 5.04754C812.189 4.23038 811.068 3.82071 809.59 3.82071C808.696 3.82071 807.89 4.03103 807.172 4.45166C806.479 4.84819 805.918 5.40902 805.492 6.13417C805.089 6.83521 804.888 7.64141 804.888 8.55277C804.888 8.73899 804.888 8.91426 804.888 9.07857C804.888 9.21878 804.9 9.35899 804.921 9.4992H801.73C801.709 9.33489 801.697 9.21877 801.697 9.14867C801.697 9.05447 801.697 8.96246 801.697 8.86825C801.697 7.30185 802.033 5.92386 802.704 4.73208C803.376 3.5162 804.306 2.56979 805.492 1.89284C806.701 1.21589 808.078 0.876312 809.623 0.876312H809.993C811.538 0.876312 812.871 1.19178 813.99 1.82272C815.132 2.42957 816.005 3.28397 816.61 4.38154C817.237 5.47912 817.55 6.75416 817.55 8.20226C817.55 9.41814 817.349 10.4807 816.946 11.392C816.566 12.2793 816.039 13.0636 815.367 13.7405C814.718 14.4175 813.98 15.0484 813.15 15.6334L807.474 19.4891C806.983 19.8396 806.601 20.1792 806.332 20.5056C806.063 20.8101 805.874 21.1015 805.761 21.3819C805.65 21.6624 805.572 21.9318 805.526 22.1882H817.651V25.2728H801.495ZM829.361 25.6233C827.927 25.6233 826.63 25.2837 825.465 24.6068C824.299 23.9057 823.382 22.9483 822.71 21.7325C822.039 20.5166 821.703 19.1145 821.703 17.5262V8.9734C821.703 7.38509 822.039 5.983 822.71 4.76712C823.405 3.55125 824.333 2.60484 825.498 1.92789C826.684 1.22684 828.007 0.876312 829.462 0.876312H830.066C831.544 0.876312 832.854 1.22684 833.996 1.92789C835.138 2.60484 836.034 3.55125 836.683 4.76712C837.355 5.983 837.691 7.38509 837.691 8.9734V17.5262C837.691 19.1145 837.355 20.5166 836.683 21.7325C836.011 22.9483 835.094 23.9057 833.929 24.6068C832.764 25.2837 831.454 25.6233 829.999 25.6233H829.361ZM829.697 22.8191C830.57 22.8191 831.353 22.6088 832.048 22.1882C832.743 21.7434 833.28 21.1607 833.66 20.4355C834.063 19.7104 834.265 18.8932 834.265 17.9819V8.51772C834.265 7.58226 834.063 6.75416 833.66 6.02902C833.28 5.30387 832.743 4.73207 832.048 4.31144C831.353 3.89082 830.57 3.6805 829.697 3.6805C828.823 3.6805 828.04 3.89082 827.345 4.31144C826.674 4.73207 826.136 5.30387 825.733 6.02902C825.33 6.75416 825.129 7.58226 825.129 8.51772V17.9819C825.129 18.8932 825.33 19.7104 825.733 20.4355C826.136 21.1607 826.674 21.7434 827.345 22.1882C828.04 22.6088 828.823 22.8191 829.697 22.8191ZM840.332 31.2667L856.555 1.22684H859.342L843.153 31.2667H840.332ZM862.823 25.2728V1.22684H877.871L877.4 4.20629H866.35V11.5322H876.359V14.4416H866.35V22.2232H877.602L878.072 25.2728H862.823ZM898.378 25.448C897.82 25.448 897.283 25.3319 896.766 25.0975C896.252 24.8631 895.838 24.4205 895.523 23.7655C895.21 23.1105 895.053 22.164 895.053 20.9263C895.053 19.7586 894.931 18.799 894.684 18.052C894.438 17.3049 894.113 16.72 893.71 16.2993C893.33 15.8546 892.916 15.5392 892.467 15.3529C892.02 15.1667 891.583 15.0725 891.157 15.0725H886.018V25.2728H882.525V1.22684H892.534C893.743 1.22684 894.83 1.48316 895.792 1.99799C896.779 2.51282 897.551 3.23577 898.11 4.17123C898.693 5.10669 898.983 6.21523 898.983 7.50121C898.983 8.97341 898.613 10.2594 897.874 11.357C897.136 12.4326 896.162 13.0986 894.952 13.3549V13.5302C895.758 13.7646 896.42 14.1721 896.934 14.757C897.471 15.342 897.875 16.0649 898.143 16.9303C898.412 17.7716 898.546 18.6829 898.546 19.6644C898.546 21.2527 898.67 22.3634 898.916 22.9943C899.163 23.6253 899.611 24.035 900.259 24.2212V25.1325C900.037 25.2486 899.755 25.3319 899.42 25.3779C899.107 25.4239 898.76 25.448 898.378 25.448ZM886.018 12.1281H891.56C892.836 12.1281 893.81 11.7425 894.482 10.9714C895.177 10.1761 895.523 9.18372 895.523 7.99194C895.523 6.80016 895.187 5.8647 894.516 5.18776C893.867 4.51081 892.95 4.17123 891.761 4.17123H886.018V12.1281ZM910.054 25.6233C908.822 25.6233 907.68 25.4371 906.628 25.0624C905.598 24.6878 904.691 24.0919 903.908 23.2748C903.125 22.4335 902.508 21.3228 902.06 19.9448C901.634 18.5668 901.422 16.8711 901.422 14.8622V11.6374C901.422 9.62845 901.647 7.93279 902.094 6.5548C902.541 5.1768 903.158 4.07704 903.941 3.25988C904.724 2.41863 905.631 1.81178 906.662 1.43716C907.714 1.06254 908.835 0.876312 910.021 0.876312H910.491C912.238 0.876312 913.726 1.22684 914.958 1.92789C916.212 2.62894 917.165 3.69146 917.813 5.11766C918.462 6.51975 918.787 8.28332 918.787 10.4106H915.395C915.395 8.86826 915.227 7.61732 914.891 6.65995C914.578 5.67848 914.041 4.96649 913.279 4.52176C912.517 4.05513 911.499 3.82071 910.222 3.82071C909.483 3.82071 908.801 3.93682 908.173 4.17123C907.569 4.38154 907.031 4.75617 906.561 5.29291C906.091 5.80774 905.722 6.51975 905.453 7.43111C905.184 8.34247 905.05 9.48825 905.05 10.8662V15.5983C905.05 16.9763 905.184 18.133 905.453 19.0685C905.722 19.9798 906.091 20.705 906.561 21.2417C907.031 21.7566 907.569 22.129 908.173 22.3634C908.801 22.5737 909.483 22.6789 910.222 22.6789C912.147 22.6789 913.503 22.164 914.286 21.1366C915.093 20.085 915.496 18.4134 915.496 16.1241H918.787C918.787 18.1812 918.462 19.9097 917.813 21.3118C917.165 22.7139 916.224 23.7896 914.992 24.5367C913.76 25.2618 912.271 25.6233 910.525 25.6233H910.054ZM922.335 25.2728V24.2212C922.335 22.7731 922.591 21.5331 923.108 20.5056C923.622 19.4541 924.428 18.5427 925.526 17.7715L932.277 13.1446C932.993 12.6298 933.608 11.977 934.125 11.1817C934.662 10.3646 934.931 9.40498 934.931 8.30741C934.931 6.95132 934.549 5.8647 933.789 5.04754C933.027 4.23038 931.908 3.82071 930.43 3.82071C929.533 3.82071 928.727 4.03103 928.012 4.45166C927.317 4.84819 926.756 5.40902 926.332 6.13417C925.929 6.83521 925.727 7.64141 925.727 8.55277C925.727 8.73899 925.727 8.91426 925.727 9.07857C925.727 9.21878 925.738 9.35899 925.761 9.4992H922.57C922.547 9.33489 922.537 9.21877 922.537 9.14867C922.537 9.05447 922.537 8.96246 922.537 8.86825C922.537 7.30185 922.873 5.92386 923.544 4.73208C924.216 3.5162 925.144 2.56979 926.332 1.89284C927.541 1.21589 928.918 0.876312 930.464 0.876312H930.833C932.378 0.876312 933.709 1.19178 934.83 1.82272C935.972 2.42957 936.845 3.28397 937.45 4.38154C938.075 5.47912 938.39 6.75416 938.39 8.20226C938.39 9.41814 938.189 10.4807 937.786 11.392C937.404 12.2793 936.879 13.0636 936.207 13.7405C935.556 14.4175 934.817 15.0484 933.99 15.6334L928.314 19.4891C927.82 19.8396 927.44 20.1792 927.172 20.5056C926.903 20.8101 926.712 21.1015 926.601 21.3819C926.487 21.6624 926.41 21.9318 926.366 22.1882H938.491V25.2728H922.335ZM950.201 25.6233C948.767 25.6233 947.467 25.2837 946.304 24.6068C945.139 23.9057 944.222 22.9483 943.55 21.7325C942.878 20.5166 942.543 19.1145 942.543 17.5262V8.9734C942.543 7.38509 942.878 5.983 943.55 4.76712C944.243 3.55125 945.173 2.60484 946.338 1.92789C947.524 1.22684 948.845 0.876312 950.301 0.876312H950.906C952.384 0.876312 953.694 1.22684 954.836 1.92789C955.978 2.60484 956.872 3.55125 957.523 4.76712C958.195 5.983 958.531 7.38509 958.531 8.9734V17.5262C958.531 19.1145 958.195 20.5166 957.523 21.7325C956.851 22.9483 955.932 23.9057 954.769 24.6068C953.604 25.2837 952.294 25.6233 950.839 25.6233H950.201ZM950.537 22.8191C951.41 22.8191 952.193 22.6088 952.888 22.1882C953.581 21.7434 954.118 21.1607 954.5 20.4355C954.903 19.7104 955.105 18.8932 955.105 17.9819V8.51772C955.105 7.58226 954.903 6.75416 954.5 6.02902C954.118 5.30387 953.581 4.73207 952.888 4.31144C952.193 3.89082 951.41 3.6805 950.537 3.6805C949.663 3.6805 948.878 3.89082 948.185 4.31144C947.514 4.73207 946.976 5.30387 946.573 6.02902C946.17 6.75416 945.969 7.58226 945.969 8.51772V17.9819C945.969 18.8932 946.17 19.7104 946.573 20.4355C946.976 21.1607 947.514 21.7434 948.185 22.1882C948.878 22.6088 949.663 22.8191 950.537 22.8191ZM968.492 25.2728V20.9263H972.858V25.2728H968.492ZM990.58 25.6233C989.169 25.6233 987.916 25.4239 986.818 25.0274C985.743 24.6068 984.893 24.0109 984.266 23.2397C983.661 22.4445 983.359 21.5112 983.359 20.4355C983.359 20.3654 983.359 20.2603 983.359 20.1201C983.359 19.9799 983.369 19.8287 983.392 19.6644H986.281V20.0149C986.281 20.9964 986.684 21.7675 987.49 22.3283C988.319 22.8651 989.495 23.1346 991.017 23.1346C992.383 23.1346 993.412 22.8892 994.107 22.3985C994.823 21.8836 995.182 21.2176 995.182 20.4005C995.182 19.8637 995.037 19.419 994.745 19.0685C994.453 18.718 993.928 18.4134 993.166 18.1571C992.427 17.9008 991.353 17.6554 989.942 17.421C988.441 17.1406 987.232 16.801 986.314 16.4045C985.397 15.9839 984.736 15.4471 984.333 14.7921C983.93 14.1152 983.728 13.2739 983.728 12.2683C983.728 11.1007 984.03 10.1301 984.635 9.35898C985.24 8.58783 986.079 8.00289 987.154 7.60636C988.252 7.20983 989.528 7.01048 990.983 7.01048C992.26 7.01048 993.402 7.20983 994.409 7.60636C995.44 8.00289 996.257 8.56374 996.861 9.28888C997.466 9.98993 997.768 10.8421 997.768 11.8477C997.768 11.9178 997.768 11.9989 997.768 12.0931C997.768 12.1873 997.745 12.3143 997.701 12.4787H994.779C994.779 11.6374 994.588 11.0064 994.208 10.5858C993.849 10.1411 993.357 9.84973 992.73 9.70952C992.125 9.54521 991.453 9.46413 990.715 9.46413C988.118 9.46413 986.818 10.3054 986.818 11.9879C986.818 12.4326 986.953 12.8051 987.221 13.1096C987.49 13.39 987.971 13.6463 988.666 13.8807C989.381 14.1152 990.402 14.3605 991.722 14.6168C993.357 14.9214 994.644 15.2938 995.585 15.7385C996.548 16.1832 997.241 16.755 997.667 17.4561C998.093 18.133 998.305 19.0225 998.305 20.1201C998.305 21.3578 997.993 22.3875 997.365 23.2047C996.76 24.0218 995.877 24.6309 994.711 25.0274C993.569 25.4239 992.192 25.6233 990.58 25.6233ZM1010.96 25.6233C1009.3 25.6233 1007.88 25.2377 1006.69 24.4666C1005.5 23.6954 1004.59 22.6329 1003.97 21.2768C1003.34 19.8988 1003.03 18.3433 1003.03 16.6148V16.0189C1003.03 14.2422 1003.34 12.678 1003.97 11.3219C1004.59 9.96584 1005.5 8.91426 1006.69 8.16721C1007.88 7.39606 1009.29 7.01048 1010.92 7.01048C1012.6 7.01048 1014.03 7.39606 1015.22 8.16721C1016.41 8.93836 1017.31 10.0009 1017.94 11.357C1018.57 12.7131 1018.88 14.2663 1018.88 16.0189V16.6148C1018.88 18.3915 1018.57 19.9558 1017.94 21.3118C1017.31 22.6679 1016.41 23.7305 1015.22 24.5016C1014.03 25.2487 1012.61 25.6233 1010.96 25.6233ZM1010.96 23.1346C1012.25 23.1346 1013.32 22.6438 1014.15 21.6624C1014.97 20.6568 1015.39 19.2678 1015.39 17.4911V15.1426C1015.39 13.3659 1014.97 11.9879 1014.15 11.0064C1013.32 10.0009 1012.25 9.4992 1010.96 9.4992C1009.68 9.4992 1008.61 10.0009 1007.76 11.0064C1006.94 11.9879 1006.52 13.3659 1006.52 15.1426V17.4911C1006.52 19.2678 1006.94 20.6568 1007.76 21.6624C1008.61 22.6438 1009.68 23.1346 1010.96 23.1346ZM1029.69 25.2728V2.73409H1023.51V0H1033.01V25.2728H1029.69ZM1023.51 25.2728V22.5737H1038.85V25.2728H1023.51ZM1048.04 10.9714L1047.27 6.37953V1.22684H1050.16V6.37953L1049.39 10.9714H1048.04ZM1053.05 10.9714L1052.28 6.37953V1.22684H1055.16V6.37953L1054.39 10.9714H1053.05ZM343.15 142.418L342.377 137.826V132.673H345.266V137.826L344.494 142.418H343.15ZM348.155 142.418L347.382 137.826V132.673H350.271V137.826L349.498 142.418H348.155ZM358.42 156.719V132.673H363.19L366.381 151.601H366.515L369.84 132.673H374.542V156.719H371.385V136.95H371.217L367.825 156.719H364.701L361.41 136.95H361.242V156.719H358.42ZM382.054 163.239C381.583 163.239 381.134 163.193 380.71 163.099C380.307 163.028 379.914 162.912 379.535 162.748V160.154C379.78 160.27 380.093 160.375 380.475 160.47C380.855 160.586 381.224 160.645 381.583 160.645C382.209 160.645 382.702 160.494 383.061 160.189C383.418 159.909 383.733 159.453 384.002 158.822C384.291 158.215 384.627 157.396 385.009 156.369L378.359 138.807H381.953L386.722 152.057H386.924L391.593 138.807H394.884L388.435 155.983C387.942 157.315 387.415 158.531 386.857 159.628C386.319 160.726 385.669 161.602 384.909 162.257C384.147 162.912 383.196 163.239 382.054 163.239ZM405.013 156.719V135.723H397.859V132.673H415.661V135.723H408.507V156.719H405.013ZM426.9 157.07C425.244 157.07 423.821 156.684 422.635 155.913C421.448 155.142 420.542 154.079 419.914 152.723C419.286 151.345 418.973 149.79 418.973 148.061V147.465C418.973 145.689 419.286 144.124 419.914 142.768C420.542 141.412 421.448 140.361 422.635 139.614C423.821 138.842 425.231 138.457 426.867 138.457C428.546 138.457 429.98 138.842 431.166 139.614C432.352 140.385 433.259 141.447 433.887 142.803C434.514 144.159 434.827 145.713 434.827 147.465V148.061C434.827 149.838 434.514 151.402 433.887 152.758C433.259 154.114 432.352 155.177 431.166 155.948C429.98 156.695 428.557 157.07 426.9 157.07ZM426.9 154.581C428.2 154.581 429.262 154.09 430.091 153.109C430.92 152.103 431.334 150.714 431.334 148.937V146.589C431.334 144.812 430.92 143.434 430.091 142.453C429.262 141.447 428.2 140.946 426.9 140.946C425.624 140.946 424.56 141.447 423.709 142.453C422.88 143.434 422.467 144.812 422.467 146.589V148.937C422.467 150.714 422.88 152.103 423.709 153.109C424.56 154.09 425.624 154.581 426.9 154.581ZM439.618 156.719V131.481H442.976V148.622L450.903 138.807H454.867L448.048 147.15L455.27 156.719H451.172L445.697 149.603L442.976 152.408V156.719H439.618ZM467.181 157.07C465.388 157.07 463.9 156.695 462.714 155.948C461.549 155.201 460.675 154.149 460.094 152.793C459.533 151.437 459.254 149.884 459.254 148.131V147.395C459.254 145.572 459.577 143.995 460.228 142.663C460.877 141.331 461.807 140.304 463.016 139.578C464.225 138.831 465.657 138.457 467.315 138.457C468.86 138.457 470.181 138.783 471.279 139.438C472.398 140.093 473.26 140.981 473.865 142.102C474.491 143.224 474.805 144.51 474.805 145.958V148.342H462.747V148.937C462.747 150.784 463.171 152.186 464.024 153.144C464.874 154.101 465.949 154.581 467.248 154.581C468.68 154.581 469.767 154.219 470.506 153.494C471.266 152.769 471.648 151.647 471.648 150.129H474.805C474.805 151.555 474.48 152.793 473.831 153.845C473.204 154.872 472.32 155.667 471.178 156.228C470.057 156.789 468.726 157.07 467.181 157.07ZM462.781 146.063H471.514V145.537C471.514 144.65 471.333 143.866 470.976 143.189C470.641 142.488 470.147 141.938 469.498 141.541C468.848 141.145 468.098 140.946 467.248 140.946C466.285 140.946 465.468 141.191 464.796 141.682C464.145 142.172 463.642 142.803 463.285 143.574C462.949 144.321 462.781 145.093 462.781 145.888V146.063ZM480.131 156.719V138.807H482.852L483.188 141.366C483.704 140.361 484.431 139.624 485.371 139.158C486.312 138.691 487.353 138.457 488.495 138.457C490.376 138.457 491.877 139.007 492.996 140.104C494.117 141.202 494.675 142.827 494.675 144.977V156.719H491.316V145.993C491.316 144.311 490.98 143.084 490.309 142.313C489.66 141.541 488.742 141.156 487.554 141.156C486.727 141.156 486.009 141.377 485.405 141.822C484.8 142.242 484.33 142.838 483.994 143.609C483.658 144.357 483.49 145.222 483.49 146.203V156.719H480.131ZM504.269 142.418L503.496 137.826V132.673H506.385V137.826L505.612 142.418H504.269ZM509.273 142.418L508.501 137.826V132.673H511.389V137.826L510.617 142.418H509.273ZM564.688 142.418L563.915 137.826V132.673H566.804V137.826L566.031 142.418H564.688ZM569.692 142.418L568.92 137.826V132.673H571.808V137.826L571.036 142.418H569.692ZM579.958 156.719V132.673H584.727L587.918 151.601H588.052L591.378 132.673H596.08V156.719H592.923V136.95H592.755L589.362 156.719H586.239L582.947 136.95H582.779V156.719H579.958ZM606.413 156.719V135.723H599.258V132.673H617.06V135.723H609.906V156.719H606.413ZM620.709 156.719V132.673H624.135V145.783L633.808 132.673H637.57L629.845 143.715L637.906 156.719H633.875L627.191 146.098L624.135 150.094V156.719H620.709ZM645.247 142.418L644.474 137.826V132.673H647.363V137.826L646.59 142.418H645.247ZM650.252 142.418L649.479 137.826V132.673H652.368V137.826L651.595 142.418H650.252Z" fill="var(--fill-0, #FFB764)"/>
</svg>
