<svg width="134" height="34" viewBox="0 0 134 34" fill="none" xmlns="http://www.w3.org/2000/svg">
<g clip-path="url(#clip0_2710_25505)">
<path d="M105.276 29.2929C100.231 29.2929 96.0183 27.2916 95.4589 22.511C95.4416 22.3631 95.5482 22.2291 95.6957 22.2103L100.872 21.5476C101.034 21.5268 101.178 21.6511 101.192 21.814C101.4 24.1953 103.084 25.2712 105.405 25.2712C107.867 25.2712 109.119 24.363 109.119 22.763C109.119 21.3359 107.478 20.817 104.067 19.9953C99.9221 19.0007 96.1225 17.7034 96.1225 13.2492C96.1225 8.49233 100.311 6.63281 104.974 6.63281C109.638 6.63281 113.636 8.17589 114.309 12.9003C114.33 13.0461 114.23 13.1821 114.085 13.2068L109.08 14.0617C108.917 14.0896 108.766 13.9677 108.749 13.8026C108.517 11.5995 107.124 10.6113 105.06 10.6113C103.29 10.6113 101.822 11.26 101.822 12.7735C101.822 14.2438 103.376 14.7628 106.269 15.4114C110.112 16.2763 114.904 17.3142 114.904 22.4603C114.904 27.6496 110.328 29.2929 105.276 29.2929Z" fill="#959BAD"/>
<path d="M92.0776 8.69266C93.8047 10.4224 94.0205 12.7576 94.0205 15.5686V28.8274C94.0205 28.9807 93.8965 29.105 93.7434 29.105H88.2098C88.0567 29.105 87.9326 28.9807 87.9326 28.8274V16.0875C87.9326 14.0982 87.7599 13.0604 86.81 12.1522C86.0329 11.4171 85.2988 11.2873 84.0035 11.2873C82.1469 11.2873 79.9881 12.5414 79.9881 16.9956V28.8274C79.9881 28.9807 79.864 29.105 79.711 29.105H74.2205C74.0674 29.105 73.9434 28.9807 73.9434 28.8274V7.45666C73.9434 7.30337 74.0674 7.1791 74.2205 7.1791H79.6678C79.8208 7.1791 79.9449 7.30337 79.9449 7.45666V9.80994C79.9449 9.94289 80.1422 9.98492 80.204 9.86727C81.4188 7.55585 83.7279 6.66016 86.3351 6.66016C89.0984 6.66016 90.6959 7.30883 92.0776 8.69266Z" fill="#959BAD"/>
<path d="M69.16 9.41438C71.2562 11.5494 72.3122 14.7944 72.4011 18.9038C72.4044 19.0549 72.2849 19.1801 72.1342 19.1849L56.8911 19.6675C56.7368 19.6724 56.6159 19.8033 56.6265 19.9575C56.8629 23.3988 58.638 25.107 61.79 25.0072C64.4497 24.923 65.7921 23.7169 66.2099 21.6083C66.2375 21.4687 66.3619 21.3674 66.5038 21.3754L71.8128 21.6757C71.9837 21.6853 72.1051 21.8476 72.0631 22.0139C70.8831 26.6855 67.3692 29.1139 61.9251 29.2863C58.5589 29.3928 55.8492 28.397 53.9808 26.6822C51.8452 24.7163 50.7195 21.8964 50.6049 18.2656C50.4957 14.8078 51.3524 11.8386 53.4029 9.74018C55.243 7.82148 57.801 6.74537 61.1671 6.6388C64.5763 6.53086 67.2861 7.52673 69.16 9.41438ZM61.2994 10.8314C59.53 10.8875 58.2949 11.4458 57.5091 12.5523C56.981 13.2785 56.6736 14.1772 56.553 15.2169C56.5339 15.3812 56.6673 15.521 56.8324 15.5158L65.8415 15.2305C66.005 15.2254 66.1289 15.08 66.1034 14.9181C65.9141 13.7166 65.5327 12.7113 64.7914 11.9756C63.9442 11.1371 62.853 10.7823 61.2994 10.8314Z" fill="#959BAD"/>
<path d="M31.0432 3.23594L22.7576 16.8693C22.6926 16.9762 22.5417 16.9881 22.4611 16.8924C21.7316 16.0263 19.0141 12.3417 22.3768 8.98334C25.4452 5.91884 29.3535 3.73392 30.802 2.97877C30.9663 2.89309 31.1394 3.07769 31.0432 3.23594Z" fill="#959BAD"/>
<path d="M30.5801 32.923C30.7455 33.0387 30.9492 32.8413 30.8384 32.6728C28.9877 29.8579 22.8357 20.4921 21.9859 19.0861C21.1477 17.6994 19.499 15.3948 19.3615 13.4231C19.3478 13.2262 19.0756 13.1863 19.0071 13.3714C18.8967 13.6699 18.7791 14.0262 18.6696 14.4333C17.2864 19.5715 19.2952 25.024 23.658 28.0777L30.5801 32.923Z" fill="#959BAD"/>
<path d="M31.719 32.6766L40.0046 19.0432C40.0696 18.9363 40.2206 18.9244 40.3012 19.0201C41.0306 19.8862 43.7481 23.5708 40.3855 26.9292C37.3171 29.9937 33.4088 32.1786 31.9603 32.9337C31.796 33.0194 31.6228 32.8348 31.719 32.6766Z" fill="#959BAD"/>
<path d="M32.1814 2.99169C32.0161 2.87595 31.8123 3.07333 31.9232 3.24189C33.7739 6.05677 39.9259 15.4225 40.7757 16.8285C41.6139 18.2152 43.2625 20.5198 43.4001 22.4916C43.4138 22.6884 43.686 22.7284 43.7545 22.5433C43.8649 22.2447 43.9824 21.8884 44.092 21.4813C45.4752 16.3431 43.4664 10.8907 39.1036 7.83692L32.1814 2.99169Z" fill="#959BAD"/>
</g>
<defs>
<clipPath id="clip0_2710_25505">
<rect width="97" height="30" fill="white" transform="translate(18.2373 2.95703)"/>
</clipPath>
</defs>
</svg>
