<svg width="129" height="34" viewBox="0 0 129 34" fill="none" xmlns="http://www.w3.org/2000/svg">
<g clip-path="url(#clip0_2710_25485)">
<g clip-path="url(#clip1_2710_25485)">
<path d="M39.7078 12.0713C39.7078 11.4124 39.835 10.8302 40.0895 10.3222C40.3256 9.83569 40.6963 9.42706 41.1576 9.1448C41.6151 8.86756 42.1443 8.72894 42.7436 8.72894C43.3209 8.72894 43.8362 8.87164 44.2896 9.15703C44.743 9.44242 45.0969 9.84197 45.3521 10.3573C45.6073 10.8726 45.7345 11.4605 45.7345 12.1186V12.6176H41.315C41.3378 13.0147 41.4805 13.3352 41.7423 13.5814C42.0048 13.8277 42.3498 13.95 42.7778 13.95C43.0683 13.9527 43.3546 13.8811 43.6096 13.7421C43.864 13.6034 44.1412 13.3645 44.4413 13.0221L45.4418 14.1057C45.0977 14.5094 44.6998 14.8249 44.2505 15.0516C43.7929 15.2792 43.288 15.3952 42.777 15.39C42.1696 15.39 41.6338 15.2514 41.1691 14.9741C40.7038 14.696 40.3289 14.2894 40.0895 13.8032C39.835 13.2985 39.707 12.722 39.707 12.0721V12.0705L39.7078 12.0713ZM44.1151 11.3806C44.1036 11.2147 44.0595 11.0527 43.9853 10.9039C43.9112 10.755 43.8084 10.6222 43.6829 10.513C43.4249 10.2831 43.0891 10.1598 42.7436 10.1681C42.3604 10.1681 42.0464 10.2798 41.7985 10.5016C41.5515 10.7234 41.3982 11.017 41.3378 11.3823H44.1151V11.3806ZM50.6261 10.4299V12.9633C50.6261 13.177 50.6726 13.3319 50.7664 13.4265C50.8602 13.5219 51.0159 13.5692 51.2328 13.5692H52.5937V15.2114H51.0868C50.4272 15.2114 49.9175 15.0467 49.558 14.7173C49.1975 14.3887 49.0181 13.9182 49.0181 13.3083V10.4299H47.5561V8.9067H49.0181V7.30035H50.6261V8.9067H52.9647V10.4299H50.6261ZM55.0114 6.52816H56.6194V9.48971H56.6422C57.0613 8.98253 57.6354 8.72894 58.3627 8.72894C58.7732 8.72216 59.1763 8.838 59.5206 9.06163C59.8582 9.28423 60.1199 9.59735 60.3074 10.0018C60.495 10.4054 60.5888 10.8743 60.5888 11.4051V15.2114H58.9808V11.6318C58.9808 11.211 58.8797 10.8816 58.6774 10.6443C58.4744 10.4062 58.1972 10.2872 57.8457 10.2872C57.4625 10.2872 57.1624 10.4046 56.9455 10.6378C56.7278 10.8718 56.6194 11.1955 56.6194 11.6081V15.2122H55.0114V6.52734V6.52816ZM62.2416 12.0713C62.2416 11.4124 62.3688 10.8302 62.624 10.3222C62.8602 9.83569 63.2309 9.42706 63.6922 9.1448C64.1488 8.86756 64.6772 8.72894 65.2773 8.72894C65.8547 8.72894 66.37 8.87164 66.8234 9.15703C67.2775 9.44242 67.6314 9.84197 67.8866 10.3573C68.1402 10.8726 68.2691 11.4605 68.2691 12.1186V12.6176H63.8496C63.8724 13.0147 64.0143 13.3352 64.2768 13.5814C64.5394 13.8277 64.8843 13.95 65.3116 13.95C65.6108 13.95 65.8889 13.8815 66.1433 13.7421C66.3985 13.6034 66.6758 13.3645 66.975 13.0221L67.9763 14.1057C67.6467 14.4978 67.2416 14.8194 66.785 15.0516C66.3277 15.279 65.8231 15.3949 65.3124 15.39C64.7049 15.39 64.1684 15.2514 63.7044 14.9741C63.2392 14.6961 62.8643 14.2894 62.6248 13.8032C62.3696 13.2985 62.2416 12.7212 62.2416 12.0713ZM66.6497 11.3806C66.6382 11.2147 66.5941 11.0527 66.5199 10.9038C66.4458 10.755 66.343 10.6222 66.2175 10.513C65.9595 10.2831 65.6237 10.1598 65.2782 10.1681C64.8957 10.1681 64.581 10.2798 64.3331 10.5016C64.086 10.7234 63.9319 11.017 63.8724 11.3823H66.6497V11.3806ZM70.4731 8.9067H72.0134V9.48971H72.0354C72.2906 9.22063 72.5548 9.02575 72.8288 8.9067C73.1028 8.78765 73.4151 8.72731 73.7682 8.72731C74.2851 8.72731 74.7312 8.88876 75.1054 9.21003C75.4805 9.53048 75.7431 9.96836 75.8931 10.5236L74.3862 11.0471C74.215 10.5318 73.8579 10.2733 73.3181 10.2733C72.9136 10.2733 72.6062 10.3981 72.3967 10.6484C72.1863 10.8979 72.0811 11.2412 72.0811 11.6774V15.2106H70.4731V8.90751V8.9067ZM77.2646 12.0713C77.2646 11.4124 77.3918 10.8302 77.6462 10.3222C77.8825 9.83579 78.2532 9.4272 78.7144 9.1448C79.171 8.86756 79.7002 8.72894 80.2996 8.72894C80.8769 8.72894 81.3922 8.87164 81.8464 9.15703C82.2998 9.44242 82.6536 9.84197 82.9089 10.3573C83.1633 10.8726 83.2905 11.4605 83.2905 12.1186V12.6176H78.8726C78.8946 13.0147 79.0373 13.3352 79.2999 13.5814C79.5624 13.8277 79.9065 13.95 80.3346 13.95C80.6331 13.95 80.9111 13.8815 81.1663 13.7421C81.4207 13.6034 81.6988 13.3645 81.9981 13.0221L82.9994 14.1057C82.6545 14.5094 82.2574 14.8249 81.8073 15.0516C81.35 15.2791 80.8453 15.3951 80.3346 15.39C79.7272 15.39 79.1914 15.2514 78.7266 14.9741C78.2616 14.6958 77.8868 14.2893 77.6471 13.8032C77.3926 13.2985 77.2646 12.7212 77.2646 12.0713ZM81.6727 11.3806C81.6611 11.2147 81.6169 11.0526 81.5426 10.9037C81.4683 10.7549 81.3654 10.6221 81.2397 10.513C80.9817 10.283 80.6459 10.1597 80.3004 10.1681C79.9188 10.1681 79.604 10.2798 79.3561 10.5016C79.1083 10.7234 78.955 11.017 78.8946 11.3823H81.6719L81.6727 11.3806ZM85.1129 13.0702V8.9067H86.7193V12.6771C86.7193 13.4469 87.0797 13.8309 87.7997 13.8309C88.1226 13.8309 88.3786 13.7266 88.5702 13.5154C88.761 13.3058 88.8572 13.0261 88.8572 12.6771V8.9067H90.4636V15.2098H88.9241V14.6504H88.9013C88.7366 14.873 88.5099 15.0508 88.2212 15.1861C87.9383 15.32 87.6291 15.3891 87.3161 15.3884C86.6108 15.3884 86.0677 15.1845 85.6853 14.7768C85.3037 14.3675 85.1121 13.7983 85.1121 13.0693L85.1129 13.0702ZM92.1181 8.9067H93.5352V9.45384H93.5581C93.6844 9.2402 93.8484 9.07549 94.0465 8.96052C94.2446 8.84636 94.464 8.78765 94.7045 8.78765C95.1775 8.78765 95.555 9.02167 95.8396 9.4889H95.8624C96.1617 9.02167 96.5742 8.78765 97.0994 8.78765C97.5332 8.78765 97.8862 8.95073 98.1553 9.27526C98.426 9.60061 98.5606 10.0246 98.5606 10.5473V15.2114H97.0757V10.8457C97.0757 10.6639 97.0309 10.5253 96.9412 10.4299C96.8507 10.3345 96.7235 10.2872 96.5588 10.2872C96.4879 10.2841 96.4173 10.2969 96.352 10.3245C96.2867 10.3522 96.2284 10.394 96.1812 10.447C96.0883 10.5546 96.041 10.6998 96.041 10.8816V15.2114H94.6352V10.8457C94.6352 10.6712 94.592 10.5342 94.5064 10.4356C94.4199 10.3377 94.2984 10.2864 94.1403 10.2864C94.067 10.283 93.9939 10.2957 93.9261 10.3234C93.8582 10.3512 93.7972 10.3933 93.7472 10.447C93.6494 10.5546 93.6005 10.6998 93.6005 10.8816V15.2114H92.1164V8.9067H92.1181ZM41.5066 23.6859H39.9329V22.1636H41.5066V21.2365C41.5066 20.6812 41.6811 20.2433 42.0293 19.922C42.3783 19.6016 42.8594 19.4401 43.4742 19.4401H45.2061V20.9502H43.665C43.5085 20.9502 43.3878 20.9935 43.3062 21.0807C43.2231 21.1688 43.1823 21.2911 43.1823 21.4501V22.1636H45.5657V23.6859H43.1823V27.7662H41.5066V23.6859ZM47.2185 24.6139C47.2185 23.964 47.3466 23.3867 47.6018 22.8836C47.8408 22.3974 48.2129 21.9891 48.6749 21.7061C49.1364 21.4248 49.6623 21.2837 50.2551 21.2837C50.8544 21.2837 51.3853 21.4248 51.846 21.7061C52.3081 21.9891 52.6805 22.3974 52.9199 22.8836C53.1751 23.3867 53.3023 23.964 53.3023 24.6139C53.3023 25.2646 53.1743 25.8402 52.9199 26.345C52.6806 26.831 52.3082 27.2391 51.846 27.5216C51.3853 27.8029 50.8544 27.944 50.2551 27.944C49.6623 27.944 49.1364 27.8029 48.6749 27.5216C48.2128 27.2389 47.8404 26.8309 47.601 26.345C47.3466 25.8402 47.2185 25.2637 47.2185 24.6139ZM51.6943 24.6139C51.6943 24.0594 51.5687 23.6248 51.3176 23.3108C51.0664 22.9977 50.7126 22.8412 50.2551 22.8412C49.805 22.8412 49.4544 22.9977 49.2032 23.3108C48.9521 23.6248 48.8265 24.0594 48.8265 24.6139C48.8265 25.1692 48.9521 25.603 49.2032 25.9169C49.4544 26.23 49.805 26.3866 50.2551 26.3866C50.7044 26.3866 51.0567 26.2276 51.3119 25.9104C51.5671 25.594 51.6943 25.161 51.6943 24.6139ZM55.0668 25.6242V21.4623H56.6748V25.2328C56.6748 26.0017 57.0344 26.3866 57.7544 26.3866C58.0765 26.3866 58.3333 26.2814 58.525 26.071C58.7158 25.8614 58.8112 25.5817 58.8112 25.2319V21.4615H60.4192V27.7654H58.8789V27.2069H58.856C58.6776 27.4392 58.4438 27.6231 58.176 27.7418C57.8931 27.8756 57.5839 27.9447 57.2709 27.944C56.5664 27.944 56.0233 27.7401 55.6401 27.3316C55.2585 26.9231 55.0668 26.3531 55.0668 25.6242ZM62.5221 21.4615H64.1309V22.0567H64.1529C64.3934 21.8023 64.6519 21.6099 64.9283 21.4794C65.2056 21.349 65.5203 21.2837 65.8742 21.2837C66.2632 21.2837 66.626 21.3791 66.9636 21.574C67.3012 21.7689 67.5752 22.0657 67.7847 22.4669C67.9943 22.8664 68.0995 23.3638 68.0995 23.9591V27.7654H66.4915V24.1858C66.4915 23.7813 66.3936 23.456 66.1988 23.2097C66.0039 22.9643 65.7234 22.8404 65.3556 22.8404C64.9732 22.8404 64.6731 22.9578 64.4562 23.191C64.2385 23.425 64.1301 23.7487 64.1301 24.1613V27.7654H62.5229V21.4607L62.5221 21.4615ZM69.6292 24.6139C69.6292 23.9795 69.7458 23.4087 69.9782 22.9015C70.2105 22.3935 70.5359 21.9972 70.9566 21.711C71.3772 21.4257 71.8754 21.2765 72.3836 21.2837C73.0588 21.2837 73.5871 21.4737 73.9696 21.8545H73.9916V19.083H75.5988V27.7662H74.1147V27.2191H74.0927C73.6507 27.7026 73.0734 27.9448 72.3616 27.9448C71.8365 27.9448 71.3668 27.8062 70.9509 27.5289C70.5351 27.2509 70.2089 26.8603 69.9773 26.3572C69.7449 25.8541 69.6283 25.2727 69.6283 24.6147H69.6292V24.6139ZM73.9916 25.0175V24.198C73.9916 23.9599 73.9312 23.7381 73.8122 23.531C73.6914 23.3239 73.5189 23.1516 73.3115 23.0312C73.0952 22.904 72.8482 22.8383 72.5972 22.8412C72.1765 22.8412 71.8454 23.0018 71.6024 23.3223C71.3578 23.6443 71.2363 24.0741 71.2363 24.6139C71.2363 25.1447 71.3595 25.5728 71.6073 25.8973C71.8552 26.2227 72.1814 26.3849 72.5858 26.3849C72.9895 26.3849 73.3262 26.252 73.592 25.987C73.8579 25.7212 73.9916 25.3983 73.9916 25.0175ZM77.6348 26.0775C77.6348 25.4904 77.824 25.0338 78.2023 24.7093C78.5807 24.3847 79.2134 24.1466 80.0973 23.9958C80.5621 23.9167 80.8793 23.827 81.0473 23.7283C81.2169 23.6297 81.3001 23.4959 81.3001 23.3288C81.3015 23.2387 81.2794 23.1497 81.2361 23.0707C81.1928 22.9916 81.1297 22.9252 81.053 22.8779C80.8891 22.7662 80.6632 22.7107 80.3787 22.7107C80.0566 22.7107 79.7769 22.8134 79.5404 23.0206C79.304 23.2269 79.1531 23.5 79.0854 23.8409L77.5892 23.4845C77.6642 23.0556 77.833 22.6748 78.0955 22.3413C78.3595 22.0073 78.6987 21.7405 79.0854 21.5626C79.4901 21.3745 79.9316 21.279 80.3778 21.2829C81.1427 21.2829 81.7534 21.5088 82.2117 21.9597C82.6683 22.4131 82.8966 23.0157 82.8966 23.7683V27.7646H81.4583V27.0633H81.4354C81.2634 27.3406 81.0212 27.5558 80.7097 27.7108C80.3999 27.8657 80.0492 27.9423 79.6587 27.9423C79.2689 27.9423 78.9199 27.8641 78.6133 27.7059C78.3151 27.5561 78.0654 27.3248 77.8933 27.0389C77.7196 26.748 77.6301 26.4146 77.6348 26.0759V26.0775ZM81.3677 25.4227V24.7093H81.3465C81.2676 24.8381 81.1492 24.9382 81.009 24.9947C80.8516 25.0664 80.6037 25.1382 80.2669 25.2091C79.847 25.3045 79.5575 25.4048 79.401 25.5124C79.3263 25.56 79.2653 25.626 79.2239 25.7042C79.1824 25.7824 79.162 25.87 79.1645 25.9585C79.1603 26.04 79.1772 26.1212 79.2136 26.1942C79.2501 26.2672 79.3048 26.3295 79.3724 26.3751C79.5111 26.4705 79.7117 26.5178 79.9742 26.5178C80.2139 26.5178 80.4431 26.4689 80.66 26.3686C80.8777 26.2683 81.0497 26.1346 81.1778 25.965C81.305 25.7954 81.3686 25.6144 81.3686 25.4236L81.3677 25.4227ZM88.1821 22.9847V25.5181C88.1821 25.7318 88.2286 25.8867 88.3232 25.9813C88.4161 26.0775 88.571 26.1248 88.7896 26.1248H90.1505V27.7654H88.6436C87.9831 27.7654 87.4735 27.6007 87.1147 27.2721C86.7551 26.9427 86.5749 26.473 86.5749 25.8622V22.9839H85.1129V21.4623H86.5749V19.856H88.1829V21.4623H90.5215V22.9855H88.1837L88.1821 22.9847ZM98.2572 26.208V27.7654H92.3994V26.208H94.5243V23.0197H92.5103V21.4623H96.1323V26.208H98.2572ZM94.4901 18.7976H96.1437V20.474H94.4901V18.7976ZM99.7984 24.6139C99.7984 23.964 99.9256 23.3867 100.18 22.8836C100.419 22.3971 100.791 21.9887 101.254 21.7061C101.715 21.4248 102.242 21.2837 102.833 21.2837C103.433 21.2837 103.964 21.4248 104.425 21.7061C104.887 21.9891 105.26 22.3974 105.499 22.8836C105.753 23.3867 105.88 23.964 105.88 24.6139C105.88 25.2646 105.753 25.8402 105.499 26.345C105.26 26.8312 104.887 27.2393 104.425 27.5216C103.964 27.8029 103.433 27.944 102.833 27.944C102.242 27.944 101.715 27.8029 101.254 27.5216C100.792 27.2389 100.419 26.8309 100.18 26.345C99.9256 25.8402 99.7984 25.2637 99.7984 24.6139ZM104.273 24.6139C104.273 24.0594 104.148 23.6248 103.896 23.3108C103.645 22.9977 103.291 22.8412 102.833 22.8412C102.384 22.8412 102.033 22.9977 101.782 23.3108C101.531 23.6248 101.406 24.0594 101.406 24.6139C101.406 25.1692 101.53 25.603 101.782 25.9169C102.033 26.23 102.384 26.3866 102.833 26.3866C103.283 26.3866 103.636 26.2276 103.89 25.9104C104.145 25.5932 104.273 25.161 104.273 24.6139ZM107.591 21.4615H109.198V22.0567H109.221C109.441 21.8174 109.704 21.6216 109.997 21.4794C110.293 21.3447 110.615 21.2779 110.941 21.2837C111.331 21.2837 111.694 21.3791 112.032 21.574C112.369 21.7689 112.643 22.0657 112.853 22.4669C113.063 22.8664 113.168 23.3638 113.168 23.9591V27.7654H111.56V24.1858C111.56 23.7813 111.462 23.456 111.267 23.2097C111.072 22.9643 110.791 22.8404 110.423 22.8404C110.041 22.8404 109.741 22.9578 109.525 23.191C109.307 23.425 109.198 23.7487 109.198 24.1613V27.7654H107.591V21.4615Z" fill="#959BAD"/>
<path d="M24.4141 24.8141V32.7415L15.3174 18.6855L24.4141 24.8141Z" fill="#959BAD"/>
<path d="M33.5125 18.6855L24.415 32.7415V24.8141L33.5125 18.6855Z" fill="#959BAD"/>
<path d="M33.5125 16.7056L24.415 11.2383V22.835L33.5125 16.7056Z" fill="#959BAD"/>
<path d="M33.5125 16.7052L24.415 0V11.2371L33.5125 16.7052Z" fill="#959BAD"/>
<path d="M24.4141 0V11.2371L15.3174 16.706L24.4141 0Z" fill="#959BAD"/>
<path d="M24.4141 11.2383V22.8358L15.3174 16.7064L24.4141 11.2383Z" fill="#959BAD"/>
</g>
</g>
<defs>
<clipPath id="clip0_2710_25485">
<rect width="128.229" height="34" fill="white"/>
</clipPath>
<clipPath id="clip1_2710_25485">
<rect width="98.6641" height="33.4316" fill="white" transform="translate(14.9102)"/>
</clipPath>
</defs>
</svg>
