<svg width="134" height="34" viewBox="0 0 134 34" fill="none" xmlns="http://www.w3.org/2000/svg">
<g clip-path="url(#clip0_2710_25514)">
<mask id="mask0_2710_25514" style="mask-type:luminance" maskUnits="userSpaceOnUse" x="0" y="1" width="134" height="32">
<path d="M133.884 1.70898H0.887695V32.2858H133.884V1.70898Z" fill="white"/>
</mask>
<g mask="url(#mask0_2710_25514)">
<mask id="mask1_2710_25514" style="mask-type:luminance" maskUnits="userSpaceOnUse" x="0" y="1" width="134" height="32">
<path d="M133.763 1.70898H0.886719V32.072H133.763V1.70898Z" fill="white"/>
</mask>
<g mask="url(#mask1_2710_25514)">
<path d="M40.1009 11.6397V15.8146H45.1721V17.5313H40.1009V21.8039H45.7586V23.6186H37.877V9.84662H45.7573V11.6415L40.1009 11.6397ZM53.3279 21.6858V23.6171H51.9622C50.8176 23.6171 49.9496 23.3408 49.3577 22.7881C48.7658 22.2353 48.4699 21.3155 48.4702 20.0284V14.761H46.9289V12.8688H48.4702V10.1961H50.7137V12.8688H53.3083V14.761H50.7137V20.0675C50.7137 20.6787 50.8276 21.1013 51.0551 21.3353C51.2825 21.5693 51.6825 21.6861 52.2548 21.6858H53.3279ZM61.4241 12.6932C62.6727 12.6932 63.6741 13.0965 64.4283 13.9029C65.1825 14.7093 65.5596 15.8603 65.5599 17.3558V23.6181H63.336V17.59C63.336 16.6276 63.0889 15.883 62.5947 15.3562C62.3319 15.0881 62.015 14.8791 61.6652 14.7429C61.3154 14.6067 60.9406 14.5464 60.5657 14.5661C60.1714 14.5488 59.7779 14.6155 59.4112 14.7618C59.0445 14.9081 58.7132 15.1307 58.4392 15.4148C57.906 15.9806 57.6393 16.8098 57.6393 17.9022V23.6181H55.4154V9.18164H57.6393V15.2294C57.8963 14.4606 58.4049 13.8008 59.0828 13.3565C59.7801 12.9082 60.5953 12.6773 61.4241 12.6932ZM78.1431 17.7265C78.1468 18.0468 78.1207 18.3668 78.065 18.6823H69.7932C69.8322 19.7879 70.1377 20.6072 70.71 21.1404C71.2865 21.6754 72.0501 21.9627 72.8364 21.9404C73.5089 21.9614 74.1696 21.7628 74.719 21.3746C75.2197 21.0178 75.5597 20.4781 75.6651 19.8723H78.0452C77.9119 20.6045 77.6042 21.2938 77.1477 21.8817C76.6777 22.4787 76.0681 22.951 75.3726 23.2572C74.6052 23.5969 73.7731 23.7665 72.9339 23.7543C71.9726 23.7733 71.0222 23.545 70.1745 23.0911C69.375 22.6494 68.7212 21.9853 68.2919 21.1792C67.8186 20.2709 67.5837 19.2573 67.609 18.2334C67.5849 17.2158 67.8201 16.2088 68.2919 15.3069C68.7212 14.5009 69.375 13.8367 70.1745 13.395C71.0222 12.9411 71.9726 12.7128 72.9339 12.7318C73.8944 12.7096 74.8445 12.9347 75.6932 13.3853C76.4572 13.798 77.0868 14.4209 77.508 15.1802C77.9358 15.9599 78.1545 16.8371 78.1429 17.7265H78.1431ZM75.8996 17.6681C75.9451 17.0576 75.82 16.4466 75.5386 15.9031C75.292 15.4475 74.9102 15.0795 74.4461 14.8495C73.9755 14.6199 73.4577 14.503 72.9341 14.5082C72.1299 14.4834 71.3474 14.77 70.7492 15.3082C70.1641 15.8415 69.8454 16.6287 69.7934 17.6698L75.8996 17.6681ZM82.5121 14.9758C82.8659 14.2846 83.4065 13.7067 84.0728 13.3078C84.781 12.8895 85.5914 12.6767 86.4138 12.6932V15.1123H85.7505C84.775 15.1123 83.9915 15.3496 83.3998 15.8243C82.8082 16.2989 82.5129 17.0825 82.5141 18.1752V23.6194H80.2902V12.8688H82.5141L82.5121 14.9758ZM91.6031 12.7323C92.8647 12.7323 93.8755 13.0542 94.6359 13.6981C95.4053 14.3571 95.9025 15.2785 96.0308 16.2834H93.9245C93.8539 15.7364 93.5871 15.2337 93.1735 14.8689C92.7156 14.4946 92.1351 14.3034 91.5444 14.3325C91.0776 14.3026 90.616 14.4449 90.247 14.7324C90.0947 14.8673 89.9746 15.0345 89.895 15.2218C89.8157 15.4091 89.7794 15.6118 89.7886 15.8151C89.7824 15.9675 89.8088 16.1195 89.866 16.261C89.9231 16.4025 90.0099 16.5301 90.1203 16.6354C90.3594 16.8543 90.6418 17.0204 90.9493 17.1232C91.4139 17.2774 91.886 17.4077 92.3638 17.5134C93.1702 17.6954 94.3244 18.0792 94.3244 18.0792C94.3244 18.0792 95.2544 18.5831 95.6119 19.006C95.9925 19.4983 96.1829 20.1112 96.1484 20.7325C96.1596 21.1512 96.0728 21.5668 95.8948 21.9461C95.7171 22.3254 95.4533 22.658 95.1242 22.9173C94.4413 23.4767 93.5215 23.7563 92.3648 23.7563C91.0251 23.7563 89.9425 23.4442 89.1167 22.8199C88.7055 22.5064 88.3615 22.1135 88.1052 21.6644C87.8489 21.2153 87.6858 20.7192 87.6251 20.2057H89.7906C89.8165 20.4838 89.899 20.7536 90.0333 20.9986C90.1675 21.2435 90.3505 21.4584 90.571 21.6299C91.088 22.0141 91.7222 22.2074 92.3658 22.1768C92.8235 22.2029 93.2737 22.0529 93.6242 21.7574C93.7733 21.6236 93.8914 21.459 93.9705 21.2749C94.0495 21.0908 94.0873 20.8917 94.0816 20.6914C94.0898 20.5255 94.0627 20.3597 94.0023 20.2051C93.9416 20.0504 93.8489 19.9103 93.7303 19.794C93.4775 19.5617 93.1782 19.3855 92.8525 19.277C92.3795 19.1208 91.8974 18.9938 91.409 18.8966C90.7644 18.7537 90.1292 18.5711 89.507 18.3497C89.0202 18.1683 88.5897 17.8622 88.2583 17.462C87.8919 16.9858 87.7082 16.3939 87.7412 15.7939C87.7293 15.3708 87.8156 14.9507 87.9931 14.5665C88.1708 14.1823 88.4353 13.8445 88.7654 13.5797C89.4483 13.0148 90.3945 12.7323 91.6039 12.7323H91.6031ZM103.152 12.7323C104.544 12.7323 105.695 13.0997 106.605 13.8345C107.525 14.5857 108.13 15.6539 108.302 16.8291H105.941C105.838 16.198 105.5 15.6294 104.995 15.2381C104.449 14.8403 103.786 14.6376 103.112 14.6626C102.71 14.653 102.311 14.7289 101.941 14.8853C101.571 15.0417 101.239 15.275 100.966 15.5697C100.394 16.1744 100.108 17.0621 100.108 18.2326C100.108 19.4031 100.394 20.294 100.966 20.9052C101.238 21.2024 101.569 21.4381 101.94 21.5962C102.31 21.7543 102.709 21.8314 103.112 21.822C103.788 21.8479 104.453 21.642 104.997 21.2383C105.501 20.8422 105.839 20.2714 105.943 19.6387H108.305C108.131 20.816 107.526 21.8868 106.607 22.6429C105.697 23.3842 104.546 23.7548 103.154 23.7548C102.193 23.7738 101.243 23.5454 100.395 23.0916C99.5956 22.6499 98.9418 21.9858 98.5125 21.1797C98.0382 20.2715 97.8025 19.2578 97.8274 18.2336C97.8032 17.216 98.0384 16.209 98.5102 15.3072C98.9396 14.5011 99.5934 13.8369 100.393 13.3953C101.241 12.9413 102.191 12.713 103.153 12.7323H103.152ZM114.76 12.7323C115.647 12.7061 116.52 12.9582 117.257 13.4532C117.935 13.9195 118.447 14.5889 118.72 15.3651V12.8688H120.944V23.6181H118.72V21.121C118.447 21.8972 117.935 22.5666 117.257 23.0329C116.52 23.5279 115.647 23.78 114.76 23.7538C113.879 23.7687 113.011 23.5391 112.253 23.0906C111.505 22.6337 110.905 21.9695 110.527 21.1787C110.091 20.259 109.878 19.2501 109.902 18.2329C109.879 17.222 110.093 16.2197 110.527 15.3064C110.905 14.5156 111.505 13.8515 112.253 13.3945C113.012 12.9462 113.88 12.7169 114.761 12.7323H114.76ZM115.443 14.6832C115.003 14.6634 114.564 14.7375 114.156 14.9006C113.747 15.0638 113.378 15.3122 113.072 15.6294C112.481 16.2601 112.185 17.1283 112.185 18.2339C112.185 19.3394 112.481 20.2075 113.073 20.8381C113.378 21.1554 113.747 21.404 114.156 21.5673C114.565 21.7307 115.004 21.805 115.444 21.7852C116.032 21.7946 116.612 21.6428 117.121 21.3462C117.619 21.05 118.024 20.6211 118.292 20.1075C118.589 19.5287 118.736 18.8849 118.721 18.2346C118.734 17.5876 118.587 16.9475 118.292 16.3714C118.026 15.8536 117.621 15.421 117.121 15.1227C116.613 14.8259 116.032 14.6739 115.444 14.683L115.443 14.6832ZM129.626 12.6945C130.874 12.6945 131.876 13.0977 132.63 13.9041C133.384 14.7106 133.761 15.8616 133.762 17.3571V23.6181H131.538V17.59C131.538 16.6276 131.291 15.883 130.796 15.3562C130.534 15.0882 130.217 14.8791 129.867 14.7429C129.517 14.6067 129.142 14.5464 128.767 14.5661C128.373 14.5488 127.98 14.6155 127.613 14.7618C127.246 14.9081 126.915 15.1307 126.641 15.4148C126.108 15.9806 125.841 16.8098 125.841 17.9022V23.6181H123.617V12.8688H125.841V15.2304C126.098 14.4616 126.607 13.8018 127.284 13.3575C127.982 12.9087 128.797 12.6774 129.626 12.6932L129.626 12.6945Z" fill="#959BAD"/>
<path d="M7.29861 16.2308C7.29863 16.062 7.33202 15.8948 7.39682 15.7389C7.46163 15.583 7.55659 15.4414 7.67627 15.3223C7.79596 15.2032 7.93796 15.109 8.09417 15.0449C8.25039 14.9808 8.41772 14.9483 8.58656 14.9491L10.722 14.956C11.0624 14.956 11.3889 15.0913 11.6297 15.332C11.8704 15.5728 12.0057 15.8993 12.0057 16.2397V24.314C12.2461 24.2427 12.5548 24.1666 12.8927 24.087C13.1273 24.0319 13.3365 23.8991 13.4862 23.7102C13.6359 23.5212 13.7173 23.2873 13.7172 23.0462V13.0304C13.7172 12.6899 13.8525 12.3634 14.0932 12.1226C14.334 11.8818 14.6605 11.7465 15.001 11.7465H17.1406C17.4811 11.7465 17.8076 11.8818 18.0483 12.1226C18.2891 12.3634 18.4243 12.6899 18.4243 13.0304V22.326C18.4243 22.326 18.96 22.1093 19.4818 21.889C19.6757 21.807 19.8411 21.6698 19.9574 21.4944C20.0738 21.3191 20.1359 21.1133 20.1361 20.9028V9.82111C20.1361 9.48069 20.2713 9.15419 20.512 8.91345C20.7527 8.67271 21.0792 8.53746 21.4196 8.53738H23.5592C23.8997 8.53738 24.2262 8.67262 24.467 8.91338C24.7077 9.15411 24.843 9.48064 24.843 9.82111V18.9467C26.698 17.6023 28.5778 15.9854 30.0696 14.0412C30.2861 13.759 30.4293 13.4276 30.4865 13.0766C30.5437 12.7256 30.5131 12.3659 30.3975 12.0296C29.7069 10.0428 28.6094 8.22202 27.1748 6.68378C25.7401 5.14557 24.0002 3.92375 22.0663 3.09656C20.1324 2.26936 18.0471 1.85499 15.9439 1.87997C13.8407 1.90495 11.7658 2.36872 9.85214 3.24161C7.93843 4.1145 6.22802 5.37728 4.83036 6.94915C3.4327 8.521 2.37858 10.3673 1.73545 12.37C1.09231 14.3726 0.874335 16.4875 1.09546 18.5792C1.31658 20.6709 1.97194 22.6934 3.01958 24.5174C3.20209 24.832 3.47059 25.088 3.79354 25.2553C4.11648 25.4227 4.48047 25.4943 4.84277 25.462C5.24747 25.4265 5.75137 25.376 6.35048 25.3056C6.61127 25.276 6.85206 25.1515 7.02695 24.9558C7.20185 24.7601 7.29863 24.5069 7.29885 24.2444L7.29861 16.2308Z" fill="#959BAD"/>
<path d="M7.25098 29.1809C9.50628 30.8216 12.1716 31.8065 14.9519 32.0265C17.7322 32.2463 20.5192 31.6929 23.0045 30.4271C25.4898 29.1613 27.5763 27.2327 29.0336 24.8546C30.4906 22.4765 31.2614 19.7416 31.2607 16.9526C31.2607 16.6046 31.2445 16.2603 31.2214 15.918C25.698 24.1558 15.4995 28.0071 7.25145 29.1797" fill="#959BAD"/>
</g>
</g>
</g>
<defs>
<clipPath id="clip0_2710_25514">
<rect width="132.997" height="30.5768" fill="white" transform="translate(0.889648 1.71094)"/>
</clipPath>
</defs>
</svg>
