<svg width="134" height="34" viewBox="0 0 134 34" fill="none" xmlns="http://www.w3.org/2000/svg">
<g clip-path="url(#clip0_2710_25496)">
<path d="M11.6182 30.0988C5.37777 30.0988 1.58203 25.6597 1.58203 18.0682C1.58203 11.1201 5.98895 5.8125 12.4867 5.8125C17.7622 5.8125 21.7831 8.93273 22.1691 13.3718H17.344C16.7972 11.0558 14.8028 9.60824 12.4224 9.60824C8.75534 9.60824 6.47146 12.9858 6.47146 18.1969C6.47146 23.1507 8.65884 26.3031 12.1972 26.3031C14.9315 26.3031 17.537 24.5339 17.537 21.1241V20.6094H12.8084V16.7172H22.0404V29.6485H18.0517V26.9786C16.8937 28.9086 14.2238 30.0988 11.6182 30.0988Z" fill="#959BAD"/>
<path d="M24.8613 29.6476V13.0493H29.0752V15.2366C30.2654 13.6605 32.2276 12.7598 34.3185 12.7598C39.0793 12.7598 39.8835 16.1373 39.8835 20.4156V29.6476H35.3479V20.4477C35.3479 18.003 34.9297 16.1695 32.678 16.1695C30.5549 16.1695 29.3969 17.5848 29.3969 21.4449V29.6476H24.8613Z" fill="#959BAD"/>
<path d="M50.172 30.0986C45.0252 30.0986 41.7441 26.6567 41.7441 21.3491C41.7441 16.0415 45.0252 12.5996 50.172 12.5996C55.3509 12.5996 58.632 16.0737 58.632 21.3491C58.632 26.6567 55.3509 30.0986 50.172 30.0986ZM50.172 26.6567C52.6167 26.6567 53.9034 24.6302 53.9034 21.3491C53.9034 18.0037 52.6167 16.0415 50.172 16.0415C47.7594 16.0415 46.4727 18.0359 46.4727 21.3491C46.4727 24.6302 47.7594 26.6567 50.172 26.6567Z" fill="#959BAD"/>
<path d="M67.3736 30.0986C62.5807 30.0986 59.8143 28.2007 59.75 24.3407H64.3821C64.3821 26.1099 65.3793 26.9462 67.3415 26.9462C68.8855 26.9462 70.0114 26.2707 70.0114 25.2092C70.0114 24.0512 68.8212 23.5686 67.3093 23.1826C65.9261 22.8288 64.2213 22.5393 62.8381 21.8638C61.294 21.1239 60.0717 19.9337 60.0717 17.8107C60.0717 14.6261 62.8702 12.5996 67.2771 12.5996C71.8449 12.5996 74.3861 14.4975 74.3861 18.1324H69.8827C69.7862 16.331 68.8855 15.752 67.1163 15.752C65.6688 15.752 64.7038 16.3632 64.7038 17.3604C64.7038 18.7114 65.8296 19.0331 69.8184 19.8694C73.1959 20.5771 74.7721 22.2176 74.7721 24.7267C74.7721 28.0399 71.9736 30.0986 67.3736 30.0986Z" fill="#959BAD"/>
<path d="M76.9404 29.6484V13.0501H81.476V29.6484H76.9404ZM76.9404 10.6697V6.29492H81.476V10.6697H76.9404Z" fill="#959BAD"/>
<path d="M91.1842 30.0986C86.3913 30.0986 83.6249 28.2007 83.5605 24.3407H88.1926C88.1926 26.1099 89.1898 26.9462 91.152 26.9462C92.6961 26.9462 93.8219 26.2707 93.8219 25.2092C93.8219 24.0512 92.6317 23.5686 91.1199 23.1826C89.7367 22.8288 88.0318 22.5393 86.6486 21.8638C85.1046 21.1239 83.8822 19.9337 83.8822 17.8107C83.8822 14.6261 86.6808 12.5996 91.0877 12.5996C95.6554 12.5996 98.1967 14.4975 98.1967 18.1324H93.6932C93.5967 16.331 92.6961 15.752 90.9269 15.752C89.4793 15.752 88.5143 16.3632 88.5143 17.3604C88.5143 18.7114 89.6402 19.0331 93.6289 19.8694C97.0065 20.5771 98.5827 22.2176 98.5827 24.7267C98.5827 28.0399 95.7841 30.0986 91.1842 30.0986Z" fill="#959BAD"/>
<path d="M127.087 16.185C127.087 15.3033 126.796 14.5015 126.295 13.8657L120.983 19.1745C121.63 19.6762 122.433 19.9665 123.304 19.9665C125.402 19.9652 127.098 18.2707 127.087 16.185ZM111.288 19.9542C109.201 19.9652 107.505 18.2694 107.505 16.1726C107.505 15.3033 107.795 14.5002 108.297 13.8534L113.608 19.1622C112.973 19.6639 112.169 19.9542 111.288 19.9542ZM107.181 12.7601C106.401 13.6972 105.932 14.879 105.932 16.1948C105.932 19.1499 108.331 21.5478 111.288 21.5478C112.593 21.5478 113.787 21.0794 114.724 20.2985L117.301 22.8747L119.879 20.2985C120.816 21.0794 121.999 21.5478 123.315 21.5478C126.271 21.5478 128.671 19.1499 128.671 16.1948C128.671 14.8901 128.202 13.696 127.422 12.7601L128.627 11.5562L129.775 10.4076C131.115 12.615 131.884 15.1913 131.884 17.9583C131.884 26.0107 125.358 32.5246 117.312 32.5246C109.268 32.5246 102.741 25.9996 102.741 17.9583C102.719 15.1815 103.488 12.6052 104.828 10.4076L107.181 12.7601ZM117.312 20.6453L128.873 9.09057C128.549 8.67738 128.203 8.27648 127.845 7.89771C125.19 5.12095 121.452 3.38086 117.301 3.38086C113.151 3.38086 109.402 5.12095 106.757 7.89771C106.39 8.26541 106.043 8.67861 105.752 9.0795L117.312 20.6453ZM126.262 8.99096L117.303 17.9472L108.344 8.99096C110.72 6.59295 113.889 5.27713 117.303 5.27713C120.716 5.27713 123.873 6.59295 126.262 8.99096Z" fill="#959BAD"/>
</g>
<defs>
<clipPath id="clip0_2710_25496">
<rect width="130.303" height="29.1516" fill="white" transform="translate(1.58398 3.38086)"/>
</clipPath>
</defs>
</svg>
