<svg width="134" height="34" viewBox="0 0 134 34" fill="none" xmlns="http://www.w3.org/2000/svg">
<path d="M14.5344 9.89704C13.5435 9.47872 12.4229 9.26953 11.1723 9.26953C6.57572 9.26953 3.7253 11.4819 2.62088 15.9068C2.23115 17.5319 1.9305 18.9237 1.71953 20.0822C1.63815 20.5971 1.59766 21.0315 1.59766 21.3856C1.59766 23.075 2.20666 24.3783 3.42485 25.2955C4.65924 26.1965 6.24287 26.647 8.17555 26.647C10.5144 26.647 12.3822 26.1081 13.779 25.03C15.1758 23.9359 16.1585 22.2866 16.727 20.0822C17.068 18.7306 17.3603 17.3388 17.6041 15.9068C17.6852 15.3919 17.7257 14.9655 17.7257 14.6276C17.7257 13.5013 17.4417 12.5359 16.8732 11.7314C16.3047 10.9107 15.5252 10.2993 14.5344 9.89704ZM13.0726 15.9792C12.8777 17.1055 12.5934 18.4249 12.2199 19.9374C11.9437 21.0315 11.4809 21.844 10.8312 22.3751C10.1977 22.9061 9.42633 23.1715 8.51669 23.1715C6.95755 23.1715 6.17788 22.4314 6.17788 20.9511C6.17788 20.5971 6.21028 20.2593 6.27527 19.9374C6.56762 18.3766 6.85997 17.0572 7.15232 15.9792C7.42847 14.885 7.8832 14.0725 8.51669 13.5415C9.16638 13.0105 9.94585 12.7451 10.8555 12.7451C12.3984 12.7451 13.17 13.4771 13.17 14.9414C13.17 15.2954 13.1374 15.6413 13.0726 15.9792ZM34.6208 10.6211C33.5325 9.88094 32.087 9.51088 30.2841 9.51088H23.8036C23.6412 9.51088 23.4869 9.56719 23.3408 9.67985C23.1946 9.79247 23.1053 9.9373 23.0727 10.1143L19.7107 25.8023C19.6783 25.9632 19.7026 26.1081 19.7838 26.2368C19.8812 26.3493 20.0192 26.4057 20.1978 26.4057H23.5112C23.6736 26.4057 23.8279 26.3493 23.9741 26.2368C24.1202 26.1242 24.2097 25.9793 24.2421 25.8023L25.3629 20.5166H28.6519C30.7795 20.5166 32.4524 20.0742 33.6706 19.1892C34.905 18.3043 35.7252 16.9366 36.1313 15.0862C36.2287 14.6517 36.2775 14.2334 36.2775 13.8312C36.2775 12.4313 35.7252 11.3613 34.6208 10.6211ZM31.6242 15.0379C31.4618 15.7298 31.1207 16.2607 30.6009 16.6309C30.0972 17.0009 29.5044 17.186 28.8223 17.186H26.0207L26.9464 12.8657H29.8701C30.5358 12.8657 31.0069 12.9944 31.283 13.2519C31.559 13.4932 31.6971 13.8472 31.6971 14.3138C31.6971 14.523 31.6728 14.7644 31.6242 15.0379ZM53.9481 9.67985C54.0131 9.77637 54.0455 9.87294 54.0455 9.96946C54.0455 10.0177 54.0374 10.066 54.0212 10.1143L53.4608 12.6967C53.4282 12.8738 53.3389 13.0186 53.1929 13.1312C53.063 13.2438 52.9085 13.3002 52.7299 13.3002H48.4178L45.7133 25.8023C45.6809 25.9793 45.5916 26.1242 45.4455 26.2368C45.2993 26.3493 45.145 26.4057 44.9824 26.4057H41.7666C41.588 26.4057 41.4499 26.3493 41.3525 26.2368C41.2552 26.1081 41.2226 25.9632 41.2552 25.8023L43.9592 13.3002H39.6227C39.444 13.3002 39.3059 13.2438 39.2087 13.1312C39.1273 13.0025 39.103 12.8577 39.1354 12.6967L39.6958 10.1143C39.7282 9.9373 39.8177 9.79247 39.9639 9.67985C40.1101 9.56719 40.2643 9.51088 40.4267 9.51088H53.5339C53.7125 9.51088 53.8505 9.56719 53.9481 9.67985ZM61.9758 9.67985C62.0408 9.77637 62.0734 9.87294 62.0734 9.96946C62.0734 10.0177 62.0651 10.066 62.0489 10.1143L58.6869 25.8023C58.6543 25.9793 58.565 26.1242 58.419 26.2368C58.2726 26.3493 58.1184 26.4057 57.956 26.4057H54.667C54.4883 26.4057 54.3502 26.3493 54.2528 26.2368C54.1554 26.1081 54.1228 25.9632 54.1554 25.8023L57.5418 10.1143C57.5743 9.9373 57.6636 9.79247 57.8098 9.67985C57.956 9.56719 58.1103 9.51088 58.2726 9.51088H61.5616C61.7403 9.51088 61.8784 9.56719 61.9758 9.67985ZM83.5074 9.67985C83.5722 9.77637 83.6046 9.87294 83.6046 9.96946C83.6046 10.0177 83.5967 10.066 83.5801 10.1143L80.218 25.8023C80.1856 25.9793 80.0964 26.1242 79.9502 26.2368C79.8038 26.3493 79.6495 26.4057 79.4872 26.4057H76.5394C76.3606 26.4057 76.2225 26.3493 76.1251 26.2368C76.0439 26.1081 76.0194 25.9632 76.052 25.8023L77.9523 16.8964L74.2248 21.7958C74.0625 21.9728 73.9082 22.1096 73.762 22.2062C73.6158 22.3027 73.4452 22.3509 73.2502 22.3509H71.9834C71.6423 22.3509 71.4068 22.1659 71.2768 21.7958L69.5472 16.6791L67.5982 25.8023C67.5656 25.9793 67.4763 26.1242 67.3301 26.2368C67.1839 26.3493 67.0297 26.4057 66.8673 26.4057H63.9438C63.765 26.4057 63.6269 26.3493 63.5295 26.2368C63.4322 26.1242 63.3996 25.9793 63.4322 25.8023L66.7942 10.1143C66.8266 9.9373 66.9161 9.79247 67.0622 9.67985C67.2084 9.56719 67.3708 9.51088 67.5494 9.51088H70.1805C70.5705 9.51088 70.8221 9.68786 70.9359 10.0419L73.5915 17.6445L79.5115 10.0419C79.5928 9.91315 79.7066 9.79247 79.8526 9.67985C80.015 9.56719 80.2099 9.51088 80.4375 9.51088H83.0926C83.2711 9.51088 83.4094 9.56719 83.5074 9.67985ZM92.7569 9.67985C92.8225 9.77637 92.8549 9.87294 92.8549 9.96946C92.8549 10.0177 92.8462 10.066 92.8304 10.1143L89.468 25.8023C89.4356 25.9793 89.3461 26.1242 89.2001 26.2368C89.0539 26.3493 88.8999 26.4057 88.7371 26.4057H85.4481C85.2696 26.4057 85.1313 26.3493 85.0341 26.2368C84.9371 26.1081 84.9039 25.9632 84.9371 25.8023L88.3232 10.1143C88.3556 9.9373 88.4449 9.79247 88.5911 9.67985C88.7371 9.56719 88.8912 9.51088 89.0539 9.51088H92.3431C92.5215 9.51088 92.6597 9.56719 92.7569 9.67985ZM109.099 11.5865C109.635 12.2462 109.903 12.9059 109.903 13.5657C109.903 13.7587 109.895 13.8955 109.879 13.9759C109.846 14.1208 109.773 14.2414 109.66 14.338C109.562 14.4345 109.44 14.4828 109.294 14.4828H106.029C105.672 14.4828 105.428 14.346 105.299 14.0725C105.282 13.7024 105.087 13.3887 104.713 13.1312C104.341 12.8738 103.853 12.7451 103.252 12.7451C102.537 12.7451 101.945 12.8738 101.473 13.1312C101.019 13.3887 100.735 13.7668 100.621 14.2656C100.604 14.346 100.597 14.4506 100.597 14.5793C100.597 14.9655 100.824 15.2873 101.279 15.5448C101.75 15.7861 102.57 16.0355 103.74 16.2929C105.559 16.647 106.882 17.1538 107.71 17.8135C108.555 18.4732 108.977 19.3501 108.977 20.4442C108.977 20.8143 108.928 21.2166 108.831 21.651C108.474 23.2922 107.605 24.5392 106.225 25.392C104.86 26.2287 103.033 26.647 100.743 26.647C99.313 26.647 98.0871 26.454 97.0641 26.0678C96.0571 25.6816 95.2934 25.1667 94.7735 24.5231C94.2703 23.8795 94.0183 23.1635 94.0183 22.3751C94.0183 22.2464 94.0349 22.0533 94.0673 21.7958C94.0997 21.651 94.1645 21.5303 94.2624 21.4338C94.3762 21.3372 94.5058 21.289 94.652 21.289H97.7703C97.9654 21.289 98.1116 21.3211 98.2088 21.3856C98.3226 21.4499 98.4362 21.5625 98.5499 21.7235C98.6637 22.1418 98.9235 22.4878 99.3296 22.7613C99.7521 23.0348 100.329 23.1715 101.059 23.1715C101.985 23.1715 102.733 23.0268 103.301 22.7371C103.869 22.4474 104.21 22.0533 104.324 21.5545C104.341 21.4901 104.349 21.3936 104.349 21.2648C104.349 20.8626 104.097 20.5488 103.593 20.3235C103.089 20.0822 102.164 19.8006 100.815 19.4788C99.2403 19.1409 98.0468 18.6341 97.2347 17.9583C96.4219 17.2664 96.016 16.3654 96.016 15.2551C96.016 14.8689 96.0649 14.4748 96.1621 14.0725C96.4875 12.5761 97.2909 11.4015 98.5744 10.5487C99.8738 9.69591 101.547 9.26953 103.593 9.26953C104.827 9.26953 105.923 9.48677 106.883 9.9212C107.841 10.3556 108.579 10.9107 109.099 11.5865ZM131.871 9.96946C131.871 10.0177 131.862 10.066 131.846 10.1143L128.483 25.8023C128.451 25.9793 128.362 26.1242 128.216 26.2368C128.07 26.3493 127.916 26.4057 127.753 26.4057H124.805C124.626 26.4057 124.488 26.3493 124.391 26.2368C124.31 26.1081 124.285 25.9632 124.318 25.8023L126.218 16.8964L122.491 21.7958C122.328 21.9728 122.174 22.1096 122.028 22.2062C121.882 22.3027 121.711 22.3509 121.516 22.3509H120.249C119.908 22.3509 119.672 22.1659 119.543 21.7958L117.813 16.6791L115.864 25.8023C115.831 25.9793 115.742 26.1242 115.596 26.2368C115.45 26.3493 115.295 26.4057 115.133 26.4057H112.209C112.031 26.4057 111.893 26.3493 111.796 26.2368C111.698 26.1242 111.665 25.9793 111.698 25.8023L115.06 10.1143C115.093 9.9373 115.182 9.79247 115.328 9.67985C115.474 9.56719 115.637 9.51088 115.815 9.51088H118.446C118.836 9.51088 119.088 9.68786 119.202 10.0419L121.857 17.6445L127.777 10.0419C127.859 9.91315 127.972 9.79247 128.119 9.67985C128.28 9.56719 128.476 9.51088 128.703 9.51088H131.359C131.537 9.51088 131.675 9.56719 131.773 9.67985C131.837 9.77637 131.871 9.87294 131.871 9.96946Z" fill="#959BAD"/>
</svg>
