<svg preserveAspectRatio="none" width="100%" height="100%" overflow="visible" style="display: block;" viewBox="0 0 1034.15 204.943" fill="none" xmlns="http://www.w3.org/2000/svg">
<path id="Vector" d="M531.866 29.6568C530.879 29.7269 529.972 29.6459 529.145 29.4115C528.316 29.1771 527.655 28.7564 527.163 28.1496C526.67 27.5427 526.424 26.7365 526.424 25.731V18.1947C526.424 17.4936 526.143 16.992 525.585 16.6874C525.047 16.361 524.464 16.2077 523.838 16.2318V13.4626C524.42 13.4867 524.991 13.3465 525.551 13.042C526.133 12.7156 526.424 12.1898 526.424 11.4647V3.96343C526.424 2.93596 526.67 2.12978 527.163 1.54485C527.678 0.938004 528.339 0.517367 529.145 0.282955C529.972 0.0266344 530.879 -0.0566138 531.866 0.0375894V1.72011C531.551 1.72011 531.181 1.76611 530.757 1.86031C530.354 1.95452 529.995 2.14072 529.682 2.42114C529.391 2.67746 529.233 3.06304 529.212 3.57787L528.977 11.0791C528.931 12.2248 528.696 13.1121 528.272 13.743C527.869 14.374 527.107 14.6895 525.988 14.6895V15.0049C527.107 15.0049 527.869 15.3204 528.272 15.9513C528.696 16.5823 528.931 17.4696 528.977 18.6153L529.212 26.0815C529.233 26.5963 529.391 26.9928 529.682 27.2732C529.995 27.5537 530.354 27.7399 530.757 27.8341C531.181 27.9283 531.551 27.9743 531.866 27.9743V29.6568ZM1013.51 117.218C1011.81 115.185 1010.49 112.895 1009.55 110.347C1008.63 107.799 1008.17 105.16 1008.17 102.425C1008.17 99.7155 1008.63 97.0866 1009.55 94.5387C1010.49 91.9908 1011.81 89.7015 1013.51 87.6685H1015.39C1014.58 89.0004 1013.85 90.4836 1013.21 92.1201C1012.56 93.7325 1012.04 95.415 1011.66 97.1676C1011.28 98.9203 1011.09 100.673 1011.09 102.425C1011.09 104.154 1011.28 105.907 1011.66 107.683C1012.04 109.46 1012.54 111.154 1013.17 112.766C1013.82 114.402 1014.56 115.886 1015.39 117.218H1013.51ZM1028.81 87.6685C1030.54 89.7015 1031.86 91.9908 1032.77 94.5387C1033.69 97.0866 1034.15 99.7265 1034.15 102.461C1034.15 105.149 1033.69 107.778 1032.77 110.347C1031.86 112.895 1030.54 115.185 1028.81 117.218H1026.96C1027.77 115.861 1028.49 114.378 1029.11 112.766C1029.76 111.154 1030.28 109.471 1030.66 107.718C1031.04 105.942 1031.23 104.189 1031.23 102.461C1031.23 100.708 1031.04 98.9553 1030.66 97.2027C1030.3 95.426 1029.8 93.7325 1029.15 92.1201C1028.5 90.4836 1027.77 89.0004 1026.96 87.6685H1028.81ZM0 175.299C0.984555 175.205 1.88094 175.288 2.68706 175.545C3.51627 175.779 4.17544 176.2 4.66876 176.807C5.18308 177.392 5.44132 178.198 5.44132 179.225V186.761C5.44132 187.462 5.71003 187.977 6.24744 188.304C6.80794 188.608 7.39992 188.748 8.0276 188.724V191.493C7.42301 191.469 6.84151 191.623 6.28101 191.949C5.72051 192.254 5.44132 192.766 5.44132 193.491V200.993C5.44132 201.998 5.18308 202.804 4.66876 203.411C4.17544 204.018 3.51627 204.439 2.68706 204.673C1.88094 204.908 0.984555 204.989 0 204.919V203.236C0.312791 203.236 0.671751 203.19 1.07481 203.096C1.47787 203.002 1.82425 202.815 2.11605 202.535C2.42884 202.279 2.59683 201.893 2.61992 201.378L2.8886 193.877C2.93269 192.731 3.15732 191.844 3.56038 191.213C3.98653 190.582 4.75907 190.267 5.87798 190.267V189.951C4.75907 189.951 3.98653 189.636 3.56038 189.005C3.15732 188.374 2.93269 187.487 2.8886 186.341L2.61992 178.84C2.59683 178.325 2.42884 177.939 2.11605 177.683C1.82425 177.402 1.47787 177.216 1.07481 177.122C0.671751 177.028 0.312791 176.982 0 176.982V175.299Z" fill="var(--fill-0, #E4CD20)"/>
</svg>
