<svg preserveAspectRatio="none" width="100%" height="100%" overflow="visible" style="display: block;" viewBox="0 0 418.785 287.64" fill="none" xmlns="http://www.w3.org/2000/svg">
<path id="Vector" d="M7.65814 24.747C6.22434 24.747 4.92486 24.408 3.76187 23.7304C2.59677 23.0294 1.67944 22.0714 1.00767 20.8562C0.335905 19.6409 0 18.2388 0 16.6499V8.09709C0 6.50812 0.335905 5.10603 1.00767 3.89081C1.70043 2.67559 2.63041 1.72918 3.7955 1.05158C4.98159 0.350531 6.30202 0 7.75891 0H8.36349C9.84137 0 11.1513 0.350531 12.2933 1.05158C13.4353 1.72918 14.3296 2.67559 14.9803 3.89081C15.6521 5.10603 15.988 6.50812 15.988 8.09709V16.6499C15.988 18.2388 15.6521 19.6409 14.9803 20.8562C14.3086 22.0714 13.3891 23.0294 12.2261 23.7304C11.061 24.408 9.75108 24.747 8.29629 24.747H7.65814ZM7.99403 21.9428C8.86733 21.9428 9.65034 21.7325 10.3452 21.3118C11.038 20.8678 11.5754 20.2837 11.9574 19.5592C12.3605 18.8347 12.562 18.0169 12.562 17.1055V7.64141C12.562 6.70661 12.3605 5.87719 11.9574 5.15271C11.5754 4.42822 11.038 3.85576 10.3452 3.43513C9.65034 3.0145 8.86733 2.80418 7.99403 2.80418C7.12074 2.80418 6.33556 3.0145 5.6428 3.43513C4.97104 3.85576 4.43368 4.42822 4.03062 5.15271C3.62756 5.87719 3.42598 6.70661 3.42598 7.64141V17.1055C3.42598 18.0169 3.62756 18.8347 4.03062 19.5592C4.43368 20.2837 4.97104 20.8678 5.6428 21.3118C6.33556 21.7325 7.12074 21.9428 7.99403 21.9428ZM25.9511 24.3964V20.0499H30.3176V24.3964H25.9511ZM48.2726 24.747C46.6834 24.747 45.2728 24.49 44.0405 23.9758C42.8313 23.4616 41.8803 22.7023 41.1855 21.6974C40.5137 20.6693 40.1779 19.4074 40.1779 17.9118C40.1779 16.3695 40.5263 15.1426 41.2191 14.2313C41.937 13.2965 42.8649 12.5838 44.0069 12.0931V11.9529C43.1336 11.4387 42.4073 10.7961 41.8237 10.025C41.2422 9.25383 40.9503 8.13215 40.9503 6.65995C40.9503 5.23441 41.2652 4.03102 41.8908 3.04955C42.5185 2.06808 43.3813 1.32039 44.4772 0.806212C45.5982 0.268816 46.8619 0 48.2726 0C49.7064 0 50.9723 0.268816 52.0681 0.806212C53.1891 1.32039 54.0624 2.06808 54.6879 3.04955C55.3156 4.03102 55.6284 5.23441 55.6284 6.65995C55.6284 7.61797 55.4941 8.43601 55.2254 9.11362C54.9567 9.768 54.5872 10.317 54.1169 10.7611C53.6467 11.2051 53.1093 11.6023 52.5047 11.9529V12.0931C53.6698 12.6773 54.6103 13.4016 55.3262 14.2663C56.0441 15.1076 56.401 16.3228 56.401 17.9118C56.401 20.0149 55.6956 21.6858 54.2849 22.9242C52.8742 24.1395 50.8715 24.747 48.2726 24.747ZM48.2726 22.083C49.8638 22.083 51.0394 21.6858 51.7993 20.8912C52.5845 20.0966 52.975 19.0218 52.975 17.6664C52.975 16.2877 52.5614 15.2127 51.7322 14.4416C50.9051 13.6704 49.7505 13.2848 48.2726 13.2848C46.7947 13.2848 45.6423 13.682 44.813 14.4766C44.0069 15.2712 43.6038 16.3344 43.6038 17.6664C43.6038 19.0218 43.9859 20.0966 44.7458 20.8912C45.5079 21.6858 46.6834 22.083 48.2726 22.083ZM48.2726 10.9013C49.4608 10.9013 50.4454 10.5508 51.2284 9.84971C52.0345 9.12523 52.4376 8.0971 52.4376 6.76511C52.4376 5.43312 52.0576 4.41659 51.2955 3.71555C50.5356 2.99106 49.5154 2.62894 48.239 2.62894C46.9858 2.62894 45.9781 2.99106 45.2161 3.71555C44.4771 4.44003 44.1076 5.45657 44.1076 6.76511C44.1076 8.0971 44.5107 9.12523 45.3168 9.84971C46.123 10.5508 47.1096 10.9013 48.2726 10.9013ZM66.2297 24.3964V20.0499H70.5962V24.3964H66.2297ZM88.0159 24.747C86.4246 24.747 85.0265 24.4549 83.8174 23.8707C82.6292 23.2864 81.7013 22.4802 81.0295 21.452C80.3578 20.4239 80.0219 19.2554 80.0219 17.9468V17.3159H83.1792C83.1792 18.9283 83.6263 20.0966 84.5227 20.8211C85.417 21.5456 86.6262 21.9077 88.1502 21.9077C89.6281 21.9077 90.8373 21.5572 91.7778 20.8562C92.7182 20.1317 93.1885 19.0569 93.1885 17.6313C93.1885 16.6499 92.9639 15.8437 92.5167 15.2127C92.0906 14.5818 91.5196 14.1261 90.8037 13.8457C90.0858 13.5418 89.3028 13.39 88.4526 13.39H85.564V10.8312H88.1502C88.9773 10.8312 89.7289 10.6794 90.4006 10.3755C91.0934 10.0716 91.6435 9.62778 92.0465 9.0435C92.4706 8.436 92.6847 7.68808 92.6847 6.80016C92.6847 5.91224 92.4831 5.17614 92.0801 4.59186C91.677 4.00758 91.127 3.57533 90.4343 3.29492C89.7625 3.0145 89.0004 2.8743 88.1502 2.8743C86.7395 2.8743 85.6311 3.23642 84.825 3.96091C84.0399 4.6854 83.6494 5.73698 83.6494 7.11563H80.5929V6.51973C80.5929 5.18774 80.9162 4.04264 81.567 3.08462C82.2387 2.10315 83.1456 1.34361 84.2876 0.806212C85.4296 0.268816 86.7164 0 88.1502 0H88.5869C89.9976 0 91.2613 0.268816 92.3823 0.806212C93.5012 1.32039 94.385 2.06808 95.0358 3.04955C95.7076 4.00757 96.0435 5.15269 96.0435 6.48468C96.0435 7.41948 95.886 8.2257 95.5733 8.9033C95.2584 9.58091 94.8343 10.1536 94.2969 10.6209C93.7595 11.0882 93.1423 11.4972 92.4495 11.8477V12.023C93.6587 12.4201 94.6432 13.1096 95.4053 14.091C96.1883 15.0725 96.5809 16.3578 96.5809 17.9468C96.5809 19.3022 96.2324 20.494 95.5396 21.5222C94.8679 22.5271 93.9274 23.3214 92.7182 23.9057C91.509 24.4665 90.132 24.747 88.5869 24.747H88.0159ZM181.998 287.289V284.38H188.077V267.309H181.998V265.171C182.737 265.101 183.553 264.972 184.45 264.785C185.344 264.575 186.285 264.319 187.271 264.014C188.279 263.688 189.264 263.313 190.227 262.893H191.47V284.38H197.482V287.289H181.998ZM209.055 287.64C207.624 287.64 206.324 287.3 205.159 286.623C203.996 285.922 203.077 284.965 202.405 283.749C201.733 282.533 201.397 281.131 201.397 279.542V270.99C201.397 269.401 201.733 267.999 202.405 266.783C203.1 265.568 204.03 264.621 205.193 263.944C206.381 263.243 207.701 262.893 209.156 262.893H209.761C211.239 262.893 212.549 263.243 213.691 263.944C214.833 264.621 215.729 265.568 216.378 266.783C217.049 267.999 217.385 269.401 217.385 270.99V279.542C217.385 281.131 217.049 282.533 216.378 283.749C215.706 284.965 214.788 285.922 213.623 286.623C212.46 287.3 211.15 287.64 209.693 287.64H209.055ZM209.391 284.835C210.264 284.835 211.05 284.625 211.742 284.204C212.437 283.76 212.975 283.177 213.355 282.452C213.758 281.727 213.959 280.909 213.959 279.998V270.534C213.959 269.599 213.758 268.77 213.355 268.045C212.975 267.32 212.437 266.748 211.742 266.328C211.05 265.907 210.264 265.697 209.391 265.697C208.518 265.697 207.735 265.907 207.04 266.328C206.368 266.748 205.831 267.32 205.428 268.045C205.025 268.77 204.823 269.599 204.823 270.534V279.998C204.823 280.909 205.025 281.727 205.428 282.452C205.831 283.177 206.368 283.76 207.04 284.204C207.735 284.625 208.518 284.835 209.391 284.835ZM229.196 287.64C227.762 287.64 226.465 287.3 225.299 286.623C224.134 285.922 223.217 284.965 222.545 283.749C221.873 282.533 221.538 281.131 221.538 279.542V270.99C221.538 269.401 221.873 267.999 222.545 266.783C223.24 265.568 224.168 264.621 225.333 263.944C226.519 263.243 227.842 262.893 229.296 262.893H229.901C231.379 262.893 232.689 263.243 233.831 263.944C234.973 264.621 235.869 265.568 236.518 266.783C237.19 267.999 237.525 269.401 237.525 270.99V279.542C237.525 281.131 237.19 282.533 236.518 283.749C235.846 284.965 234.929 285.922 233.764 286.623C232.599 287.3 231.289 287.64 229.834 287.64H229.196ZM229.532 284.835C230.405 284.835 231.188 284.625 231.883 284.204C232.578 283.76 233.115 283.177 233.495 282.452C233.898 281.727 234.1 280.909 234.1 279.998V270.534C234.1 269.599 233.898 268.77 233.495 268.045C233.115 267.32 232.578 266.748 231.883 266.328C231.188 265.907 230.405 265.697 229.532 265.697C228.658 265.697 227.875 265.907 227.18 266.328C226.509 266.748 225.971 267.32 225.568 268.045C225.165 268.77 224.964 269.599 224.964 270.534V279.998C224.964 280.909 225.165 281.727 225.568 282.452C225.971 283.177 226.509 283.76 227.18 284.204C227.875 284.625 228.658 284.835 229.532 284.835ZM249.336 287.64C247.902 287.64 246.603 287.3 245.44 286.623C244.275 285.922 243.357 284.965 242.686 283.749C242.014 282.533 241.678 281.131 241.678 279.542V270.99C241.678 269.401 242.014 267.999 242.686 266.783C243.378 265.568 244.308 264.621 245.473 263.944C246.659 263.243 247.98 262.893 249.437 262.893H250.041C251.519 262.893 252.829 263.243 253.971 263.944C255.113 264.621 256.007 265.568 256.658 266.783C257.33 267.999 257.666 269.401 257.666 270.99V279.542C257.666 281.131 257.33 282.533 256.658 283.749C255.986 284.965 255.067 285.922 253.904 286.623C252.739 287.3 251.429 287.64 249.974 287.64H249.336ZM249.672 284.835C250.545 284.835 251.328 284.625 252.023 284.204C252.716 283.76 253.253 283.177 253.635 282.452C254.038 281.727 254.24 280.909 254.24 279.998V270.534C254.24 269.599 254.038 268.77 253.635 268.045C253.253 267.32 252.716 266.748 252.023 266.328C251.328 265.907 250.545 265.697 249.672 265.697C248.799 265.697 248.013 265.907 247.321 266.328C246.649 266.748 246.112 267.32 245.708 268.045C245.305 268.77 245.104 269.599 245.104 270.534V279.998C245.104 280.909 245.305 281.727 245.708 282.452C246.112 283.177 246.649 283.76 247.321 284.204C248.013 284.625 248.799 284.835 249.672 284.835ZM269.476 287.64C268.043 287.64 266.743 287.3 265.58 286.623C264.415 285.922 263.498 284.965 262.826 283.749C262.154 282.533 261.818 281.131 261.818 279.542V270.99C261.818 269.401 262.154 267.999 262.826 266.783C263.519 265.568 264.449 264.621 265.614 263.944C266.8 263.243 268.12 262.893 269.577 262.893H270.182C271.66 262.893 272.97 263.243 274.112 263.944C275.254 264.621 276.148 265.568 276.799 266.783C277.47 267.999 277.806 269.401 277.806 270.99V279.542C277.806 281.131 277.47 282.533 276.799 283.749C276.127 284.965 275.207 285.922 274.044 286.623C272.879 287.3 271.569 287.64 270.115 287.64H269.476ZM269.812 284.835C270.685 284.835 271.469 284.625 272.163 284.204C272.856 283.76 273.394 283.177 273.776 282.452C274.179 281.727 274.38 280.909 274.38 279.998V270.534C274.38 269.599 274.179 268.77 273.776 268.045C273.394 267.32 272.856 266.748 272.163 266.328C271.469 265.907 270.685 265.697 269.812 265.697C268.939 265.697 268.154 265.907 267.461 266.328C266.789 266.748 266.252 267.32 265.849 268.045C265.446 268.77 265.244 269.599 265.244 270.534V279.998C265.244 280.909 265.446 281.727 265.849 282.452C266.252 283.177 266.789 283.76 267.461 284.204C268.154 284.625 268.939 284.835 269.812 284.835ZM289.615 287.64C288.183 287.64 286.883 287.3 285.718 286.623C284.555 285.922 283.636 284.965 282.964 283.749C282.292 282.533 281.957 281.131 281.957 279.542V270.99C281.957 269.401 282.292 267.999 282.964 266.783C283.659 265.568 284.589 264.621 285.752 263.944C286.94 263.243 288.261 262.893 289.715 262.893H290.32C291.798 262.893 293.108 263.243 294.25 263.944C295.392 264.621 296.288 265.568 296.937 266.783C297.609 267.999 297.944 269.401 297.944 270.99V279.542C297.944 281.131 297.609 282.533 296.937 283.749C296.265 284.965 295.348 285.922 294.183 286.623C293.02 287.3 291.71 287.64 290.253 287.64H289.615ZM289.95 284.835C290.824 284.835 291.609 284.625 292.302 284.204C292.997 283.76 293.534 283.177 293.914 282.452C294.317 281.727 294.519 280.909 294.519 279.998V270.534C294.519 269.599 294.317 268.77 293.914 268.045C293.534 267.32 292.997 266.748 292.302 266.328C291.609 265.907 290.824 265.697 289.95 265.697C289.077 265.697 288.294 265.907 287.599 266.328C286.928 266.748 286.39 267.32 285.987 268.045C285.584 268.77 285.383 269.599 285.383 270.534V279.998C285.383 280.909 285.584 281.727 285.987 282.452C286.39 283.177 286.928 283.76 287.599 284.204C288.294 284.625 289.077 284.835 289.95 284.835ZM309.755 287.64C308.321 287.64 307.024 287.3 305.859 286.623C304.694 285.922 303.776 284.965 303.104 283.749C302.433 282.533 302.097 281.131 302.097 279.542V270.99C302.097 269.401 302.433 267.999 303.104 266.783C303.799 265.568 304.727 264.621 305.892 263.944C307.078 263.243 308.401 262.893 309.856 262.893H310.46C311.938 262.893 313.248 263.243 314.39 263.944C315.532 264.621 316.429 265.568 317.077 266.783C317.749 267.999 318.085 269.401 318.085 270.99V279.542C318.085 281.131 317.749 282.533 317.077 283.749C316.405 284.965 315.488 285.922 314.323 286.623C313.158 287.3 311.848 287.64 310.393 287.64H309.755ZM310.091 284.835C310.964 284.835 311.747 284.625 312.442 284.204C313.137 283.76 313.674 283.177 314.054 282.452C314.457 281.727 314.659 280.909 314.659 279.998V270.534C314.659 269.599 314.457 268.77 314.054 268.045C313.674 267.32 313.137 266.748 312.442 266.328C311.747 265.907 310.964 265.697 310.091 265.697C309.218 265.697 308.435 265.907 307.74 266.328C307.068 266.748 306.53 267.32 306.127 268.045C305.724 268.77 305.523 269.599 305.523 270.534V279.998C305.523 280.909 305.724 281.727 306.127 282.452C306.53 283.177 307.068 283.76 307.74 284.204C308.435 284.625 309.218 284.835 310.091 284.835ZM383.395 287.289V284.38H389.475V267.309H383.395V265.171C384.134 265.101 384.951 264.972 385.847 264.785C386.743 264.575 387.684 264.319 388.668 264.014C389.676 263.688 390.661 263.313 391.624 262.893H392.867V284.38H398.879V287.289H383.395ZM410.455 287.64C409.021 287.64 407.721 287.3 406.558 286.623C405.393 285.922 404.476 284.965 403.804 283.749C403.132 282.533 402.796 281.131 402.796 279.542V270.99C402.796 269.401 403.132 267.999 403.804 266.783C404.497 265.568 405.427 264.621 406.592 263.944C407.778 263.243 409.098 262.893 410.555 262.893H411.16C412.638 262.893 413.948 263.243 415.09 263.944C416.232 264.621 417.126 265.568 417.777 266.783C418.449 267.999 418.785 269.401 418.785 270.99V279.542C418.785 281.131 418.449 282.533 417.777 283.749C417.105 284.965 416.186 285.922 415.023 286.623C413.857 287.3 412.548 287.64 411.093 287.64H410.455ZM410.79 284.835C411.664 284.835 412.447 284.625 413.142 284.204C413.834 283.76 414.372 283.177 414.754 282.452C415.157 281.727 415.359 280.909 415.359 279.998V270.534C415.359 269.599 415.157 268.77 414.754 268.045C414.372 267.32 413.834 266.748 413.142 266.328C412.447 265.907 411.664 265.697 410.79 265.697C409.917 265.697 409.132 265.907 408.439 266.328C407.768 266.748 407.23 267.32 406.827 268.045C406.424 268.77 406.223 269.599 406.223 270.534V279.998C406.223 280.909 406.424 281.727 406.827 282.452C407.23 283.177 407.768 283.76 408.439 284.204C409.132 284.625 409.917 284.835 410.79 284.835Z" fill="var(--fill-0, #CCFF99)"/>
</svg>
