<svg preserveAspectRatio="none" width="100%" height="100%" overflow="visible" style="display: block;" viewBox="0 0 601.914 175.473" fill="none" xmlns="http://www.w3.org/2000/svg">
<g id="Group 1000015009">
<path id="Vector" d="M181.521 61.8217C181.476 61.8278 181.431 61.8167 181.394 61.7909C181.357 61.765 181.331 61.7261 181.321 61.682C176.839 44.0471 166.597 28.4075 152.215 17.2363C137.833 6.06514 120.132 0 101.911 0C83.6898 0 65.9887 6.06514 51.6068 17.2363C37.2248 28.4075 26.9828 44.0471 22.5003 61.682C22.4907 61.7261 22.4648 61.765 22.4277 61.7909C22.3907 61.8167 22.3453 61.8278 22.3005 61.8217C16.8852 61.8217 0 62.5201 0 76.8463C0 93.926 1.99825 108.771 11.9895 117.391C16.3057 121.082 23.5994 121.98 30.5133 121.82C34.8369 121.682 39.1447 121.229 43.402 120.463C43.4355 120.461 43.4677 120.449 43.4948 120.429C43.5219 120.409 43.5428 120.382 43.5553 120.351C43.5678 120.32 43.5713 120.286 43.5654 120.253C43.5595 120.22 43.5444 120.189 43.5219 120.164C35.9773 108.779 31.96 95.4265 31.972 81.7747C31.972 81.5751 31.972 81.3556 31.972 81.1561C31.972 62.6346 39.3406 44.8718 52.4566 31.7751C65.5727 18.6784 83.3619 11.3208 101.911 11.3208C120.46 11.3208 138.249 18.6784 151.365 31.7751C164.481 44.8718 171.85 62.6346 171.85 81.1561C171.85 81.3556 171.85 81.5751 171.85 81.7747C171.862 95.4265 167.844 108.779 160.3 120.164C160.277 120.189 160.262 120.22 160.256 120.253C160.25 120.286 160.254 120.32 160.266 120.351C160.279 120.382 160.3 120.409 160.327 120.429C160.354 120.449 160.386 120.461 160.42 120.463C164.677 121.229 168.985 121.682 173.308 121.82C180.222 121.98 187.516 121.082 191.832 117.391C201.823 108.871 203.822 93.926 203.822 76.8463C203.822 62.5201 186.936 61.8217 181.521 61.8217Z" fill="var(--fill-0, #64C4FF)"/>
<path id="Vector_2" d="M101.911 139.64L48.7575 121.942C48.7134 121.925 48.6647 121.924 48.6201 121.94C48.5755 121.956 48.5379 121.986 48.5139 122.027C48.49 122.068 48.4812 122.116 48.4892 122.162C48.4972 122.209 48.5215 122.251 48.5577 122.281L101.771 175.416C101.808 175.452 101.859 175.473 101.911 175.473C101.963 175.473 102.014 175.452 102.051 175.416L155.264 122.281C155.3 122.251 155.325 122.209 155.333 122.162C155.341 122.116 155.332 122.068 155.308 122.027C155.284 121.986 155.247 121.956 155.202 121.94C155.157 121.924 155.109 121.925 155.064 121.942L101.911 139.64Z" fill="var(--fill-0, #64C4FF)"/>
<path id="Vector_3" d="M149.228 85.5667L161.857 81.7757C161.901 81.7707 161.942 81.7497 161.972 81.7165C162.001 81.6834 162.017 81.6405 162.017 81.5961C161.982 76.9283 161.398 72.2808 160.279 67.7488C160.267 67.7076 160.244 67.6705 160.213 67.6422C160.181 67.6138 160.141 67.5954 160.099 67.5891L147.25 66.4319C147.208 66.4319 147.167 66.4187 147.133 66.3942C147.099 66.3697 147.074 66.3352 147.06 66.2954C147.047 66.2557 147.047 66.2128 147.059 66.1728C147.072 66.1329 147.097 66.0978 147.13 66.0727L156.682 57.7324C156.701 57.6954 156.711 57.6543 156.711 57.6127C156.711 57.571 156.701 57.5299 156.682 57.4929C154.735 53.184 152.287 49.1189 149.388 45.3815C149.357 45.3572 149.318 45.3441 149.278 45.3441C149.238 45.3441 149.2 45.3572 149.168 45.3815L137.359 49.3721C137.321 49.3841 137.281 49.3848 137.243 49.3741C137.205 49.3634 137.171 49.3418 137.146 49.312C137.12 49.2822 137.104 49.2454 137.099 49.2064C137.094 49.1674 137.101 49.1279 137.119 49.0928L142.254 37.8792C142.278 37.8436 142.29 37.802 142.29 37.7595C142.29 37.717 142.278 37.6754 142.254 37.6398C138.709 34.4359 134.791 31.6692 130.585 29.3992C130.553 29.3749 130.514 29.3618 130.475 29.3618C130.435 29.3618 130.396 29.3749 130.365 29.3992L121.433 37.6398C121.405 37.6671 121.369 37.6857 121.331 37.6931C121.293 37.7006 121.253 37.6967 121.217 37.6818C121.18 37.6669 121.149 37.6418 121.127 37.6095C121.105 37.5772 121.093 37.5391 121.093 37.5001L121.273 25.5283C121.275 25.4843 121.262 25.4409 121.237 25.4048C121.212 25.3687 121.175 25.342 121.133 25.3288C116.601 23.8074 111.907 22.823 107.145 22.3957C107.101 22.3937 107.058 22.4063 107.021 22.4316C106.985 22.4568 106.958 22.4933 106.945 22.5354L102.189 33.5893C102.173 33.6231 102.148 33.6515 102.116 33.6714C102.084 33.6913 102.047 33.7019 102.01 33.7019C101.972 33.7019 101.935 33.6913 101.903 33.6714C101.872 33.6515 101.846 33.6231 101.83 33.5893L97.0939 22.5354C97.0738 22.4955 97.042 22.4626 97.0027 22.4412C96.9634 22.4198 96.9186 22.4109 96.8741 22.4157C92.1102 22.8393 87.4142 23.8307 82.8863 25.3687C82.8473 25.3864 82.8137 25.4143 82.7891 25.4494C82.7645 25.4845 82.7497 25.5255 82.7464 25.5682L82.9063 37.6398C82.913 37.6793 82.9063 37.7199 82.8872 37.7551C82.8682 37.7904 82.8378 37.8182 82.8011 37.8343C82.7643 37.8503 82.7232 37.8537 82.6844 37.8437C82.6455 37.8338 82.6111 37.8112 82.5866 37.7794L73.5345 29.4192C73.4988 29.396 73.4572 29.3836 73.4146 29.3836C73.372 29.3836 73.3304 29.396 73.2947 29.4192C69.094 31.6887 65.1825 34.4555 61.6449 37.6597C61.6217 37.6953 61.6093 37.7369 61.6093 37.7794C61.6093 37.8219 61.6217 37.8635 61.6449 37.8992L66.8204 49.0728C66.832 49.1097 66.8336 49.1491 66.825 49.1868C66.8165 49.2246 66.7981 49.2594 66.7717 49.2878C66.7453 49.3161 66.7119 49.337 66.6748 49.3483C66.6378 49.3596 66.5984 49.3609 66.5606 49.3521L54.7709 45.3616C54.7352 45.3384 54.6936 45.326 54.651 45.326C54.6085 45.326 54.5668 45.3384 54.5311 45.3616C51.6526 49.1086 49.2248 53.1803 47.2975 57.4929C47.2742 57.5286 47.2619 57.5702 47.2619 57.6127C47.2619 57.6552 47.2742 57.6968 47.2975 57.7324L56.8691 66.0927C56.8957 66.1193 56.9142 66.1529 56.9225 66.1895C56.9307 66.2262 56.9285 66.2645 56.916 66.2999C56.9034 66.3354 56.8811 66.3666 56.8516 66.3899C56.8221 66.4132 56.7866 66.4278 56.7492 66.4319L43.9604 67.629C43.9197 67.6312 43.8807 67.6458 43.8486 67.6708C43.8164 67.6957 43.7927 67.7299 43.7805 67.7687C42.6336 72.2975 42.0232 76.9451 41.9621 81.616C41.9601 81.6601 41.9727 81.7035 41.998 81.7396C42.0233 81.7757 42.0599 81.8024 42.102 81.8156L54.7509 85.7663C54.7847 85.7826 54.8132 85.8081 54.8331 85.8399C54.8531 85.8716 54.8637 85.9084 54.8637 85.9458C54.8637 85.9833 54.8531 86.02 54.8331 86.0518C54.8132 86.0836 54.7847 86.1091 54.7509 86.1254L43.0811 92.6301C43.0552 92.7009 43.0552 92.7787 43.0811 92.8496C43.945 97.4945 45.3535 102.022 47.2775 106.338C47.9169 107.754 48.6163 109.131 49.2757 110.488C49.3147 110.5 49.3566 110.5 49.3956 110.488L101.91 127.987L154.544 110.468C154.569 110.46 154.593 110.447 154.614 110.43C154.634 110.413 154.651 110.392 154.664 110.368C157.641 104.819 159.737 98.8417 160.878 92.65C160.888 92.6076 160.883 92.5631 160.865 92.5235C160.847 92.4839 160.817 92.4512 160.778 92.4305L149.128 85.9259C149.096 85.9019 149.071 85.8686 149.058 85.8304C149.045 85.7922 149.044 85.7509 149.055 85.712C149.065 85.6731 149.088 85.6383 149.119 85.6124C149.15 85.5865 149.188 85.5705 149.228 85.5667Z" fill="var(--fill-0, #64C4FF)"/>
<path id="Vector_4" d="M309.729 135.509V135.888H300.178L276.199 100.472H256.835V135.888H248.523V50.5098H280.834C296.061 50.5098 308.131 61.424 308.131 75.6106C308.131 88.4204 299.318 97.9579 285.37 100.093L309.729 135.509ZM280.495 92.9497C292.484 92.9497 299.858 85.9063 299.858 75.7303C299.858 65.5543 292.065 58.032 280.854 58.032H256.875V92.9497H280.495Z" fill="var(--fill-0, #64C4FF)"/>
<path id="Vector_5" d="M379.326 128.346V135.888H327.132V50.5098H378.187V58.032H335.445V88.4204H373.032V95.7431H335.445V128.266L379.326 128.346Z" fill="var(--fill-0, #64C4FF)"/>
<path id="Vector_6" d="M485.834 135.889H477.841L469.588 76.9876C469.147 74.2049 468.853 71.401 468.709 68.5874C467.07 71.3409 465.572 73.855 464.053 76.2493L440.074 114.798H438.195L414.216 75.9899C412.838 73.8549 411.319 71.3409 409.82 68.8268C409.561 71.72 409.061 74.4934 408.681 76.9876L400.448 135.889H392.276L404.485 49.8516H406.983L433.779 93.2891C435.538 96.0626 437.296 98.9358 439.055 102.328C440.813 98.9358 442.572 96.0626 444.33 93.1694L471.247 49.8516H473.585L485.834 135.889Z" fill="var(--fill-0, #64C4FF)"/>
<path id="Vector_7" d="M505.835 50.5098H514.128V135.888H505.835V50.5098Z" fill="var(--fill-0, #64C4FF)"/>
<path id="Vector_8" d="M529.218 135.649L560.79 91.5729L531.875 50.7492V50.5098H541.527L557.373 72.7373C560.13 76.7279 563.028 80.8781 565.786 85.4075C568.683 80.7584 571.441 76.4885 574.218 72.478L589.805 50.5297H599.236V50.7692L570.342 91.553L601.914 135.649V135.908H592.342L573.998 109.97C571.221 105.979 568.323 101.988 565.686 97.6586C562.808 102.188 560.15 106.079 557.273 110.089L538.789 136.028H529.218V135.649Z" fill="var(--fill-0, #64C4FF)"/>
</g>
</svg>
