<svg preserveAspectRatio="none" width="100%" height="100%" overflow="visible" style="display: block;" viewBox="0 0 209.605 25.413" fill="none" xmlns="http://www.w3.org/2000/svg">
<path id="Vector" d="M9.20312 25.413C7.97085 25.413 6.7848 25.2968 5.6428 25.0624C4.52389 24.8521 3.48258 24.5366 2.51902 24.116C1.57854 23.6954 0.738941 23.1937 0 22.6088L1.30986 19.0685C2.0488 19.6052 2.82134 20.074 3.62746 20.4706C4.45667 20.8452 5.32993 21.1365 6.24731 21.3469C7.18778 21.5331 8.17238 21.6273 9.20312 21.6273C10.9728 21.6273 12.2597 21.3228 13.0658 20.7159C13.8719 20.085 14.275 19.2788 14.275 18.2973C14.275 17.7606 14.1511 17.3049 13.9055 16.9303C13.6598 16.5337 13.2568 16.1942 12.6963 15.9138C12.1358 15.6334 11.3969 15.3989 10.4795 15.2127L6.78481 14.4065C4.65826 13.9399 3.06694 13.1556 2.01521 12.058C0.984473 10.9363 0.470233 9.46415 0.470233 7.64143C0.470233 6.09912 0.862791 4.75619 1.64582 3.61041C2.42884 2.46464 3.51627 1.57737 4.90388 0.946428C6.29149 0.315486 7.89316 0 9.70692 0C10.7817 0 11.8126 0.116119 12.7971 0.350531C13.8048 0.560846 14.7221 0.887266 15.5513 1.33199C16.4015 1.75262 17.1405 2.26747 17.7682 2.87432L16.4582 6.2393C15.5177 5.42214 14.487 4.81311 13.3681 4.41658C12.2492 3.99595 11.0169 3.78565 9.67335 3.78565C8.64261 3.78565 7.75887 3.93683 7.01993 4.24134C6.28099 4.54586 5.7099 4.97747 5.30685 5.5383C4.92688 6.07504 4.7359 6.71907 4.7359 7.46613C4.7359 8.30738 5.00455 8.98435 5.54196 9.49918C6.07937 9.98992 6.99678 10.3755 8.29622 10.6559L11.9574 11.4621C14.1742 11.9528 15.82 12.724 16.8948 13.7756C17.9927 14.8271 18.5406 16.2293 18.5406 17.9819C18.5406 19.4541 18.1607 20.751 17.3986 21.8727C16.6366 22.9944 15.5513 23.8706 14.1406 24.5016C12.753 25.1084 11.1072 25.413 9.20312 25.413ZM21.8282 25.0624V0.350531H26.0267V11.3569H25.5563C26.0476 10.1192 26.8096 9.1837 27.8404 8.55275C28.8921 7.89771 30.0783 7.57129 31.4008 7.57129C32.7213 7.57129 33.8066 7.82766 34.6589 8.34249C35.5091 8.85732 36.1472 9.63941 36.5734 10.691C36.9974 11.7184 37.2115 13.0285 37.2115 14.6168V25.0624H33.0129V14.8272C33.0129 13.9399 32.8996 13.2147 32.6771 12.6539C32.4756 12.0931 32.1502 11.6834 31.7031 11.4271C31.2769 11.1467 30.729 11.0065 30.0573 11.0065C29.2511 11.0065 28.5458 11.1926 27.9412 11.5673C27.3366 11.9178 26.8664 12.4326 26.5305 13.1096C26.1946 13.7646 26.0267 14.5358 26.0267 15.4231V25.0624H21.8282ZM48.9653 25.413C47.2628 25.413 45.7849 25.0515 44.5316 24.3263C43.2783 23.6012 42.3044 22.5737 41.6095 21.2418C40.9146 19.8857 40.5682 18.2973 40.5682 16.4746C40.5682 14.6519 40.9146 13.0746 41.6095 11.7426C42.3044 10.4106 43.2783 9.38307 44.5316 8.65792C45.7849 7.93277 47.2628 7.57129 48.9653 7.57129C50.6678 7.57129 52.1456 7.93277 53.3989 8.65792C54.6522 9.38307 55.6263 10.4106 56.3211 11.7426C57.016 13.0746 57.3623 14.6519 57.3623 16.4746C57.3623 18.2973 57.016 19.8857 56.3211 21.2418C55.6263 22.5737 54.6522 23.6012 53.3989 24.3263C52.1456 25.0515 50.6678 25.413 48.9653 25.413ZM48.9653 22.083C50.2185 22.083 51.2262 21.6163 51.9882 20.6809C52.7502 19.7235 53.1302 18.3214 53.1302 16.4746C53.1302 14.6059 52.7502 13.2147 51.9882 12.3034C51.2262 11.3679 50.2185 10.9013 48.9653 10.9013C47.712 10.9013 46.7045 11.3679 45.9424 12.3034C45.1804 13.2147 44.8004 14.6059 44.8004 16.4746C44.8004 18.3214 45.1804 19.7235 45.9424 20.6809C46.7045 21.6163 47.712 22.083 48.9653 22.083ZM65.0352 25.0624L58.5526 7.92182H62.852L67.4199 21.0665H66.6474L71.2826 7.92182H74.2383L78.8064 21.0665H78.101L82.6691 7.92182H86.7332L80.2842 25.0624H76.6232L71.652 11.3569H73.5667L68.6963 25.0624H65.0352ZM103.597 25.413C102.408 25.413 101.346 25.1785 100.406 24.7119C99.4862 24.2212 98.7599 23.5661 98.2225 22.749C97.7061 21.9318 97.4499 21.0073 97.4499 19.9798C97.4499 18.7179 97.7627 17.7256 98.3904 17.0004C99.0159 16.2534 100.036 15.7144 101.447 15.388C102.858 15.0616 104.749 14.8972 107.123 14.8972H108.803V17.421H107.157C106.103 17.421 105.219 17.467 104.504 17.5612C103.786 17.6313 103.204 17.7606 102.757 17.9468C102.331 18.1111 102.018 18.3433 101.816 18.6478C101.636 18.9524 101.548 19.3248 101.548 19.7696C101.548 20.5407 101.804 21.1716 102.32 21.6624C102.835 22.1531 103.55 22.3984 104.47 22.3984C105.209 22.3984 105.858 22.2232 106.418 21.8727C107 21.4981 107.459 20.9963 107.795 20.3654C108.131 19.7344 108.299 19.0094 108.299 18.1922V14.1611C108.299 12.9934 108.051 12.1522 107.56 11.6374C107.067 11.1226 106.237 10.8662 105.074 10.8662C104.155 10.8662 103.215 11.0174 102.253 11.3219C101.29 11.6023 100.315 12.0471 99.3308 12.6539L98.1217 9.67448C98.7032 9.25385 99.3855 8.89237 100.171 8.58785C100.977 8.26143 101.816 8.01607 102.69 7.85176C103.584 7.66554 104.424 7.57129 105.209 7.57129C106.821 7.57129 108.142 7.82766 109.172 8.34249C110.224 8.85732 111.007 9.63941 111.523 10.691C112.038 11.7184 112.296 13.0504 112.296 14.687V25.0624H108.366V21.417H108.635C108.477 22.2341 108.165 22.9484 107.694 23.5552C107.245 24.1401 106.674 24.5958 105.981 24.9222C105.287 25.2487 104.491 25.413 103.597 25.413ZM116.558 25.0624V7.92182H120.655V11.3569H120.286C120.777 10.1192 121.539 9.1837 122.57 8.55275C123.621 7.89771 124.808 7.57129 126.13 7.57129C127.451 7.57129 128.536 7.82766 129.388 8.34249C130.238 8.85732 130.877 9.63941 131.303 10.691C131.727 11.7184 131.941 13.0285 131.941 14.6168V25.0624H127.742V14.8272C127.742 13.9399 127.629 13.2147 127.406 12.6539C127.205 12.0931 126.88 11.6834 126.432 11.4271C126.006 11.1467 125.458 11.0065 124.787 11.0065C123.98 11.0065 123.275 11.1926 122.671 11.5673C122.066 11.9178 121.596 12.4326 121.26 13.1096C120.924 13.7646 120.756 14.5358 120.756 15.4231V25.0624H116.558ZM142.217 25.413C141.299 25.413 140.403 25.3319 139.53 25.1676C138.68 25.0033 137.894 24.782 137.179 24.5016C136.463 24.1971 135.835 23.8246 135.298 23.3799L136.372 20.5057C136.933 20.8803 137.538 21.2067 138.186 21.4871C138.835 21.7675 139.507 21.9778 140.201 22.118C140.896 22.2583 141.579 22.3284 142.25 22.3284C143.325 22.3284 144.121 22.1421 144.635 21.7675C145.173 21.371 145.441 20.8561 145.441 20.2252C145.441 19.6885 145.263 19.2788 144.904 18.9984C144.568 18.6938 144.054 18.4726 143.359 18.3324L140 17.6664C138.612 17.386 137.548 16.8602 136.809 16.089C136.093 15.2938 135.734 14.2772 135.734 13.0395C135.734 11.9178 136.026 10.9473 136.608 10.1301C137.212 9.31295 138.041 8.68205 139.093 8.23732C140.145 7.7926 141.354 7.57129 142.721 7.57129C143.504 7.57129 144.266 7.65235 145.005 7.81666C145.744 7.95687 146.438 8.17817 147.087 8.48269C147.759 8.76311 148.34 9.13771 148.834 9.60435L147.692 12.4787C147.266 12.104 146.774 11.7886 146.214 11.5322C145.653 11.2518 145.072 11.0415 144.467 10.9013C143.886 10.737 143.315 10.6559 142.754 10.6559C141.656 10.6559 140.84 10.8553 140.302 11.2518C139.788 11.6484 139.53 12.1741 139.53 12.8291C139.53 13.3199 139.687 13.7296 140 14.056C140.313 14.3824 140.796 14.6059 141.444 14.722L144.803 15.388C146.258 15.6684 147.356 16.1832 148.095 16.9303C148.857 17.6773 149.237 18.6829 149.237 19.9448C149.237 21.0906 148.945 22.072 148.363 22.8892C147.782 23.7063 146.963 24.3373 145.911 24.782C144.86 25.2027 143.627 25.413 142.217 25.413ZM156.811 25.0624L150.328 7.92182H154.628L159.196 21.0665H158.423L163.058 7.92182H166.014L170.582 21.0665H169.877L174.445 7.92182H178.509L172.06 25.0624H168.399L163.428 11.3569H165.342L160.472 25.0624H156.811ZM188.68 25.413C186.82 25.413 185.22 25.0515 183.877 24.3263C182.533 23.6012 181.492 22.5737 180.753 21.2418C180.035 19.9098 179.678 18.3324 179.678 16.5097C179.678 14.733 180.025 13.1797 180.719 11.8477C181.435 10.5157 182.409 9.47511 183.642 8.72805C184.895 7.9569 186.316 7.57129 187.907 7.57129C189.473 7.57129 190.817 7.92184 191.938 8.62289C193.057 9.32393 193.92 10.3163 194.524 11.6023C195.15 12.8883 195.465 14.4175 195.465 16.1942V17.4911H183.071V14.9674H192.509L191.971 15.4931C191.971 13.9048 191.636 12.6889 190.964 11.8477C190.292 10.9823 189.329 10.5508 188.075 10.5508C187.135 10.5508 186.329 10.7852 185.657 11.2518C185.006 11.6966 184.502 12.3384 184.145 13.1797C183.81 13.9968 183.642 14.9783 183.642 16.1241V16.3695C183.642 17.6555 183.83 18.718 184.213 19.5592C184.593 20.4005 185.163 21.0314 185.926 21.452C186.685 21.8726 187.626 22.083 188.747 22.083C189.664 22.083 190.582 21.9428 191.501 21.6624C192.419 21.3578 193.258 20.8912 194.02 20.2603L195.196 23.2047C194.411 23.8816 193.426 24.4205 192.24 24.8171C191.052 25.2136 189.866 25.413 188.68 25.413ZM198.79 25.0624V7.92182H202.888V12.058H202.552C202.865 10.6559 203.48 9.5934 204.399 8.86825C205.317 8.1212 206.536 7.6874 208.06 7.57129L209.337 7.46613L209.605 11.1817L207.187 11.4271C205.82 11.5673 204.79 12.012 204.097 12.7591C203.402 13.4842 203.056 14.5117 203.056 15.8436V25.0624H198.79Z" fill="var(--fill-0, white)"/>
</svg>
