<svg preserveAspectRatio="none" width="100%" height="100%" overflow="visible" style="display: block;" viewBox="0 0 276.655 245.916" fill="none" xmlns="http://www.w3.org/2000/svg">
<g id="Vector">
<path d="M246.386 86.6406C246.325 86.6491 246.264 86.6336 246.213 86.5974C246.163 86.5611 246.128 86.5066 246.115 86.4448C240.031 61.7302 226.129 39.8119 206.607 24.156C187.086 8.50005 163.06 0 138.328 0C113.596 0 89.5692 8.50005 70.048 24.156C50.5268 39.8119 36.6248 61.7302 30.5406 86.4448C30.5275 86.5066 30.4923 86.5611 30.4421 86.5974C30.3918 86.6336 30.3302 86.6491 30.2694 86.6406C22.919 86.6406 0 87.6193 0 107.697C0 131.633 2.71231 152.438 16.2738 164.518C22.1324 169.691 32.0324 170.95 41.4169 170.726C47.2856 170.533 53.1326 169.897 58.9113 168.825C58.9568 168.821 59.0004 168.804 59.0372 168.776C59.074 168.749 59.1025 168.711 59.1194 168.667C59.1364 168.623 59.1411 168.576 59.1331 168.529C59.1251 168.483 59.1046 168.44 59.0741 168.405C48.8334 152.449 43.3805 133.736 43.3969 114.604C43.3969 114.324 43.3969 114.017 43.3969 113.737C43.3969 87.7799 53.3985 62.8859 71.2015 44.5315C89.0045 26.1771 113.151 15.8656 138.328 15.8656C163.505 15.8656 187.651 26.1771 205.454 44.5315C223.257 62.8859 233.258 87.7799 233.258 113.737C233.258 114.017 233.258 114.324 233.258 114.604C233.275 133.736 227.822 152.449 217.581 168.405C217.551 168.44 217.53 168.483 217.522 168.529C217.514 168.576 217.519 168.623 217.536 168.667C217.553 168.711 217.581 168.749 217.618 168.776C217.655 168.804 217.699 168.821 217.744 168.825C223.523 169.897 229.37 170.533 235.238 170.726C244.623 170.95 254.523 169.691 260.382 164.518C273.943 152.578 276.655 131.633 276.655 107.697C276.655 87.6193 253.736 86.6406 246.386 86.6406Z" fill="var(--fill-0, #FF8478)"/>
<path d="M138.336 195.698L66.1886 170.895C66.1287 170.871 66.0626 170.87 66.002 170.892C65.9415 170.914 65.8904 170.957 65.8579 171.014C65.8254 171.071 65.8135 171.138 65.8244 171.203C65.8353 171.268 65.8682 171.327 65.9173 171.37L138.146 245.836C138.197 245.887 138.265 245.916 138.336 245.916C138.407 245.916 138.475 245.887 138.526 245.836L210.755 171.37C210.804 171.327 210.837 171.268 210.847 171.203C210.858 171.138 210.846 171.071 210.814 171.014C210.781 170.957 210.73 170.914 210.67 170.892C210.609 170.87 210.543 170.871 210.483 170.895L138.336 195.698Z" fill="var(--fill-0, #FF8478)"/>
<path d="M202.569 119.914L219.711 114.601C219.771 114.594 219.826 114.565 219.866 114.518C219.907 114.472 219.928 114.412 219.928 114.349C219.88 107.808 219.088 101.294 217.568 94.9429C217.553 94.8852 217.522 94.8333 217.479 94.7936C217.435 94.7539 217.382 94.728 217.324 94.7192L199.884 93.0974C199.827 93.0974 199.772 93.0789 199.726 93.0446C199.679 93.0103 199.645 92.9618 199.627 92.9062C199.609 92.8505 199.608 92.7904 199.625 92.7344C199.642 92.6783 199.676 92.6292 199.721 92.594L212.686 80.9054C212.712 80.8536 212.726 80.796 212.726 80.7376C212.726 80.6792 212.712 80.6217 212.686 80.5698C210.044 74.5311 206.721 68.834 202.786 63.5961C202.744 63.5621 202.691 63.5437 202.637 63.5437C202.583 63.5437 202.531 63.5621 202.488 63.5961L186.458 69.1888C186.407 69.2056 186.353 69.2066 186.301 69.1917C186.25 69.1767 186.204 69.1464 186.169 69.1046C186.135 69.0627 186.113 69.0113 186.106 68.9566C186.1 68.902 186.109 68.8466 186.133 68.7973L193.103 53.082C193.135 53.032 193.152 52.9738 193.152 52.9142C193.152 52.8546 193.135 52.7963 193.103 52.7464C188.291 48.2564 182.973 44.379 177.263 41.1976C177.221 41.1636 177.168 41.1451 177.114 41.1451C177.06 41.1451 177.008 41.1636 176.965 41.1976L164.841 52.7464C164.803 52.7847 164.755 52.8107 164.703 52.8212C164.651 52.8317 164.597 52.8262 164.548 52.8053C164.499 52.7845 164.457 52.7492 164.427 52.704C164.397 52.6587 164.381 52.6054 164.38 52.5507L164.624 35.7727C164.627 35.711 164.61 35.6502 164.575 35.5996C164.541 35.549 164.491 35.5115 164.434 35.4931C158.284 33.3609 151.911 31.9813 145.448 31.3825C145.388 31.3797 145.329 31.3973 145.28 31.4328C145.231 31.4682 145.195 31.5193 145.177 31.5782L138.722 47.0699C138.699 47.1172 138.665 47.157 138.622 47.1849C138.578 47.2128 138.528 47.2276 138.478 47.2276C138.427 47.2276 138.377 47.2128 138.333 47.1849C138.29 47.157 138.256 47.1172 138.233 47.0699L131.805 31.5782C131.778 31.5223 131.735 31.4763 131.681 31.4463C131.628 31.4163 131.567 31.4038 131.507 31.4105C125.041 32.0042 118.667 33.3936 112.521 35.549C112.468 35.5739 112.422 35.6129 112.389 35.6621C112.355 35.7113 112.335 35.7688 112.331 35.8287L112.548 52.7464C112.557 52.8018 112.548 52.8587 112.522 52.9081C112.496 52.9575 112.455 52.9965 112.405 53.019C112.355 53.0415 112.299 53.0462 112.247 53.0323C112.194 53.0183 112.147 52.9866 112.114 52.9422L99.8271 41.2256C99.7787 41.1931 99.7222 41.1758 99.6644 41.1758C99.6066 41.1758 99.5501 41.1931 99.5016 41.2256C93.7999 44.4063 88.4907 48.2839 83.6889 52.7744C83.6574 52.8243 83.6406 52.8826 83.6406 52.9422C83.6406 53.0017 83.6574 53.06 83.6889 53.1099L90.7138 68.7694C90.7295 68.8211 90.7317 68.8762 90.7201 68.9292C90.7085 68.9821 90.6835 69.0309 90.6477 69.0706C90.6119 69.1104 90.5665 69.1396 90.5162 69.1555C90.4659 69.1713 90.4124 69.1732 90.3612 69.1608L74.3586 63.5682C74.3101 63.5357 74.2536 63.5184 74.1958 63.5184C74.138 63.5184 74.0815 63.5357 74.0331 63.5682C70.1259 68.8196 66.8305 74.5259 64.2145 80.5698C64.183 80.6198 64.1662 80.678 64.1662 80.7376C64.1662 80.7972 64.183 80.8555 64.2145 80.9054L77.2065 92.622C77.2425 92.6593 77.2677 92.7064 77.2789 92.7578C77.2902 92.8092 77.2871 92.8628 77.2701 92.9124C77.2531 92.9621 77.2228 93.0058 77.1828 93.0386C77.1427 93.0713 77.0945 93.0917 77.0437 93.0974L59.685 94.7752C59.6298 94.7783 59.5768 94.7987 59.5332 94.8337C59.4896 94.8686 59.4574 94.9165 59.4409 94.9709C57.884 101.318 57.0556 107.831 56.9727 114.377C56.9699 114.439 56.9871 114.5 57.0214 114.551C57.0558 114.601 57.1054 114.639 57.1625 114.657L74.3314 120.194C74.3773 120.217 74.416 120.252 74.443 120.297C74.4701 120.341 74.4844 120.393 74.4844 120.445C74.4844 120.498 74.4701 120.549 74.443 120.594C74.416 120.638 74.3773 120.674 74.3314 120.697L58.4915 129.813C58.4563 129.912 58.4563 130.021 58.4915 130.121C59.6641 136.63 61.5759 142.975 64.1874 149.024C65.0553 151.009 66.0046 152.939 66.8997 154.84C66.9527 154.857 67.0095 154.857 67.0624 154.84L138.342 179.364L209.784 154.812C209.819 154.801 209.851 154.783 209.879 154.759C209.907 154.735 209.93 154.706 209.947 154.672C213.988 146.895 216.834 138.518 218.382 129.841C218.395 129.782 218.389 129.719 218.364 129.664C218.34 129.608 218.299 129.562 218.246 129.533L202.434 120.417C202.39 120.384 202.356 120.337 202.338 120.284C202.321 120.23 202.319 120.172 202.334 120.118C202.348 120.063 202.379 120.014 202.421 119.978C202.463 119.942 202.515 119.919 202.569 119.914Z" fill="var(--fill-0, #FF8478)"/>
</g>
</svg>
