<svg preserveAspectRatio="none" width="100%" height="100%" overflow="visible" style="display: block;" viewBox="0 0 337.923 130.745" fill="none" xmlns="http://www.w3.org/2000/svg">
<path id="Vector" d="M60.4189 25.2377V1.19173H75.4665L74.9963 4.17121H63.9456V11.4971H73.955V14.4065H63.9456V22.1881H75.1978L75.668 25.2377H60.4189ZM86.3364 25.5882C85.1042 25.5882 83.9727 25.2836 82.9441 24.6768C81.9134 24.0459 81.0841 23.0753 80.4585 21.7674C79.8539 20.4355 79.5516 18.707 79.5516 16.5797V16.1942C79.5516 14.2071 79.8539 12.5246 80.4585 11.1466C81.0631 9.76861 81.8798 8.72804 82.9105 8.02699C83.9623 7.32594 85.1272 6.9754 86.4036 6.9754C87.5456 6.9754 88.5407 7.19663 89.393 7.64136C90.2432 8.06199 90.9045 8.64696 91.3747 9.39402V0H94.7335V25.2377H92.0129L91.6434 22.6788C91.1501 23.6143 90.4552 24.3373 89.5609 24.8521C88.6645 25.3428 87.5897 25.5882 86.3364 25.5882ZM87.1426 23.0644C88.3728 23.0644 89.3805 22.5978 90.1656 21.6623C90.9717 20.705 91.3747 19.2327 91.3747 17.2457V15.2828C91.3747 13.3199 90.9717 11.8586 90.1656 10.9012C89.3805 9.94387 88.3728 9.46408 87.1426 9.46408C85.9104 9.46408 84.8922 9.95481 84.0861 10.9363C83.301 11.8936 82.9105 13.344 82.9105 15.2828V17.2107C82.9105 19.1977 83.301 20.6699 84.0861 21.6272C84.8922 22.5846 85.9104 23.0644 87.1426 23.0644ZM106.376 25.5882C104.539 25.5882 103.061 25.0515 101.942 23.9758C100.845 22.9001 100.297 21.2768 100.297 19.1035V7.32593H103.689V18.4375C103.689 19.9338 104.012 21.0423 104.663 21.7674C105.335 22.4926 106.263 22.8541 107.451 22.8541C108.234 22.8541 108.929 22.6548 109.533 22.2582C110.159 21.8376 110.642 21.2768 110.978 20.5757C111.335 19.8747 111.515 19.0925 111.515 18.2272V7.32593H114.874V22.0129C114.874 22.3875 114.952 22.6547 115.109 22.819C115.264 22.9833 115.499 23.0644 115.814 23.0644C116.037 23.0644 116.261 23.0403 116.486 22.9943C116.709 22.9483 116.944 22.83 117.191 22.6438V24.9222C116.9 25.1325 116.53 25.2968 116.083 25.4129C115.657 25.529 115.22 25.5882 114.773 25.5882C113.967 25.5882 113.35 25.4721 112.926 25.2377C112.523 24.9813 112.241 24.6308 112.086 24.1861C111.952 23.7413 111.861 23.2397 111.817 22.6788C111.481 23.3098 111.055 23.8465 110.541 24.2912C110.025 24.7119 109.42 25.0273 108.727 25.2377C108.032 25.4721 107.249 25.5882 106.376 25.5882ZM127.791 25.5882C126.56 25.5882 125.418 25.402 124.365 25.0273C123.336 24.6527 122.429 24.0569 121.644 23.2397C120.861 22.3984 120.246 21.2877 119.797 19.9097C119.373 18.5317 119.158 16.836 119.158 14.8271V11.6023C119.158 9.59337 119.383 7.89769 119.83 6.5197C120.279 5.1417 120.895 4.04194 121.678 3.22478C122.463 2.38353 123.37 1.77668 124.398 1.40206C125.452 1.02744 126.571 0.841262 127.757 0.841262H128.227C129.974 0.841262 131.464 1.19174 132.695 1.89279C133.95 2.59384 134.901 3.65635 135.549 5.08254C136.2 6.48463 136.524 8.24824 136.524 10.3755H133.131C133.131 8.83317 132.963 7.58223 132.627 6.62486C132.315 5.6434 131.777 4.93144 131.015 4.48671C130.255 4.02007 129.235 3.78565 127.959 3.78565C127.22 3.78565 126.537 3.90176 125.91 4.13618C125.305 4.34649 124.768 4.7211 124.297 5.25784C123.827 5.77267 123.458 6.48463 123.189 7.39599C122.92 8.30735 122.786 9.45318 122.786 10.8312V15.5632C122.786 16.9412 122.92 18.0979 123.189 19.0334C123.458 19.9448 123.827 20.6699 124.297 21.2067C124.768 21.7215 125.305 22.0939 125.91 22.3283C126.537 22.5386 127.22 22.6438 127.959 22.6438C129.886 22.6438 131.24 22.129 132.023 21.1015C132.829 20.0499 133.232 18.3784 133.232 16.089H136.524C136.524 18.1461 136.2 19.8746 135.549 21.2767C134.901 22.6788 133.96 23.7545 132.728 24.5016C131.498 25.2267 130.007 25.5882 128.261 25.5882H127.791ZM148.133 25.5882C146.476 25.5882 145.053 25.2026 143.867 24.4314C142.681 23.6603 141.774 22.5978 141.146 21.2417C140.518 19.8637 140.206 18.3083 140.206 16.5797V15.9838C140.206 14.2071 140.518 12.6429 141.146 11.2868C141.774 9.93072 142.681 8.87914 143.867 8.13209C145.053 7.36094 146.464 6.9754 148.099 6.9754C149.778 6.9754 151.212 7.36094 152.398 8.13209C153.584 8.90324 154.491 9.96582 155.119 11.3219C155.747 12.678 156.059 14.2312 156.059 15.9838V16.5797C156.059 18.3565 155.747 19.9206 155.119 21.2767C154.491 22.6328 153.584 23.6954 152.398 24.4665C151.212 25.2136 149.789 25.5882 148.133 25.5882ZM148.133 23.0994C149.432 23.0994 150.494 22.6087 151.323 21.6272C152.153 20.6217 152.566 19.2328 152.566 17.456V15.1076C152.566 13.3308 152.153 11.9528 151.323 10.9714C150.494 9.96581 149.432 9.46408 148.133 9.46408C146.856 9.46408 145.792 9.96581 144.942 10.9714C144.112 11.9528 143.699 13.3308 143.699 15.1076V17.456C143.699 19.2328 144.112 20.6217 144.942 21.6272C145.792 22.6087 146.856 23.0994 148.133 23.0994ZM167.534 25.2377V10.06H161.387V7.32593H170.893V25.2377H167.534ZM161.387 25.2377V22.5386H176.703V25.2377H161.387ZM167.4 3.64545V0.280398H170.557V3.64545H167.4ZM181.225 25.2377V7.32593H183.946L184.282 9.88475C184.796 8.87918 185.525 8.14309 186.465 7.67646C187.406 7.20982 188.447 6.9754 189.589 6.9754C191.47 6.9754 192.969 7.52524 194.09 8.62282C195.209 9.7204 195.769 11.346 195.769 13.4952V25.2377H192.41V14.5117C192.41 12.8291 192.074 11.6023 191.403 10.8312C190.752 10.06 189.834 9.67441 188.648 9.67441C187.819 9.67441 187.103 9.89572 186.499 10.3404C185.894 10.7611 185.424 11.3569 185.088 12.1281C184.752 12.8751 184.584 13.7405 184.584 14.722V25.2377H181.225ZM0 77.8162V53.7702H15.0475L14.5773 56.7497H3.52675V64.0756H13.536V66.985H3.52675V74.7666H14.7788L15.2491 77.8162H0ZM25.9154 78.1667C24.6853 78.1667 23.5537 77.8622 22.523 77.2553C21.4943 76.6244 20.6652 75.6539 20.0375 74.346C19.4329 73.014 19.1306 71.2855 19.1306 69.1583V68.7727C19.1306 66.7857 19.4329 65.1031 20.0375 63.7251C20.6421 62.3471 21.4607 61.3065 22.4894 60.6055C23.5432 59.9045 24.7062 59.5539 25.9826 59.5539C27.1246 59.5539 28.1217 59.7751 28.9719 60.2199C29.8242 60.6405 30.4835 61.2255 30.9537 61.9725V52.5785H34.3125V77.8162H31.5918L31.2224 75.2574C30.7312 76.1928 30.0363 76.9158 29.1399 77.4306C28.2456 77.9213 27.1708 78.1667 25.9154 78.1667ZM26.7215 75.6429C27.9538 75.6429 28.9614 75.1763 29.7444 74.2409C30.5506 73.2835 30.9537 71.8112 30.9537 69.8242V67.8613C30.9537 65.8984 30.5506 64.4371 29.7444 63.4798C28.9614 62.5224 27.9538 62.0426 26.7215 62.0426C25.4913 62.0426 24.4711 62.5333 23.665 63.5148C22.8819 64.4722 22.4894 65.9225 22.4894 67.8613V69.7892C22.4894 71.7762 22.8819 73.2484 23.665 74.2058C24.4711 75.1631 25.4913 75.6429 26.7215 75.6429ZM45.9551 78.1667C44.1203 78.1667 42.6424 77.63 41.5214 76.5543C40.4256 75.4786 39.8756 73.8553 39.8756 71.682V59.9044H43.2679V71.016C43.2679 72.5123 43.5933 73.6208 44.242 74.346C44.9137 75.0711 45.8437 75.4326 47.0298 75.4326C47.8149 75.4326 48.5077 75.2333 49.1123 74.8368C49.74 74.4161 50.2207 73.8553 50.5566 73.1542C50.9155 72.4532 51.0941 71.671 51.0941 70.8057V59.9044H54.4528V74.5914C54.4528 74.966 54.5326 75.2332 54.6879 75.3976C54.8454 75.5619 55.0805 75.6429 55.3933 75.6429C55.6179 75.6429 55.8426 75.6189 56.0651 75.5729C56.2897 75.5268 56.5248 75.4085 56.7704 75.2223V77.5007C56.4807 77.711 56.1112 77.8753 55.662 77.9914C55.2379 78.1075 54.8014 78.1667 54.3521 78.1667C53.546 78.1667 52.9309 78.0506 52.5048 77.8162C52.1017 77.5599 51.8224 77.2093 51.665 76.7646C51.5306 76.3199 51.4425 75.8182 51.3963 75.2574C51.0604 75.8883 50.6363 76.425 50.1199 76.8697C49.6056 77.2904 49.0011 77.6059 48.3062 77.8162C47.6135 78.0506 46.8284 78.1667 45.9551 78.1667ZM67.3717 78.1667C66.1394 78.1667 64.9974 77.9805 63.9456 77.6058C62.9149 77.2312 62.0081 76.6354 61.2251 75.8182C60.4421 74.977 59.8249 73.8662 59.3777 72.4882C58.9516 71.1102 58.7395 69.4145 58.7395 67.4056V64.1808C58.7395 62.1719 58.9641 60.4762 59.4113 59.0982C59.8584 57.7202 60.4756 56.6205 61.2587 55.8033C62.0417 54.962 62.9486 54.3552 63.9793 53.9806C65.0311 53.6059 66.152 53.4198 67.3381 53.4198H67.8084C69.5549 53.4198 71.0433 53.7703 72.2756 54.4713C73.5288 55.1723 74.4819 56.2349 75.1305 57.6611C75.7792 59.0631 76.1047 60.8267 76.1047 62.954H72.7122C72.7122 61.4117 72.5443 60.1607 72.2084 59.2034C71.8956 58.2219 71.3582 57.5099 70.5962 57.0652C69.8341 56.5986 68.816 56.3642 67.5397 56.3642C66.8007 56.3642 66.1184 56.4803 65.4908 56.7147C64.8862 56.925 64.3487 57.2996 63.8785 57.8364C63.4083 58.3512 63.0388 59.0631 62.7701 59.9745C62.5014 60.8859 62.3671 62.0317 62.3671 63.4097V68.1418C62.3671 69.5198 62.5014 70.6764 62.7701 71.6119C63.0388 72.5233 63.4083 73.2484 63.8785 73.7852C64.3487 74.3 64.8862 74.6724 65.4908 74.9068C66.1184 75.1171 66.8007 75.2223 67.5397 75.2223C69.4647 75.2223 70.8208 74.7075 71.6038 73.68C72.4099 72.6284 72.8129 70.9569 72.8129 68.6675H76.1047C76.1047 70.7247 75.7792 72.4531 75.1305 73.8552C74.4819 75.2573 73.5414 76.333 72.3091 77.0801C71.0769 77.8052 69.5885 78.1667 67.8419 78.1667H67.3717ZM87.7136 78.1667C86.0552 78.1667 84.634 77.7811 83.4479 77.0099C82.2597 76.2388 81.3528 75.1763 80.7272 73.8202C80.0995 72.4422 79.7867 70.8868 79.7867 69.1583V68.5624C79.7867 66.7856 80.0995 65.2214 80.7272 63.8653C81.3528 62.5092 82.2597 61.4577 83.4479 60.7106C84.634 59.9394 86.0447 59.5539 87.68 59.5539C89.3594 59.5539 90.7911 59.9394 91.9792 60.7106C93.1653 61.4818 94.0723 62.5443 94.6999 63.9004C95.3255 65.2565 95.6404 66.8097 95.6404 68.5624V69.1583C95.6404 70.935 95.3255 72.4991 94.6999 73.8552C94.0723 75.2113 93.1653 76.2739 91.9792 77.045C90.7911 77.7921 89.3699 78.1667 87.7136 78.1667ZM87.7136 75.678C89.0109 75.678 90.0753 75.1872 90.9045 74.2058C91.7316 73.2002 92.1472 71.8113 92.1472 70.0345V67.6861C92.1472 65.9093 91.7316 64.5314 90.9045 63.5499C90.0753 62.5443 89.0109 62.0426 87.7136 62.0426C86.4372 62.0426 85.3728 62.5443 84.5226 63.5499C83.6934 64.5314 83.2799 65.9093 83.2799 67.6861V70.0345C83.2799 71.8113 83.6934 73.2002 84.5226 74.2058C85.3728 75.1872 86.4372 75.678 87.7136 75.678ZM107.115 77.8162V62.6385H100.968V59.9044H110.474V77.8162H107.115ZM100.968 77.8162V75.1172H116.285V77.8162H100.968ZM106.981 56.224V52.8589H110.138V56.224H106.981ZM120.804 77.8162V59.9044H123.525L123.861 62.4633C124.377 61.4577 125.104 60.7216 126.044 60.255C126.985 59.7883 128.026 59.5539 129.168 59.5539C131.049 59.5539 132.55 60.1038 133.669 61.2013C134.79 62.2989 135.348 63.9245 135.348 66.0737V77.8162H131.989V67.0902C131.989 65.4077 131.653 64.1808 130.982 63.4097C130.333 62.6385 129.415 62.2529 128.227 62.2529C127.4 62.2529 126.682 62.4742 126.078 62.919C125.473 63.3396 125.003 63.9354 124.667 64.7066C124.331 65.4536 124.163 66.319 124.163 67.3005V77.8162H120.804ZM281.956 130.395V106.349H297.004L296.534 109.328H285.483V116.654H295.493V119.564H285.483V127.345H296.735L297.206 130.395H281.956ZM301.66 130.395V106.349H309.688C310.964 106.349 312.15 106.524 313.248 106.875C314.346 107.225 315.308 107.797 316.137 108.592C316.966 109.363 317.615 110.391 318.085 111.677C318.555 112.939 318.79 114.481 318.79 116.304V120.44C318.79 122.217 318.555 123.746 318.085 125.032C317.615 126.294 316.966 127.321 316.137 128.116C315.308 128.887 314.346 129.459 313.248 129.834C312.15 130.208 310.964 130.395 309.688 130.395H301.66ZM305.221 127.415H309.453C310.551 127.415 311.525 127.229 312.375 126.854C313.225 126.458 313.897 125.779 314.39 124.821C314.904 123.864 315.163 122.508 315.163 120.755V115.953C315.163 114.246 314.904 112.915 314.39 111.957C313.897 110.976 313.225 110.286 312.375 109.889C311.525 109.493 310.551 109.293 309.453 109.293H305.221V127.415ZM329.19 130.745C327.958 130.745 326.816 130.559 325.764 130.184C324.733 129.81 323.826 129.214 323.043 128.397C322.258 127.555 321.643 126.445 321.196 125.067C320.77 123.689 320.558 121.993 320.558 119.984V116.759C320.558 114.75 320.78 113.055 321.23 111.677C321.677 110.299 322.292 109.199 323.077 108.382C323.86 107.541 324.767 106.934 325.798 106.559C326.849 106.184 327.968 105.998 329.156 105.998H329.627C331.373 105.998 332.862 106.349 334.094 107.05C335.347 107.751 336.298 108.813 336.949 110.24C337.597 111.642 337.923 113.405 337.923 115.533H334.53C334.53 113.99 334.363 112.739 334.027 111.782C333.712 110.8 333.174 110.088 332.414 109.644C331.652 109.177 330.634 108.943 329.358 108.943C328.619 108.943 327.935 109.059 327.309 109.293C326.704 109.504 326.167 109.878 325.697 110.415C325.227 110.93 324.857 111.642 324.588 112.553C324.32 113.464 324.185 114.61 324.185 115.988V120.72C324.185 122.098 324.32 123.255 324.588 124.19C324.857 125.102 325.227 125.827 325.697 126.364C326.167 126.879 326.704 127.251 327.309 127.485C327.935 127.696 328.619 127.801 329.358 127.801C331.283 127.801 332.637 127.286 333.422 126.259C334.228 125.207 334.631 123.535 334.631 121.246H337.923C337.923 123.303 337.597 125.032 336.949 126.434C336.298 127.836 335.358 128.912 334.127 129.659C332.895 130.384 331.407 130.745 329.66 130.745H329.19Z" fill="var(--fill-0, #FC64FF)"/>
</svg>
