<svg preserveAspectRatio="none" width="100%" height="100%" overflow="visible" style="display: block;" viewBox="0 0 253.871 307.421" fill="none" xmlns="http://www.w3.org/2000/svg">
<path id="Vector" d="M124.955 74.0271C125.555 74.3273 126.036 75.0478 126.756 75.0478C127.416 75.0478 128.437 74.8076 128.497 74.1472C128.617 73.3067 127.356 72.7663 126.576 72.4061C125.555 71.9858 124.234 71.8057 123.274 72.3461C123.034 72.4661 122.794 72.7663 122.914 73.0065C123.094 73.787 124.295 73.6669 124.955 74.0271ZM111.807 75.0478C112.527 75.0478 113.007 74.3273 113.608 74.0271C114.268 73.6669 115.469 73.787 115.709 73.0665C115.829 72.8264 115.589 72.5262 115.349 72.4061C114.388 71.8658 113.067 72.0459 112.047 72.4661C111.266 72.8264 110.005 73.3667 110.126 74.2072C110.186 74.8076 111.206 75.1078 111.807 75.0478ZM244.551 242.434C242.389 240.032 241.369 235.47 240.228 230.606C239.147 225.743 237.887 220.52 233.924 217.158C233.144 216.497 232.363 215.897 231.523 215.417C230.742 214.936 229.902 214.516 229.061 214.216C234.584 197.826 232.423 181.495 226.84 166.726C219.995 148.654 208.048 132.864 198.922 122.058C188.655 109.149 178.689 96.9016 178.869 78.8302C179.169 51.2727 181.931 0.0602117 133.36 0.000173615C71.8813 -0.119903 87.251 62.0795 86.5906 81.1717C85.57 95.2206 82.7482 106.268 73.082 120.016C61.7348 133.525 45.7647 155.319 38.1999 178.073C34.5976 188.82 32.9166 199.747 34.4776 210.073C30.5751 213.556 27.6332 218.899 24.5112 222.201C21.9896 224.783 18.3273 225.743 14.3048 227.184C10.2822 228.625 5.89943 230.787 3.19771 235.89C1.93691 238.231 1.51665 240.753 1.51665 243.334C1.51665 245.676 1.87688 248.078 2.2371 250.419C2.95756 255.282 3.73806 259.845 2.71741 262.907C-0.404571 271.552 -0.824838 277.556 1.39657 281.939C3.67802 286.322 8.24091 288.243 13.4642 289.324C23.8508 291.485 37.9598 290.945 49.0668 296.828C60.9543 303.072 73.022 305.294 82.6281 303.072C89.5925 301.511 95.2961 297.309 98.178 290.945C105.683 290.885 113.968 287.703 127.176 286.982C136.122 286.262 147.349 290.164 160.257 289.444C160.618 290.825 161.098 292.205 161.758 293.466V293.526C166.741 303.553 176.047 308.116 185.954 307.335C195.92 306.555 206.427 300.731 214.952 290.584C223.117 280.738 236.566 276.656 245.511 271.252C249.954 268.55 253.556 265.188 253.857 260.265C254.097 255.342 251.215 249.879 244.551 242.434ZM126.696 52.4134C132.58 39.085 147.229 39.3251 153.113 52.1733C157.015 60.6987 155.274 70.725 150.531 76.4286C149.571 75.9483 146.989 74.8677 142.966 73.4868C143.627 72.7663 144.828 71.8658 145.308 70.725C148.19 63.6405 145.188 54.5147 139.844 54.3346C135.462 54.0344 131.499 60.8187 132.76 68.1434C130.298 66.9426 127.116 66.0421 124.955 65.5017C124.355 61.3591 124.775 56.7362 126.696 52.4134ZM102.261 45.509C108.324 45.509 114.748 54.0344 113.728 65.6218C111.626 66.2222 109.465 67.1227 107.604 68.3835C108.324 63.0402 105.623 56.3159 101.84 56.6161C96.7971 57.0363 95.9565 69.3442 100.76 73.4868C101.36 73.9671 101.9 73.3667 97.2173 76.7889C87.8514 68.0233 90.9133 45.509 102.261 45.509ZM94.0954 81.9522C97.8177 79.1904 102.261 75.9483 102.561 75.6482C105.383 73.0065 110.666 67.1227 119.311 67.1227C123.574 67.1227 128.677 68.5036 134.861 72.4661C138.644 74.9277 141.646 75.1078 148.43 78.0497C153.473 80.151 156.655 83.8734 154.734 88.9766C153.173 93.2393 148.13 97.6221 141.105 99.8435C134.441 102.005 129.218 109.45 118.171 108.789C115.829 108.669 113.968 108.189 112.407 107.528C107.604 105.427 105.082 101.284 100.399 98.5227C95.2361 95.6408 92.4743 92.2787 91.5738 89.3368C90.7332 86.395 91.5738 83.9334 94.0954 81.9522ZM96.0766 282.479C94.4556 303.553 69.7199 303.132 50.8679 293.286C32.9166 283.8 9.68183 289.384 4.93882 280.138C3.4979 277.316 3.4979 272.513 6.49981 264.288V264.168C7.94072 259.605 6.86004 254.562 6.13958 249.819C5.41912 245.136 5.05889 240.813 6.67992 237.811C8.78125 233.788 11.7832 232.348 15.5656 231.027C21.7495 228.805 22.6501 228.985 27.333 225.083C30.6351 221.661 33.0366 217.338 35.9185 214.276C38.9804 210.974 41.9223 209.413 46.5452 210.133C51.4083 210.854 55.611 214.216 59.6935 219.74L71.461 241.113C77.1646 253.061 97.3374 270.172 96.0766 282.479ZM95.2361 266.929C92.7745 262.967 89.4724 258.764 86.5906 255.162C90.8533 255.162 95.116 253.841 96.617 249.819C97.9978 246.096 96.617 240.873 92.1741 234.869C84.069 223.942 69.1796 215.357 69.1796 215.357C61.0744 210.314 56.5115 204.13 54.4102 197.405C52.3089 190.681 52.6091 183.416 54.2301 176.272C57.3521 162.523 65.3972 149.135 70.5604 140.729C71.9413 139.709 71.0407 142.651 65.3371 153.217C60.2339 162.883 50.6878 185.218 63.7761 202.689C64.1364 190.261 67.0782 177.593 72.0614 165.765C79.266 149.315 94.4556 120.797 95.6564 98.1024C96.3168 98.5827 98.4181 100.024 99.3787 100.564C102.14 102.185 104.242 104.587 106.944 106.748C114.388 112.752 124.054 112.271 132.4 107.468C136.122 105.367 139.124 102.965 141.946 102.065C147.889 100.204 152.632 96.9016 155.334 93.0592C159.957 111.311 170.764 137.667 177.668 150.516C181.331 157.36 188.655 171.829 191.837 189.3C193.819 189.24 196.04 189.54 198.382 190.141C206.667 168.707 191.357 145.593 184.393 139.168C181.571 136.407 181.451 135.206 182.832 135.266C190.396 141.99 200.363 155.499 203.965 170.688C205.646 177.653 205.946 184.917 204.205 192.122C214.051 196.205 225.759 202.869 222.637 213.015C221.316 212.955 220.716 213.015 220.115 213.015C222.036 206.951 217.774 202.449 206.427 197.345C194.659 192.182 184.813 192.182 183.432 204.85C176.167 207.372 172.445 213.676 170.584 221.24C168.903 227.965 168.422 236.07 167.942 245.196C167.642 249.819 165.781 256.003 163.86 262.607C144.587 276.355 117.81 282.359 95.2361 266.929ZM249.774 260.025C249.234 270.111 225.038 271.973 211.83 287.943C203.905 297.369 194.179 302.592 185.653 303.252C177.128 303.913 169.743 300.371 165.421 291.665C162.599 285.001 163.98 277.796 166.081 269.871C168.302 261.346 171.605 252.58 172.025 245.496C172.505 236.37 173.045 228.385 174.546 222.261C176.107 216.077 178.509 211.935 182.772 209.593C182.952 209.473 183.192 209.413 183.372 209.293C183.852 217.218 187.755 225.263 194.659 227.004C202.224 228.985 213.091 222.501 217.714 217.218C223.117 217.038 227.14 216.678 231.282 220.28C237.226 225.383 235.545 238.471 241.549 245.256C247.913 252.22 249.954 256.963 249.774 260.025ZM96.4368 89.2768C97.6376 90.4175 99.2586 91.9785 101.24 93.5395C105.202 96.6615 110.726 99.9035 117.63 99.9035C124.595 99.9035 131.139 96.3613 136.722 93.4194C139.664 91.8584 143.267 89.2168 145.608 87.1755C147.95 85.1342 149.15 83.3931 147.469 83.213C145.788 83.0328 145.908 84.7739 143.867 86.2749C141.225 88.1961 138.043 90.7177 135.522 92.1586C131.079 94.6802 123.814 98.2825 117.57 98.2825C111.326 98.2825 106.343 95.4007 102.621 92.4588C100.76 90.9579 99.1986 89.4569 97.9978 88.3162C97.0973 87.4757 96.8571 85.5544 95.4162 85.3743C94.5757 85.3143 94.3355 87.5957 96.4368 89.2768Z" fill="var(--fill-0, #A2A3BD)"/>
</svg>
