<svg preserveAspectRatio="none" width="100%" height="100%" overflow="visible" style="display: block;" viewBox="0 0 1058.09 293.669" fill="none" xmlns="http://www.w3.org/2000/svg">
<path id="Vector" d="M0.873263 31.6172V7.36099H3.59395L3.96341 9.91981C4.45674 8.96179 5.14951 8.23731 6.04589 7.74658C6.96327 7.25584 8.05063 7.01048 9.30389 7.01048C10.6033 7.01048 11.7559 7.33756 12.7635 7.99194C13.7942 8.62288 14.6004 9.60435 15.1819 10.9363C15.7865 12.2683 16.0888 13.9975 16.0888 16.1241V16.5798C16.0888 18.5427 15.776 20.2018 15.1483 21.5572C14.5206 22.8892 13.6809 23.9057 12.6292 24.6068C11.5984 25.2844 10.4459 25.6233 9.16955 25.6233C8.02755 25.6233 7.03044 25.4014 6.18024 24.9573C5.35103 24.5132 4.70234 23.9642 4.2321 23.3098V31.6172H0.873263ZM8.49783 23.0995C9.7301 23.0995 10.7378 22.6322 11.5208 21.6974C12.3038 20.7626 12.6964 19.3139 12.6964 17.3509V15.3179C12.6964 13.8923 12.5053 12.7591 12.1254 11.9178C11.7454 11.0765 11.2289 10.469 10.5802 10.0951C9.95257 9.69789 9.25987 9.4992 8.49783 9.4992C7.75889 9.4992 7.06403 9.68606 6.41535 10.06C5.76668 10.4106 5.23974 11.0181 4.83668 11.8828C4.43362 12.724 4.2321 13.8691 4.2321 15.3179V17.3509C4.2321 19.3139 4.63514 20.7626 5.44125 21.6974C6.24737 22.6322 7.26557 23.0995 8.49783 23.0995ZM23.8351 25.2727V10.0951H19.5021V7.36099H26.5557L26.7236 9.98993C27.1267 9.05513 27.7418 8.33085 28.571 7.81667C29.4212 7.27928 30.3952 7.01048 31.4931 7.01048C33.1726 7.01048 34.4594 7.53627 35.3558 8.58784C36.2732 9.61597 36.7329 10.9363 36.7329 12.5487C36.7329 12.8057 36.7203 13.0511 36.6993 13.2848C36.6993 13.4952 36.6762 13.7521 36.6321 14.056H33.7772V13.3199C33.7772 12.689 33.6533 12.1047 33.4077 11.5673C33.1831 11.0299 32.8241 10.5974 32.3328 10.2703C31.8626 9.91982 31.2455 9.74456 30.4855 9.74456C29.7466 9.74456 29.1189 9.96649 28.6045 10.4106C28.1112 10.8546 27.7418 11.4155 27.4962 12.0931C27.2484 12.7707 27.1267 13.4835 27.1267 14.2313V25.2727H23.8351ZM19.3342 25.2727V22.5737H34.8184V25.2727H19.3342ZM45.8563 25.6233C44.0867 25.6233 42.72 25.191 41.7586 24.3263C40.8181 23.4616 40.3479 22.1881 40.3479 20.5056C40.3479 19.1035 40.7047 17.9819 41.4227 17.1406C42.1616 16.2759 43.3372 15.645 44.9494 15.2478C46.5827 14.8506 48.7323 14.6519 51.3984 14.6519V12.6889C51.3984 11.5673 51.1171 10.7495 50.5587 10.2353C50.0213 9.72112 49.1018 9.46413 47.8045 9.46413C46.6163 9.46413 45.6989 9.72112 45.0502 10.2353C44.3994 10.7495 44.0762 11.4737 44.0762 12.4085V12.8292H40.986C40.9398 12.4552 40.9062 12.2098 40.8853 12.0931C40.8853 11.9763 40.8853 11.9294 40.8853 11.9529C40.8853 11.9763 40.8853 12.0114 40.8853 12.058C40.9062 12.1047 40.9189 12.1047 40.9189 12.058C40.9189 10.5157 41.5445 9.28888 42.7998 8.37752C44.0762 7.46616 45.7765 7.01048 47.9052 7.01048C50.1661 7.01048 51.8686 7.46616 53.0106 8.37752C54.1736 9.28888 54.7572 10.6794 54.7572 12.5487V22.0479C54.7572 22.4219 54.8454 22.6905 55.0259 22.8541C55.2044 23.0178 55.4395 23.0995 55.7313 23.0995C56.2456 23.0995 56.6927 22.9593 57.0727 22.6789V24.9573C56.783 25.1676 56.424 25.3312 56 25.448C55.5738 25.5648 55.1267 25.6233 54.6564 25.6233C53.9847 25.6233 53.4347 25.5297 53.0106 25.3428C52.5845 25.1792 52.2717 24.8872 52.0701 24.4666C51.8686 24.0459 51.7343 23.4616 51.6671 22.7139C51.285 23.4384 50.7938 24.0225 50.1892 24.4666C49.5846 24.8872 48.9129 25.1792 48.1739 25.3428C47.435 25.5297 46.6625 25.6233 45.8563 25.6233ZM46.8976 23.1346C47.9262 23.1346 48.7659 22.9008 49.4167 22.4335C50.0884 21.9662 50.5797 21.3353 50.8946 20.5407C51.2304 19.7461 51.3984 18.8582 51.3984 17.8767V16.7901C49.4712 16.7901 47.9388 16.9069 46.7968 17.1406C45.6758 17.3509 44.8697 17.713 44.3784 18.2272C43.9082 18.718 43.6731 19.419 43.6731 20.3304C43.6731 21.2652 43.9292 21.9662 44.4456 22.4335C44.983 22.9008 45.7997 23.1346 46.8976 23.1346ZM64.4495 31.8626C63.0178 31.8626 61.9094 31.4536 61.1243 30.6358C60.3413 29.8179 59.9487 28.813 59.9487 27.6213C59.9487 26.7333 60.1838 25.9387 60.6541 25.2377C61.1243 24.5367 61.7289 24.0225 62.4678 23.6954C61.9766 23.3683 61.584 22.9359 61.2922 22.3985C61.0235 21.8611 60.8892 21.2884 60.8892 20.6809C60.8892 19.8631 61.1474 19.127 61.6617 18.4726C62.1781 17.8182 62.8834 17.3976 63.7777 17.2107C62.9716 16.72 62.3671 16.089 61.964 15.3179C61.5609 14.5467 61.3594 13.6588 61.3594 12.6539C61.3594 10.9013 61.9535 9.52263 63.1396 8.51772C64.3488 7.51281 66.129 7.01048 68.4801 7.01048C69.8698 7.01048 70.9887 7.20917 71.8389 7.60636C72.7353 7.34938 73.4071 6.91693 73.8542 6.30943C74.3245 5.67849 74.5932 4.95399 74.6604 4.13618H77.381C77.381 5.30452 77.0577 6.29781 76.407 7.11563C75.7814 7.91022 74.9521 8.42418 73.9214 8.65794V8.72804C74.4588 9.17211 74.8619 9.74456 75.1306 10.4456C75.4224 11.1232 75.5672 11.8593 75.5672 12.6539C75.5672 14.3831 74.9962 15.7619 73.8542 16.7901C72.7353 17.8182 71.1126 18.3324 68.9839 18.3324H66.2297C65.5579 18.3324 65.0206 18.496 64.6175 18.8231C64.2375 19.1502 64.0465 19.6059 64.0465 20.1902C64.0465 20.7744 64.2375 21.2301 64.6175 21.5572C64.9996 21.8611 65.5243 22.0129 66.1961 22.0129H72.2756C73.8668 22.0129 75.1096 22.4451 76.0039 23.3098C76.9233 24.1511 77.381 25.2727 77.381 26.6748C77.381 28.1937 76.9233 29.4324 76.0039 30.3904C75.1096 31.3719 73.8332 31.8626 72.1748 31.8626H64.4495ZM65.39 29.5491H71.7382C72.5674 29.5491 73.1951 29.3154 73.6191 28.8481C74.0453 28.404 74.2573 27.8432 74.2573 27.1656C74.2573 26.5112 74.0453 25.9622 73.6191 25.5181C73.2161 25.074 72.5905 24.8521 71.7382 24.8521H65.39C64.5839 24.8521 63.9688 25.074 63.5426 25.5181C63.1186 25.9854 62.9045 26.5462 62.9045 27.2006C62.9045 27.8316 63.1186 28.3808 63.5426 28.8481C63.9688 29.3154 64.5839 29.5491 65.39 29.5491ZM68.5137 16.089C69.746 16.089 70.7095 15.797 71.4023 15.2127C72.0972 14.6052 72.4435 13.764 72.4435 12.6889C72.4435 11.5907 72.0972 10.7495 71.4023 10.1652C70.7095 9.5809 69.746 9.28888 68.5137 9.28888C67.3045 9.28888 66.343 9.5809 65.6251 10.1652C64.9323 10.7495 64.5839 11.5907 64.5839 12.6889C64.5839 13.764 64.9323 14.6052 65.6251 15.2127C66.343 15.797 67.3045 16.089 68.5137 16.089ZM80.1562 25.2727V7.36099H82.1379L82.4738 9.35898C82.8097 8.58783 83.2799 8.00355 83.8845 7.60636C84.5122 7.20917 85.184 7.01048 85.8998 7.01048C86.6619 7.01048 87.3336 7.2208 87.9151 7.64143C88.5197 8.06205 88.9668 8.68138 89.2586 9.4992C89.6617 8.68138 90.155 8.06205 90.7365 7.64143C91.3411 7.2208 92.08 7.01048 92.9533 7.01048C94.1856 7.01048 95.1261 7.41949 95.7747 8.23731C96.4465 9.05512 96.7824 10.2237 96.7824 11.7425V25.2727H93.8938V12.3735C93.8938 10.6209 93.2661 9.74456 92.0129 9.74456C91.4083 9.74456 90.9045 9.98993 90.5014 10.4807C90.0983 10.9714 89.8968 11.6023 89.8968 12.3735V25.2727H87.0418V12.3735C87.0418 10.6209 86.3932 9.74456 85.0937 9.74456C84.4891 9.74456 83.9853 9.98993 83.5822 10.4807C83.2023 10.9714 83.0112 11.6023 83.0112 12.3735V25.2727H80.1562ZM106.275 25.6233C104.506 25.6233 103.139 25.191 102.178 24.3263C101.237 23.4616 100.767 22.1881 100.767 20.5056C100.767 19.1035 101.124 17.9819 101.842 17.1406C102.581 16.2759 103.756 15.645 105.368 15.2478C107.002 14.8506 109.151 14.6519 111.817 14.6519V12.6889C111.817 11.5673 111.536 10.7495 110.978 10.2353C110.44 9.72112 109.521 9.46413 108.223 9.46413C107.035 9.46413 106.118 9.72112 105.469 10.2353C104.818 10.7495 104.495 11.4737 104.495 12.4085V12.8292H101.405C101.359 12.4552 101.325 12.2098 101.304 12.0931C101.304 11.9763 101.304 11.9294 101.304 11.9529C101.304 11.9763 101.304 12.0114 101.304 12.058C101.325 12.1047 101.338 12.1047 101.338 12.058C101.338 10.5157 101.963 9.28888 103.219 8.37752C104.495 7.46616 106.195 7.01048 108.324 7.01048C110.585 7.01048 112.288 7.46616 113.43 8.37752C114.593 9.28888 115.176 10.6794 115.176 12.5487V22.0479C115.176 22.4219 115.264 22.6905 115.445 22.8541C115.623 23.0178 115.858 23.0995 116.15 23.0995C116.665 23.0995 117.112 22.9593 117.494 22.6789V24.9573C117.202 25.1676 116.843 25.3312 116.419 25.448C115.993 25.5648 115.546 25.6233 115.075 25.6233C114.404 25.6233 113.854 25.5297 113.43 25.3428C113.003 25.1792 112.691 24.8872 112.489 24.4666C112.288 24.0459 112.153 23.4616 112.086 22.7139C111.704 23.4384 111.213 24.0225 110.608 24.4666C110.004 24.8872 109.332 25.1792 108.593 25.3428C107.854 25.5297 107.081 25.6233 106.275 25.6233ZM107.317 23.1346C108.345 23.1346 109.185 22.9008 109.836 22.4335C110.507 21.9662 110.999 21.3353 111.314 20.5407C111.649 19.7461 111.817 18.8582 111.817 17.8767V16.7901C109.89 16.7901 108.358 16.9069 107.216 17.1406C106.095 17.3509 105.289 17.713 104.797 18.2272C104.327 18.718 104.092 19.419 104.092 20.3304C104.092 21.2652 104.348 21.9662 104.865 22.4335C105.402 22.9008 106.219 23.1346 107.317 23.1346ZM148.636 25.6233C147.226 25.6233 145.972 25.4246 144.874 25.0274C143.8 24.6068 142.949 24.0109 142.322 23.2397C141.717 22.4451 141.415 21.5105 141.415 20.4355C141.415 20.3654 141.415 20.2603 141.415 20.1201C141.415 19.9798 141.427 19.828 141.448 19.6644H144.337V20.0149C144.337 20.9964 144.74 21.7675 145.546 22.3283C146.375 22.8657 147.551 23.1346 149.073 23.1346C150.44 23.1346 151.47 22.8892 152.163 22.3985C152.881 21.8843 153.238 21.2183 153.238 20.4005C153.238 19.8631 153.093 19.419 152.801 19.0685C152.512 18.718 151.985 18.4141 151.223 18.1571C150.484 17.9001 149.409 17.6548 147.998 17.421C146.499 17.1406 145.29 16.8017 144.371 16.4045C143.453 15.9839 142.792 15.4465 142.389 14.7921C141.986 14.1145 141.784 13.2732 141.784 12.2683C141.784 11.1 142.087 10.1301 142.691 9.35898C143.296 8.58783 144.136 8.00355 145.21 7.60636C146.308 7.20917 147.585 7.01048 149.039 7.01048C150.316 7.01048 151.458 7.20917 152.465 7.60636C153.496 8.00355 154.313 8.5644 154.917 9.28888C155.522 9.98993 155.824 10.8428 155.824 11.8477C155.824 11.9178 155.824 11.9995 155.824 12.0931C155.824 12.1866 155.803 12.315 155.757 12.4786H152.835C152.835 11.6374 152.646 11.0064 152.264 10.5858C151.907 10.1417 151.414 9.84972 150.786 9.70951C150.181 9.54586 149.51 9.46413 148.771 9.46413C146.174 9.46413 144.874 10.3054 144.874 11.9879C144.874 12.432 145.009 12.8057 145.277 13.1096C145.546 13.39 146.029 13.647 146.722 13.8807C147.44 14.1145 148.458 14.3599 149.778 14.6168C151.414 14.9207 152.701 15.2944 153.641 15.7385C154.605 16.1826 155.299 16.755 155.723 17.4561C156.15 18.1337 156.362 19.0218 156.362 20.1201C156.362 21.3585 156.049 22.3868 155.421 23.2047C154.817 24.0225 153.933 24.6302 152.768 25.0274C151.626 25.4246 150.249 25.6233 148.636 25.6233ZM169.012 25.6233C167.355 25.6233 165.932 25.2377 164.746 24.4666C163.56 23.6954 162.653 22.6322 162.025 21.2768C161.398 19.8981 161.085 18.344 161.085 16.6148V16.0189C161.085 14.2429 161.398 12.6774 162.025 11.3219C162.653 9.96649 163.56 8.91492 164.746 8.16721C165.932 7.39605 167.343 7.01048 168.978 7.01048C170.658 7.01048 172.091 7.39605 173.278 8.16721C174.464 8.93836 175.37 10.0015 175.998 11.357C176.626 12.7124 176.939 14.2663 176.939 16.0189V16.6148C176.939 18.3909 176.626 19.9564 175.998 21.3118C175.37 22.6673 174.464 23.7305 173.278 24.5016C172.091 25.2493 170.668 25.6233 169.012 25.6233ZM169.012 23.1346C170.311 23.1346 171.374 22.6438 172.203 21.6624C173.032 20.6574 173.445 19.2672 173.445 17.4911V15.1426C173.445 13.3666 173.032 11.9879 172.203 11.0064C171.374 10.0015 170.311 9.4992 169.012 9.4992C167.735 9.4992 166.671 10.0015 165.821 11.0064C164.992 11.9879 164.578 13.3666 164.578 15.1426V17.4911C164.578 19.2672 164.992 20.6574 165.821 21.6624C166.671 22.6438 167.735 23.1346 169.012 23.1346ZM187.741 25.2727V2.73409H181.561V0H191.067V25.2727H187.741ZM181.561 25.2727V22.5737H196.911V25.2727H181.561ZM208.554 25.2727V10.0951H202.407V7.36099H211.912V25.2727H208.554ZM202.407 25.2727V22.5737H217.721V25.2727H202.407ZM208.419 3.6805V0.315482H211.576V3.6805H208.419ZM228.054 25.6233C226.823 25.6233 225.692 25.3194 224.661 24.7119C223.633 24.081 222.803 23.1111 222.176 21.8026C221.571 20.4706 221.269 18.7414 221.269 16.6148V16.2292C221.269 14.2429 221.571 12.5604 222.176 11.1817C222.78 9.80305 223.599 8.76309 224.628 8.06204C225.681 7.36099 226.844 7.01048 228.121 7.01048C229.263 7.01048 230.26 7.23241 231.11 7.67648C231.963 8.0971 232.622 8.68137 233.092 9.42908V0.0350665H236.451V25.2727H233.73L233.361 22.7139C232.869 23.6487 232.175 24.373 231.278 24.8872C230.384 25.3779 229.309 25.6233 228.054 25.6233ZM228.86 23.0995C230.092 23.0995 231.1 22.6322 231.883 21.6974C232.689 20.7394 233.092 19.2672 233.092 17.2808V15.3179C233.092 13.355 232.689 11.8944 231.883 10.9363C231.1 9.97832 230.092 9.4992 228.86 9.4992C227.63 9.4992 226.609 9.98993 225.803 10.9714C225.02 11.9294 224.628 13.3784 224.628 15.3179V17.2458C224.628 19.2321 225.02 20.7043 225.803 21.6624C226.609 22.6204 227.63 23.0995 228.86 23.0995ZM248.832 25.2727V10.0951H242.686V7.36099H252.191V25.2727H248.832ZM242.686 25.2727V22.5737H258.002V25.2727H242.686ZM248.698 3.6805V0.315482H251.855V3.6805H248.698ZM272.835 25.6233C270.82 25.6233 269.218 25.1676 268.032 24.2562C266.844 23.3214 266.252 21.8026 266.252 19.6994V10.0951H261.281V7.36099H266.353L267.528 1.64747H269.611V7.36099H277.37V10.0951H269.611V19.419C269.611 20.2136 269.766 20.8678 270.081 21.3819C270.394 21.8961 270.853 22.2699 271.458 22.5036C272.063 22.7374 272.823 22.8541 273.742 22.8541C274.458 22.8541 275.119 22.7606 275.724 22.5737C276.349 22.3634 276.899 22.1415 277.37 21.9077V24.6068C276.832 24.9338 276.148 25.1792 275.321 25.3428C274.492 25.5297 273.662 25.6233 272.835 25.6233ZM285.284 31.7925C284.814 31.7925 284.364 31.7458 283.94 31.6523C283.537 31.5822 283.145 31.4654 282.765 31.3017V28.7079C283.01 28.8246 283.323 28.9298 283.705 29.0233C284.085 29.1401 284.455 29.1986 284.814 29.1986C285.439 29.1986 285.932 29.0468 286.291 28.7429C286.648 28.4625 286.963 28.0068 287.232 27.3759C287.522 26.7684 287.858 25.9503 288.24 24.9222L281.589 7.36099H285.183L289.953 20.6108H290.154L294.823 7.36099H298.115L291.666 24.5367C291.172 25.8686 290.645 27.0839 290.087 28.1821C289.55 29.2803 288.899 30.1566 288.139 30.811C287.377 31.4654 286.426 31.7925 285.284 31.7925ZM7.15427 112.904V97.7259H1.00761V94.9919H10.5131V112.904H7.15427ZM1.00761 112.904V110.205H16.3239V112.904H1.00761ZM7.01993 91.3114V87.9463H10.1772V91.3114H7.01993ZM19.7372 112.904V94.9919H21.719L22.0548 96.9898C22.3907 96.2187 22.861 95.6338 23.4655 95.2372C24.0911 94.8407 24.7629 94.6413 25.4809 94.6413C26.2408 94.6413 26.9126 94.8517 27.4962 95.2723C28.1007 95.6929 28.5479 96.3129 28.8397 97.1301C29.2428 96.3129 29.734 95.6929 30.3176 95.2723C30.9221 94.8517 31.6611 94.6413 32.5344 94.6413C33.7646 94.6413 34.705 95.051 35.3558 95.8682C36.0275 96.6853 36.3635 97.8552 36.3635 99.3734V112.904H33.4748V100.004C33.4748 98.2517 32.8472 97.3754 31.5939 97.3754C30.9893 97.3754 30.4855 97.6208 30.0824 98.1115C29.6794 98.6023 29.4779 99.2332 29.4779 100.004V112.904H26.6228V100.004C26.6228 98.2517 25.9721 97.3754 24.6748 97.3754C24.0702 97.3754 23.5663 97.6208 23.1633 98.1115C22.7812 98.6023 22.5923 99.2332 22.5923 100.004V112.904H19.7372ZM41.154 119.248V94.9919H43.8746L44.2441 97.5507C44.7353 96.5933 45.4302 95.8682 46.3266 95.3774C47.2439 94.8867 48.3293 94.6413 49.5846 94.6413C50.882 94.6413 52.0366 94.9678 53.0442 95.6228C54.0729 96.2537 54.879 97.2352 55.4625 98.5672C56.0671 99.8992 56.3694 101.628 56.3694 103.755V104.211C56.3694 106.174 56.0546 107.832 55.429 109.188C54.8013 110.52 53.9616 111.537 52.9098 112.238C51.8791 112.915 50.7266 113.254 49.4503 113.254C48.3083 113.254 47.3111 113.033 46.4609 112.588C45.6317 112.143 44.983 111.596 44.5128 110.941V119.248H41.154ZM48.7785 110.73C50.0087 110.73 51.0163 110.264 51.8015 109.328C52.5845 108.393 52.977 106.945 52.977 104.982V102.949C52.977 101.523 52.786 100.39 52.406 99.5487C52.024 98.7074 51.5097 98.1006 50.861 97.7259C50.2333 97.3294 49.5384 97.1301 48.7785 97.1301C48.0396 97.1301 47.3447 97.3163 46.696 97.6909C46.0453 98.0414 45.5205 98.6483 45.1174 99.5136C44.7144 100.355 44.5128 101.501 44.5128 102.949V104.982C44.5128 106.945 44.9159 108.393 45.722 109.328C46.5281 110.264 47.5462 110.73 48.7785 110.73ZM68.3122 113.254C66.6558 113.254 65.2347 112.869 64.0465 112.097C62.8604 111.326 61.9535 110.264 61.3258 108.908C60.7002 107.53 60.3853 105.974 60.3853 104.246V103.65C60.3853 101.873 60.7002 100.309 61.3258 98.9528C61.9535 97.5967 62.8604 96.5451 64.0465 95.7981C65.2347 95.0269 66.6454 94.6413 68.2786 94.6413C69.958 94.6413 71.3918 95.0269 72.5779 95.7981C73.7661 96.5692 74.6729 97.6317 75.2985 98.9878C75.9262 100.344 76.239 101.897 76.239 103.65V104.246C76.239 106.022 75.9262 107.587 75.2985 108.943C74.6729 110.299 73.7661 111.361 72.5779 112.132C71.3918 112.88 69.9706 113.254 68.3122 113.254ZM68.3122 110.765C69.6116 110.765 70.676 110.275 71.5031 109.293C72.3323 108.288 72.7458 106.899 72.7458 105.122V102.773C72.7458 100.997 72.3323 99.6188 71.5031 98.6373C70.676 97.6317 69.6116 97.1301 68.3122 97.1301C67.0358 97.1301 65.9736 97.6317 65.1213 98.6373C64.2942 99.6188 63.8785 100.997 63.8785 102.773V105.122C63.8785 106.899 64.2942 108.288 65.1213 109.293C65.9736 110.275 67.0358 110.765 68.3122 110.765ZM84.254 112.904V97.7259H79.9211V94.9919H86.9747L87.1426 97.6208C87.5456 96.6853 88.1607 95.9624 88.9899 95.4475C89.8401 94.9108 90.8142 94.6413 91.9121 94.6413C93.5915 94.6413 94.8784 95.1671 95.7747 96.2187C96.6921 97.2462 97.1519 98.5672 97.1519 100.18C97.1519 100.436 97.1414 100.681 97.1183 100.916C97.1183 101.126 97.0952 101.382 97.0511 101.687H94.1961V100.951C94.1961 100.32 94.0722 99.7349 93.8266 99.1982C93.602 98.6614 93.2451 98.2276 92.7518 97.9012C92.2816 97.5507 91.6665 97.3754 90.9044 97.3754C90.1655 97.3754 89.5378 97.5967 89.0235 98.0414C88.5302 98.4862 88.1607 99.047 87.9151 99.7239C87.6695 100.401 87.5457 101.115 87.5457 101.862V112.904H84.254ZM79.7532 112.904V110.205H95.2374V112.904H79.7532ZM111.717 113.254C109.701 113.254 108.1 112.798 106.913 111.887C105.725 110.952 105.133 109.433 105.133 107.33V97.7259H100.162V94.9919H105.234L106.41 89.2783H108.492V94.9919H116.251V97.7259H108.492V107.05C108.492 107.845 108.647 108.498 108.962 109.013C109.275 109.528 109.735 109.9 110.339 110.134C110.944 110.369 111.704 110.485 112.623 110.485C113.339 110.485 114.001 110.391 114.605 110.205C115.231 109.994 115.781 109.773 116.251 109.539V112.238C115.714 112.564 115.029 112.809 114.202 112.974C113.373 113.16 112.544 113.254 111.717 113.254ZM7.55737 200.885C6.50564 200.885 5.50846 200.675 4.56799 200.254C3.65061 199.833 2.84448 199.238 2.14962 198.466C1.47785 197.671 0.950974 196.738 0.571007 195.662C0.19104 194.565 0 193.338 0 191.982V191.14C0 189.784 0.19104 188.571 0.571007 187.495C0.950974 186.397 1.47785 185.462 2.14962 184.691C2.84448 183.896 3.65061 183.3 4.56799 182.903C5.48537 182.483 6.49302 182.272 7.59094 182.272H7.99397C9.38158 182.272 10.6034 182.577 11.6551 183.184C12.7069 183.769 13.536 184.61 14.1406 185.707C14.7452 186.783 15.0475 188.091 15.0475 189.633H12.0246C12.0246 188.487 11.8461 187.565 11.4871 186.864C11.1282 186.139 10.637 185.613 10.0093 185.287C9.40472 184.936 8.68883 184.761 7.85962 184.761C6.65045 184.761 5.61974 185.228 4.76954 186.163C3.94033 187.074 3.52675 188.487 3.52675 190.404V192.753C3.52675 194.6 3.92979 196.002 4.7359 196.959C5.56511 197.916 6.63996 198.396 7.9604 198.396C8.76651 198.396 9.47186 198.232 10.0764 197.906C10.7041 197.555 11.1849 197.029 11.5208 196.328C11.8798 195.603 12.0582 194.67 12.0582 193.524H15.0475C15.0475 195.09 14.7347 196.422 14.1071 197.52C13.5025 198.618 12.6627 199.459 11.5879 200.044C10.5362 200.605 9.32702 200.885 7.9604 200.885H7.55737ZM28.0336 200.885C26.3752 200.885 24.9539 200.499 23.7679 199.728C22.5797 198.957 21.6728 197.895 21.0472 196.538C20.4196 195.161 20.1068 193.605 20.1068 191.877V191.281C20.1068 189.504 20.4196 187.94 21.0472 186.584C21.6728 185.228 22.5797 184.176 23.7679 183.429C24.9539 182.658 26.3646 182.272 28 182.272C29.6794 182.272 31.1111 182.658 32.2993 183.429C33.4853 184.2 34.3922 185.263 35.0199 186.619C35.6455 187.975 35.9604 189.528 35.9604 191.281V191.877C35.9604 193.653 35.6455 195.217 35.0199 196.574C34.3922 197.93 33.4853 198.992 32.2993 199.763C31.1111 200.51 29.6899 200.885 28.0336 200.885ZM28.0336 198.396C29.3309 198.396 30.3952 197.906 31.2245 196.924C32.0516 195.919 32.4672 194.53 32.4672 192.753V190.404C32.4672 188.628 32.0516 187.25 31.2245 186.268C30.3952 185.263 29.3309 184.761 28.0336 184.761C26.7572 184.761 25.6929 185.263 24.8427 186.268C24.0135 187.25 23.5999 188.628 23.5999 190.404V192.753C23.5999 194.53 24.0135 195.919 24.8427 196.924C25.6929 197.906 26.7572 198.396 28.0336 198.396ZM40.986 200.534V182.623H43.7067L44.0425 185.182C44.5569 184.176 45.2853 183.44 46.2258 182.973C47.1663 182.507 48.2075 182.272 49.3495 182.272C51.2305 182.272 52.7293 182.822 53.8503 183.92C54.9692 185.017 55.5298 186.643 55.5298 188.792V200.534H52.1709V189.808C52.1709 188.126 51.835 186.899 51.1632 186.128C50.5125 185.357 49.5951 184.971 48.409 184.971C47.5798 184.971 46.864 185.192 46.2594 185.637C45.6548 186.058 45.1845 186.654 44.8487 187.425C44.5128 188.172 44.3449 189.037 44.3449 190.019V200.534H40.986ZM71.4359 200.885C69.4206 200.885 67.821 200.429 66.6328 199.518C65.4467 198.582 64.8526 197.064 64.8526 194.961V185.357H59.8815V182.623H64.9533L66.1289 176.909H68.2114V182.623H75.9703V185.357H68.2114V194.681C68.2114 195.476 68.3688 196.129 68.6816 196.644C68.9965 197.158 69.4542 197.531 70.0587 197.765C70.6633 198 71.4254 198.116 72.3428 198.116C73.0607 198.116 73.7199 198.022 74.3245 197.835C74.9522 197.625 75.5001 197.404 75.9703 197.169V199.868C75.4329 200.195 74.7506 200.44 73.9214 200.605C73.0943 200.791 72.2651 200.885 71.4359 200.885ZM84.254 200.534V185.357H79.9211V182.623H86.9747L87.1426 185.252C87.5456 184.316 88.1607 183.593 88.9899 183.078C89.8401 182.542 90.8142 182.272 91.9121 182.272C93.5915 182.272 94.8784 182.798 95.7747 183.85C96.6921 184.877 97.1519 186.198 97.1519 187.81C97.1519 188.067 97.1414 188.312 97.1183 188.547C97.1183 188.757 97.0952 189.013 97.0511 189.318H94.1961V188.582C94.1961 187.951 94.0722 187.366 93.8266 186.829C93.602 186.292 93.2451 185.858 92.7518 185.532C92.2816 185.182 91.6665 185.006 90.9044 185.006C90.1655 185.006 89.5378 185.228 89.0235 185.672C88.5302 186.117 88.1607 186.678 87.9151 187.355C87.6695 188.032 87.5457 188.746 87.5457 189.493V200.534H84.254ZM79.7532 200.534V197.835H95.2374V200.534H79.7532ZM106.275 200.885C104.506 200.885 103.139 200.453 102.178 199.588C101.237 198.723 100.767 197.45 100.767 195.767C100.767 194.365 101.124 193.244 101.842 192.402C102.581 191.537 103.756 190.906 105.368 190.509C107.002 190.113 109.151 189.914 111.817 189.914V187.951C111.817 186.829 111.536 186.012 110.978 185.497C110.44 184.982 109.521 184.726 108.223 184.726C107.035 184.726 106.118 184.982 105.469 185.497C104.818 186.012 104.495 186.735 104.495 187.67V188.091H101.405C101.359 187.716 101.325 187.471 101.304 187.355C101.304 187.239 101.304 187.19 101.304 187.215C101.304 187.239 101.304 187.274 101.304 187.32C101.325 187.366 101.338 187.366 101.338 187.32C101.338 185.777 101.963 184.551 103.219 183.639C104.495 182.728 106.195 182.272 108.324 182.272C110.585 182.272 112.288 182.728 113.43 183.639C114.593 184.551 115.176 185.942 115.176 187.81V197.31C115.176 197.684 115.264 197.952 115.445 198.116C115.623 198.28 115.858 198.361 116.15 198.361C116.665 198.361 117.112 198.221 117.494 197.941V200.219C117.202 200.429 116.843 200.594 116.419 200.71C115.993 200.826 115.546 200.885 115.075 200.885C114.404 200.885 113.854 200.791 113.43 200.605C113.003 200.44 112.691 200.149 112.489 199.728C112.288 199.308 112.153 198.723 112.086 197.976C111.704 198.701 111.213 199.284 110.608 199.728C110.004 200.149 109.332 200.44 108.593 200.605C107.854 200.791 107.081 200.885 106.275 200.885ZM107.317 198.396C108.345 198.396 109.185 198.162 109.836 197.695C110.507 197.229 110.999 196.598 111.314 195.802C111.649 195.007 111.817 194.12 111.817 193.138V192.052C109.89 192.052 108.358 192.168 107.216 192.402C106.095 192.613 105.289 192.974 104.797 193.489C104.327 193.98 104.092 194.681 104.092 195.592C104.092 196.528 104.348 197.229 104.865 197.695C105.402 198.162 106.219 198.396 107.317 198.396ZM128.397 200.885C127.344 200.885 126.348 200.675 125.408 200.254C124.488 199.833 123.682 199.238 122.99 198.466C122.318 197.671 121.791 196.738 121.411 195.662C121.029 194.565 120.84 193.338 120.84 191.982V191.14C120.84 189.784 121.029 188.571 121.411 187.495C121.791 186.397 122.318 185.462 122.99 184.691C123.682 183.896 124.488 183.3 125.408 182.903C126.325 182.483 127.333 182.272 128.431 182.272H128.834C130.222 182.272 131.441 182.577 132.495 183.184C133.547 183.769 134.376 184.61 134.981 185.707C135.585 186.783 135.888 188.091 135.888 189.633H132.865C132.865 188.487 132.684 187.565 132.327 186.864C131.968 186.139 131.475 185.613 130.849 185.287C130.245 184.936 129.527 184.761 128.7 184.761C127.49 184.761 126.46 185.228 125.61 186.163C124.78 187.074 124.367 188.487 124.367 190.404V192.753C124.367 194.6 124.77 196.002 125.576 196.959C126.403 197.916 127.478 198.396 128.8 198.396C129.606 198.396 130.312 198.232 130.916 197.906C131.542 197.555 132.025 197.029 132.361 196.328C132.718 195.603 132.898 194.67 132.898 193.524H135.888C135.888 195.09 135.573 196.422 134.947 197.52C134.342 198.618 133.503 199.459 132.428 200.044C131.374 200.605 130.165 200.885 128.8 200.885H128.397ZM151.995 200.885C149.98 200.885 148.38 200.429 147.192 199.518C146.006 198.582 145.412 197.064 145.412 194.961V185.357H140.441V182.623H145.513L146.688 176.909H148.771V182.623H156.53V185.357H148.771V194.681C148.771 195.476 148.928 196.129 149.241 196.644C149.556 197.158 150.013 197.531 150.618 197.765C151.223 198 151.985 198.116 152.902 198.116C153.62 198.116 154.279 198.022 154.884 197.835C155.511 197.625 156.059 197.404 156.53 197.169V199.868C155.992 200.195 155.31 200.44 154.481 200.605C153.654 200.791 152.824 200.885 151.995 200.885ZM349.532 200.534V185.357H343.385V182.623H352.891V200.534H349.532ZM343.385 200.534V197.835H358.701V200.534H343.385ZM349.397 178.942V175.577H352.555V178.942H349.397ZM370.176 200.885C368.765 200.885 367.51 200.686 366.414 200.289C365.339 199.868 364.487 199.273 363.861 198.501C363.257 197.706 362.955 196.773 362.955 195.697C362.955 195.627 362.955 195.522 362.955 195.382C362.955 195.242 362.965 195.09 362.988 194.926H365.877V195.277C365.877 196.258 366.28 197.029 367.086 197.59C367.913 198.127 369.089 198.396 370.613 198.396C371.977 198.396 373.008 198.151 373.703 197.66C374.419 197.145 374.778 196.479 374.778 195.662C374.778 195.125 374.631 194.681 374.341 194.33C374.049 193.98 373.522 193.675 372.762 193.419C372.023 193.163 370.949 192.917 369.538 192.683C368.037 192.402 366.828 192.063 365.91 191.666C364.991 191.246 364.332 190.709 363.929 190.054C363.526 189.377 363.324 188.536 363.324 187.53C363.324 186.362 363.626 185.392 364.231 184.621C364.835 183.85 365.675 183.265 366.75 182.868C367.846 182.472 369.122 182.272 370.579 182.272C371.855 182.272 372.997 182.472 374.005 182.868C375.034 183.265 375.852 183.825 376.457 184.551C377.062 185.252 377.364 186.104 377.364 187.109C377.364 187.18 377.364 187.261 377.364 187.355C377.364 187.449 377.341 187.576 377.295 187.74H374.375C374.375 186.899 374.183 186.268 373.804 185.848C373.445 185.403 372.951 185.111 372.326 184.971C371.721 184.807 371.049 184.726 370.31 184.726C367.711 184.726 366.414 185.567 366.414 187.25C366.414 187.694 366.548 188.067 366.817 188.371C367.086 188.652 367.567 188.908 368.261 189.142C368.977 189.377 369.995 189.622 371.318 189.879C372.951 190.183 374.24 190.555 375.181 191C376.142 191.445 376.837 192.017 377.263 192.718C377.687 193.395 377.901 194.284 377.901 195.382C377.901 196.62 377.586 197.649 376.961 198.466C376.356 199.284 375.47 199.893 374.307 200.289C373.165 200.686 371.788 200.885 370.176 200.885ZM272.13 293.669C270.427 291.636 269.107 289.346 268.166 286.798C267.247 284.25 266.789 281.611 266.789 278.876C266.789 276.166 267.247 273.538 268.166 270.99C269.107 268.442 270.427 266.152 272.13 264.119H274.011C273.205 265.451 272.476 266.935 271.828 268.571C271.177 270.183 270.662 271.866 270.282 273.619C269.9 275.371 269.711 277.124 269.711 278.876C269.711 280.605 269.9 282.358 270.282 284.134C270.662 285.911 271.166 287.604 271.794 289.217C272.443 290.853 273.182 292.337 274.011 293.669H272.13ZM1052.75 264.119C1054.47 266.152 1055.79 268.442 1056.71 270.99C1057.63 273.538 1058.09 276.177 1058.09 278.912C1058.09 281.6 1057.63 284.229 1056.71 286.798C1055.79 289.346 1054.47 291.636 1052.75 293.669H1050.9C1051.7 292.312 1052.42 290.829 1053.05 289.217C1053.7 287.604 1054.21 285.922 1054.59 284.169C1054.97 282.393 1055.16 280.64 1055.16 278.912C1055.16 277.159 1054.97 275.406 1054.59 273.654C1054.23 271.877 1053.73 270.183 1053.08 268.571C1052.43 266.935 1051.7 265.451 1050.9 264.119H1052.75Z" fill="var(--fill-0, #64C4FF)"/>
</svg>
