<svg preserveAspectRatio="none" width="100%" height="100%" overflow="visible" style="display: block;" viewBox="0 0 225.983 268.922" fill="none" xmlns="http://www.w3.org/2000/svg">
<path id="Vector" d="M188.94 142.11C188.82 120.076 198.786 103.446 218.959 91.1978C207.672 75.0476 190.621 66.162 168.107 64.4209C146.793 62.7398 123.498 76.8487 114.973 76.8487C105.967 76.8487 85.3141 65.0212 69.1038 65.0212C35.6026 65.5616 0 91.7382 0 144.992C0 160.722 2.88183 176.972 8.64548 193.743C16.3304 215.777 44.0679 269.811 73.0063 268.911C88.1359 268.55 98.8227 258.164 118.515 258.164C137.607 258.164 147.514 268.911 164.384 268.911C193.563 268.49 218.659 219.379 225.983 197.285C186.838 178.853 188.94 143.251 188.94 142.11ZM154.958 43.5276C171.349 24.0753 169.848 6.36404 169.367 0C154.898 0.840533 138.148 9.84625 128.602 20.9533C118.095 32.8408 111.911 47.5502 113.232 64.1207C128.902 65.3214 143.191 57.2763 154.958 43.5276Z" fill="var(--fill-0, #A2A3BD)"/>
</svg>
